<svg width="450" height="413" fill="none" xmlns="http://www.w3.org/2000/svg"><ellipse rx="194.508" ry="113.509" transform="scale(-1 1) rotate(-32.718 248.882 489.33)" fill="#8FF73E" fill-opacity=".15"/><g clip-path="url(#clip0)" fill-rule="evenodd" clip-rule="evenodd"><path d="M173.959 48.397c-3.405-3.997-5.71-8.896-5.325-14.385 1.11-15.814 23.125-12.335 27.407-4.353 4.282 7.982 3.773 28.228-1.761 29.655-2.207.569-6.909-.825-11.695-3.71l3.004 21.251h-17.736l6.106-28.458z" fill="#B28B67"/><path d="M189.035 20.965c-2.423-.739-5.941-.99-7.421-.82.842-2.017 1.176-4.264.904-6.452-.265-2.126-1.215-3.936-2.094-5.833-.405-.875-.864-1.744-1.548-2.413a5.29 5.29 0 00-2.505-1.346c-.947-.22-1.937-.201-2.885-.002-.42.088-.796.28-1.208.387-.421.109-.625-.155-.931-.42-.737-.638-1.818-.954-2.75-1.067-1.046-.126-2.132.032-3.13.376-.971.334-1.904.878-2.606 1.67-.312.353-.596.754-.781 1.197-.075.182-.088.29-.269.356-.168.062-.364.063-.537.122-1.675.567-3.106 1.861-3.886 3.522-.455.97-.67 2.675-.611 4.588.059 1.912 1.786 6.902 3.401 8.722 1.441 1.625 3.561 2.697 5.606 3.166-1.358 1.552-2.261 3.49-2.93 5.463a26.723 26.723 0 00-1.34 6.635c-.158 2.154-.173 4.432.333 6.54.472 1.973 1.482 3.59 3.169 4.616.773.47 1.604.823 2.44 1.146.824.318 1.651.628 2.514.806 1.634.338 3.516.28 4.775-1.02.453-.47.952-1.058 1.283-1.631.119-.206.19-.34.046-.542-.173-.241-.453-.426-.676-.614a6.366 6.366 0 01-2.251-4.217c-.201-1.731.264-3.965 1.947-4.72 2.077-.933 4.365.137 6.211 1.135.785-2.77 2.396-5.264 4.922-6.534 2.795-1.405 6.002-1.57 8.874-2.776.748-.314 1.511-.67 2.062-1.311.23-.267.5-.615.592-.969.121-.465-.179-.854-.411-1.217-1.228-1.921-5.885-5.804-8.309-6.543z" fill="#47183A"/></g><g clip-path="url(#clip1)" fill-rule="evenodd" clip-rule="evenodd"><path d="M159.725 130.801l26.792 94.02 19.547 69.297h14.258l-20.773-163.317h-39.824z" fill="#303039"/><path d="M159.725 130.801l26.792 94.02 19.547 69.297h14.258l-20.773-163.317h-39.824z" fill="url(#paint0_linear)"/><path d="M152.56 130.801c-.62 48.459-2.733 74.89-3.384 79.292-.651 4.403-10.489 32.411-29.515 84.025h14.77c24.221-49.514 37.742-77.523 40.563-84.025 2.821-6.501 11.525-32.932 24.636-79.292h-47.07z" fill="#303039"/><path d="M118.341 307.42l.739-15.519h15.519c7.358 5.173 16.965 9.361 28.821 12.563v2.956h-28.082l-9.607-1.478v1.478h-7.39zM204.064 307.42l.739-15.519h15.519c7.358 5.173 16.965 9.361 28.82 12.563v2.956h-28.081l-9.607-1.478v1.478h-7.39z" fill="#191847"/></g><g clip-path="url(#clip2)" fill-rule="evenodd" clip-rule="evenodd"><path d="M226.267 135.326l20.934 20.422c6.091 2.598 11.081 5.467 14.972 8.607.875 1.055 1.827 3.077-2.289 2.172-4.117-.904-8.487-1.671-9.261-.332-.773 1.338 1.506 3.39.076 5.142-.953 1.168-4.158-2.548-9.617-11.146l-21.768-12.834 6.953-12.031zm-92.919 2.88l15.443.061c-9.535 30.782-14.683 47.114-15.443 48.998-1.709 4.237 1.909 10.692 3.457 14.16-5.04 2.255-4.503-6.097-10.861-3.139-5.803 2.7-10.218 7.592-16.922 3.455-.825-.509-1.728-2.424.455-3.921 5.437-3.728 13.272-10.253 14.331-12.401 1.444-2.929 4.624-18.666 9.54-47.213z" fill="#B28B67"/><path d="M177.235 73.406l6.39-1.096c11.002 27.483 30.21 52.455 57.624 74.916l-20.716 25.167c-27.41-31.981-44.307-64.977-43.298-98.987z" fill="#7D1818"/><path d="M177.235 73.406l6.39-1.096c11.002 27.483 30.21 52.455 57.624 74.916l-20.716 25.167c-27.41-31.981-44.307-64.977-43.298-98.987z" fill="#000" fill-opacity=".12"/><path d="M149.379 153.71h56.902c-13.183-32.053-19.774-59.283-19.774-81.687l-17.165-2.558c-13.49 21.696-17.299 48.408-19.963 84.245z" fill="#DDE3E9"/><path d="M168.979 69.478l.006-.013h1.121c1.34.046 3.382.13 6.126.25l4.147 11.853c.439 14.451 3.001 43.574 7.687 87.37h-37.301c.098 3.025.259 6.078.484 9.159h-27.735c4.149-46.805 19.299-83.015 45.451-108.632l.014.013z" fill="#7D1818"/><path d="M153.229 130.235c1.062 18.855 3.719 31.853 7.974 38.994h-10.428c-.457-13.566.361-26.564 2.454-38.994z" fill="#000" fill-opacity=".1"/><path d="M159.068 146.32l18.392-8.55v8.55h-18.392z" fill="#fff" fill-opacity=".2"/></g><path d="M356.444 245.641h9.754l3.104 62.075h-12.858v-62.075z" fill="#ECC098"/><path fill="#F1D1B4" d="M273.972 245.641h82.471v62.075h-82.471z"/><path d="M293.925 221.697l21.727 3.104-17.736 20.84h-23.944l19.953-23.944z" fill="#ECC098"/><path d="M345.802 225.244l5.764-1.773 14.632 22.169h-9.754l-10.642-20.396z" fill="#F1D1B4"/><defs><clipPath id="clip0"><path fill="#fff" transform="translate(127.948)" d="M0 0h100.503v76.855H0z"/></clipPath><clipPath id="clip1"><path fill="#fff" transform="translate(65.134 130.801)" d="M0 0h221.697v176.619H0z"/></clipPath><clipPath id="clip2"><path fill="#fff" transform="translate(82.87 69.465)" d="M0 0h189.182v138.191H0z"/></clipPath><linearGradient id="paint0_linear" x1="190.023" y1="130.801" x2="190.023" y2="294.118" gradientUnits="userSpaceOnUse"><stop stop-opacity=".12"/><stop offset="1" stop-color="#fff" stop-opacity="0"/></linearGradient></defs></svg>