<svg width="113" height="139" fill="none" xmlns="http://www.w3.org/2000/svg"><rect width="111" height="98" rx="49" fill="#387800" fill-opacity=".1"/><path d="M56 75.666c14.727 0 26.666-11.939 26.666-26.666 0-14.728-11.939-26.667-26.666-26.667-14.728 0-26.667 11.94-26.667 26.667 0 14.727 11.94 26.666 26.667 26.666zM37.147 30.146l37.706 37.707" stroke="#387800" stroke-width="3" stroke-linecap="round" stroke-linejoin="round"/><path d="M57.5 34H47a3 3 0 00-3 3v24a3 3 0 003 3h18a3 3 0 003-3V44.5L57.5 34z" stroke="#387800" stroke-width="3" stroke-linecap="round" stroke-linejoin="round"/><path d="M57.5 34v10.5H68" stroke="#387800" stroke-width="3" stroke-linecap="round" stroke-linejoin="round"/><path d="M14.1 134a88.294 88.294 0 00-1.672-2.684 109.76 109.76 0 00-1.914-2.904 60.598 60.598 0 00-2.024-2.838 46.49 46.49 0 00-1.936-2.486V134H3.826v-15.246h2.266a32.338 32.338 0 011.892 2.2c.675.836 1.35 1.709 2.024 2.618a67.97 67.97 0 011.98 2.75 55.83 55.83 0 011.716 2.552v-10.12h2.75V134H14.1zm16.285-5.764c0 .909-.132 1.738-.396 2.486a5.503 5.503 0 01-1.122 1.914 5.016 5.016 0 01-1.76 1.232c-.674.293-1.422.44-2.244.44-.821 0-1.57-.147-2.244-.44a5.066 5.066 0 01-1.738-1.232 5.781 5.781 0 01-1.144-1.914c-.264-.748-.396-1.577-.396-2.486 0-.909.132-1.731.396-2.464a5.781 5.781 0 011.144-1.914 5.043 5.043 0 011.76-1.21 5.518 5.518 0 012.222-.44 5.52 5.52 0 012.222.44 4.79 4.79 0 011.76 1.21 5.503 5.503 0 011.122 1.914c.279.733.418 1.555.418 2.464zm-2.728 0c0-1.144-.25-2.046-.748-2.706-.484-.675-1.166-1.012-2.046-1.012-.88 0-1.57.337-2.068 1.012-.484.66-.726 1.562-.726 2.706 0 1.159.242 2.075.726 2.75.499.675 1.188 1.012 2.068 1.012.88 0 1.562-.337 2.046-1.012.499-.675.748-1.591.748-2.75zm5.47-5.368c.514-.147 1.181-.286 2.003-.418.82-.132 1.73-.198 2.728-.198.938 0 1.723.132 2.354.396.63.249 1.129.609 1.496 1.078.38.455.645 1.012.792 1.672.16.645.242 1.357.242 2.134V134H40.08v-6.05c0-.616-.044-1.137-.132-1.562-.074-.44-.206-.792-.396-1.056a1.435 1.435 0 00-.748-.594c-.308-.132-.69-.198-1.144-.198-.338 0-.69.022-1.056.066-.367.044-.638.081-.814.11V134h-2.662v-11.132zm12.232 5.434c0-1.012.146-1.899.44-2.662.308-.763.711-1.393 1.21-1.892a4.767 4.767 0 011.716-1.144 5.186 5.186 0 011.98-.396c1.584 0 2.816.491 3.696 1.474.894.983 1.342 2.449 1.342 4.4 0 .147-.008.315-.022.506 0 .176-.008.337-.022.484h-7.59c.073.924.396 1.643.968 2.156.586.499 1.43.748 2.53.748.645 0 1.232-.059 1.76-.176.542-.117.968-.242 1.276-.374l.352 2.178a4.96 4.96 0 01-.616.242c-.25.073-.543.139-.88.198a10.165 10.165 0 01-2.222.242c-1.012 0-1.892-.147-2.64-.44-.748-.308-1.364-.726-1.848-1.254a5.26 5.26 0 01-1.078-1.892 7.833 7.833 0 01-.352-2.398zm7.722-1.188a3.39 3.39 0 00-.154-1.034 2.303 2.303 0 00-.462-.858 1.86 1.86 0 00-.726-.572c-.279-.147-.616-.22-1.012-.22-.41 0-.77.081-1.078.242a2.456 2.456 0 00-.792.594 2.885 2.885 0 00-.484.858 4.66 4.66 0 00-.242.99h4.95zm20.013-4.62c-1.188 4.371-2.567 8.331-4.136 11.88-.293.66-.594 1.225-.902 1.694a5.032 5.032 0 01-1.034 1.166 3.534 3.534 0 01-1.276.66c-.47.147-1.012.22-1.628.22-.41 0-.821-.044-1.232-.132-.396-.088-.697-.183-.902-.286l.484-2.134a4.295 4.295 0 001.562.308c.69 0 1.224-.169 1.606-.506.396-.323.74-.829 1.034-1.518a63.913 63.913 0 01-2.42-5.28 60.128 60.128 0 01-2.046-6.072h2.838c.147.616.323 1.283.528 2.002.22.719.455 1.452.704 2.2.25.733.513 1.467.792 2.2.278.733.557 1.415.836 2.046.47-1.305.91-2.691 1.32-4.158.41-1.481.785-2.911 1.122-4.29h2.75zm1.376 5.808c0-1.012.147-1.899.44-2.662.308-.763.711-1.393 1.21-1.892a4.765 4.765 0 011.716-1.144 5.185 5.185 0 011.98-.396c1.584 0 2.816.491 3.696 1.474.895.983 1.342 2.449 1.342 4.4 0 .147-.007.315-.022.506 0 .176-.007.337-.022.484h-7.59c.073.924.396 1.643.968 2.156.587.499 1.43.748 2.53.748a8.15 8.15 0 001.76-.176c.543-.117.968-.242 1.276-.374l.352 2.178a4.967 4.967 0 01-.616.242c-.25.073-.543.139-.88.198a10.166 10.166 0 01-2.222.242c-1.012 0-1.892-.147-2.64-.44-.748-.308-1.364-.726-1.848-1.254a5.259 5.259 0 01-1.078-1.892 7.83 7.83 0 01-.352-2.398zm7.722-1.188c0-.367-.051-.711-.154-1.034a2.306 2.306 0 00-.462-.858 1.861 1.861 0 00-.726-.572c-.279-.147-.616-.22-1.012-.22-.41 0-.77.081-1.078.242a2.456 2.456 0 00-.792.594 2.88 2.88 0 00-.484.858 4.653 4.653 0 00-.242.99h4.95zm5.352-7.656l2.662-.44v3.476h4.092v2.222h-4.092v4.686c0 .924.147 1.584.44 1.98.294.396.792.594 1.496.594.484 0 .91-.051 1.276-.154.382-.103.682-.198.902-.286l.44 2.112a9.017 9.017 0 01-1.21.396c-.498.147-1.085.22-1.76.22-.82 0-1.51-.11-2.068-.33-.542-.22-.975-.535-1.298-.946a3.884 3.884 0 01-.682-1.518 9.581 9.581 0 01-.198-2.046v-9.966zm12.513 13.09c0 .513-.176.931-.528 1.254a1.715 1.715 0 01-1.232.484c-.499 0-.917-.161-1.254-.484-.337-.323-.506-.741-.506-1.254s.169-.931.506-1.254a1.704 1.704 0 011.254-.506c.484 0 .895.169 1.232.506.352.323.528.741.528 1.254zm5.844 0c0 .513-.176.931-.528 1.254a1.714 1.714 0 01-1.232.484c-.499 0-.917-.161-1.254-.484-.337-.323-.506-.741-.506-1.254s.169-.931.506-1.254a1.703 1.703 0 011.254-.506c.484 0 .895.169 1.232.506.352.323.528.741.528 1.254zm5.844 0c0 .513-.176.931-.528 1.254a1.716 1.716 0 01-1.232.484c-.499 0-.917-.161-1.254-.484-.338-.323-.506-.741-.506-1.254s.168-.931.506-1.254a1.703 1.703 0 011.254-.506c.484 0 .894.169 1.232.506.352.323.528.741.528 1.254z" fill="#387800"/></svg>