<svg width="496" height="477" fill="none" xmlns="http://www.w3.org/2000/svg"><path fill-rule="evenodd" clip-rule="evenodd" d="M145.935 95.992c7.867 2.262 15.051 2.448 17.96.807 7.295-4.116.347-32.927-8.738-42.584-9.086-9.658-41.569-6.224-37.151 16.55 1.534 7.904 6.652 13.953 12.986 18.311l2.135 42.54 25.108-6.727-12.3-28.897z" fill="#B28B67"/><path fill-rule="evenodd" clip-rule="evenodd" d="M147.675 42.941c5.471-.78 9.976-1.424 11.56-3.15 3.647 8.163 1.095 16.216-14.713 19.027-2.898 2.816-4.367 7.031-6.033 12.49a6.493 6.493 0 00-2.411.183c-3.466.93-5.525 4.488-4.598 7.95a6.464 6.464 0 003.093 3.976 98.419 98.419 0 01-3.233 7.717c-8.078-2.305-16.511-13.07-13.008-26.582-.402-17.364 16.95-19.841 29.343-21.61z" fill="#191847"/><path fill-rule="evenodd" clip-rule="evenodd" d="M138.635 218.28l39.674 136.497 18.661 102.485h18.73L197.003 218.28h-58.368z" fill="#997659"/><path fill-rule="evenodd" clip-rule="evenodd" d="M120.805 218.28c2.768 70.91 1.676 109.586 1.057 116.028-.62 6.443-4.137 49.59-28.106 125.117h19.481c31.742-72.455 42.824-115.603 46.464-125.117 3.641-9.514 14.393-48.19 30.092-116.028h-68.988z" fill="#B28B67"/><path fill-rule="evenodd" clip-rule="evenodd" d="M137.783 218.28c10.32 46.969 28.169 121.944 53.547 224.924h27.395c2.023-105.699-6.584-175.267-21.49-224.924h-59.452z" fill="#210377"/><path fill-rule="evenodd" clip-rule="evenodd" d="M120.666 218.28c2.712 70.91-4.315 140.769-26.08 226.028h29.229c31.801-71.373 54.594-140.888 70.172-226.028h-73.321z" fill="#260489"/><path fill-rule="evenodd" clip-rule="evenodd" d="M90.98 473.482l.996-16.053c.04-.64.662-1.078 1.289-.941 9.395 2.045 22.436-2.47 22.436-2.47 13.159 9.306 32.186 13.527 38.623 14.747 1.182.224 1.932 1.415 1.603 2.573l-1.53 5.388H93.129l-2.15-3.244zM192.789 473.482l.997-16.053c.04-.64.663-1.078 1.289-.941 9.395 2.045 22.436-2.47 22.436-2.47 13.159 9.306 32.186 13.527 38.623 14.747 1.182.224 1.932 1.415 1.603 2.573l-1.53 5.388h-61.268l-2.15-3.244z" fill="#191847"/><path fill-rule="evenodd" clip-rule="evenodd" d="M58.877 274.084c3.174-6.43 17.536-72.08 17.536-72.08l19.382.086s-21.267 70.558-22.938 74.693c-2.17 5.371 1.514 13.174 4.013 18.465.387.818.745 1.577 1.049 2.257-3.469 1.55-5.135-.323-6.89-2.298-1.984-2.23-4.083-4.59-9.025-2.294-1.91.888-3.716 1.937-5.482 2.961-6.097 3.54-11.698 6.792-19.317 2.098-1.208-.744-2.531-3.546.667-5.737 7.969-5.457 19.453-15.007 21.005-18.151zm211.766-69.892L232.22 185.24l-4.246 19.89 36.152 8.014c11.501 9.498 17.651 13.218 18.451 11.161.674-1.734-.328-3.07-1.251-4.3-.719-.959-1.39-1.853-1.183-2.822.472-2.213 6.911-3.124 13.058-3.727 6.147-.603 3.904-2.986 2.207-4.059-6.844-2.61-15.099-4.345-24.765-5.205z" fill="#B28B67"/><path fill-rule="evenodd" clip-rule="evenodd" d="M155.154 107.598l-10.584 6.682c.644 2.954 1.379 7.188 2.22 12.038 2.641 15.224 6.335 36.524 11.605 43.385 18.257 23.77 48.671 32.466 82.545 42.152 4.541 1.298 9.143 2.614 13.787 3.986l5.499-19.008a270.278 270.278 0 01-3.331-1.601 4.864 4.864 0 00-1.65-9.056c-5.408-.818-10.297-.702-14.619.384-36.711-21.258-63.784-48.948-85.472-78.962z" fill="#69A1AC"/><path fill-rule="evenodd" clip-rule="evenodd" d="M124.68 235.808s51.273-3.353 79.183-13.962c2.305-.877.39-11.126-1.211-13.735-24.928-40.63-41.898-70.599-47.246-100.93-4.305 3.309-16.466 3.668-16.466 3.668-15.729 35.002-19.169 72.587-14.26 124.959z" fill="#191847"/><path fill-rule="evenodd" clip-rule="evenodd" d="M60.98 247.584c14.727-89.81 68.95-137.78 68.95-137.78l1.66-.293 4.102-.723 6.369-1.123c1.825 18.384 12.936 43.646 25.825 72.951 20.615 46.867 45.777 104.076 44.777 160.033-12.449 5.174-28.023 5.886-44.883 6.658-24.334 1.112-51.346 2.348-75.508 17.296-2.82-21.848 5.624-48.072 14.029-74.178 5.31-16.493 10.605-32.939 13.035-48.205a4.496 4.496 0 01-2.18-3.856l.002-3.977a4.502 4.502 0 013.47-4.382c.073-1.631.1-3.244.078-4.835-.117-8.28-2.351-16.088-4.56-23.808-1.213-4.239-2.418-8.452-3.262-12.701-12.045 15.225-25.43 40.428-33.252 81.4l-21.188-2.366c.266-2.993.578-5.946.932-8.858-2.558-.872-6.382-6.48-4.597-7.842a23.95 23.95 0 016.202-3.411z" fill="#89C5CC"/><path fill-rule="evenodd" clip-rule="evenodd" d="M134.523 110.092L132 127.958l13.315 10.712-8.26 11.719 31.532 37.148-36.918-36.113 8.067-11.771-11.81-9.458 6.597-20.103z" fill="#000" fill-opacity=".1"/><path fill-rule="evenodd" clip-rule="evenodd" d="M164.298 204.764a4.328 4.328 0 003.515-5.012 4.327 4.327 0 00-5.017-3.507 4.328 4.328 0 00-3.516 5.012 4.33 4.33 0 005.018 3.507zm9.652 23.553a4.328 4.328 0 003.515-5.012 4.328 4.328 0 00-5.017-3.507 4.328 4.328 0 00-3.516 5.012 4.33 4.33 0 005.018 3.507zm8.901 19.294a4.33 4.33 0 01-3.516 5.012 4.329 4.329 0 01-5.017-3.508 4.33 4.33 0 013.515-5.012 4.33 4.33 0 015.018 3.508z" fill="#000" fill-opacity=".4"/><path fill-rule="evenodd" clip-rule="evenodd" d="M316.369 227.764l50.098 132.508 35.116 97.667h20.022l-48.269-230.175h-56.967z" fill="#484F84"/><path fill-rule="evenodd" clip-rule="evenodd" d="M303.987 227.764c-.544 45.466-.151 106.679-1.42 109.514-1.268 2.834-78.931 64.583-78.931 64.583l10.32 17.542s92.204-59.436 96.918-67.355c4.714-7.918 28.396-80.787 40.718-124.284h-67.605z" fill="#525A96"/><path fill-rule="evenodd" clip-rule="evenodd" d="M205.479 413.665l17.431-13.261 14.065 16.755c1.623 18.946 12.551 42.497 12.551 42.497l-3.192 2.678-25.451-30.318-7.11-11.711-1.597 1.339-6.697-7.979zM399.725 476.686l1.042-21.872h21.88c15.563 10.936 40.636 17.706 40.636 17.706v4.166h-39.594l-13.545-2.083v2.083h-10.419z" fill="#191847"/><path fill-rule="evenodd" clip-rule="evenodd" d="M407.381 143.078l-36.166 19.799 13.355 14.329 26.279-24.051c13.844-3.814 20.174-6.604 18.993-8.37-.997-1.489-2.604-1.437-4.085-1.39-1.153.038-2.229.072-2.88-.626-1.486-1.594 1.349-7.169 4.266-12.344s-.202-4.725-1.986-3.98c-5.837 3.949-11.762 9.494-17.776 16.633zm36.362 27.781l-15.886 8.724.905 15.935s10.289-7.423 19.14-9.89c11.287-3.145 15.853-5.548 21.369-12.572 2.951-3.759 5.455-11.314 2.646-13.775-1.077-.944-5.092 1.286-9.188 3.562-3.122 1.734-6.291 3.494-8.244 3.896-2.628.541-2.32-2.865-2.074-5.586.176-1.953.321-3.553-.674-3.091-4.65.08-7.994 12.797-7.994 12.797z" fill="#997659"/><path fill-rule="evenodd" clip-rule="evenodd" d="M353.602 158.467c12.668-.134 29.56-2.809 47.584-14.245l7.078 15.779c-12.432 12.333-29.914 22.467-45.199 22.038-12.046-.339-18.202-14.903-9.463-23.572z" fill="#396A5E"/><path fill-rule="evenodd" clip-rule="evenodd" d="M319.437 266.569c-12.043-1.57-23.108-3.012-29.666-1.721-7.358-23.885-1.248-38.924 4.392-52.807 3.399-8.367 6.628-16.314 6.635-25.525.02-26.824 21.567-68.112 24.737-68.112H354.446c1.292 16.599 6.809 34.571 12.361 52.659 1.296 4.224 2.595 8.454 3.842 12.675 21.011 4.767 67.665-11.827 67.665-11.827s11.778 24.356 10.889 34.727c-27.155 14.18-50.43 20.501-69.605 20.919.609 11.373-.776 22.195-5.428 32.083-6.234 13.249-32.194 9.866-54.733 6.929z" fill="#447E70"/><path fill-rule="evenodd" clip-rule="evenodd" d="M345.476 111.368c6.747 4.065 13.377 6.03 16.489 5.228 7.803-2.011 8.521-30.546 2.483-41.796s-37.078-16.153-38.642 6.136c-.543 7.736 2.706 14.64 7.507 20.273l-8.609 40.109h25.007l-4.235-29.95z" fill="#B28B67"/><path fill-rule="evenodd" clip-rule="evenodd" d="M361.136 70.956c.558.187 0-2.209-1.332-3.085-4.085-2.686-16.246-6.663-24.562-4.937-5.57 1.156-12.518 4.057-16.967 7.756-4.012 3.334-7.661 9.213-9.082 14.377-1.491 5.423-2.054 12.968 0 17.699 2.448 5.635 11.115 11.707 11.344 12.514.261.92-.763 4.515-1.513 8.304-.749 3.788-.408 13.434 0 15.007.653 2.514 4.154 3.75 5.68 3.932 8.441 1.006 14.559 11.479 17.105 14.159 0 0 17.001 17.061 23.73 14.84 1.181-.39-.589-14.523-1.77-20.581s-12.761-16.868-13.502-20.43c-.437-2.099-.51-5.752-.556-5.919-1.092-7.526-.904-8.138-2.497-11.205s-2.828-3.247-2.445-4.14c1.87-4.365 7.887-17.72 9.252-22.088 1.627-5.205.858-3.496 2.535-8.683.743-2.297 1.688-8.492 4.58-7.52z" fill="#89C5CC"/><mask id="a" maskUnits="userSpaceOnUse" x="307" y="62" width="59" height="110"><path fill-rule="evenodd" clip-rule="evenodd" d="M361.136 70.956c.558.187 0-2.209-1.332-3.085-4.085-2.686-16.246-6.663-24.562-4.937-5.57 1.156-12.518 4.057-16.967 7.756-4.012 3.334-7.661 9.213-9.082 14.377-1.491 5.423-2.054 12.968 0 17.699 2.448 5.635 11.115 11.707 11.344 12.514.261.92-.763 4.515-1.513 8.304-.749 3.788-.408 13.434 0 15.007.653 2.514 4.154 3.75 5.68 3.932 8.441 1.006 14.559 11.479 17.105 14.159 0 0 17.001 17.061 23.73 14.84 1.181-.39-.589-14.523-1.77-20.581s-12.761-16.868-13.502-20.43c-.437-2.099-.51-5.752-.556-5.919-1.092-7.526-.904-8.138-2.497-11.205s-2.828-3.247-2.445-4.14c1.87-4.365 7.887-17.72 9.252-22.088 1.627-5.205.858-3.496 2.535-8.683.743-2.297 1.688-8.492 4.58-7.52z" fill="#fff"/></mask><g mask="url(#a)"><path fill-rule="evenodd" clip-rule="evenodd" d="M337.793 88.348c-.393-7.92 0-11.015 1.828-16.812h-1.127c-1.782 2.3-3.272 9.338-1.597 16.812h.896zm-22.087-.373l-.606-1.478-.716.344c2.26 8.265 5.01 14.646 14.452 19.995l.735-.514c-8.93-6.277-10.845-10.96-13.865-18.347zm13.389-9.885l.273 2.096c1.357 10.472 2.218 17.112 9.785 29.155l-.858.262c-8.294-11.168-9.609-20.284-10.001-31.449l.801-.064zm-8.169 33.941l-.734.891c3.675.769 6.173 3.47 9.038 6.567 3.03 3.277 6.47 6.996 12.146 9.338l1.053-.639c-6.195-3.219-9.076-6.419-11.593-9.213-2.605-2.893-4.818-5.35-9.91-6.944z" fill="#000" fill-opacity=".2"/></g></svg>