<svg width="70" height="70" viewBox="0 0 70 70" fill="none" xmlns="http://www.w3.org/2000/svg">
<circle cx="35" cy="35" r="35" fill="#A1DA2A"/>
<path d="M50.8333 42.79V47.54C50.8351 47.981 50.7448 48.4174 50.5681 48.8215C50.3915 49.2255 50.1324 49.5882 49.8075 49.8863C49.4825 50.1844 49.0989 50.4113 48.6812 50.5526C48.2635 50.6939 47.8208 50.7463 47.3817 50.7067C42.5095 50.1773 37.8294 48.5124 33.7175 45.8458C29.8919 43.4149 26.6484 40.1714 24.2175 36.3458C21.5416 32.2152 19.8764 27.5124 19.3567 22.6183C19.3171 22.1805 19.3691 21.7392 19.5095 21.3226C19.6498 20.9059 19.8753 20.5231 20.1717 20.1984C20.4681 19.8737 20.8289 19.6143 21.231 19.4367C21.6331 19.259 22.0679 19.1671 22.5075 19.1667H27.2575C28.0259 19.1591 28.7708 19.4312 29.3535 19.9323C29.9361 20.4333 30.3166 21.1291 30.4242 21.89C30.6246 23.4101 30.9965 24.9026 31.5325 26.3392C31.7455 26.9059 31.7916 27.5218 31.6653 28.1139C31.5391 28.706 31.2457 29.2495 30.82 29.68L28.8092 31.6908C31.0631 35.6548 34.3452 38.9369 38.3092 41.1908L40.32 39.18C40.7505 38.7543 41.294 38.4609 41.8861 38.3346C42.4782 38.2084 43.0941 38.2545 43.6608 38.4675C45.0973 39.0035 46.5899 39.3753 48.11 39.5758C48.8791 39.6843 49.5815 40.0717 50.0837 40.6644C50.5858 41.257 50.8526 42.0135 50.8333 42.79Z" stroke="white" stroke-width="3" stroke-linecap="round" stroke-linejoin="round"/>
</svg>
