<svg width="718" height="433" fill="none" xmlns="http://www.w3.org/2000/svg"><path fill-rule="evenodd" clip-rule="evenodd" d="M562.065 80.244c-6.476 3.903-12.839 5.79-15.825 5.02-7.49-1.931-8.178-29.329-2.383-40.13 5.794-10.801 35.585-15.509 37.086 5.892.521 7.427-2.597 14.055-7.205 19.464L582 109h-24l4.065-28.756z" fill="#B28B67"/><path fill-rule="evenodd" clip-rule="evenodd" d="M591.407 43.902c.775-.769 1.198-1.865 1.563-2.906.38-1.082.749-2.174 1.002-3.3.503-2.25.508-4.836-1.096-6.582-1.287-1.4-3.218-2.03-5-2.166a9.187 9.187 0 00-3.545.45c-1.129.37-2.102 1.11-3.197 1.57-.042-2.424-.457-4.96-1.687-7.03-1.183-1.991-3.069-3.109-5.218-3.404-2.205-.304-4.383.212-6.357 1.28-.494.267-.984.547-1.453.864-.392.266-.8.586-1.26.694-.514.12-.768-.176-1.101-.55a8.425 8.425 0 00-1.298-1.17c-2.062-1.515-4.767-2.138-7.156-1.23-1.1.42-2.171 1.13-2.917 2.11-.666.872-1.141 2.257-2.059 2.866-.39.258-.665-.084-1.02-.337-.533-.38-1.042-.8-1.581-1.169-.758-.52-1.579-.907-2.457-1.11-1.287-.298-3.064-.229-3.432 1.456-.138.633-.032 1.31.012 1.948.061.875.125 1.75.201 2.625.058.663.131 1.305.256 1.956.067.348.276.996.127 1.344-.186.434-1.045.187-1.413.202-.725.03-1.453.157-2.124.467-.519.24-1.066.594-1.285 1.19-.135.365-.099.741-.036 1.118.077.451-.011.691-.068 1.147-.974-.48-4.349-1.545-4.773.2-.142.581.18 1.238.426 1.728.431.86.996 1.646 1.573 2.395 1.205 1.563 2.643 2.912 4.19 4.065-1.813.806-2.286 3.183-.717 4.6.693.625 1.625.764 2.499.724.32-.015.781-.138 1.033-.082.136.03.281.145.468.157 1.234.085 2.627-.212 3.833-.486 2.148-.488 4.183-1.506 5.844-3.056.426-.398.778-.627 1.352-.621.502.005.996.143 1.498.155 1.328.034 2.526-.615 3.76-1.047.076 1.666.551 3.502 1.232 5.002.556 1.222 1.717 1.4 2.858 1.508 3.649.343 7.31-.04 10.964-.035-3.537.8-7.191 1.129-10.696 2.07-1.584.424-.374 1.492.303 2.232 1.115 1.22 1.945 2.73 2.52 4.32 1.73-2.254 4.788-3.74 7.497-3.047 2.993.765 5.101 4.813 3.187 7.723-1.112 1.689-3.118 2.341-4.788 3.067 1.302 1.354 1.618 3.354 2.402 5.04.386.83.929 1.77 1.794 2.06.32.106.695.115.947.376.313.323.387.684.787.962 1.593 1.107 4.082 1.022 5.494-.424 1.277-1.307.945-3.376-.122-4.701 1.698-.708 4.791-1.618 4.116-4.263 3.679-.244 12.611-6.21 7.674-10.57 2.71-1.532 5.199-5.275 3.459-8.574-1.341-2.54-4.458-3.677-7.015-3.811" fill="#191847"/><path fill-rule="evenodd" clip-rule="evenodd" d="M625.377 234h-77.254L538 358h115l-27.623-124z" fill="#C5CFD6"/><path fill-rule="evenodd" clip-rule="evenodd" d="M625.377 234h-23.76l-14.221 124H653l-27.623-124z" fill="#000" fill-opacity=".1"/><path fill-rule="evenodd" clip-rule="evenodd" d="M505.677 258.567c8.681 18.411 22.246 63.105 22.246 63.105l-11.516 5.262s-29.221-46.982-47.079-79.098c.832 7.23 1.679 15.37 2.464 23.927 1.861 20.27.001 64.064-1 76.714-.629 7.951-11.432 6.285-12.44-.02-.171-1.068-.867-4.818-1.906-10.412-5.093-27.432-18.422-99.227-18.446-116.807-.009-7.073 13.81-13.428 22.047-8.482 5.658-6.037 16.365-9.516 22.517.456 3.911 6.34 13.203 24.338 23.113 45.355z" fill="#B28B67"/><path fill-rule="evenodd" clip-rule="evenodd" d="M527.1 305.125l-39.527-93.638c-9.47-15.232-36.019 3.1-32.79 11.935 7.331 20.057 44.617 84.992 46.802 90.968l25.515-9.265z" fill="#2E2E2E"/><path fill-rule="evenodd" clip-rule="evenodd" d="M526.336 316.185c.693-.944 2.034-1.168 2.93-.414 1.635 1.375 3.986 3.493 4.835 4.963 1.352 2.342 3.166 7.287 3.166 7.287l-48.845 28.201s-5.538-5.195-1.726-8.065c3.812-2.871 6.292-4.842 6.292-4.842l16.86-23.228a1 1 0 011.419-.205l3.503 2.697s4.821-.42 7.195-1.791c1.445-.835 3.211-3.02 4.371-4.603zM470.55 342.284c1.072-.471 2.346.006 2.745 1.107.728 2.007 1.705 5.018 1.705 6.715 0 2.705-.901 7.894-.901 7.894h-56.402s-2.199-7.268 2.538-7.848c4.737-.579 7.87-1.046 7.87-1.046l26.215-11.687a1 1 0 011.332.532l1.685 4.088s4.385 2.046 7.126 2.046c1.669 0 4.291-1.011 6.087-1.801z" fill="#E4E4E4"/><path fill-rule="evenodd" clip-rule="evenodd" d="M435.23 228.433c0 26.567 12.616 88.537 12.624 94.387l27.146.021s-5.96-82.943-4.227-83.837c1.734-.893 71.051 6.921 91.841 6.921 29.978 0 42.38-18.905 43.386-53.925h-59.386c-12.092 1.294-75.163 14.015-98.586 18.388-10.028 1.873-12.798 10.727-12.798 18.045z" fill="#393939"/><path fill-rule="evenodd" clip-rule="evenodd" d="M502.652 110.69l34.71 19.01-12.818 13.758-25.221-23.093c-13.286-3.661-19.362-6.34-18.228-8.036.957-1.429 2.499-1.38 3.92-1.334 1.107.036 2.14.069 2.765-.601 1.426-1.531-1.295-6.884-4.095-11.853-2.799-4.968.194-4.536 1.906-3.821 5.602 3.792 11.289 9.115 17.061 15.97zm-34.899 26.674L483 145.74l-.868 15.3s-9.875-7.127-18.37-9.496c-10.833-3.02-15.215-5.326-20.508-12.071-2.833-3.609-5.236-10.863-2.54-13.225 1.034-.907 4.887 1.234 8.818 3.419 2.996 1.665 6.038 3.355 7.912 3.741 2.522.519 2.227-2.751 1.991-5.364-.169-1.874-.308-3.411.647-2.967 4.463.077 7.671 12.287 7.671 12.287z" fill="#997659"/><path fill-rule="evenodd" clip-rule="evenodd" d="M554.266 125.465c-12.158-.128-28.37-2.696-45.668-13.676l-6.794 15.15c11.932 11.841 28.71 21.571 43.38 21.159 11.561-.325 17.469-14.309 9.082-22.633z" fill="#787DDE"/><path fill-rule="evenodd" clip-rule="evenodd" d="M587.055 229.259c11.558-1.507 22.179-2.892 28.472-1.653 7.062-22.933 1.198-37.372-4.215-50.701-3.262-8.034-6.361-15.664-6.368-24.508C604.925 126.642 584.246 87 581.203 87h-27.747c-1.24 15.937-6.535 33.193-11.863 50.56a1195.91 1195.91 0 00-3.688 12.169c-20.165 4.578-64.941-11.356-64.941-11.356s-11.304 23.386-10.451 33.344c26.063 13.614 48.4 19.684 66.804 20.085-.585 10.919.744 21.31 5.209 30.804 5.983 12.721 30.898 9.473 52.529 6.653z" fill="#969AE5"/><path fill-rule="evenodd" clip-rule="evenodd" d="M311.996 57.863c4.361 2.742 8.645 4.067 10.656 3.526 5.043-1.356 5.506-20.605 1.604-28.193-3.901-7.588-23.96-10.896-24.971 4.14-.351 5.217 1.749 9.874 4.852 13.674l-5.564 27.055h16.16l-2.737-20.202z" fill="#B28B67"/><path fill-rule="evenodd" clip-rule="evenodd" d="M331.416 22.677c-.335-1.228-1.235-2.279-2.448-2.59a3.095 3.095 0 00-.901-.094c-.108.005-.139.037-.19-.042-.037-.059-.038-.202-.054-.271a5.313 5.313 0 00-.182-.633c-.254-.704-.681-1.328-1.195-1.853-.962-.982-2.261-1.66-3.611-1.782-.739-.067-1.473.058-2.171.309-.362.13-.713.291-1.054.47-.103.054-.437.317-.54.3-.114-.019-.343-.314-.436-.388-1.145-.918-2.56-1.278-3.987-1.267-1.611.012-3.161.096-4.505 1.12a9.181 9.181 0 00-.813.705 7.033 7.033 0 00-.613.674c-.12.153-.101.203-.269.097-.647-.41-1.396-.602-2.151-.505a4.656 4.656 0 00-1.297.383c-.141.063-.468.313-.618.316-.149.002-.47-.23-.624-.29a4.915 4.915 0 00-2.594-.25 6.531 6.531 0 00-2.543 1.044c-.367.248-.686.524-.943.894-.111.16-.211.328-.336.476-.074.087-.22.176-.259.286.024-.066-.983-.47-1.078-.497a2.55 2.55 0 00-1.517.06c-.932.32-1.733 1.038-2.392 1.774a7.071 7.071 0 00-.885 1.24 7.94 7.94 0 00-.332.657c-.049.108-.081.244-.145.341-.083.126-.139.129-.289.184a4.654 4.654 0 00-1.987 1.388 4.87 4.87 0 00-1.029 2.276c-.009.049-.014.253-.041.28-.038.037-.192.02-.25.027a4.79 4.79 0 00-1.647.504c-1.302.672-2.233 1.933-2.689 3.351-.478 1.488-.47 3.193.102 4.654.092.236.202.465.331.681.079.133.105.134.053.273-.057.156-.162.306-.23.458a6.78 6.78 0 00-.475 1.556c-.161.88-.241 1.803-.082 2.69.073.411.202.813.398 1.18a3.403 3.403 0 00.566.772c.044.045.101.084.138.133.09.121.109.022.063.2-.066.248-.213.494-.304.736-.093.25-.177.502-.254.757a11.662 11.662 0 00-.371 1.58c-.158 1.027-.131 2.123.335 3.066a3.058 3.058 0 001.379 1.38c.099.048.225.07.27.17.049.107-.023.32-.04.44-.143 1.046-.215 2.144.083 3.169a4.366 4.366 0 001.663 2.328c1.521 1.07 3.572 1.01 5.171.153.417-.223.806-.5 1.154-.827.886 1.243 2.708 1.204 4.002.85 1.613-.442 2.907-1.612 3.652-3.149 1.02 1.295 3.159.875 3.866-.53.173-.344.276-.723.326-1.106.027-.202.01-.405.03-.605.025-.255.188-.502.282-.749.183-.48.296-.975.301-1.493.003-.27-.03-.534-.055-.802-.022-.241.042-.466.079-.704-.414.071-.918-.045-1.307-.17-.383-.123-.741-.447-1.011-.742-.626-.686-1.009-1.585-1.271-2.48-.575-1.963-.339-4.32 1.554-5.397.882-.502 3.524-.5 4.574-.252 1.105.26 2.357 2.803 2.418 3.042.039.148.019.331.15.43.286.216.758-.16.969-.345.364-.32.624-.747.849-1.179.49-.941.886-1.95 1.165-2.98.215-.795.353-1.614.634-2.389.28-.77.722-1.458 1.408-1.895.747-.474 1.602-.724 2.422-1.023.812-.295 1.611-.657 2.24-1.284.139-.138.273-.285.385-.447.088-.128.175-.374.309-.455.208-.127.512.202.693.322.889.589 1.63 1.41 2.229 2.308.595.893 1.083 1.752 1.479 2.749.295.74.478 1.686.996 2.292.231.27 1.948.434 2.505.198.556-.236 1.179-.85 1.366-1.234a1.99 1.99 0 00.155-1.256c-.048-.253-.146-.49-.2-.739-.045-.209-.086-.407-.183-.598a1.427 1.427 0 00-.882-.733c.396-.381.725-.837.952-1.347.236-.53.436-1.174.493-1.755.046-.472-.025-.962-.273-1.367-.26-.426-.72-.704-1.118-.97a7.492 7.492 0 001.557-1.769c.832-1.3 1.347-2.94.925-4.49z" fill="#570F25"/><path fill-rule="evenodd" clip-rule="evenodd" d="M258.687 165.884c-8.837 0-16 7.163-16 16V237c0 8.836 7.163 16 16 16h66.98c8.836 0 16-7.164 16-16v-55.116c0-8.837-7.164-16-16-16h-66.98zm6.853 19.671a4 4 0 00-4 4v39.774a4 4 0 004 4h53.273a4 4 0 004-4v-39.774a4 4 0 00-4-4H265.54z" fill="#C5CFD6"/><path fill-rule="evenodd" clip-rule="evenodd" d="M408.434 249.487c-13.276-16.914-22.258-29.454-26.948-37.619-8.029-13.98-14.601-26.42-16.675-31.171-4.945-11.332 11.385-16.638 15.081-11.353 5.595 8 17.541 33.173 35.841 75.519l-7.299 4.624z" fill="#B28B67"/><path fill-rule="evenodd" clip-rule="evenodd" d="M381.23 244.569l-24.706-64.889c-5.284-11.829 20.234-19.605 24.117-14.1 8.817 12.498 29.772 61.801 32.399 65.524l-31.81 13.465z" fill="#2F3676"/><path fill-rule="evenodd" clip-rule="evenodd" d="M315.429 231.556c4.813-7.325 22.318-31.968 31.853-42.164a741.444 741.444 0 017.941-8.363c7.516-7.79 22.483 5.303 14.981 12.398-18.683 17.669-45.942 41.522-48.22 43.649-3.192 2.981-9.58-.917-6.555-5.52z" fill="#B28B67"/><path fill-rule="evenodd" clip-rule="evenodd" d="M318.977 229.137c-.714-.964-2.055-1.212-2.921-.425-1.031.936-2.251 2.146-2.737 3.025-.911 1.645-2.132 5.119-2.132 5.119l32.889 19.813s3.729-3.65 1.162-5.667c-2.567-2.016-4.237-3.401-4.237-3.401l-11.154-16.035c-.33-.473-.97-.575-1.409-.223l-2.103 1.69s-3.246-.296-4.845-1.259c-.808-.486-1.765-1.628-2.513-2.637zM405.295 246.486c-1.101-.468-2.413.017-2.787 1.154-.442 1.346-.915 3.019-.915 4.029 0 1.9.607 5.546.607 5.546h37.977s1.481-5.106-1.709-5.513a217.238 217.238 0 01-5.299-.735l-17.322-8.058a1 1 0 00-1.352.539l-1.008 2.554s-2.953 1.437-4.799 1.437c-.92 0-2.27-.476-3.393-.953z" fill="#E4E4E4"/><path fill-rule="evenodd" clip-rule="evenodd" d="M347.634 182.921s-30.802-5.236-41.263-7.161c-19.879-3.657-25.676-14.818-22.248-39.171h36.626c7.27 2.191 60.757 27.097 60.757 27.097 6.416 3.323 5.221 13.121 4.048 16.349-.071.197-32.446 58.01-32.446 58.01l-29.962-19.916 24.544-32.862s.972-2.043-.056-2.346z" fill="#5C63AB"/><path fill-rule="evenodd" clip-rule="evenodd" d="M251.035 167.927c1.973-4.177 11.831-57.931 11.831-57.931l14.745.058s-16.845 56.942-17.884 59.628c-1.349 3.489.943 8.558 2.497 11.995.241.532.463 1.025.652 1.467-2.156 1.006-3.192-.211-4.284-1.494-1.234-1.449-2.539-2.982-5.611-1.491-1.188.577-2.311 1.258-3.408 1.923-3.791 2.3-7.274 4.412-12.011 1.362-.751-.484-1.574-2.304.414-3.727 4.955-3.545 12.094-9.748 13.059-11.79zm124.178-20.945l-19.074-19.415-6.336 11.438 19.835 12.201c4.973 8.174 7.894 11.706 8.763 10.596.732-.937.397-1.963.087-2.908-.24-.736-.465-1.423-.157-1.981.705-1.272 4.688-.544 8.438.317 3.751.86 2.883-1.062 2.086-2.066-3.545-2.985-8.092-5.712-13.642-8.182z" fill="#B28B67"/><path fill-rule="evenodd" clip-rule="evenodd" d="M307.795 66.355l5.822-1.042c9.172 33.83 56.298 56.889 59.191 69.535 1.061 4.637-2.138 6.982-.486 8.394l-7.568 5.781c-1.281-1.56-4.016 1.294-9.728-.703-5.711-1.996-47.231-41.908-47.231-81.965z" fill="#8E0F06"/><path fill-rule="evenodd" clip-rule="evenodd" d="M298.742 59.388a3.972 3.972 0 00-4.257 3.7l-.196 2.927c-10.958 8.798-38.116 35.089-45.193 84.031-.743 5.141.601 7.895 1.675 10.095.735 1.505 1.344 2.752 1.071 4.326l9.904 2.852c0-1.162 1.249-2.046 2.859-3.187 2.342-1.659 5.449-3.86 6.598-8.247 1.089-4.159 2.684-9.353 4.589-15.132.18 7.653 1.571 14.691 4.601 20.521 7.56 14.543 51.247-1.406 55.811-16.243 2.436-7.917-1.02-14.564-5.591-23.355-5.802-11.158-13.4-25.772-13.024-50.824l.405-6.05a4.028 4.028 0 00-3.722-4.281l-15.53-1.133z" fill="#9C1107"/><path fill-rule="evenodd" clip-rule="evenodd" d="M156.459 81.756c7.047 4.24 13.971 6.29 17.221 5.453 8.15-2.097 8.9-31.866 2.594-43.602-6.306-11.736-38.725-16.851-40.359 6.401-.567 8.07 2.827 15.273 7.841 21.15L134.765 113h26.117l-4.423-31.244z" fill="#B28B67"/><path fill-rule="evenodd" clip-rule="evenodd" d="M157.765 52.576c2.259-3.358 4.428-5.92 7.249-7.407 11.482.18 12.827-1.875 12.827-8.801-1.855-1.326-8.399-3.556-15.727-4.184-3.738-1.068-8.166-.867-12.432.914-5.267 1.492-9.726 4.705-11.696 10.72-7.126 12.279-1.717 25.06 5.572 29.427a98.982 98.982 0 005.144-6.649 6.497 6.497 0 01-1.967-4.663c0-3.6 2.924-6.52 6.53-6.52.265 0 .526.016.783.047.162 4.502.83 19.731 2.584 25.021 2.068 6.237 14.136 7.769 18.344 7.769 3.636 0 3.512-3.437 3.423-5.9a28.05 28.05 0 01-.025-.99c0-.63-.82-.628-1.746-.627-1.202.003-2.585.005-2.585-1.372 0-1.502 2.079-2.654 3.939-3.685 1.16-.643 2.236-1.239 2.668-1.843 1.364-1.907 1.824-4.478-.234-4.478-1.125 0-2.669.647-4.526 1.426-2.803 1.177-6.321 2.652-10.191 2.652-6.395 0-7.915-20.599-7.934-20.857z" fill="#7C4410"/><path fill-rule="evenodd" clip-rule="evenodd" d="M246.208 268.672c-1.861 20.341-.001 64.064 1 76.677.629 7.926 11.432 5.851 12.44-.493.171-1.075.867-4.85 1.906-10.484 5.093-27.626 18.422-99.926 18.446-117.506.011-8.062-17.936-14.508-25.116-4.77-5.903-4.146-14.282-5.258-19.448 3.116-3.911 6.34-13.203 24.338-23.113 45.355-8.681 18.411-22.246 63.105-22.246 63.105l11.516 5.262s28.448-45.738 46.36-77.807a1086.618 1086.618 0 00-1.745 17.545z" fill="#B28B67"/><path fill-rule="evenodd" clip-rule="evenodd" d="M190.9 307.125l39.527-93.638c9.47-15.232 36.019 3.1 32.79 11.935-7.331 20.057-44.617 84.992-46.802 90.968l-25.515-9.265z" fill="#0F3818"/><path fill-rule="evenodd" clip-rule="evenodd" d="M281 224.176c0 26.542-11.634 88.93-11.642 94.774l-28.182-.95s7.39-81.364 6.233-81.916c-1.736-.827-71.147 9.607-91.964 10.395-30.019 1.136-42.437-17.28-43.445-52.229h58.148s74.582 8.903 98.037 12.384C278.226 208.125 281 216.865 281 224.176z" fill="#175324"/><path fill-rule="evenodd" clip-rule="evenodd" d="M218.56 302.047c-8.574-2.138-17.258 3.08-19.396 11.654l-1.935 7.762c-2.138 8.574 3.08 17.258 11.654 19.396l6.453 1.609c8.574 2.137 17.258-3.08 19.395-11.654l1.936-7.763c2.138-8.574-3.08-17.257-11.654-19.395l-6.453-1.609zm-6.686 7.642a4 4 0 00-4.849 2.913l-3.371 13.522a4 4 0 002.914 4.849l15.453 3.853a4 4 0 004.849-2.914l3.371-13.521a4 4 0 00-2.913-4.849l-15.454-3.853z" fill="#C5CFD6"/><path fill-rule="evenodd" clip-rule="evenodd" d="M248.45 329.284c-1.072-.471-2.346.006-2.745 1.107-.728 2.007-1.705 5.018-1.705 6.715 0 2.705.901 7.894.901 7.894h56.402s2.199-7.268-2.538-7.848a333.808 333.808 0 01-7.87-1.046l-26.215-11.687a1 1 0 00-1.332.532l-1.685 4.088s-4.385 2.046-7.126 2.046c-1.669 0-4.291-1.011-6.087-1.801z" fill="#E4E4E4"/><rect x="245" y="345" width="53" height="7" rx="3.5" fill="#2F3676"/><path d="M99 210c0-5.523 4.477-10 10-10h107c5.523 0 10 4.477 10 10v49H103a4 4 0 01-4-4v-45z" fill="#2F3676"/><path fill-rule="evenodd" clip-rule="evenodd" d="M216 200h2.194a10 10 0 019.868 8.38L250 342h-10.686" fill="#2F3676"/><path fill-rule="evenodd" clip-rule="evenodd" d="M245 362c9.941 0 18-8.059 18-18s-8.059-18-18-18-18 8.059-18 18 8.059 18 18 18zM188 284c0 41.974-34.026 76-76 76s-76-34.026-76-76 34.026-76 76-76 76 34.026 76 76zm-14 0c0 34.242-27.758 62-62 62-34.242 0-62-27.758-62-62 0-34.242 27.758-62 62-62 34.242 0 62 27.758 62 62z" fill="#191847"/><path fill="#191847" d="M108 218h8v132h-8z"/><rect x="155.841" y="234.502" width="8" height="132" rx="2" transform="rotate(45 155.841 234.502)" fill="#191847"/><rect x="178" y="280" width="8" height="132" rx="2" transform="rotate(90 178 280)" fill="#191847"/><rect x="161.497" y="327.841" width="8" height="132" rx="2" transform="rotate(135 161.497 327.841)" fill="#191847"/><path fill-rule="evenodd" clip-rule="evenodd" d="M244.679 202.635l-31.898-23.424-7.051 17.431 31.587 13.099c8.934 10.494 13.929 14.869 14.987 13.124.891-1.471.194-2.848-.448-4.117-.5-.988-.966-1.91-.623-2.759.785-1.94 6.786-1.735 12.472-1.298 5.687.437 4.03-2.093 2.658-3.343-5.804-3.474-13.032-6.378-21.684-8.713zM77.398 243.908c2.93-5.945 12.91-63.888 12.91-63.888l20.897.082s-19.355 62.481-20.897 66.304c-2.004 4.966 1.4 12.181 3.708 17.074.357.757.688 1.458.969 2.087-3.203 1.433-4.742-.299-6.364-2.125-1.831-2.063-3.77-4.246-8.333-2.123-1.763.821-3.431 1.79-5.061 2.738-5.63 3.272-10.802 6.279-17.838 1.937-1.115-.688-2.338-3.279.615-5.304 7.358-5.046 17.961-13.875 19.394-16.782z" fill="#B28B67"/><path fill-rule="evenodd" clip-rule="evenodd" d="M149.695 92.332l8.647-1.483c32.083 27.715 45.261 80.96 84.588 109.166l-9.466 11.733c-68.224-8.448-85.134-73.393-83.769-119.416z" fill="#89C2BF"/><path fill-rule="evenodd" clip-rule="evenodd" d="M112 201h76.511c3.497 0 2.838-5.048 2.332-7.596-5.832-29.4-28.602-61.092-28.602-102.943L140.172 87c-18.255 29.358-24.567 65.505-28.172 114z" fill="#DDE3E9"/><path fill-rule="evenodd" clip-rule="evenodd" d="M103.397 222c-3.439 8.259-6.81 15.465-9.988 21H77c-1.765-57.081 19.846-101.003 37.932-127.487-4.016-.287-7.641-1.967-9.932-6.102-8.066-14.555-5.153-22.569 3.467-25.203 4.741-1.448 9.199-.46 14.535.724 4.367.968 9.323 2.067 15.502 2.068h.006c.599 0 1.144.04 1.639.117l7.323.418s29.733 100.77 16.4 134.465h-60.475z" fill="#A8D2D0"/><path fill-rule="evenodd" clip-rule="evenodd" d="M103.397 222c4.512-10.836 9.138-23.484 13.59-36.546 1.658 14.385 4.418 28.832 9.013 36.546h-22.603z" fill="#000" fill-opacity=".1"/></svg>