<svg width="378" height="540" fill="none" xmlns="http://www.w3.org/2000/svg"><path fill-rule="evenodd" clip-rule="evenodd" d="M120.458 426h225.769l29.583 114H39.733l80.725-114z" fill="#C5CFD6"/><path fill-rule="evenodd" clip-rule="evenodd" d="M120.458 426h69.437l41.559 114H39.733l80.725-114z" fill="#000" fill-opacity=".1"/><path fill-rule="evenodd" clip-rule="evenodd" d="M233.935 75.244c6.476 3.903 12.839 5.79 15.825 5.02 7.49-1.931 8.178-29.329 2.383-40.13-5.794-10.801-35.585-15.509-37.086 5.892-.521 7.427 2.597 14.055 7.205 19.464L214 104h24l-4.065-28.756z" fill="#B28B67"/><path fill-rule="evenodd" clip-rule="evenodd" d="M242.663 28.37c-3.279-1-8.04-1.34-10.042-1.11 1.139-2.73 1.591-5.77 1.223-8.73-.359-2.878-1.644-5.328-2.833-7.895-.548-1.183-1.169-2.36-2.095-3.265-.944-.922-2.138-1.53-3.39-1.82-1.281-.298-2.621-.273-3.904-.003-.568.119-1.077.379-1.634.523-.57.148-.847-.21-1.261-.568-.997-.864-2.459-1.29-3.721-1.443-1.416-.172-2.885.042-4.235.507-1.314.453-2.576 1.19-3.526 2.26-.423.478-.807 1.02-1.057 1.62-.102.246-.119.392-.365.482-.227.084-.492.086-.727.166-2.265.767-4.203 2.518-5.258 4.766-.615 1.31-.906 3.62-.827 6.208.08 2.587 2.417 9.34 4.602 11.803 1.951 2.198 4.819 3.65 7.586 4.284-1.837 2.1-3.059 4.723-3.964 7.392a36.154 36.154 0 00-1.814 8.978c-.213 2.916-.233 5.998.45 8.852.64 2.668 2.007 4.857 4.29 6.245 1.045.636 2.17 1.114 3.302 1.551 1.115.43 2.233.849 3.401 1.09 2.211.457 4.758.379 6.461-1.38.614-.635 1.289-1.432 1.736-2.207.161-.279.259-.461.063-.733-.234-.327-.613-.577-.914-.832-1.717-1.455-2.78-3.398-3.047-5.706-.272-2.342.357-5.366 2.634-6.388 2.811-1.262 5.907.187 8.406 1.537 1.062-3.748 3.242-7.123 6.66-8.842 3.782-1.902 8.122-2.124 12.008-3.756 1.013-.425 2.044-.908 2.79-1.774.312-.362.677-.832.802-1.311.163-.63-.243-1.157-.556-1.647-1.662-2.6-7.964-7.854-11.244-8.854zM206 187l36.255 127.227L268.707 408H288l-28.109-221H206z" fill="#191847"/><path fill-rule="evenodd" clip-rule="evenodd" d="M196.304 187c-.838 65.574-3.698 101.34-4.578 107.298-.881 5.958-14.194 43.858-39.94 113.702h19.987c32.776-67.003 51.073-104.904 54.889-113.702C230.479 285.5 242.259 249.734 260 187h-63.696z" fill="#232857"/><path fill-rule="evenodd" clip-rule="evenodd" d="M150 426l1-21h21c14.936 10.5 39 17 39 17v4h-38l-13-2v2h-10zM266 426l1-21h21c14.936 10.5 39 17 39 17v4h-38l-13-2v2h-10z" fill="#191847"/><path fill-rule="evenodd" clip-rule="evenodd" d="M322.372 198.758l-28.328-27.635-9.408 16.28 29.457 17.367c7.386 11.635 11.724 16.662 13.014 15.082 1.088-1.333.589-2.794.13-4.139-.358-1.048-.692-2.026-.233-2.819 1.047-1.812 6.961-.774 12.531.45s4.282-1.512 3.098-2.94c-5.265-4.248-12.018-8.131-20.261-11.646zm-166.974 40.15c2.93-5.945 12.91-63.888 12.91-63.888l20.897.082s-19.354 62.481-20.897 66.304c-2.004 4.966 1.4 12.181 3.708 17.074.357.757.688 1.458.969 2.087-3.203 1.433-4.742-.299-6.363-2.125-1.832-2.063-3.771-4.245-8.334-2.122-1.763.82-3.431 1.789-5.061 2.737-5.63 3.272-10.802 6.279-17.838 1.937-1.115-.688-2.338-3.279.616-5.304 7.357-5.045 17.96-13.875 19.393-16.782z" fill="#B28B67"/><path d="M332.143 195L323 227.456c1.491 2.381 2.524 2.763 4.571 2.45L339 199.287 332.143 195z" fill="#464646" stroke="#464646" stroke-linejoin="round"/><ellipse cx="336.921" cy="193.486" rx="6.807" ry="9.025" transform="rotate(15.085 336.921 193.486)" fill="#A8A8A8"/><path fill-rule="evenodd" clip-rule="evenodd" d="M322.372 198.758l-28.328-27.635-9.408 16.28 29.457 17.367c7.386 11.635 11.724 16.662 13.014 15.082C329.042 217.481 326 212 326 212l-3.628-13.242zm-166.974 40.15c2.93-5.945 12.91-63.888 12.91-63.888l20.897.082s-19.354 62.481-20.897 66.304c-2.004 4.966 1.4 12.181 3.708 17.074.357.757.688 1.458.969 2.087-3.203 1.433-4.742-.299-6.363-2.125-1.832-2.063-3.771-4.245-8.334-2.122-1.763.82-3.431 1.789-5.061 2.737-5.63 3.272-10.802 6.279-17.838 1.937-1.115-.688-2.338-3.279.616-5.304 7.357-5.045 17.96-13.875 19.393-16.782z" fill="#B28B67"/><path fill-rule="evenodd" clip-rule="evenodd" d="M227.695 87.332l8.647-1.483c14.888 37.19 40.88 70.982 77.976 101.376l-28.032 34.056c-37.092-43.276-59.956-87.926-58.591-133.949z" fill="#191847"/><path fill-rule="evenodd" clip-rule="evenodd" d="M190 196h77s-26.759-65.062-26.759-110.54L217.014 82C198.76 111.358 193.605 147.505 190 196z" fill="#DDE3E9"/><path fill-rule="evenodd" clip-rule="evenodd" d="M155 229c8.421-95.004 61.504-147 61.504-147l.018.016.01-.016h1.516c2.721.094 8.29.338 8.29.338l5.612 16.039c.891 29.333 10.401 118.229 10.401 118.229H191.95c.086 4.076.275 8.209.581 12.394H155z" fill="#2F3676"/><path fill-rule="evenodd" clip-rule="evenodd" d="M191.958 217c-.402-17.75 1.173-34.416 3.8-49.498 1.374 17.897 4.245 39.431 10.242 49.498h-14.042z" fill="#000" fill-opacity=".1"/><path fill-rule="evenodd" clip-rule="evenodd" d="M203.111 186L228 174.429V186h-24.889z" fill="#fff" fill-opacity=".2"/><path fill-rule="evenodd" clip-rule="evenodd" d="M23.623 19l79.877 6.5-6 117.5H39L0 126.5 23.623 19z" fill="#78848C"/><path fill-rule="evenodd" clip-rule="evenodd" d="M23.623 19L47.5 21 39 143 0 126.5 23.623 19z" fill="#000" fill-opacity=".1"/><path d="M93.597 105.207c-2.261 14.74-13.609 25.229-25.346 23.428-11.736-1.8-19.418-15.208-17.157-29.947 2.26-14.74 13.608-25.229 25.345-23.428 11.737 1.8 19.418 15.208 17.158 29.947zM86.944 50.949c-.992 6.465-6.53 10.979-12.37 10.083-5.84-.896-9.77-6.862-8.779-13.327.992-6.465 6.53-10.979 12.37-10.083 5.84.896 9.77 6.862 8.778 13.327z" fill="#444"/><path d="M75.621 101.473c-.299 1.948-1.92 3.315-3.622 3.054-1.702-.261-2.839-2.051-2.54-4 .299-1.948 1.92-3.315 3.622-3.054 1.702.26 2.839 2.052 2.54 4z" fill="#CFCFCF"/></svg>