<svg width="784" height="646" fill="none" xmlns="http://www.w3.org/2000/svg"><path fill-rule="evenodd" clip-rule="evenodd" d="M638.5 139c-11.874 0-21.5 9.626-21.5 21.5v21c0 11.066 8.36 20.179 19.109 21.368l.008.154h29c4.584-4.478.092-33.03-3.355-45.732-1.55-10.351-10.479-18.29-21.262-18.29h-2z" fill="#191847"/><path fill-rule="evenodd" clip-rule="evenodd" d="M639.935 187.244c6.476 3.903 12.839 5.789 15.825 5.019 7.49-1.93 8.178-29.328 2.383-40.129-5.794-10.801-35.585-15.509-37.086 5.891-.521 7.428 2.597 14.056 7.205 19.465L620 216h24l-4.065-28.756z" fill="#D4A181"/><path fill-rule="evenodd" clip-rule="evenodd" d="M617.881 158.15a56.383 56.383 0 012.04-1.952l-.032-.777S627.421 140 639.001 140c11.57 0 15.229 5.379 18.339 9.951l.009.012c-1.627 5.582-6.53 7.841-12.075 10.395-2.387 1.099-4.893 2.254-7.308 3.752a5.5 5.5 0 10-3.216 9.765c1.106 11.878.663 25.442-2.633 28.662h-29c-.832-14.464 2.909-18.59 6.733-22.806 3.597-3.967 7.267-8.014 7.267-20.828.258-.252.513-.504.764-.753z" fill="#191847"/><path fill-rule="evenodd" clip-rule="evenodd" d="M581.408 397.088s35.984 10.065 62.092 10.065c26.107 0 48.5-15.5 48.5-15.5s-35.214-10.33-58-10.33-52.592 15.765-52.592 15.765z" fill="#520354"/><path fill-rule="evenodd" clip-rule="evenodd" d="M664.267 416.824a5.671 5.671 0 01-.582-1.135C660.479 407.208 609.117 315.726 604 299h57.826c3.891 12.717 21.401 92.52 23.865 108.442 7.776 25.115 23.784 106.453 25.828 112.088 2.15 5.928-9.947 12.103-13.17 4.816-5.129-11.596-17.35-43.681-22.792-63.272-5.101-18.366-9.255-34.89-11.29-44.25z" fill="#BA8B72"/><path fill-rule="evenodd" clip-rule="evenodd" d="M616.957 427.994c-23.482 5.934-109.373 16.664-115.267 18.347-6.063 1.731-11.38-10.767-3.885-13.474 11.925-4.308 44.784-14.261 64.707-18.323 16.025-3.267 30.647-5.933 40.464-7.494-.831-27.577-4.633-93.756-2.141-108.05H652c-2.39 13.707-22.59 113.718-26.344 123.729-1.192 3.573-4.747 5.153-8.699 5.265z" fill="#D4A181"/><path fill-rule="evenodd" clip-rule="evenodd" d="M499.931 432.074c.278-1.137-.413-2.308-1.566-2.51-2.104-.369-5.238-.808-6.909-.514-2.664.47-7.618 2.259-7.618 2.259l9.794 55.545s7.54.903 7.288-3.863a334.107 334.107 0 01-.336-7.932l6.957-27.846a1 1 0 00-.756-1.219l-4.318-.95s-2.776-3.963-3.252-6.663c-.29-1.643.25-4.401.716-6.307zM697.45 522.284c-1.072-.471-2.346.006-2.745 1.107-.728 2.007-1.705 5.018-1.705 6.715 0 2.705.901 7.894.901 7.894h56.402s2.199-7.268-2.538-7.848c-4.737-.579-7.87-1.046-7.87-1.046l-26.215-11.687a1 1 0 00-1.332.532l-1.685 4.088s-4.385 2.046-7.126 2.046c-1.669 0-4.291-1.011-6.087-1.801z" fill="#E4E4E4"/><path fill-rule="evenodd" clip-rule="evenodd" d="M601 299s33.82-9.676 64 0c7 31.938 24.009 44.614 27 93.579-34 16.894-76-12.048-111 4.426-10-23.044 4-78.54 20-98.005z" fill="#750477"/><path fill-rule="evenodd" clip-rule="evenodd" d="M737.483 253.925L698 259.311 705.084 277l32.037-12.701c13.809 1.362 20.486 1.034 20.032-.984-.383-1.702-1.851-2.216-3.203-2.689-1.053-.369-2.036-.713-2.381-1.575-.789-1.968 3.7-6.048 8.124-9.736 4.424-3.688 1.455-4.367-.412-4.312-6.634 1.555-13.9 4.529-21.798 8.922zm-192.085 96.983c2.93-5.945 28.572-82.458 28.572-82.458l21.897.082s-36.016 81.051-37.559 84.874c-2.004 4.966 1.4 12.181 3.708 17.074.357.757.688 1.458.969 2.087-3.203 1.433-4.741-.299-6.363-2.125-1.832-2.063-3.771-4.245-8.334-2.123-1.763.821-3.431 1.79-5.061 2.738-5.63 3.272-10.802 6.279-17.838 1.937-1.115-.688-2.338-3.279.616-5.304 7.357-5.045 17.96-13.875 19.393-16.782z" fill="#D4A181"/><path fill-rule="evenodd" clip-rule="evenodd" d="M633.949 199l17.145 1.142c4.223 38.201 27.222 62.331 78.717 54.162l6.841 49.195c-48.129 6.22-90.339-13.049-98.99-65.221-2.239-13.505-4.007-27.56-3.713-39.278z" fill="#AFB9C5"/><path fill-rule="evenodd" clip-rule="evenodd" d="M548.402 341c11.903-63.336 37.028-112.336 75.374-147h1.701l.014.016 25.977 5.949c0 31.204 6.942 54.52 13.616 76.935 2.882 9.68 5.714 19.193 7.916 29.1h-70.156c-.989 11.351-1.596 23.018-1.912 35h-52.53z" fill="#C5CFD6"/><path fill-rule="evenodd" clip-rule="evenodd" d="M602.844 306c2.012-23.109 5.605-44.91 11.544-65.402-1.302 21.914-1.663 49.1 2.715 65.402h-14.259z" fill="#000" fill-opacity=".1"/><path fill-rule="evenodd" clip-rule="evenodd" d="M234.998 80.933c11.908 0 16.239-14.25 23.005-22.071 4.84-5.596 13.102-3.927 15.547-11.76 6.149-19.699-10.309-33.562-31.779-33.562-21.471 0-35.947 12.159-39.073 30.437-3.126 18.278 10.83 36.956 32.3 36.956z" fill="#191847"/><path fill-rule="evenodd" clip-rule="evenodd" d="M248.476 78.368c6.747 4.065 13.377 6.03 16.489 5.228 7.803-2.01 8.521-30.546 2.483-41.796s-37.078-16.153-38.642 6.136c-.543 7.736 2.706 14.64 7.507 20.273l-8.608 40.109h25.006l-4.235-29.95z" fill="#784931"/><path fill-rule="evenodd" clip-rule="evenodd" d="M230.431 32.287c-19.154 18.747.073 38.673 5.342 38.673.34-2.705 1.377-5.336 2.897-7.84a6.118 6.118 0 01-1.286-3.754c0-3.45 2.872-6.249 6.415-6.249 1.107 0 2.148.273 3.056.754 7.679-6.547 17.311-11.11 22.093-12.008 8.318-1.56-19.363-28.323-38.517-9.576z" fill="#191847"/><path fill-rule="evenodd" clip-rule="evenodd" d="M219.369 194.764l37.776 132.508 27.561 97.667h20.102L275.52 194.764h-56.151z" fill="#6A7660"/><path fill-rule="evenodd" clip-rule="evenodd" d="M209.267 194.764c-.874 68.296-3.854 105.547-4.771 111.752-.917 6.205-14.789 45.679-41.615 118.423h20.825c34.151-69.785 53.215-109.259 57.192-118.423 3.977-9.164 16.25-46.414 34.736-111.752h-66.367z" fill="#7E8D72"/><path fill-rule="evenodd" clip-rule="evenodd" d="M161.02 443.686l1.042-21.872h21.881c15.563 10.936 40.636 17.706 40.636 17.706v4.166h-39.594l-13.546-2.083v2.083H161.02zM281.886 443.686l1.042-21.872h21.881c15.562 10.936 40.635 17.706 40.635 17.706v4.166H305.85l-13.545-2.083v2.083h-10.419z" fill="#191847"/><path fill-rule="evenodd" clip-rule="evenodd" d="M154.141 241.536c3.053-6.192 18.309-85.882 18.309-85.882l22.816.086s-26.066 84.416-27.673 88.397c-2.088 5.173 1.458 12.688 3.863 17.784.372.788.717 1.518 1.009 2.173-3.337 1.493-4.94-.311-6.63-2.213-1.908-2.149-3.928-4.422-8.683-2.211-1.837.855-3.575 1.865-5.273 2.851-5.866 3.409-11.255 6.54-18.586 2.018-1.162-.717-2.436-3.416.641-5.525 7.667-5.254 18.714-14.451 20.207-17.478zm192.159-31.05l-29.516-28.783-9.804 16.956 30.693 18.088c7.696 12.119 12.216 17.355 13.56 15.708 1.133-1.387.614-2.909.135-4.31-.372-1.092-.72-2.11-.242-2.936 1.09-1.887 7.253-.807 13.057.469 5.803 1.275 4.461-1.575 3.227-3.062-5.485-4.425-12.522-8.469-21.11-12.13z" fill="#784931"/><path fill-rule="evenodd" clip-rule="evenodd" d="M241.974 90.958l9.01-1.545c14.193 50.151 87.118 84.336 91.594 103.083 1.642 6.876-3.308 10.351-.751 12.445l-11.711 8.57c-1.983-2.313-6.215 1.918-15.053-1.042-8.838-2.959-73.089-62.128-73.089-121.511z" fill="#D2B44C"/><path fill-rule="evenodd" clip-rule="evenodd" d="M225.782 80.476a4 4 0 00-4.269 3.71l-.439 6.267c-16.956 13.044-58.981 52.019-69.932 124.575-1.151 7.622.93 11.704 2.592 14.966 1.137 2.231 2.078 4.079 1.656 6.412l15.327 4.229c0-1.723 1.931-3.034 4.423-4.725 3.624-2.459 8.433-5.722 10.211-12.226 1.685-6.166 4.153-13.866 7.101-22.433.279 11.346 2.431 21.78 7.12 30.421 11.698 21.561 79.301-2.084 86.364-24.079 3.769-11.737-1.579-21.591-8.652-34.623-8.978-16.542-20.735-38.206-20.154-75.345l.762-10.895a4 4 0 00-3.711-4.27l-28.399-1.984z" fill="#DDC779"/><path fill-rule="evenodd" clip-rule="evenodd" d="M141.897 170.776c7.193 3.218 14.013 4.363 17.004 3.186 7.5-2.949 4.729-31.4-2.636-41.845-7.366-10.446-38.773-11.537-37.606 10.808.405 7.755 4.473 14.221 9.926 19.235l-3.649 40.916 24.82-3.048-7.859-29.252z" fill="#B28B67"/><path fill-rule="evenodd" clip-rule="evenodd" d="M159.224 136.849c-.424-1.419-1.222-2.955-1.875-4.266-.842-1.691-1.984-3.169-3.209-4.543a36.978 36.978 0 00-7.828-6.653c-5.217-3.29-11.527-4.782-17.373-3.328a17.278 17.278 0 00-7.963 4.444c-2.025 1.996-3.866 4.793-6.741 5.331-3.127.585-6.358-1.845-9.097-3.255-3.089-1.589-6.294-2.63-9.693-2.77-5.693-.234-10.703 2.297-13.987 7.352-3.493 5.379-5.59 12.897-2.11 19.029.648 1.14 1.415 2.073 2.44 2.8.94.665 2.333 1.326 2.827 2.513.525 1.263-.356 3.083-.633 4.314-.397 1.764-.676 3.599-.274 5.414.66 2.981 2.908 5.628 5.15 7.366 2.284 1.767 4.93 2.617 7.67 2.822 1.83.136 3.68.109 5.479-.248.893-.177 1.658-.525 2.507-.832.825-.298 1.327-.13 2.105.247 3.612 1.755 7.314 2.151 11.139 1.355 3.228-.673 6.889-1.925 9.275-4.489 2.65-2.847 2.17-6.265 1.026-9.84.781.275 2.847.251 1.45-1.056-.553-.518-1.493-.641-2.154-.904-.769-.306-1.564-.727-2.202-1.303-2.58-2.325-.948-7.9 1.786-9.122 4.06-1.814 5.739 4.044 8.941 5.219 1.841.676 3.504-.761 4.649-2.16 1.535-1.875 2.449-4.221 3.197-6.586.616-1.948 1.171-3.914 1.804-5.855.296-.906 1.387-3.499.57-4.382 2.949-.975 6.47-.131 9.275 1.198 1.16.55 2.073 1.201 2.794 2.334.155.242.517.976.857.966.632-.018.305-.755.198-1.112" fill="#790000"/><path fill-rule="evenodd" clip-rule="evenodd" d="M133.369 288.326l38.167 131.654 17.952 98.849h18.019L189.52 288.326h-56.151z" fill="#784931"/><path fill-rule="evenodd" clip-rule="evenodd" d="M116.216 288.326c2.663 68.394 1.613 105.697 1.017 111.911-.596 6.214-3.98 47.831-27.038 120.678h18.74c30.538-69.885 41.198-111.501 44.7-120.678 3.503-9.176 13.847-46.48 28.949-111.911h-66.368z" fill="#915B3C"/><path fill-rule="evenodd" clip-rule="evenodd" d="M132.55 288.326c9.927 45.302 27.099 117.617 51.513 216.944h26.354c1.946-101.95-6.334-169.049-20.674-216.944H132.55z" fill="#B1BFC8"/><path fill-rule="evenodd" clip-rule="evenodd" d="M116.083 288.326c2.608 68.394-4.151 135.775-25.09 218.009h28.119c30.593-68.842 52.52-135.89 67.506-218.009h-70.535z" fill="#C5CFD6"/><path fill-rule="evenodd" clip-rule="evenodd" d="M87.523 534.473l.957-15.438c.04-.64.663-1.078 1.29-.943 9.034 1.948 21.537-2.393 21.537-2.393 12.6 8.935 30.794 13.01 37.068 14.208 1.182.226 1.936 1.417 1.608 2.574l-1.451 5.121H89.591l-2.068-3.129zM185.466 534.473l.957-15.438c.04-.64.662-1.078 1.29-.943 9.034 1.948 21.536-2.393 21.536-2.393 12.601 8.935 30.795 13.01 37.069 14.208 1.182.226 1.936 1.417 1.608 2.574l-1.451 5.121h-58.941l-2.068-3.129z" fill="#191847"/><path fill-rule="evenodd" clip-rule="evenodd" d="M256.411 282.98l-36.974-18.288-4.078 19.18 34.785 7.739c11.067 9.162 16.985 12.752 17.754 10.769.649-1.673-.316-2.961-1.204-4.148-.692-.924-1.338-1.787-1.14-2.721.454-2.135 6.649-3.011 12.563-3.59 5.914-.58 3.756-2.879 2.122-3.914-6.585-2.519-14.528-4.195-23.828-5.027zM92.236 355.64c1.93-6.636 1.676-67.959 1.676-67.959l21.458-3.696s-8.544 67.679-9.435 71.885c-1.157 5.463 3.643 12.259 6.898 16.867.503.713.97 1.373 1.372 1.968-3.027 2.052-4.92.551-6.915-1.031-2.253-1.788-4.637-3.679-8.935-.672-1.66 1.161-3.197 2.459-4.698 3.727-5.184 4.38-9.947 8.404-17.953 5.217-1.269-.505-2.992-2.945-.329-5.56 6.636-6.513 15.917-17.501 16.86-20.746z" fill="#BA8B72"/><path fill-rule="evenodd" clip-rule="evenodd" d="M138.968 186.867l8.604-3.088c37.941 22.664 61.107 74.97 106.569 96.826l-7.588 13.764c-71.536 3.668-100.65-59.982-107.585-107.502z" fill="#717BD5"/><path fill-rule="evenodd" clip-rule="evenodd" d="M119.97 305.306l78.51-13.843c3.587-.633 1.997-5.699 1.017-8.224-11.31-29.143-40.414-57.577-47.994-100.564l-23.272.439c-13.414 33.458-13.345 71.728-8.261 122.192z" fill="#DDE3E9"/><path fill-rule="evenodd" clip-rule="evenodd" d="M114.946 328.433c-2.033 9.105-4.188 17.117-6.446 23.378l-16.837 2.969c-12.15-58.312 2.07-107.337 15.832-137.812-4.172.431-8.196-.639-11.296-4.471-10.913-13.491-9.375-22.249-1.007-26.515 4.602-2.345 9.356-2.136 15.046-1.886 4.657.205 9.94.437 16.281-.681l.006-.001a11.234 11.234 0 011.703-.176l7.59-.896S184.579 280.469 177 317.491l-62.054 10.942z" fill="#8991DC"/><path fill-rule="evenodd" clip-rule="evenodd" d="M114.946 328.433c2.667-11.946 5.123-25.775 7.326-39.997 4.306 14.476 9.755 28.816 15.867 35.908l-23.193 4.089z" fill="#000" fill-opacity=".1"/><path fill-rule="evenodd" clip-rule="evenodd" d="M318.935 295.244c6.476 3.903 12.839 5.789 15.825 5.019 7.49-1.93 8.178-29.328 2.383-40.129-5.794-10.801-35.585-15.509-37.086 5.891-.521 7.428 2.597 14.056 7.205 19.465L299 324h24l-4.065-28.756z" fill="#B28B67"/><path fill-rule="evenodd" clip-rule="evenodd" d="M305.418 290.308c-3.012-13.402-11.593-22.537-10.283-28.526 1.311-5.99 6.986-7.45 6.986-7.45s2.936-11.875 18.935-10.102c15.999 1.774 25.763 8.418 21.546 23.038-3.876 0-8.556-1.402-15.026 1-3.08 1.143-4.406 7.09-4.406 7.09h-2.924s-4.257-7.057-8.395-5.187c-4.138 1.871-1.881 9.088-1.881 9.088l-1.441 11.049h-3.111z" fill="#191847"/><path fill-rule="evenodd" clip-rule="evenodd" d="M232 449c-8.837 0-16 7.163-16 16v92c0 8.837 7.163 16 16 16h115c8.837 0 16-7.163 16-16v-92c0-8.837-7.163-16-16-16H232zm16 28a4 4 0 00-4 4v60a4 4 0 004 4h83a4 4 0 004-4v-60a4 4 0 00-4-4h-83z" fill="#C5CFD6"/><path fill-rule="evenodd" clip-rule="evenodd" d="M408.711 503.58c3.719 13.028 12.986 37.721 25.798 66.08l12.176-3.553c-10.652-65.254-19.517-108.456-24.595-121.605-3.355-8.688-28.737-7.67-25.817 9.811 1.225 7.33 6.07 26.959 12.438 49.267zm-50.044-46.219c-19.855 4.114-61.023 18.656-72.779 23.302-7.388 2.921-2.625 12.825 3.678 11.958 1.067-.146 4.844-.569 10.478-1.199 18.098-2.025 55.368-6.194 83.635-10.263 14.884-2.142 6.877-30.021-8.577-27.071-5.199.993-10.729 2.091-16.435 3.273z" fill="#B28B67"/><path fill-rule="evenodd" clip-rule="evenodd" d="M422.869 437.138c-2.03-6.624-94.307-30.138-94.307-30.138H321v7.047l63.587 32.369a13.03 13.03 0 00.172 3.313c-.459 23.997 9.812 41.924 19.98 59.673 6.65 11.606 13.255 23.137 16.789 36.239l23.361-3.485c-.68-1.74-1.756-9.588-3.228-20.317-3.709-27.054-9.932-72.43-18.661-84.436a5.043 5.043 0 00-.093-.125 2.423 2.423 0 00-.038-.14z" fill="#02075E"/><path fill-rule="evenodd" clip-rule="evenodd" d="M326.283 465.64c-5.818-1.164-11.176-2.204-15.76-3.008-29.614-5.194-38.249-21.046-33.143-55.632h54.562c8.913 2.56 55.232 21.985 79.265 32.316 15.906 6.838 10.892 31.488 1.884 37.903-.049.394-.211.661-.5.781-34.151 14.154-63.273 13.098-81.974 12.42-7.833-.284-13.837-.502-17.617.492l-5.923-18.684 19.206-6.588z" fill="#030878"/><path fill-rule="evenodd" clip-rule="evenodd" d="M292.128 479.695c-.046-1.17-1.034-2.106-2.198-1.982-2.124.226-5.258.667-6.783 1.411-2.431 1.186-6.7 4.271-6.7 4.271l24.725 50.693s7.496-1.21 5.94-5.721c-1.555-4.512-2.509-7.532-2.509-7.532l-.988-28.685a1 1 0 00-1.062-.964l-4.412.277s-3.762-3.044-4.963-5.508c-.732-1.5-.974-4.3-1.05-6.26zM431.45 563.284c-1.072-.471-2.346.006-2.745 1.107-.728 2.007-1.705 5.018-1.705 6.715 0 2.705.901 7.894.901 7.894h56.402s2.199-7.268-2.538-7.848c-4.737-.579-7.87-1.046-7.87-1.046l-26.215-11.687a1 1 0 00-1.332.532l-1.685 4.088s-4.385 2.046-7.126 2.046c-1.669 0-4.291-1.011-6.087-1.801z" fill="#E4E4E4"/><path fill-rule="evenodd" clip-rule="evenodd" d="M407.372 418.758l-28.328-27.635-9.408 16.28 29.457 17.367c7.386 11.635 11.724 16.662 13.014 15.082 1.088-1.333.589-2.794.13-4.139-.358-1.048-.691-2.026-.233-2.819 1.047-1.812 6.961-.774 12.531.45 5.571 1.224 4.282-1.512 3.098-2.94-5.265-4.248-12.018-8.131-20.261-11.646zm-166.974 40.15c2.93-5.945 12.91-63.888 12.91-63.888l20.897.082s-19.354 62.481-20.897 66.304c-2.004 4.966 1.4 12.181 3.708 17.074.357.757.688 1.458.969 2.087-3.203 1.433-4.741-.299-6.363-2.125-1.832-2.063-3.771-4.245-8.334-2.122-1.763.82-3.431 1.789-5.061 2.737-5.63 3.272-10.802 6.279-17.838 1.937-1.115-.688-2.338-3.279.616-5.304 7.357-5.045 17.96-13.875 19.393-16.782z" fill="#B28B67"/><path fill-rule="evenodd" clip-rule="evenodd" d="M312.695 307.332l8.647-1.483c14.888 37.19 40.88 70.982 77.976 101.376l-28.032 34.056c-37.092-43.276-59.956-87.926-58.591-133.949z" fill="#191847"/><path fill-rule="evenodd" clip-rule="evenodd" d="M275 416h77s-26.759-65.062-26.759-110.539L302.014 302C283.76 331.358 278.605 367.505 275 416z" fill="#DDE3E9"/><path fill-rule="evenodd" clip-rule="evenodd" d="M240 449c8.421-95.004 61.504-147 61.504-147l.018.016.01-.016h1.516c2.721.094 8.29.338 8.29.338l5.612 16.039c.891 29.333 10.401 118.229 10.401 118.229H276.95c.086 4.076.275 8.209.581 12.394H240z" fill="#2F3676"/><path fill-rule="evenodd" clip-rule="evenodd" d="M276.958 437c-.402-17.75 1.173-34.416 3.8-49.498 1.374 17.897 4.245 39.431 10.242 49.498h-14.042z" fill="#000" fill-opacity=".1"/><path fill-rule="evenodd" clip-rule="evenodd" d="M288.111 406L313 394.429V406h-24.889z" fill="#fff" fill-opacity=".2"/></svg>