<svg width="60" height="60" viewBox="0 0 60 60" fill="none" xmlns="http://www.w3.org/2000/svg">
<path d="M27.2113 28.0722C26.6491 28.0722 26.1934 28.5279 26.1934 29.09V37.4214C26.1934 37.9835 26.6491 38.4393 27.2113 38.4393C27.7734 38.4393 28.2292 37.9835 28.2292 37.4214V29.09C28.2292 28.5279 27.7734 28.0722 27.2113 28.0722Z" fill="white"/>
<path d="M16.7269 29.3516C16.1647 29.3516 15.709 29.8073 15.709 30.3695V37.2131C15.709 37.7752 16.1647 38.231 16.7269 38.231C17.2891 38.231 17.7448 37.7752 17.7448 37.2131V30.3695C17.7448 29.8073 17.2891 29.3516 16.7269 29.3516Z" fill="white"/>
<path d="M21.9691 31.1964C21.4068 31.1964 20.9512 31.6522 20.9512 32.2143V36.3899C20.9512 36.9521 21.4068 37.4078 21.9691 37.4078C22.5313 37.4078 22.987 36.9521 22.987 36.3899V32.2143C22.987 31.6522 22.5313 31.1964 21.9691 31.1964Z" fill="white"/>
<path d="M32.4865 28.6679C31.9243 28.6679 31.4688 29.1236 31.4688 29.6857V35.0171C31.4688 35.5793 31.9243 36.035 32.4865 36.035C33.0486 36.035 33.5043 35.5793 33.5043 35.0171V29.6857C33.5043 29.1236 33.0486 28.6679 32.4865 28.6679Z" fill="white"/>
<path d="M43.0384 25.1495C42.4762 25.1495 42.0205 25.6053 42.0205 26.1674V29.8144C42.0205 30.3766 42.4762 30.8323 43.0384 30.8323C43.6004 30.8323 44.0562 30.3766 44.0562 29.8144V26.1674C44.0562 25.6053 43.6004 25.1495 43.0384 25.1495Z" fill="white"/>
<path d="M48.4042 28.9055L42.3633 34.255C42.3558 34.2617 42.3495 34.2689 42.3422 34.2757C42.3293 34.2878 42.3166 34.3001 42.3043 34.3129C42.2925 34.3251 42.2813 34.3376 42.2703 34.3503C42.2599 34.3623 42.2497 34.3744 42.2398 34.3869C42.2286 34.401 42.218 34.4153 42.2076 34.4299C42.199 34.4421 42.1906 34.4545 42.1825 34.4671C42.1727 34.4823 42.1634 34.4975 42.1545 34.5132C42.147 34.5265 42.1396 34.54 42.1326 34.5538C42.1247 34.569 42.1173 34.5844 42.1103 34.5999C42.1036 34.6149 42.0973 34.63 42.0912 34.6454C42.0855 34.6604 42.0799 34.6754 42.0747 34.6907C42.0692 34.707 42.064 34.7235 42.0594 34.7401C42.0552 34.7553 42.0512 34.7704 42.0476 34.7858C42.0437 34.8025 42.0403 34.8193 42.0372 34.8363C42.0342 34.8527 42.0319 34.8691 42.0297 34.8855C42.0276 34.9015 42.0257 34.9175 42.0245 34.9338C42.0229 34.9522 42.0221 34.9706 42.0217 34.989C42.0213 34.9985 42.0203 35.0077 42.0203 35.0172V39.4417C42.0203 39.6593 41.8438 39.8357 41.6263 39.8357H13.2686C13.1137 39.8357 12.9882 39.7102 12.9882 39.5553V38.6578C12.9882 38.6522 12.9875 38.6468 12.9873 38.6411C12.987 38.6214 12.9857 38.6018 12.9844 38.5821C12.9833 38.5679 12.9825 38.5538 12.9808 38.5398C12.9786 38.5211 12.9755 38.5025 12.9722 38.4839C12.9698 38.4692 12.9675 38.4544 12.9642 38.4398C12.9605 38.4229 12.9558 38.406 12.9511 38.3891C12.947 38.3735 12.9427 38.3579 12.9378 38.3425C12.9329 38.3273 12.9269 38.3123 12.9212 38.2972C12.915 38.2808 12.9088 38.2644 12.9018 38.2484C12.8957 38.2348 12.8891 38.2215 12.8824 38.208C12.874 38.1912 12.8656 38.1743 12.8563 38.1579C12.8494 38.1456 12.8417 38.1336 12.8342 38.1215C12.8239 38.1048 12.8133 38.0883 12.802 38.0722C12.7987 38.0676 12.7961 38.0627 12.7929 38.0581L11.8109 36.7115C11.7014 36.5614 11.6531 36.3754 11.6756 36.191L12.7034 27.7764C12.7264 27.5876 12.8932 27.4499 13.0831 27.4632L22.0046 28.0855C22.0084 28.0859 22.0121 28.0861 22.016 28.0864L22.018 28.0865C22.0226 28.0869 22.0271 28.0868 22.0316 28.087C22.0506 28.088 22.0695 28.0893 22.0887 28.0893C22.1192 28.0893 22.1497 28.0874 22.1804 28.0847C22.19 28.0838 22.1994 28.0824 22.2089 28.0813C22.228 28.079 22.2472 28.0763 22.2664 28.0729C22.2797 28.0706 22.2927 28.0679 22.3057 28.065C22.3208 28.0618 22.3357 28.058 22.3506 28.0541C22.365 28.0502 22.3796 28.0463 22.3939 28.0418C22.398 28.0405 22.4021 28.0396 22.4062 28.0383L43.9425 20.9729C44.1084 20.9184 44.2896 20.9891 44.3749 21.1414L48.4779 28.4704C48.5586 28.6148 48.528 28.7959 48.4042 28.9055ZM50.9198 28.8695C50.9185 28.85 50.9175 28.8305 50.915 28.8111C50.9133 28.797 50.9106 28.783 50.9083 28.769C50.9052 28.7509 50.9026 28.7329 50.8985 28.7149C50.8948 28.6981 50.8898 28.6814 50.8852 28.6647C50.8811 28.65 50.8774 28.6352 50.8727 28.6205C50.866 28.5997 50.8577 28.5792 50.8495 28.5588C50.8453 28.5484 50.8418 28.538 50.8373 28.5278C50.827 28.5041 50.815 28.481 50.8027 28.458C50.7995 28.4517 50.7968 28.4452 50.7933 28.4388L50.7896 28.4322C50.7885 28.4303 50.7873 28.4283 50.7863 28.4264L45.5951 19.1536C45.5948 19.1529 45.5943 19.1523 45.5938 19.1517C45.5783 19.1239 45.5612 19.0971 45.5434 19.0713C45.542 19.0691 45.5407 19.0669 45.5392 19.0648C45.522 19.0402 45.5033 19.0167 45.484 18.9938C45.4813 18.9907 45.479 18.9872 45.4763 18.9841C45.4616 18.9672 45.4459 18.9516 45.4302 18.9358C45.4222 18.9276 45.4146 18.9188 45.4062 18.9109C45.4051 18.9098 45.4038 18.9089 45.4028 18.9079C45.2902 18.8025 45.1565 18.7263 45.013 18.681C45.0032 18.6779 44.9937 18.6742 44.984 18.6713C44.972 18.668 44.9599 18.6659 44.948 18.6629C44.886 18.6478 44.8227 18.6384 44.7585 18.6351C44.7363 18.6339 44.7142 18.6325 44.692 18.6328C44.688 18.6329 44.684 18.6335 44.6799 18.6335C44.6505 18.6343 44.6208 18.6359 44.5913 18.6394C44.5899 18.6395 44.5885 18.6399 44.5871 18.64C44.5548 18.6438 44.5228 18.6491 44.4908 18.6561C44.4879 18.6567 44.4851 18.6577 44.4823 18.6583C44.4522 18.6652 44.4222 18.6731 44.3925 18.6828C44.3915 18.6831 44.3906 18.6833 44.3897 18.6836L22.1026 25.9953C22.009 26.026 21.9104 26.0383 21.8121 26.0314L11.9221 25.3414C11.914 25.3409 11.9062 25.3413 11.8983 25.341C11.8786 25.34 11.8592 25.3397 11.84 25.3399C11.8258 25.34 11.812 25.3404 11.7982 25.3412C11.7771 25.3422 11.7563 25.344 11.7356 25.3463C11.7232 25.3477 11.7108 25.3493 11.6985 25.3512C11.6773 25.3543 11.6564 25.3582 11.6354 25.3628C11.6239 25.3653 11.6122 25.3679 11.6007 25.3709C11.58 25.3762 11.5596 25.382 11.5393 25.3886C11.5281 25.3923 11.517 25.396 11.5058 25.4C11.4861 25.4072 11.4665 25.415 11.4474 25.4233C11.4364 25.428 11.4255 25.4329 11.4146 25.4381C11.396 25.447 11.3777 25.4564 11.3597 25.4665C11.349 25.4723 11.3384 25.4783 11.328 25.4846C11.3106 25.495 11.2936 25.5061 11.2769 25.5176C11.2666 25.5246 11.2565 25.5317 11.2466 25.539C11.2304 25.5509 11.2149 25.5634 11.1995 25.5762C11.1897 25.5843 11.1801 25.5925 11.1706 25.601C11.1561 25.6142 11.142 25.6278 11.1281 25.6418C11.1188 25.6511 11.1098 25.6605 11.1008 25.6702C11.0879 25.6843 11.0755 25.6988 11.0634 25.7137C11.0546 25.7243 11.046 25.7352 11.0378 25.7462C11.0266 25.7609 11.0161 25.7761 11.0057 25.7915C10.9974 25.8037 10.9895 25.816 10.9819 25.8285C10.9727 25.8437 10.9641 25.859 10.9555 25.8747C10.9481 25.8886 10.941 25.9025 10.9341 25.9168C10.9268 25.9321 10.9198 25.9475 10.9133 25.9632C10.9068 25.9787 10.9006 25.9944 10.8949 26.0103C10.8894 26.0255 10.8843 26.0409 10.8795 26.0566C10.8742 26.0735 10.8694 26.0907 10.865 26.108C10.8612 26.1236 10.8576 26.1393 10.8545 26.1552C10.8509 26.1729 10.8478 26.1909 10.8452 26.209C10.8439 26.2172 10.8419 26.2251 10.8408 26.2334L9.57108 36.6298C9.56992 36.6394 9.56991 36.649 9.56897 36.6587C9.5673 36.6771 9.5658 36.6955 9.56508 36.7141C9.56447 36.7299 9.56441 36.7456 9.56447 36.7613C9.56464 36.7787 9.56503 36.7959 9.56603 36.8133C9.56697 36.8298 9.56847 36.8461 9.57019 36.8624C9.57191 36.8789 9.57414 36.8953 9.57664 36.9118C9.57919 36.9282 9.58225 36.9445 9.58558 36.9607C9.58903 36.9769 9.59275 36.993 9.59691 37.0092C9.60108 37.0251 9.60558 37.0409 9.61047 37.0565C9.61547 37.0725 9.6208 37.0883 9.62664 37.1042C9.63236 37.1196 9.63841 37.1348 9.64491 37.1499C9.6513 37.1652 9.65808 37.1803 9.66536 37.1953C9.6728 37.2108 9.6808 37.2259 9.68903 37.2409C9.69664 37.2549 9.70447 37.2687 9.71286 37.2824C9.72236 37.298 9.73252 37.3132 9.74291 37.3283C9.74841 37.3364 9.75314 37.3449 9.75897 37.3529L10.8175 38.8045C10.9051 38.9248 10.9524 39.0698 10.9524 39.2185V40.8535C10.9524 41.4157 11.4081 41.8714 11.9702 41.8714H43.0382C43.6002 41.8714 44.056 41.4157 44.056 40.8535V35.6929C44.056 35.5546 44.1152 35.4229 44.2188 35.3312L50.5697 29.7072C50.571 29.706 50.5722 29.7049 50.5736 29.7037L50.5798 29.6981C50.5859 29.6928 50.591 29.6869 50.597 29.6815C50.6154 29.6643 50.6337 29.6471 50.6506 29.6288C50.6586 29.6202 50.6657 29.6112 50.6733 29.6024C50.6874 29.586 50.7017 29.5698 50.7147 29.5527C50.7242 29.5404 50.7326 29.5274 50.7415 29.5147C50.7511 29.5006 50.7611 29.4867 50.7701 29.4721C50.78 29.4564 50.7885 29.4403 50.7973 29.4242C50.804 29.4117 50.8113 29.3994 50.8175 29.3867C50.8262 29.3692 50.8336 29.3513 50.8412 29.3334C50.8463 29.3212 50.8518 29.3092 50.8566 29.2967C50.8633 29.279 50.8688 29.2609 50.8746 29.2428C50.8788 29.2295 50.8833 29.2163 50.887 29.2028C50.8915 29.186 50.8951 29.169 50.8987 29.152C50.9021 29.1367 50.9056 29.1214 50.9083 29.1059C50.9108 29.0907 50.9125 29.0754 50.9143 29.0602C50.9165 29.0426 50.9188 29.0251 50.9201 29.0074C50.921 28.9938 50.9212 28.98 50.9215 28.9663C50.9221 28.9472 50.9227 28.928 50.9223 28.9088C50.922 28.8957 50.9207 28.8826 50.9198 28.8695Z" fill="white"/>
<path d="M37.7621 25.1496C37.1999 25.1496 36.7441 25.6053 36.7441 26.1674V36.6853C36.7441 37.2474 37.1999 37.7032 37.7621 37.7032C38.3243 37.7032 38.78 37.2474 38.78 36.6853V26.1674C38.78 25.6053 38.3243 25.1496 37.7621 25.1496Z" fill="white"/>
</svg>
