<svg width="48" height="48" fill="none" xmlns="http://www.w3.org/2000/svg" viewBox="0 0 750 750"><path d="M317.66 335.91c-10.121 0-18.324 8.199-18.324 18.32v149.965c0 10.117 8.203 18.321 18.324 18.321 10.113 0 18.32-8.204 18.32-18.321V354.23c0-10.121-8.207-18.32-18.32-18.32zM128.938 358.938c-10.122 0-18.325 8.203-18.325 18.324v123.183c0 10.121 8.203 18.321 18.325 18.321 10.117 0 18.32-8.2 18.32-18.321V377.262c0-10.121-8.203-18.324-18.32-18.324zM223.297 392.145c-10.121 0-18.32 8.203-18.32 18.32v75.164c0 10.117 8.199 18.32 18.32 18.32s18.32-8.203 18.32-18.32v-75.164c0-10.117-8.199-18.32-18.32-18.32zM412.613 346.633c-10.117 0-18.32 8.203-18.32 18.32v95.965c0 10.117 8.203 18.32 18.32 18.32s18.321-8.203 18.321-18.32v-95.965c0-10.117-8.204-18.32-18.321-18.32zM602.527 283.301c-10.121 0-18.324 8.203-18.324 18.32v65.649c0 10.117 8.203 18.32 18.324 18.32 10.118 0 18.321-8.203 18.321-18.32v-65.649c0-10.117-8.203-18.32-18.321-18.32zM507.57 283.301c-10.121 0-18.324 8.203-18.324 18.32v189.324c0 10.117 8.203 18.321 18.324 18.321 10.121 0 18.325-8.204 18.325-18.321V301.621c0-10.117-8.204-18.32-18.325-18.32z" fill="#fff"/><path d="M43.5 566H603V460.5l123-109-93.5-167-407 133-185-12.5-22 187 25 35v39z" stroke="#fff" stroke-width="37" stroke-linecap="round" stroke-linejoin="round"/></svg>
