<svg width="602" height="164" viewBox="0 0 602 164" fill="none" xmlns="http://www.w3.org/2000/svg">
    <g clip-path="url(#clip0_3238_1681)">
        <path d="M224.79 25.7397H234.59V68.0697H224.79V25.7397Z" fill="black"/>
        <path d="M283.51 25.7397V68.0697H275.51L254.39 42.3597V68.0697H244.71V25.7397H252.79L273.79 51.4497V25.7397H283.51Z" fill="black"/>
        <path d="M332.39 25.7397V68.0697H324.39L303.28 42.3597V68.0697H293.6V25.7397H301.71L322.76 51.4497V25.7397H332.39Z" fill="black"/>
        <path d="M351.05 65.9698C347.621 64.1688 344.753 61.4602 342.76 58.1398C340.801 54.723 339.771 50.8532 339.771 46.9148C339.771 42.9764 340.801 39.1065 342.76 35.6898C344.756 32.3716 347.623 29.6637 351.05 27.8598C354.728 25.9931 358.795 25.0203 362.92 25.0203C367.045 25.0203 371.111 25.9931 374.79 27.8598C378.208 29.6748 381.073 32.3802 383.08 35.6898C384.608 38.2005 385.608 40.9968 386.017 43.9074C386.427 46.8181 386.238 49.7816 385.461 52.6166C384.685 55.4516 383.338 58.0982 381.503 60.3943C379.668 62.6904 377.384 64.5876 374.79 65.9698C371.111 67.8364 367.045 68.8093 362.92 68.8093C358.795 68.8093 354.728 67.8364 351.05 65.9698ZM369.71 58.7398C371.71 57.6098 373.355 55.944 374.46 53.9297C375.584 51.7678 376.171 49.3667 376.171 46.9297C376.171 44.4928 375.584 42.0917 374.46 39.9297C373.355 37.9155 371.71 36.2497 369.71 35.1198C367.63 33.9907 365.301 33.3993 362.935 33.3993C360.568 33.3993 358.239 33.9907 356.16 35.1198C354.16 36.2497 352.515 37.9155 351.41 39.9297C350.285 42.0917 349.698 44.4928 349.698 46.9297C349.698 49.3667 350.285 51.7678 351.41 53.9297C352.515 55.944 354.16 57.6098 356.16 58.7398C358.238 59.875 360.567 60.4699 362.935 60.4699C365.302 60.4699 367.632 59.875 369.71 58.7398Z" fill="black"/>
        <path d="M421.58 27.6198C424.183 28.7323 426.404 30.5815 427.97 32.9398C429.431 35.4074 430.201 38.2223 430.201 41.0898C430.201 43.9573 429.431 46.7722 427.97 49.2398C426.416 51.6114 424.192 53.4669 421.58 54.5698C418.489 55.8623 415.16 56.4893 411.81 56.4098H403.29V68.0698H393.48V25.7398H411.79C415.15 25.6598 418.489 26.3008 421.58 27.6198ZM417.98 46.5198C418.755 45.8566 419.366 45.0231 419.765 44.0846C420.164 43.146 420.34 42.1279 420.28 41.1098C420.344 40.081 420.17 39.0513 419.771 38.1009C419.372 37.1504 418.759 36.3048 417.98 35.6298C416.447 34.3631 414.21 33.7298 411.27 33.7298H403.27V48.4298H411.27C414.21 48.4298 416.447 47.7932 417.98 46.5198Z" fill="black"/>
        <path d="M446.38 65.9698C442.954 64.1687 440.09 61.4599 438.1 58.1399C436.573 55.6294 435.574 52.8336 435.164 49.9238C434.755 47.0139 434.943 44.0511 435.719 41.2166C436.494 38.3821 437.839 35.7356 439.672 33.439C441.505 31.1423 443.788 29.2439 446.38 27.8599C450.06 25.9931 454.128 25.0203 458.255 25.0203C462.381 25.0203 466.45 25.9931 470.13 27.8599C473.585 29.7004 476.475 32.4459 478.49 35.8023C480.505 39.1588 481.569 43 481.569 46.9149C481.569 50.8297 480.505 54.6709 478.49 58.0274C476.475 61.3838 473.585 64.1293 470.13 65.9698C466.45 67.8366 462.381 68.8094 458.255 68.8094C454.128 68.8094 450.06 67.8366 446.38 65.9698ZM465.05 58.7399C467.048 57.607 468.692 55.9418 469.8 53.9298C470.924 51.7679 471.512 49.3668 471.512 46.9298C471.512 44.4929 470.924 42.0918 469.8 39.9298C468.692 37.9178 467.048 36.2527 465.05 35.1198C462.97 33.9908 460.641 33.3994 458.275 33.3994C455.909 33.3994 453.58 33.9908 451.5 35.1198C449.5 36.2498 447.855 37.9156 446.75 39.9298C445.619 42.0898 445.028 44.4917 445.028 46.9298C445.028 49.368 445.619 51.7699 446.75 53.9298C447.855 55.9441 449.5 57.6099 451.5 58.7399C453.578 59.8751 455.907 60.47 458.275 60.47C460.643 60.47 462.972 59.8751 465.05 58.7399Z" fill="black"/>
        <path d="M488.79 25.7397H498.59V60.0697H519.82V68.0697H488.82L488.79 25.7397Z" fill="black"/>
        <path d="M525.36 25.7397H535.16V68.0697H525.36V25.7397Z" fill="black"/>
        <path d="M549.4 67.4498C546.692 66.7491 544.138 65.5485 541.87 63.9098L545.2 56.5298C547.171 57.9394 549.355 59.0232 551.67 59.7398C554.091 60.5355 556.622 60.9438 559.17 60.9498C561.95 60.9498 564.007 60.5365 565.34 59.7098C565.941 59.3918 566.444 58.917 566.796 58.3359C567.148 57.7549 567.336 57.0892 567.34 56.4098C567.345 55.9296 567.242 55.4544 567.037 55.0198C566.833 54.5852 566.533 54.2024 566.16 53.8998C565.271 53.1807 564.253 52.6377 563.16 52.2998C561.93 51.8998 560.27 51.4498 558.16 50.9698C555.476 50.3635 552.831 49.5955 550.24 48.6698C548.191 47.9052 546.368 46.636 544.94 44.9798C543.399 43.0668 542.616 40.6533 542.74 38.1998C542.719 35.8225 543.416 33.4942 544.74 31.5198C546.237 29.3877 548.321 27.7373 550.74 26.7698C553.862 25.5193 557.208 24.9236 560.57 25.0198C563.245 25.0249 565.908 25.3608 568.5 26.0198C570.89 26.582 573.175 27.5203 575.27 28.7998L572.27 36.2398C568.716 34.1215 564.667 32.9732 560.53 32.9098C557.79 32.9098 555.76 33.3598 554.45 34.2398C553.84 34.6002 553.335 35.1135 552.984 35.7291C552.633 36.3447 552.449 37.0413 552.45 37.7498C552.448 38.4566 552.664 39.1468 553.069 39.7265C553.473 40.3063 554.046 40.7474 554.71 40.9898C556.944 41.9152 559.266 42.6121 561.64 43.0698C564.326 43.6823 566.974 44.4503 569.57 45.3698C571.604 46.1296 573.42 47.3759 574.86 48.9998C576.411 50.8846 577.2 53.2822 577.07 55.7198C577.094 58.0787 576.396 60.3886 575.07 62.3398C573.545 64.4769 571.433 66.1266 568.99 67.0898C565.857 68.3381 562.502 68.9336 559.13 68.8398C555.837 68.8422 552.561 68.3742 549.4 67.4498Z" fill="black"/>
        <path d="M229.52 133.53C226.147 130.196 224.48 125.42 224.52 119.2V95.4797H234.32V118.83C234.32 126.423 237.467 130.216 243.76 130.21C246.82 130.21 249.154 129.29 250.76 127.45C252.38 125.62 253.18 122.75 253.18 118.83V95.4797H262.79V119.2C262.79 125.406 261.124 130.183 257.79 133.53C254.457 136.876 249.75 138.543 243.67 138.53C237.604 138.55 232.887 136.883 229.52 133.53Z" fill="black"/>
        <path d="M311.34 95.4797V137.83H303.34L282.23 112.12V137.83H272.55V95.4797H280.66L301.66 121.19V95.4797H311.34Z" fill="black"/>
        <path d="M321.38 95.4797H331.18V137.83H321.38V95.4797Z" fill="black"/>
        <path d="M381.69 95.4797L363.36 137.83H353.68L335.41 95.4797H346L358.88 125.73L371.95 95.4797H381.69Z" fill="black"/>
        <path d="M417.98 129.97V137.83H385.2V95.4797H417.2V103.35H394.94V112.54H414.6V120.17H394.94V129.97H417.98Z" fill="black"/>
        <path d="M452.79 137.83L444.62 126.03H435.62V137.83H425.79V95.4797H444.12C447.473 95.4035 450.804 96.0444 453.89 97.3597C456.534 98.4574 458.777 100.339 460.318 102.751C461.86 105.163 462.625 107.99 462.51 110.85C462.624 113.708 461.846 116.53 460.283 118.926C458.721 121.322 456.451 123.172 453.79 124.22L463.29 137.83H452.79ZM450.31 105.38C448.77 104.113 446.53 103.476 443.59 103.47H435.59V118.23H443.59C446.53 118.23 448.77 117.59 450.31 116.29C451.035 115.578 451.612 114.73 452.005 113.793C452.398 112.856 452.601 111.851 452.601 110.835C452.601 109.819 452.398 108.813 452.005 107.876C451.612 106.94 451.035 106.091 450.31 105.38Z" fill="black"/>
        <path d="M474.45 137.19C471.744 136.486 469.192 135.289 466.92 133.66L470.25 126.28C472.221 127.686 474.406 128.767 476.72 129.48C479.141 130.275 481.672 130.684 484.22 130.69C487 130.69 489.057 130.276 490.39 129.45C490.992 129.133 491.496 128.659 491.848 128.078C492.201 127.496 492.388 126.83 492.39 126.15C492.395 125.67 492.291 125.194 492.087 124.76C491.883 124.325 491.583 123.942 491.21 123.64C490.321 122.921 489.303 122.378 488.21 122.04C486.98 121.64 485.32 121.19 483.21 120.71C480.526 120.102 477.882 119.334 475.29 118.41C473.239 117.655 471.417 116.384 470 114.72C468.45 112.815 467.662 110.402 467.79 107.95C467.767 105.569 468.464 103.237 469.79 101.26C471.289 99.1301 473.373 97.4803 475.79 96.5098C478.912 95.2593 482.258 94.6636 485.62 94.7598C488.294 94.7642 490.958 95.1001 493.55 95.7598C495.94 96.322 498.225 97.2603 500.32 98.5398L497.32 105.98C493.766 103.86 489.717 102.712 485.58 102.65C482.84 102.65 480.81 103.1 479.5 103.98C478.89 104.34 478.384 104.854 478.034 105.469C477.683 106.085 477.499 106.781 477.5 107.49C477.497 108.198 477.714 108.89 478.121 109.47C478.527 110.05 479.103 110.49 479.77 110.73C482.001 111.655 484.319 112.355 486.69 112.82C489.376 113.425 492.024 114.19 494.62 115.11C496.655 115.867 498.471 117.114 499.91 118.74C501.46 120.625 502.248 123.022 502.12 125.46C502.145 127.819 501.447 130.129 500.12 132.08C498.594 134.217 496.483 135.867 494.04 136.83C490.907 138.082 487.552 138.681 484.18 138.59C480.886 138.589 477.61 138.118 474.45 137.19Z" fill="black"/>
        <path d="M508.84 95.4797H518.64V137.83H508.84V95.4797Z" fill="black"/>
        <path d="M537.45 103.47H523.9V95.4697H560.79V103.47H547.24V137.83H537.44L537.45 103.47Z" fill="black"/>
        <path d="M585.61 122.83V137.83H575.79V122.71L559.39 95.4797H569.79L581.1 114.3L592.41 95.4797H602.03L585.61 122.83Z" fill="black"/>
        <path d="M45.82 58.5601H0V163.95H45.82V58.5601Z" fill="#40BA21"/>
        <path d="M119.129 -1V118.13H105.389V-1H59.5693V163.95H69.3193H105.389H119.129H150.149H164.949V-1H119.129Z" fill="#40BA21"/>
        <path d="M45.82 -1H0V44.82H45.82V-1Z" fill="#40BA21"/>
    </g>
    <defs>
        <clipPath id="clip0_3238_1681">
            <rect width="602" height="164" fill="white"/>
        </clipPath>
    </defs>
</svg>
