<svg width="1624" height="367" fill="none" xmlns="http://www.w3.org/2000/svg"><path fill-rule="evenodd" clip-rule="evenodd" d="M761.846 130.879V95.082c0-6.006-4.915-10.922-10.924-10.922h-56.84c-4.986 0-9.979 3.548-10.808 9.387l.004-.022c-.074.507-.114 5.066-.114 5.595v31.759c0 6.008 4.915 10.932 10.918 10.932h56.84c6.009 0 10.924-4.924 10.924-10.932zm-5.635 33.324H688.79c-15.33 0-33.343-12.479-33.343-28.927V90.691c0-16.448 18.013-28.923 33.343-28.923h67.421c15.332 0 33.344 12.479 33.344 28.923v44.583c0 16.442-18.023 28.929-33.344 28.929zM536.699 84.398zm1.493-.208zm57.75-.027l-.142-.003h-56.844v.003H595.942zm10.772 47.093l.004-3.732V95.082c0-5.896-4.738-10.746-10.595-10.916H538.966c-6.006 0-10.926 4.91-10.926 10.916v35.797c0 6.008 4.92 10.932 10.926 10.932H595.8c5.883 0 10.715-4.716 10.914-10.555zm-5.622 32.947H533.674c-1.694 0-3.392-.151-5.072-.428v53.099c0 13.868-11.247 25.109-25.114 25.109h-3.156V90.691c0-16.448 18.006-28.923 33.342-28.923h67.418c15.323 0 33.346 12.479 33.346 28.923v44.583c0 16.442-18.026 28.929-33.346 28.929zm-148.88-33.324V95.082c0-6.006-4.916-10.922-10.924-10.922h-56.842c-4.987 0-9.978 3.548-10.808 9.387l.004-.022c-.074.507-.114 5.066-.114 5.595v31.759c0 6.008 4.916 10.932 10.918 10.932h56.84c6.01 0 10.926-4.924 10.926-10.932zm-5.637 33.324h-67.423c-15.328 0-33.34-12.479-33.34-28.927V90.691c0-16.448 18.012-28.923 33.34-28.923h67.423c15.329 0 33.349 12.479 33.349 28.923v44.583c0 16.442-18.026 28.929-33.349 28.929zM837.635.993v123.713c0 9.404 7.712 17.105 17.115 17.105H892v22.392h-49.294c-15.319 0-33.336-12.479-33.336-28.927V26.11c0-13.872 11.249-25.118 25.117-25.118h3.148zm77.511 82.729c0-12.66 12.497-21.954 25.117-21.954h3.147v102.466h-28.264V83.722zm181.394.44h-91.36c-13.524 0-13.464 17.726 0 17.726 12.07 0 23.59-.21 35.59-.21.9 0 1.8.025 2.7.076h22.81c15.34 0 33.35 12.469 33.35 28.922v4.598c0 16.45-18.01 28.929-33.35 28.929h-25.5v-.003h-74.225v-22.393H1061c14.08 0 13.7-17.733-.02-17.733-11.98 0-23.8.213-35.58.213a46.2 46.2 0 01-2.57-.072h-22.942c-15.336 0-33.333-12.475-33.333-28.921V90.69c0-16.45 17.997-28.923 33.333-28.923h96.652v22.395zm-800.106-4.589c0-12.67 8.721-17.805 21.332-17.805l18.537.052c-7.063.807-11.703 2.696-11.603 19.93v66.906c0 6.35-4.637 15.578-10.992 15.578H288.13h.008-.008c-6.146.12-11.119-5.586-15.343-9.747l-72.148-71.09v65.259c0 6.35-4.649 15.578-10.997 15.578h-25.578.01-.01c-6.144.12-11.125-5.586-15.338-9.747L76.939 83.751v-.002c-.015.7-.02 1.418-.015 2.158v78.327H48.672V83.722c0-12.66 8.715-21.954 21.326-21.954l18.521.052c1.725 0 3.744.463 7.215 3.864l76.636 74.894V79.573c0-12.67 8.738-17.805 21.332-17.805l18.528.052-.026.003.292-.003c1.754-.012 3.771.41 7.308 3.864l76.63 74.892V79.574zM0 83.722c0-12.66 12.51-21.954 25.13-21.954h3.146v102.466H0V83.722zm773.984 124.286c0-12.661 12.5-21.956 25.122-21.956h3.144v102.466h-28.266v-80.51zm-299.169-21.421c-13.784 2.543-27.707 13.928-27.707 28.391v44.585c0 16.448 18.012 28.927 33.346 28.927h67.424c15.32 0 33.342-12.487 33.342-28.927v-72.977c-13.784 2.537-27.717 13.929-27.717 28.392 0 13.394-.005 26.79-.005 40.185 0 6.015-4.906 10.933-10.923 10.933h-56.819c-6.021 0-10.941-4.918-10.941-10.933v-68.576zm887.925 21.421c0-12.661 12.5-21.956 25.12-21.956h3.15v102.466h-28.27v-80.51zM1624 366.27h-3.15c-13.87 0-25.12-11.242-25.12-25.107v-53.107c-1.7.286-3.4.434-5.07.434h-67.42c-15.32 0-33.35-12.487-33.35-28.927v-44.585c0-14.463 13.94-25.854 27.72-28.392v68.86c.16 5.881 5.01 10.65 10.92 10.65h56.84c5.17 0 9.54-3.646 10.65-8.501v-.02c.18-.777.27-1.583.27-2.412v-40.185c0-14.466 13.92-25.854 27.71-28.391V366.27zm-502.63-158.291c0-12.663 12.49-21.956 25.11-21.956H1191.57v.029h8.84v22.399h-33.67c-9.4 0-17.11 7.703-17.11 17.107v62.932h-28.26v-80.511zm-519.751.029c0-12.661 8.708-21.956 21.324-21.956l18.517.058c1.728 0 3.744.457 7.219 3.861l76.639 74.895v-61.01c0-12.666 8.74-17.804 21.33-17.804l18.526.058c-7.042.804-11.69 2.69-11.59 19.929v66.907c0 6.348-4.649 15.572-11.001 15.572H717.012c-6.146.122-11.126-5.586-15.34-9.744l-71.786-70.738c-.016.7-.022 1.416-.016 2.159v78.323h-28.251v-80.51zm365.188-21.956c-12.417.046-29.524-1.658-38.471 13.091l-41.352 62.776-41.357-62.779c-8.355-14.472-25.56-13.088-38.465-13.088l56.358 86.686c5.692 8.749 12.208 14.78 20.38 15.63 9.976 1.035 19.008-4.04 26.548-15.63 17.356-26.702 37.451-57.604 56.359-86.686zm514.803 85.855v16.583H1444.74c-15.32 0-33.34-12.479-33.34-28.927V150.399c0-13.873 11.26-25.121 25.12-25.121h3.15v61.208c1.71-.282 3.4-.434 5.07-.434h29.05v22.399H1439.67v40.539c0 9.406 7.71 17.106 17.11 17.106h24.83v5.811zm-382.29-5.813h-94.44c-13.505 0-13.504-17.731.01-17.731 11.98 0 23.8.211 35.58.211.85 0 1.71-.023 2.58-.07h22.94c15.33 0 33.33-12.474 33.33-28.925v-4.601c0-16.451-18-28.926-33.33-28.926h-66.415c-15.331 0-33.333 12.475-33.333 28.926v44.585c0 16.448 18.014 28.927 33.352 28.927l99.726-.002v-22.394zm-99.726-40.052l61.096.134c13.47 0 13.53-17.725 0-17.725H1004.87c-5.295 0-9.74 3.811-10.728 8.829h-.076v9.274a31.185 31.185 0 015.528-.512zm339.646-17.591h-91.35c-13.52 0-13.47 17.725 0 17.725 12.07 0 23.59-.213 35.58-.213.9 0 1.81.028 2.71.079h22.81c15.34 0 33.35 12.469 33.35 28.918v4.603c0 16.448-18.01 28.927-33.35 28.927h-25.5v-.002h-74.22v-22.394h94.43c14.09 0 13.71-17.731-.01-17.731-11.98 0-23.8.211-35.58.211-.85 0-1.71-.023-2.57-.07h-22.94c-15.34 0-33.33-12.474-33.33-28.925v-4.601c0-16.451 17.99-28.926 33.33-28.926h96.64v22.399z" fill="#127800"/></svg>