<svg width="750" height="400" fill="none" xmlns="http://www.w3.org/2000/svg"><path d="M2.763 250.463c-1.582-12.427 6.277-24.105 18.384-27.32L699.073 43.121c14.408-3.826 28.94 5.727 31.142 20.47l16.525 110.656c1.862 12.471-5.855 24.378-18 27.77L49.61 391.724c-14.69 4.104-29.6-5.79-31.526-20.92L2.764 250.463z" fill="red" fill-opacity=".13"/><path fill-rule="evenodd" clip-rule="evenodd" d="M181.178 87.655c2.816 10.378 6.486 33.704 2.741 37.363h-23.692l-.008-.125c-8.781-.972-15.611-8.418-15.611-17.458V90.278c0-9.701 7.864-17.566 17.565-17.566h1.634c8.81 0 16.105 6.486 17.371 14.943z" fill="#491C54"/><path fill-rule="evenodd" clip-rule="evenodd" d="M181.178 87.655c2.816 10.378 6.486 33.704 2.741 37.363h-23.692l-.008-.125c-8.781-.972-15.611-8.418-15.611-17.458V90.278c0-9.701 7.864-17.566 17.565-17.566h1.634c8.81 0 16.105 6.486 17.371 14.943z" fill="#000" fill-opacity=".1"/><path fill-rule="evenodd" clip-rule="evenodd" d="M153.809 104.159c-3.765-4.42-6.313-9.835-5.887-15.903 1.227-17.484 25.565-13.638 30.3-4.813 4.734 8.824 4.171 31.208-1.947 32.785-2.44.629-7.639-.911-12.929-4.1l3.321 23.493h-19.608l6.75-31.462z" fill="#B28B67"/><g clip-path="url(#clip0)" fill-rule="evenodd" clip-rule="evenodd"><path d="M144.314 198.529l26.065 86.982 19.018 64.111h13.871l-20.209-151.093h-38.745z" fill="#0D0D26"/><path d="M137.343 198.529c-.603 44.832-2.659 69.284-3.292 73.357-.633 4.074-10.204 29.985-28.714 77.736h14.369c23.565-45.809 36.719-71.72 39.463-77.736 2.744-6.015 11.213-30.467 23.968-73.357h-45.794z" fill="#1A1E42"/><path d="M104.052 361.928l.719-14.357h15.098c7.159 4.786 16.506 8.66 28.04 11.622v2.735h-27.321l-9.346-1.367v1.367h-7.19zM187.451 361.928l.719-14.357h15.098c7.159 4.786 16.505 8.66 28.039 11.622v2.735h-27.32l-9.346-1.367v1.367h-7.19z" fill="#191847"/></g><path fill-rule="evenodd" clip-rule="evenodd" d="M212.672 130.798l28.882-14.532c4.909-5.432 8.037-9.648 12.531-12.916 2.451-1.783 5.023-2.043 2.859 2.042-2.427 3.977-4.359 9.766-3.238 11.056 1.121 1.291 4.086-.354 5.402 1.771.878 1.417-4.159 3.431-15.112 6.042l-21.251 18.136-10.073-11.599zM194.018 192.168l20.386 25.096c6.358 3.629 11.473 7.416 15.345 11.36.826 1.27 1.615 3.612-2.791 2.094-4.405-1.519-9.107-2.918-10.127-1.546-1.02 1.371 1.222 3.915-.572 5.656-1.195 1.162-4.242-3.327-9.14-13.465l-22.27-16.87 9.169-12.325z" fill="#B28B67"/><path fill-rule="evenodd" clip-rule="evenodd" d="M167.86 132.082c7.052 29.187 21.789 53.996 45.253 81.91l-14.106 9.447c-29.027-20.33-44.111-31.963-46.13-58.328-.507-6.617 3.081-26.353 4.484-36.864l10.499 3.835z" fill="#CF1F1F"/><path fill-rule="evenodd" clip-rule="evenodd" d="M167.86 132.082c7.052 29.187 21.789 53.996 45.253 81.91l-14.106 9.447c-29.027-20.33-44.111-31.963-46.13-58.328-.507-6.617 3.081-26.353 4.484-36.864l10.499 3.835z" fill="#000" fill-opacity=".25"/><path fill-rule="evenodd" clip-rule="evenodd" d="M127.022 218.674h62.908c-14.25-43.46-21.529-73.288-21.838-89.484-.016-.826-1.541-2.281-2.215-2.09-4.934 1.393-10.214.872-15.839-1.563-14.914 23.985-20.071 53.516-23.016 93.137z" fill="#4B0B0B"/><path fill-rule="evenodd" clip-rule="evenodd" d="M155.406 125.575c18.033.148 47.289 3.441 81.03-7.391l3.331 16.645c-25.501 16.401-51.323 29.106-73.949 27.301 9.825 42.146 9.372 76.647-12.32 76.647h-33.542c-5.328-35.803 8.674-85.443 21.654-110.482.496-.956 1.551-2.758 4.037-2.758h9.746l.013.038z" fill="#CF1F1F"/><path fill-rule="evenodd" clip-rule="evenodd" d="M159.109 101.205c.904 9.704 2.847 19.771-2.15 23.417-4.998 3.646-23.192 1.423-23.693 0-1.32-22.936 11.438-14.054 11.438-35.65.795-.776 1.547-1.545 2.29-2.209l-.026-.635c4.103-8.399 9.308-12.599 15.615-12.599 9.461 0 12.447 4.403 14.989 8.14-1.901 6.524-9.279 7.491-15.835 11.558a4.493 4.493 0 10-2.628 7.978z" fill="#491C54"/><g clip-path="url(#clip1)" fill-rule="evenodd" clip-rule="evenodd"><path d="M498.317 127.034c3.765-4.419 6.313-9.834 5.887-15.902-1.226-17.484-25.565-13.638-30.299-4.813-4.734 8.824-4.172 31.208 1.947 32.785 2.44.629 7.638-.912 12.929-4.1l-3.321 23.493h19.608l-6.751-31.463z" fill="#B28B67"/><path d="M493.3 97.865c-9.851-3.413-22.633.575-20.923 8.573 1.099 5.136 7.047 7.702 12.899 10.447a5.052 5.052 0 014.389-2.506c2.778 0 5.03 2.195 5.03 4.902 0 .975-.292 1.884-.796 2.647 1.969 1.713 3.358 3.774 3.694 6.448 3.173 0 8.302-9.317 6.608-18.156.444.049.895.074 1.352.074 6.768 0 12.255-5.487 12.255-12.255 0-6.768-5.487-12.255-12.255-12.255-6.71 0-12.16 5.393-12.253 12.08z" fill="#3F2C1B"/></g><path fill-rule="evenodd" clip-rule="evenodd" d="M502.826 209.967l-41.945 70.125-31.447 59.285h-6.773l52.689-129.41h27.476z" fill="#997659"/><path fill-rule="evenodd" clip-rule="evenodd" d="M433.575 336.64c.632 1.686.948 2.947.948 3.784 0 1.018-.17 2.504-.509 4.457h-31.838c-.828-2.736-.35-4.212 1.433-4.43a179.54 179.54 0 004.442-.591l14.798-6.597a.564.564 0 01.752.3l.951 2.308c1.65.769 2.991 1.154 4.023 1.154.838 0 1.996-.338 3.473-1.015a1.128 1.128 0 011.527.63z" fill="#E4E4E4"/><path fill-rule="evenodd" clip-rule="evenodd" d="M438.167 329.884l-13.062-3.952c5.723-17.108 12.737-35.936 21.043-56.482s17.226-40.374 26.76-59.483h36.893c-10.6 24.172-21.838 46.136-33.713 65.891-11.875 19.754-24.515 37.763-37.921 54.026z" fill="#015B25"/><path fill-rule="evenodd" clip-rule="evenodd" d="M505.582 209.967c3.959 24.643 11.595 56.126 12.315 57.098.481.647 17.775 6.443 51.883 17.385l-1.463 5.973c-40.674-5.869-62.106-10.422-64.295-13.659-3.284-4.857-19.682-43.222-26.034-66.797h27.594z" fill="#B28B67"/><path fill-rule="evenodd" clip-rule="evenodd" d="M557.79 279.287l-2.577 9.62c-30.421 2.668-49.061.74-55.92-5.784-6.858-6.524-14.675-30.909-23.449-73.156h35.179c5.56 34.594 8.668 52.618 9.324 54.07.657 1.452 13.138 6.535 37.443 15.25z" fill="#017A32"/><path fill-rule="evenodd" clip-rule="evenodd" d="M568.109 281.962c1.77-.329 3.067-.421 3.892-.276 1.002.177 2.435.602 4.3 1.275l-5.529 31.354c-2.837.34-4.208-.386-4.114-2.18.095-1.793.158-3.286.19-4.477l-3.927-15.719a.564.564 0 01.411-.685l.015-.003 2.438-.536c1.044-1.492 1.656-2.746 1.836-3.762.145-.825.013-2.024-.398-3.596a1.13 1.13 0 01.808-1.378l.078-.017z" fill="#E4E4E4"/><path fill-rule="evenodd" clip-rule="evenodd" d="M450.171 201.39l-21.581 14.838c-5.854 1.479-10.744 3.319-14.671 5.52-.928.792-2.049 2.395 1.798 2.118 3.847-.277 7.907-.407 8.438.822.531 1.229-1.797 2.698-.724 4.356.715 1.105 4.095-1.666 10.139-8.314l21.372-8.298-4.771-11.042zm82.862.512l-14.139.052c8.73 26.387 13.443 40.388 14.139 42.003 1.566 3.633-1.747 9.165-3.164 12.139 4.614 1.933 4.123-5.227 9.943-2.691 5.313 2.314 9.355 6.508 15.493 2.961.755-.436 1.582-2.077-.416-3.36-4.978-3.196-12.152-8.79-13.121-10.631-1.322-2.511-4.234-16.002-8.735-40.473z" fill="#B28B67"/><path fill-rule="evenodd" clip-rule="evenodd" d="M492.853 146.352l-5.85-.94c-21.707 17.558-30.622 51.288-57.23 69.156l6.405 7.433c46.158-5.351 57.599-46.494 56.675-75.649z" fill="#B0AAA0"/><path fill-rule="evenodd" clip-rule="evenodd" d="M518.357 215.193h-51.766c-2.365 0-1.919-3.199-1.577-4.812 3.946-18.625 19.351-38.702 19.351-65.215l14.932-2.192c12.35 18.598 16.621 41.497 19.06 72.219z" fill="#DDE3E9"/><path fill-rule="evenodd" clip-rule="evenodd" d="M517.941 161.255c2.168-.583 3.886-1.945 5.152-4.084 5.457-9.22 3.486-14.297-2.346-15.966-5.832-1.668-11.034 1.769-20.326 1.769-.506 0-.968.03-1.389.089l-4.674.25c-13.412 42.558-17.11 70.953-11.097 85.183h40.744c2.414 5.271 4.724 9.705 6.93 13.303h11.102c1.045-31.632-6.987-58.48-24.096-80.544z" fill="#C4BFB8"/><path fill-rule="evenodd" clip-rule="evenodd" d="M515.133 206.639c-1.282 10.039-3.364 17.324-6.248 21.857h15.12c-2.816-6.148-5.773-13.434-8.872-21.857z" fill="#000" fill-opacity=".1"/><path fill-rule="evenodd" clip-rule="evenodd" d="M579.108 216.396c1.887 14.799-58.24 71.679-58.398 72.965-.07.571 10.501 16.047 31.713 46.427l-5.543 3.557c-29.33-30.783-43.807-48.17-43.429-52.159.54-5.713 14.753-27.025 42.638-63.937l33.019-6.853z" fill="#B28B67"/><path fill-rule="evenodd" clip-rule="evenodd" d="M549.315 328.586l-9.099 5.566c-25.449-19.173-37.476-36.81-37.987-46.935-.341-6.75 13.817-28.02 42.472-63.811l35.119-7.117c5.645 34.013-53.075 71.982-53.636 73.594-.562 1.612 10.692 14.004 23.131 38.703z" fill="#2F3676"/><path fill-rule="evenodd" clip-rule="evenodd" d="M554.403 334.191c1.52 1.187 2.513 2.163 2.981 2.927.569.93 1.244 2.382 2.026 4.356l-29.088 17.795c-2.285-2.037-2.674-3.653-1.167-4.848a184.764 184.764 0 003.728-3.023l9.833-14.298a.604.604 0 01.841-.155l.014.009 2.158 1.577c1.938-.219 3.379-.617 4.321-1.193.766-.469 1.635-1.425 2.606-2.869a1.209 1.209 0 011.747-.278z" fill="#E4E4E4"/><path fill-rule="evenodd" clip-rule="evenodd" d="M575.652 218.786l31.284 75.105 30.747 63.495h-7.254l-79.368-138.6h24.591z" fill="#997659"/><path fill-rule="evenodd" clip-rule="evenodd" d="M638.117 354.455c.677 1.805 1.015 3.156 1.015 4.052 0 1.091-.182 2.682-.545 4.773h-34.099c-.886-2.929-.375-4.511 1.534-4.744 1.91-.234 3.496-.445 4.758-.633l15.849-7.066a.605.605 0 01.799.306l.006.016 1.019 2.471c1.768.825 3.204 1.237 4.309 1.237.897 0 2.137-.362 3.719-1.087a1.208 1.208 0 011.636.675z" fill="#E4E4E4"/><path fill-rule="evenodd" clip-rule="evenodd" d="M634.907 344.195l-16.119 3.023c-12.464-18.323-64.623-93.456-70.342-128.432h35.885c19.098 25.284 38.696 106.783 50.576 125.409z" fill="#5C63AB"/><path fill-rule="evenodd" clip-rule="evenodd" d="M573.825 121.505c3.765-4.419 6.313-9.834 5.887-15.903-1.227-17.484-25.565-13.637-30.3-4.813-4.734 8.825-4.171 31.209 1.947 32.786 2.44.629 7.639-.912 12.929-4.101l-3.321 23.493h19.608l-6.75-31.462z" fill="#B28B67"/><path fill-rule="evenodd" clip-rule="evenodd" d="M575.332 125.441c2.461-10.949 9.471-18.412 8.401-23.306-.714-3.262-2.617-5.29-5.708-6.086-1.599-6.468-6.755-9.219-15.469-8.253-13.071 1.449-21.049 6.877-17.604 18.822 3.167 0 6.99-1.146 12.277.817 1.678.622 2.877 2.553 3.599 5.792h2.389c2.319-3.844 4.605-5.256 6.859-4.237 2.254 1.018 2.766 3.493 1.537 7.424l1.177 9.027h2.542z" fill="#191847"/><path fill-rule="evenodd" clip-rule="evenodd" d="M525.839 207.723l-18.092 22.403c-5.653 3.249-10.198 6.634-13.637 10.157-.733 1.133-1.429 3.221 2.491 1.858 3.919-1.364 8.103-2.622 9.015-1.403.913 1.218-1.078 3.489.524 5.036 1.068 1.031 3.77-2.974 8.107-12.016l19.79-15.082-8.198-10.953zM617.887 186.006l-15.934.06c12.136 39.317 18.577 59.903 19.326 61.757 1.683 4.173-1.879 10.528-3.403 13.943 4.962 2.221 4.434-6.003 10.694-3.091 5.714 2.659 10.06 7.475 16.662 3.402.811-.501 1.701-2.387-.448-3.86-5.354-3.671-13.069-10.096-14.111-12.211-1.422-2.884-5.684-22.884-12.786-60z" fill="#B28B67"/><path fill-rule="evenodd" clip-rule="evenodd" d="M570.224 138.596l-6.375-.328c-5.702 35.962-53.449 65.695-55.006 79.071-.571 4.905 3.149 6.907 1.549 8.571l8.828 4.979c1.184-1.768 4.468.817 10.353-1.965 5.884-2.782 45.554-49.132 40.651-90.328z" fill="#0C0057"/><path fill-rule="evenodd" clip-rule="evenodd" d="M558.775 145.165c.726 46.387-26.089 58.219-20.116 76.827 4.932 15.367 52.142 31.886 60.311 16.823 3.307-6.097 4.807-13.472 4.978-21.489 2.088 6.16 3.739 11.462 4.954 15.908 2.095 7.669 10.219 8.888 10.219 11.843l10.703-2.955c-.726-4.014 4.32-5.968 2.967-14.935-6.061-40.178-22.348-69.302-48.861-87.372l-.274-3.922a2.91 2.91 0 00-3.106-2.701l-19.599 1.371a2.91 2.91 0 00-2.7 3.106l.524 7.496z" fill="#0F006A"/><path d="M65.537 25.18c1.36 0 2.35-.23 2.97-.69.62-.46.93-1.11.93-1.95 0-.5-.11-.93-.33-1.29-.2-.36-.5-.68-.9-.96-.38-.3-.85-.57-1.41-.81-.56-.26-1.2-.51-1.92-.75-.72-.26-1.42-.54-2.1-.84a7.77 7.77 0 01-1.77-1.17c-.5-.46-.91-1.01-1.23-1.65-.3-.64-.45-1.41-.45-2.31 0-1.88.65-3.35 1.95-4.41 1.3-1.08 3.07-1.62 5.31-1.62 1.3 0 2.45.15 3.45.45 1.02.28 1.82.59 2.4.93l-1.17 3.06a8.92 8.92 0 00-2.25-.87c-.8-.2-1.63-.3-2.49-.3-1.02 0-1.82.21-2.4.63-.56.42-.84 1.01-.84 1.77 0 .46.09.86.27 1.2.2.32.47.61.81.87.36.26.77.5 1.23.72.48.22 1 .43 1.56.63.98.36 1.85.73 2.61 1.11.78.36 1.43.8 1.95 1.32.54.5.95 1.1 1.23 1.8.28.68.42 1.51.42 2.49 0 1.88-.67 3.34-2.01 4.38-1.32 1.02-3.26 1.53-5.82 1.53-.86 0-1.65-.06-2.37-.18-.7-.1-1.33-.23-1.89-.39-.54-.16-1.01-.32-1.41-.48-.4-.18-.72-.34-.96-.48l1.11-3.09c.54.3 1.27.6 2.19.9.92.3 2.03.45 3.33.45zm10.8-17.01l3.63-.6v4.74h5.58v3.03h-5.58v6.39c0 1.26.2 2.16.6 2.7.4.54 1.08.81 2.04.81.66 0 1.24-.07 1.74-.21.52-.14.93-.27 1.23-.39l.6 2.88c-.42.18-.97.36-1.65.54-.68.2-1.48.3-2.4.3-1.12 0-2.06-.15-2.82-.45-.74-.3-1.33-.73-1.77-1.29-.44-.58-.75-1.27-.93-2.07-.18-.82-.27-1.75-.27-2.79V8.17zm26.558 11.97c0 1.24-.18 2.37-.54 3.39-.36 1.02-.87 1.89-1.53 2.61s-1.46 1.28-2.4 1.68c-.92.4-1.94.6-3.06.6s-2.14-.2-3.06-.6c-.92-.4-1.71-.96-2.37-1.68-.66-.72-1.18-1.59-1.56-2.61-.36-1.02-.54-2.15-.54-3.39 0-1.24.18-2.36.54-3.36.38-1.02.9-1.89 1.56-2.61.68-.72 1.48-1.27 2.4-1.65.92-.4 1.93-.6 3.03-.6 1.1 0 2.11.2 3.03.6.94.38 1.74.93 2.4 1.65.66.72 1.17 1.59 1.53 2.61.38 1 .57 2.12.57 3.36zm-3.72 0c0-1.56-.34-2.79-1.02-3.69-.66-.92-1.59-1.38-2.79-1.38s-2.14.46-2.82 1.38c-.66.9-.99 2.13-.99 3.69 0 1.58.33 2.83.99 3.75.68.92 1.62 1.38 2.82 1.38 1.2 0 2.13-.46 2.79-1.38.68-.92 1.02-2.17 1.02-3.75zm17.87.09c0-1.62-.37-2.88-1.11-3.78-.72-.9-1.89-1.35-3.51-1.35-.34 0-.7.02-1.08.06-.36.02-.72.08-1.08.18v8.97c.32.22.74.43 1.26.63.54.18 1.11.27 1.71.27 1.32 0 2.28-.45 2.88-1.35.62-.9.93-2.11.93-3.63zm3.72-.06c0 1.2-.16 2.3-.48 3.3-.3 1-.74 1.86-1.32 2.58-.58.72-1.31 1.28-2.19 1.68-.86.4-1.84.6-2.94.6-.74 0-1.42-.09-2.04-.27-.62-.18-1.13-.38-1.53-.6v6.09h-3.63V12.82c.74-.2 1.65-.39 2.73-.57 1.08-.18 2.22-.27 3.42-.27 1.24 0 2.35.19 3.33.57.98.38 1.81.93 2.49 1.65.7.7 1.23 1.56 1.59 2.58.38 1 .57 2.13.57 3.39zm7.971-7.38c0 1.66-.06 3.18-.18 4.56-.12 1.38-.27 2.77-.45 4.17h-2.58a76.1 76.1 0 01-.48-4.17c-.12-1.4-.18-2.92-.18-4.56V7.21h3.87v5.58zm.45 13.23c0 .7-.23 1.27-.69 1.71-.46.44-1.03.66-1.71.66-.66 0-1.23-.22-1.71-.66-.46-.44-.69-1.01-.69-1.71s.23-1.27.69-1.71c.48-.46 1.05-.69 1.71-.69.68 0 1.25.23 1.71.69.46.44.69 1.01.69 1.71zM164.625 16.25c-.7 2.233-1.408 4.3-2.125 6.2-.717 1.9-1.433 3.75-2.15 5.55h-2.425a86.952 86.952 0 01-2.35-8.075 163.258 163.258 0 01-1.875-9.25h2.55c.233 1.3.475 2.6.725 3.9.25 1.3.508 2.567.775 3.8.267 1.217.533 2.383.8 3.5s.542 2.15.825 3.1c.667-1.75 1.375-3.667 2.125-5.75.75-2.1 1.45-4.267 2.1-6.5h2.1c.65 2.233 1.358 4.4 2.125 6.5.767 2.083 1.483 4 2.15 5.75.267-.933.533-1.958.8-3.075.267-1.117.525-2.283.775-3.5.267-1.233.525-2.5.775-3.8.25-1.317.492-2.625.725-3.925h2.475c-.6 3.333-1.242 6.417-1.925 9.25A87.064 87.064 0 01171.3 28h-2.425c-.733-1.8-1.45-3.65-2.15-5.55s-1.4-3.967-2.1-6.2zM178.218 28V9l2.325-.4v6.65a7.228 7.228 0 011.375-.375c.5-.1.991-.15 1.475-.15 1.033 0 1.891.15 2.575.45.683.283 1.225.692 1.625 1.225.416.517.708 1.142.875 1.875.166.733.25 1.542.25 2.425V28h-2.325v-6.8c0-.8-.059-1.483-.175-2.05-.1-.567-.275-1.025-.525-1.375-.25-.35-.584-.6-1-.75-.417-.167-.934-.25-1.55-.25-.25 0-.509.017-.775.05-.267.033-.525.075-.775.125-.234.033-.45.075-.65.125-.184.05-.317.092-.4.125V28h-2.325zm25.757-6.5c0 1.033-.15 1.967-.45 2.8-.3.833-.725 1.55-1.275 2.15a5.565 5.565 0 01-1.925 1.4 6.235 6.235 0 01-2.45.475c-.883 0-1.7-.158-2.45-.475-.75-.333-1.4-.8-1.95-1.4a6.525 6.525 0 01-1.25-2.15c-.3-.833-.45-1.767-.45-2.8 0-1.017.15-1.942.45-2.775.3-.85.717-1.575 1.25-2.175.55-.6 1.2-1.058 1.95-1.375.75-.333 1.567-.5 2.45-.5.883 0 1.7.167 2.45.5.75.317 1.392.775 1.925 1.375.55.6.975 1.325 1.275 2.175.3.833.45 1.758.45 2.775zm-2.425 0c0-1.467-.333-2.625-1-3.475-.65-.867-1.542-1.3-2.675-1.3-1.133 0-2.033.433-2.7 1.3-.65.85-.975 2.008-.975 3.475s.325 2.633.975 3.5c.667.85 1.567 1.275 2.7 1.275 1.133 0 2.025-.425 2.675-1.275.667-.867 1-2.033 1-3.5zm15.882 4.825c.55 0 1.034-.008 1.45-.025a7.217 7.217 0 001.075-.15v-3.875c-.166-.083-.441-.15-.825-.2a7.691 7.691 0 00-1.35-.1c-.35 0-.725.025-1.125.075-.383.05-.741.158-1.075.325-.316.15-.583.367-.8.65-.216.267-.325.625-.325 1.075 0 .833.267 1.417.8 1.75.534.317 1.259.475 2.175.475zm-.2-11.65c.934 0 1.717.125 2.35.375.65.233 1.167.575 1.55 1.025.4.433.684.958.85 1.575.167.6.25 1.267.25 2v8.125c-.2.033-.483.083-.85.15-.35.05-.75.1-1.2.15-.45.05-.941.092-1.475.125-.516.05-1.033.075-1.55.075a8.566 8.566 0 01-2.025-.225 4.672 4.672 0 01-1.6-.7c-.45-.333-.8-.767-1.05-1.3s-.375-1.175-.375-1.925c0-.717.142-1.333.425-1.85.3-.517.7-.933 1.2-1.25.5-.317 1.084-.55 1.75-.7a9.547 9.547 0 012.1-.225c.234 0 .475.017.725.05.25.017.484.05.7.1a10.96 10.96 0 01.95.175v-.65c0-.383-.041-.758-.125-1.125a2.485 2.485 0 00-.45-1 2.117 2.117 0 00-.9-.7c-.366-.183-.85-.275-1.45-.275-.766 0-1.441.058-2.025.175-.566.1-.991.208-1.275.325l-.275-1.925c.3-.133.8-.258 1.5-.375.7-.133 1.459-.2 2.275-.2zm13.662.05c.2 0 .425.017.675.05.266.017.525.05.775.1.25.033.475.075.675.125.216.033.375.067.475.1l-.4 2.025c-.184-.067-.492-.142-.925-.225-.417-.1-.959-.15-1.625-.15-.434 0-.867.05-1.3.15a22.11 22.11 0 00-.825.175V28h-2.325V15.55c.55-.2 1.233-.383 2.05-.55.816-.183 1.733-.275 2.75-.275zm4.118 6.8c0-1.15.167-2.15.5-3 .334-.867.775-1.583 1.325-2.15a5.385 5.385 0 011.9-1.275 5.937 5.937 0 012.2-.425c1.75 0 3.092.55 4.025 1.65.934 1.083 1.4 2.742 1.4 4.975v.4c0 .15-.008.292-.025.425h-8.9c.1 1.35.492 2.375 1.175 3.075.684.7 1.75 1.05 3.2 1.05.817 0 1.5-.067 2.05-.2.567-.15.992-.292 1.275-.425l.325 1.95c-.283.15-.783.308-1.5.475-.7.167-1.5.25-2.4.25-1.133 0-2.116-.167-2.95-.5-.816-.35-1.491-.825-2.025-1.425a5.932 5.932 0 01-1.2-2.125 9.448 9.448 0 01-.375-2.725zm8.925-1.275c.017-1.05-.25-1.908-.8-2.575-.533-.683-1.275-1.025-2.225-1.025-.533 0-1.008.108-1.425.325-.4.2-.741.467-1.025.8a3.961 3.961 0 00-.675 1.15c-.15.433-.25.875-.3 1.325h6.45zm10.026 10.175c.184.083.417.158.7.225.3.083.592.125.875.125.917 0 1.634-.208 2.15-.625.517-.4.984-1.058 1.4-1.975a74.67 74.67 0 01-2.95-6.35c-.9-2.25-1.65-4.525-2.25-6.825h2.5c.184.75.4 1.558.65 2.425.267.867.559 1.758.875 2.675.317.917.659 1.833 1.025 2.75.367.917.75 1.8 1.15 2.65a66.132 66.132 0 001.65-5.2c.467-1.717.909-3.483 1.325-5.3h2.4c-.6 2.45-1.266 4.808-2 7.075a72.753 72.753 0 01-2.375 6.325c-.333.75-.683 1.392-1.05 1.925-.35.55-.741 1-1.175 1.35-.433.35-.925.608-1.475.775-.533.167-1.141.25-1.825.25-.183 0-.375-.017-.575-.05-.2-.017-.4-.05-.6-.1a4.868 4.868 0 01-.525-.125 2.755 2.755 0 01-.325-.125l.425-1.875zM279.39 21.5c0 1.033-.15 1.967-.45 2.8-.3.833-.725 1.55-1.275 2.15a5.565 5.565 0 01-1.925 1.4 6.235 6.235 0 01-2.45.475c-.883 0-1.7-.158-2.45-.475-.75-.333-1.4-.8-1.95-1.4a6.525 6.525 0 01-1.25-2.15c-.3-.833-.45-1.767-.45-2.8 0-1.017.15-1.942.45-2.775.3-.85.717-1.575 1.25-2.175.55-.6 1.2-1.058 1.95-1.375.75-.333 1.567-.5 2.45-.5.883 0 1.7.167 2.45.5.75.317 1.392.775 1.925 1.375.55.6.975 1.325 1.275 2.175.3.833.45 1.758.45 2.775zm-2.425 0c0-1.467-.333-2.625-1-3.475-.65-.867-1.542-1.3-2.675-1.3-1.133 0-2.033.433-2.7 1.3-.65.85-.975 2.008-.975 3.475s.325 2.633.975 3.5c.667.85 1.567 1.275 2.7 1.275 1.133 0 2.025-.425 2.675-1.275.667-.867 1-2.033 1-3.5zm16.046 6.125c-.533.133-1.242.275-2.125.425-.867.15-1.875.225-3.025.225-1 0-1.842-.142-2.525-.425-.683-.3-1.233-.717-1.65-1.25a5.018 5.018 0 01-.9-1.875 10.012 10.012 0 01-.275-2.425V15h2.325v6.8c0 1.583.25 2.717.75 3.4.5.683 1.342 1.025 2.525 1.025.25 0 .508-.008.775-.025s.517-.033.75-.05c.233-.033.442-.058.625-.075.2-.033.342-.067.425-.1V15h2.325v12.625zm6.356-15.4c-1.1 0-2.175.283-3.225.85l-.65-1.8c.566-.3 1.2-.542 1.9-.725a9.146 9.146 0 012.275-.275c.95 0 1.725.133 2.325.4.616.25 1.108.575 1.475.975.366.4.616.85.75 1.35.15.483.225.95.225 1.4a3.48 3.48 0 01-.325 1.525 6.494 6.494 0 01-.8 1.225c-.317.383-.667.75-1.05 1.1-.384.35-.734.717-1.05 1.1a5.508 5.508 0 00-.8 1.225 3.25 3.25 0 00-.325 1.475v.275c0 .1.008.192.025.275h-1.95a5.319 5.319 0 01-.1-1.05c0-.533.091-1.017.275-1.45.2-.433.45-.833.75-1.2.3-.383.616-.733.95-1.05.333-.333.65-.667.95-1 .3-.333.541-.683.725-1.05.2-.367.3-.767.3-1.2 0-.7-.225-1.267-.675-1.7-.45-.45-1.109-.675-1.975-.675zm1.575 14.425c0 .45-.15.842-.45 1.175-.3.333-.709.5-1.225.5-.517 0-.925-.167-1.225-.5a1.7 1.7 0 01-.45-1.175c0-.45.15-.842.45-1.175.3-.333.708-.5 1.225-.5.516 0 .925.167 1.225.5.3.333.45.725.45 1.175z" fill="#821616"/><path d="M512.15 46V28.675h10.575v2.075h-8.15v5.15h7.25v2.025h-7.25v6h8.775V46h-11.2zm18.932-13.275c.2 0 .425.017.675.05.267.017.525.05.775.1.25.033.475.075.675.125.217.033.375.067.475.1l-.4 2.025c-.183-.067-.491-.142-.925-.225-.416-.1-.958-.15-1.625-.15-.433 0-.866.05-1.3.15-.416.083-.691.142-.825.175V46h-2.325V33.55c.55-.2 1.234-.383 2.05-.55.817-.183 1.734-.275 2.75-.275zm9.644 0c.2 0 .425.017.675.05.266.017.525.05.775.1.25.033.475.075.675.125.216.033.375.067.475.1l-.4 2.025c-.184-.067-.492-.142-.925-.225-.417-.1-.959-.15-1.625-.15-.434 0-.867.05-1.3.15a22.11 22.11 0 00-.825.175V46h-2.325V33.55c.55-.2 1.233-.383 2.05-.55.816-.183 1.733-.275 2.75-.275zm6.226 11.925c0 .45-.15.842-.45 1.175-.3.333-.708.5-1.225.5-.517 0-.925-.167-1.225-.5a1.7 1.7 0 01-.45-1.175c0-.45.15-.842.45-1.175.3-.333.708-.5 1.225-.5.517 0 .925.167 1.225.5.3.333.45.725.45 1.175zm6.152 0c0 .45-.15.842-.45 1.175-.3.333-.708.5-1.225.5-.516 0-.925-.167-1.225-.5a1.7 1.7 0 01-.45-1.175c0-.45.15-.842.45-1.175.3-.333.709-.5 1.225-.5.517 0 .925.167 1.225.5.3.333.45.725.45 1.175zm6.153 0c0 .45-.15.842-.45 1.175-.3.333-.708.5-1.225.5-.517 0-.925-.167-1.225-.5a1.7 1.7 0 01-.45-1.175c0-.45.15-.842.45-1.175.3-.333.708-.5 1.225-.5.517 0 .925.167 1.225.5.3.333.45.725.45 1.175z" fill="#387800"/><defs><clipPath id="clip0"><path fill="#fff" transform="translate(52.288 198.529)" d="M0 0h215.686v163.399H0z"/></clipPath><clipPath id="clip1"><path fill="#fff" transform="matrix(-1 0 0 1 547.386 73.53)" d="M0 0h111.111v84.967H0z"/></clipPath></defs></svg>