<svg width="750" height="400" viewBox="0 0 750 400" fill="none" xmlns="http://www.w3.org/2000/svg">
<path d="M2.76329 250.463C1.18126 238.036 9.03987 226.358 21.1468 223.143L699.073 43.1212C713.481 39.2953 728.013 48.848 730.215 63.5914L746.74 174.247C748.602 186.718 740.885 198.625 728.74 202.017L49.6102 391.724C34.9199 395.828 20.0107 385.934 18.0844 370.804L2.76329 250.463Z" fill="#FF0000" fill-opacity="0.13"/>
<path fill-rule="evenodd" clip-rule="evenodd" d="M181.178 87.6553C183.994 98.0329 187.664 121.359 183.919 125.018H160.227C160.224 124.976 160.222 124.934 160.219 124.893C151.438 123.921 144.608 116.475 144.608 107.435V90.2778C144.608 80.5767 152.472 72.7124 162.173 72.7124H163.807C172.617 72.7124 179.912 79.1981 181.178 87.6553Z" fill="#491C54"/>
<path fill-rule="evenodd" clip-rule="evenodd" d="M181.178 87.6553C183.994 98.0329 187.664 121.359 183.919 125.018H160.227C160.224 124.976 160.222 124.934 160.219 124.893C151.438 123.921 144.608 116.475 144.608 107.435V90.2778C144.608 80.5767 152.472 72.7124 162.173 72.7124H163.807C172.617 72.7124 179.912 79.1981 181.178 87.6553Z" fill="black" fill-opacity="0.1"/>
<path fill-rule="evenodd" clip-rule="evenodd" d="M153.809 104.159C150.044 99.7396 147.496 94.3242 147.922 88.256C149.149 70.772 173.487 74.6183 178.222 83.4427C182.956 92.2672 182.393 114.651 176.275 116.228C173.835 116.857 168.636 115.317 163.346 112.128L166.667 135.621H147.059L153.809 104.159Z" fill="#B28B67"/>
<g clip-path="url(#clip0)">
<path fill-rule="evenodd" clip-rule="evenodd" d="M144.314 198.529L170.379 285.511L189.397 349.622H203.268L183.059 198.529H144.314Z" fill="#0D0D26"/>
<path fill-rule="evenodd" clip-rule="evenodd" d="M137.343 198.529C136.74 243.361 134.684 267.813 134.051 271.886C133.418 275.96 123.847 301.871 105.337 349.622H119.706C143.271 303.813 156.425 277.902 159.169 271.886C161.913 265.871 170.382 241.419 183.137 198.529H137.343Z" fill="#1A1E42"/>
<path fill-rule="evenodd" clip-rule="evenodd" d="M104.052 361.928L104.771 347.571H119.869C127.028 352.357 136.375 356.231 147.909 359.193V361.928H120.588L111.242 360.561V361.928H104.052Z" fill="#191847"/>
<path fill-rule="evenodd" clip-rule="evenodd" d="M187.451 361.928L188.17 347.571H203.268C210.427 352.357 219.773 356.231 231.307 359.193V361.928H203.987L194.641 360.561V361.928H187.451Z" fill="#191847"/>
</g>
<path fill-rule="evenodd" clip-rule="evenodd" d="M212.672 130.798L241.554 116.266C246.463 110.834 249.591 106.618 254.085 103.35C256.536 101.567 259.108 101.307 256.944 105.392C254.517 109.369 252.585 115.158 253.706 116.448C254.827 117.739 257.792 116.094 259.108 118.219C259.986 119.636 254.949 121.65 243.996 124.261L222.745 142.397L212.672 130.798Z" fill="#B28B67"/>
<path fill-rule="evenodd" clip-rule="evenodd" d="M194.018 192.168L214.404 217.264C220.762 220.893 225.877 224.68 229.749 228.624C230.575 229.894 231.364 232.236 226.958 230.718C222.553 229.199 217.851 227.8 216.831 229.172C215.811 230.543 218.053 233.087 216.259 234.828C215.064 235.99 212.017 231.501 207.119 221.363L184.849 204.493L194.018 192.168Z" fill="#B28B67"/>
<path fill-rule="evenodd" clip-rule="evenodd" d="M167.86 132.082C174.912 161.269 189.649 186.078 213.113 213.992L199.007 223.439C169.98 203.109 154.896 191.476 152.877 165.111C152.37 158.494 155.958 138.758 157.361 128.247L167.86 132.082Z" fill="#CF1F1F"/>
<path fill-rule="evenodd" clip-rule="evenodd" d="M167.86 132.082C174.912 161.269 189.649 186.078 213.113 213.992L199.007 223.439C169.98 203.109 154.896 191.476 152.877 165.111C152.37 158.494 155.958 138.758 157.361 128.247L167.86 132.082Z" fill="black" fill-opacity="0.25"/>
<path fill-rule="evenodd" clip-rule="evenodd" d="M127.022 218.674H189.93C175.68 175.214 168.401 145.386 168.092 129.19C168.076 128.364 166.551 126.909 165.877 127.1C160.943 128.493 155.663 127.972 150.038 125.537C135.124 149.522 129.967 179.053 127.022 218.674Z" fill="#4B0B0B"/>
<path fill-rule="evenodd" clip-rule="evenodd" d="M155.406 125.575C173.439 125.723 202.695 129.016 236.436 118.184L239.767 134.829C214.266 151.23 188.444 163.935 165.818 162.13C175.643 204.276 175.19 238.777 153.498 238.777C143.14 238.777 131.959 238.777 119.956 238.777C114.628 202.974 128.63 153.334 141.61 128.295C142.106 127.339 143.161 125.537 145.647 125.537C147.813 125.537 151.061 125.537 155.393 125.537C155.397 125.55 155.402 125.562 155.406 125.575Z" fill="#CF1F1F"/>
<path fill-rule="evenodd" clip-rule="evenodd" d="M159.109 101.205C160.013 110.909 161.956 120.976 156.959 124.622C151.961 128.268 133.767 126.045 133.266 124.622C131.946 101.686 144.704 110.568 144.704 88.9729C145.499 88.1957 146.251 87.4265 146.994 86.7631L146.968 86.128C151.071 77.729 156.276 73.5294 162.583 73.5294C172.044 73.5294 175.03 77.9316 177.572 81.6692C175.671 88.193 168.293 89.1603 161.737 93.2267C160.964 92.5989 159.979 92.2226 158.905 92.2226C156.424 92.2226 154.412 94.2344 154.412 96.716C154.412 99.1977 156.424 101.209 158.905 101.209C158.974 101.209 159.042 101.208 159.109 101.205Z" fill="#491C54"/>
<g clip-path="url(#clip1)">
<path fill-rule="evenodd" clip-rule="evenodd" d="M498.317 127.034C502.082 122.615 504.63 117.2 504.204 111.132C502.978 93.6479 478.639 97.4941 473.905 106.319C469.171 115.143 469.733 137.527 475.852 139.104C478.292 139.733 483.49 138.192 488.781 135.004L485.46 158.497H505.068L498.317 127.034Z" fill="#B28B67"/>
<path fill-rule="evenodd" clip-rule="evenodd" d="M493.3 97.8648C483.449 94.4524 470.667 98.4401 472.377 106.438C473.476 111.574 479.424 114.14 485.276 116.885C486.138 115.39 487.78 114.379 489.665 114.379C492.443 114.379 494.695 116.574 494.695 119.281C494.695 120.256 494.403 121.165 493.899 121.928C495.868 123.641 497.257 125.702 497.593 128.376C500.766 128.376 505.895 119.059 504.201 110.22C504.645 110.269 505.096 110.294 505.553 110.294C512.321 110.294 517.808 104.807 517.808 98.0392C517.808 91.271 512.321 85.7843 505.553 85.7843C498.843 85.7843 493.393 91.177 493.3 97.8648Z" fill="#3F2C1B"/>
</g>
<path fill-rule="evenodd" clip-rule="evenodd" d="M502.826 209.967L460.881 280.092L429.434 339.377H422.661L475.35 209.967L502.826 209.967Z" fill="#997659"/>
<path fill-rule="evenodd" clip-rule="evenodd" d="M433.575 336.64C434.207 338.326 434.523 339.587 434.523 340.424C434.523 341.442 434.353 342.928 434.014 344.881C432.833 344.881 422.22 344.881 402.176 344.881C401.348 342.145 401.826 340.669 403.609 340.451C405.391 340.232 406.872 340.036 408.051 339.86L422.849 333.263C423.134 333.136 423.468 333.264 423.594 333.548C423.597 333.553 423.599 333.558 423.601 333.563L424.552 335.871C426.202 336.64 427.543 337.025 428.575 337.025C429.413 337.025 430.571 336.687 432.048 336.01L432.048 336.01C432.614 335.75 433.285 335.999 433.544 336.566C433.556 336.59 433.566 336.615 433.575 336.64Z" fill="#E4E4E4"/>
<path fill-rule="evenodd" clip-rule="evenodd" d="M438.167 329.884L425.105 325.932C430.828 308.824 437.842 289.996 446.148 269.45C454.454 248.904 463.374 229.076 472.908 209.967H509.801C499.201 234.139 487.963 256.103 476.088 275.858C464.213 295.612 451.573 313.621 438.167 329.884Z" fill="#015B25"/>
<path fill-rule="evenodd" clip-rule="evenodd" d="M505.582 209.967C509.541 234.61 517.177 266.093 517.897 267.065C518.378 267.712 535.672 273.508 569.78 284.45L568.317 290.423C527.643 284.554 506.211 280.001 504.022 276.764C500.738 271.907 484.34 233.542 477.988 209.967H505.582Z" fill="#B28B67"/>
<path fill-rule="evenodd" clip-rule="evenodd" d="M557.79 279.287L555.213 288.907C524.792 291.575 506.152 289.647 499.293 283.123C492.435 276.599 484.618 252.214 475.844 209.967H511.023C516.583 244.561 519.691 262.585 520.347 264.037C521.004 265.489 533.485 270.572 557.79 279.287Z" fill="#017A32"/>
<path fill-rule="evenodd" clip-rule="evenodd" d="M568.109 281.962C569.879 281.633 571.176 281.541 572.001 281.686C573.003 281.863 574.436 282.288 576.301 282.961C576.096 284.124 574.253 294.575 570.772 314.315C567.935 314.655 566.564 313.929 566.658 312.135C566.753 310.342 566.816 308.849 566.848 307.658L562.921 291.939C562.845 291.636 563.029 291.33 563.332 291.254C563.337 291.253 563.342 291.252 563.347 291.251L565.785 290.715C566.829 289.223 567.441 287.969 567.621 286.953C567.766 286.128 567.634 284.929 567.223 283.357L567.223 283.357C567.066 282.754 567.427 282.137 568.031 281.979C568.057 281.973 568.083 281.967 568.109 281.962Z" fill="#E4E4E4"/>
<path fill-rule="evenodd" clip-rule="evenodd" d="M450.171 201.39L428.59 216.228C422.736 217.707 417.846 219.547 413.919 221.748C412.991 222.54 411.87 224.143 415.717 223.866C419.564 223.589 423.624 223.459 424.155 224.688C424.686 225.917 422.358 227.386 423.431 229.044C424.146 230.149 427.526 227.378 433.57 220.73L454.942 212.432L450.171 201.39ZM533.033 201.902L518.894 201.954C527.624 228.341 532.337 242.342 533.033 243.957C534.599 247.59 531.286 253.122 529.869 256.096C534.483 258.029 533.992 250.869 539.812 253.405C545.125 255.719 549.167 259.913 555.305 256.366C556.06 255.93 556.887 254.289 554.889 253.006C549.911 249.81 542.737 244.216 541.768 242.375C540.446 239.864 537.534 226.373 533.033 201.902Z" fill="#B28B67"/>
<path fill-rule="evenodd" clip-rule="evenodd" d="M492.853 146.352L487.003 145.412C465.296 162.97 456.381 196.7 429.773 214.568L436.178 222.001C482.336 216.65 493.777 175.507 492.853 146.352Z" fill="#B0AAA0"/>
<path fill-rule="evenodd" clip-rule="evenodd" d="M518.357 215.193C494.899 215.193 477.644 215.193 466.591 215.193C464.226 215.193 464.672 211.994 465.014 210.381C468.96 191.756 484.365 171.679 484.365 145.166L499.297 142.974C511.647 161.572 515.918 184.471 518.357 215.193Z" fill="#DDE3E9"/>
<path fill-rule="evenodd" clip-rule="evenodd" d="M517.941 161.255C520.109 160.672 521.827 159.31 523.093 157.171C528.55 147.951 526.579 142.874 520.747 141.205C514.915 139.537 509.713 142.974 500.421 142.974C499.915 142.974 499.453 143.004 499.032 143.063L494.358 143.313C480.946 185.871 477.248 214.266 483.261 228.496H524.005C526.419 233.767 528.729 238.201 530.935 241.799H542.037C543.082 210.167 535.05 183.319 517.941 161.255Z" fill="#C4BFB8"/>
<path fill-rule="evenodd" clip-rule="evenodd" d="M515.133 206.639C513.851 216.678 511.769 223.963 508.885 228.496H524.005C521.189 222.348 518.232 215.062 515.133 206.639Z" fill="black" fill-opacity="0.1"/>
<path fill-rule="evenodd" clip-rule="evenodd" d="M579.108 216.396C580.995 231.195 520.868 288.075 520.71 289.361C520.64 289.932 531.211 305.408 552.423 335.788L546.88 339.345C517.55 308.562 503.073 291.175 503.451 287.186C503.991 281.473 518.204 260.161 546.089 223.249L579.108 216.396Z" fill="#B28B67"/>
<path fill-rule="evenodd" clip-rule="evenodd" d="M549.315 328.586L540.216 334.152C514.767 314.979 502.74 297.342 502.229 287.217C501.888 280.467 516.046 259.197 544.701 223.406L579.82 216.289C585.465 250.302 526.745 288.271 526.184 289.883C525.622 291.495 536.876 303.887 549.315 328.586Z" fill="#2F3676"/>
<path fill-rule="evenodd" clip-rule="evenodd" d="M554.403 334.191C555.923 335.378 556.916 336.354 557.384 337.118C557.953 338.048 558.628 339.5 559.41 341.474C558.331 342.134 548.635 348.066 530.322 359.269C528.037 357.232 527.648 355.616 529.155 354.421C530.662 353.225 531.905 352.218 532.883 351.398L542.716 337.1C542.905 336.825 543.282 336.755 543.557 336.945C543.562 336.948 543.566 336.951 543.571 336.954L545.729 338.531C547.667 338.312 549.108 337.914 550.05 337.338C550.816 336.869 551.685 335.913 552.656 334.469L552.656 334.469C553.028 333.915 553.779 333.767 554.334 334.14C554.358 334.156 554.381 334.173 554.403 334.191Z" fill="#E4E4E4"/>
<path fill-rule="evenodd" clip-rule="evenodd" d="M575.652 218.786L606.936 293.891L637.683 357.386H630.429L551.061 218.786H575.652Z" fill="#997659"/>
<path fill-rule="evenodd" clip-rule="evenodd" d="M638.117 354.455C638.794 356.26 639.132 357.611 639.132 358.507C639.132 359.598 638.95 361.189 638.587 363.28C637.322 363.28 625.956 363.28 604.488 363.28C603.602 360.351 604.113 358.769 606.022 358.536C607.932 358.302 609.518 358.091 610.78 357.903L626.629 350.837C626.934 350.701 627.292 350.838 627.428 351.143C627.43 351.149 627.432 351.154 627.434 351.159L628.453 353.63C630.221 354.455 631.657 354.867 632.762 354.867C633.659 354.867 634.899 354.505 636.481 353.78L636.481 353.78C637.088 353.501 637.806 353.768 638.084 354.375C638.096 354.401 638.107 354.428 638.117 354.455Z" fill="#E4E4E4"/>
<path fill-rule="evenodd" clip-rule="evenodd" d="M634.907 344.195L618.788 347.218C606.324 328.895 554.165 253.762 548.446 218.786H584.331C603.429 244.07 623.027 325.569 634.907 344.195Z" fill="#5C63AB"/>
<path fill-rule="evenodd" clip-rule="evenodd" d="M573.825 121.505C577.59 117.086 580.138 111.671 579.712 105.602C578.485 88.1184 554.147 91.9647 549.412 100.789C544.678 109.614 545.241 131.998 551.359 133.575C553.799 134.204 558.998 132.663 564.288 129.474L560.967 152.967H580.575L573.825 121.505Z" fill="#B28B67"/>
<path fill-rule="evenodd" clip-rule="evenodd" d="M575.332 125.441C577.793 114.492 584.803 107.029 583.733 102.135C583.019 98.873 581.116 96.8443 578.025 96.0491C576.426 89.5813 571.27 86.8303 562.556 87.7961C549.485 89.2448 541.507 94.673 544.952 106.618C548.119 106.618 551.942 105.472 557.229 107.435C558.907 108.057 560.106 109.988 560.828 113.227H563.217C565.536 109.383 567.822 107.971 570.076 108.99C572.33 110.008 572.842 112.483 571.613 116.414L572.79 125.441H575.332Z" fill="#191847"/>
<path fill-rule="evenodd" clip-rule="evenodd" d="M525.839 207.723L507.747 230.126C502.094 233.375 497.549 236.76 494.11 240.283C493.377 241.416 492.681 243.504 496.601 242.141C500.52 240.777 504.704 239.519 505.616 240.738C506.529 241.956 504.538 244.227 506.14 245.774C507.208 246.805 509.91 242.8 514.247 233.758L534.037 218.676L525.839 207.723Z" fill="#B28B67"/>
<path fill-rule="evenodd" clip-rule="evenodd" d="M617.887 186.006L601.953 186.066C614.089 225.383 620.53 245.969 621.279 247.823C622.962 251.996 619.4 258.351 617.876 261.766C622.838 263.987 622.31 255.763 628.57 258.675C634.284 261.334 638.63 266.15 645.232 262.077C646.043 261.576 646.933 259.69 644.784 258.217C639.43 254.546 631.715 248.121 630.673 246.006C629.251 243.122 624.989 223.122 617.887 186.006Z" fill="#B28B67"/>
<path fill-rule="evenodd" clip-rule="evenodd" d="M570.224 138.596L563.849 138.268C558.147 174.23 510.4 203.963 508.843 217.339C508.272 222.244 511.992 224.246 510.392 225.91L519.22 230.889C520.404 229.121 523.688 231.706 529.573 228.924C535.457 226.142 575.127 179.792 570.224 138.596Z" fill="#0C0057"/>
<path fill-rule="evenodd" clip-rule="evenodd" d="M558.775 145.165C559.501 191.552 532.686 203.384 538.659 221.992C543.591 237.359 590.801 253.878 598.97 238.815C602.277 232.718 603.777 225.343 603.948 217.326C606.036 223.486 607.687 228.788 608.902 233.234C610.997 240.903 619.121 242.122 619.121 245.077L629.824 242.122C629.098 238.108 634.144 236.154 632.791 227.187C626.73 187.009 610.443 157.885 583.93 139.815L583.656 135.893C583.544 134.289 582.153 133.08 580.55 133.192L560.951 134.563C559.348 134.675 558.139 136.066 558.251 137.669L558.775 145.165Z" fill="#0F006A"/>
<path d="M65.5365 25.18C66.8965 25.18 67.8865 24.95 68.5065 24.49C69.1265 24.03 69.4365 23.38 69.4365 22.54C69.4365 22.04 69.3265 21.61 69.1065 21.25C68.9065 20.89 68.6065 20.57 68.2065 20.29C67.8265 19.99 67.3565 19.72 66.7965 19.48C66.2365 19.22 65.5965 18.97 64.8765 18.73C64.1565 18.47 63.4565 18.19 62.7765 17.89C62.1165 17.57 61.5265 17.18 61.0065 16.72C60.5065 16.26 60.0965 15.71 59.7765 15.07C59.4765 14.43 59.3265 13.66 59.3265 12.76C59.3265 10.88 59.9765 9.41 61.2765 8.35C62.5765 7.27 64.3465 6.73 66.5865 6.73C67.8865 6.73 69.0365 6.88 70.0365 7.18C71.0565 7.46 71.8565 7.77 72.4365 8.11L71.2665 11.17C70.5865 10.79 69.8365 10.5 69.0165 10.3C68.2165 10.1 67.3865 10 66.5265 10C65.5065 10 64.7065 10.21 64.1265 10.63C63.5665 11.05 63.2865 11.64 63.2865 12.4C63.2865 12.86 63.3765 13.26 63.5565 13.6C63.7565 13.92 64.0265 14.21 64.3665 14.47C64.7265 14.73 65.1365 14.97 65.5965 15.19C66.0765 15.41 66.5965 15.62 67.1565 15.82C68.1365 16.18 69.0065 16.55 69.7665 16.93C70.5465 17.29 71.1965 17.73 71.7165 18.25C72.2565 18.75 72.6665 19.35 72.9465 20.05C73.2265 20.73 73.3665 21.56 73.3665 22.54C73.3665 24.42 72.6965 25.88 71.3565 26.92C70.0365 27.94 68.0965 28.45 65.5365 28.45C64.6765 28.45 63.8865 28.39 63.1665 28.27C62.4665 28.17 61.8365 28.04 61.2765 27.88C60.7365 27.72 60.2665 27.56 59.8665 27.4C59.4665 27.22 59.1465 27.06 58.9065 26.92L60.0165 23.83C60.5565 24.13 61.2865 24.43 62.2065 24.73C63.1265 25.03 64.2365 25.18 65.5365 25.18ZM76.3377 8.17L79.9677 7.57V12.31H85.5477V15.34H79.9677V21.73C79.9677 22.99 80.1677 23.89 80.5677 24.43C80.9677 24.97 81.6477 25.24 82.6077 25.24C83.2677 25.24 83.8477 25.17 84.3477 25.03C84.8677 24.89 85.2777 24.76 85.5777 24.64L86.1777 27.52C85.7577 27.7 85.2077 27.88 84.5277 28.06C83.8477 28.26 83.0477 28.36 82.1277 28.36C81.0077 28.36 80.0677 28.21 79.3077 27.91C78.5677 27.61 77.9777 27.18 77.5377 26.62C77.0977 26.04 76.7877 25.35 76.6077 24.55C76.4277 23.73 76.3377 22.8 76.3377 21.76V8.17ZM102.895 20.14C102.895 21.38 102.715 22.51 102.355 23.53C101.995 24.55 101.485 25.42 100.825 26.14C100.165 26.86 99.3652 27.42 98.4252 27.82C97.5052 28.22 96.4852 28.42 95.3652 28.42C94.2452 28.42 93.2252 28.22 92.3052 27.82C91.3852 27.42 90.5952 26.86 89.9352 26.14C89.2752 25.42 88.7552 24.55 88.3752 23.53C88.0152 22.51 87.8352 21.38 87.8352 20.14C87.8352 18.9 88.0152 17.78 88.3752 16.78C88.7552 15.76 89.2752 14.89 89.9352 14.17C90.6152 13.45 91.4152 12.9 92.3352 12.52C93.2552 12.12 94.2652 11.92 95.3652 11.92C96.4652 11.92 97.4752 12.12 98.3952 12.52C99.3352 12.9 100.135 13.45 100.795 14.17C101.455 14.89 101.965 15.76 102.325 16.78C102.705 17.78 102.895 18.9 102.895 20.14ZM99.1752 20.14C99.1752 18.58 98.8352 17.35 98.1552 16.45C97.4952 15.53 96.5652 15.07 95.3652 15.07C94.1652 15.07 93.2252 15.53 92.5452 16.45C91.8852 17.35 91.5552 18.58 91.5552 20.14C91.5552 21.72 91.8852 22.97 92.5452 23.89C93.2252 24.81 94.1652 25.27 95.3652 25.27C96.5652 25.27 97.4952 24.81 98.1552 23.89C98.8352 22.97 99.1752 21.72 99.1752 20.14ZM117.045 20.23C117.045 18.61 116.675 17.35 115.935 16.45C115.215 15.55 114.045 15.1 112.425 15.1C112.085 15.1 111.725 15.12 111.345 15.16C110.985 15.18 110.625 15.24 110.265 15.34V24.31C110.585 24.53 111.005 24.74 111.525 24.94C112.065 25.12 112.635 25.21 113.235 25.21C114.555 25.21 115.515 24.76 116.115 23.86C116.735 22.96 117.045 21.75 117.045 20.23ZM120.765 20.17C120.765 21.37 120.605 22.47 120.285 23.47C119.985 24.47 119.545 25.33 118.965 26.05C118.385 26.77 117.655 27.33 116.775 27.73C115.915 28.13 114.935 28.33 113.835 28.33C113.095 28.33 112.415 28.24 111.795 28.06C111.175 27.88 110.665 27.68 110.265 27.46V33.55H106.635V12.82C107.375 12.62 108.285 12.43 109.365 12.25C110.445 12.07 111.585 11.98 112.785 11.98C114.025 11.98 115.135 12.17 116.115 12.55C117.095 12.93 117.925 13.48 118.605 14.2C119.305 14.9 119.835 15.76 120.195 16.78C120.575 17.78 120.765 18.91 120.765 20.17ZM128.736 12.79C128.736 14.45 128.676 15.97 128.556 17.35C128.436 18.73 128.286 20.12 128.106 21.52H125.526C125.326 20.12 125.166 18.73 125.046 17.35C124.926 15.95 124.866 14.43 124.866 12.79V7.21H128.736V12.79ZM129.186 26.02C129.186 26.72 128.956 27.29 128.496 27.73C128.036 28.17 127.466 28.39 126.786 28.39C126.126 28.39 125.556 28.17 125.076 27.73C124.616 27.29 124.386 26.72 124.386 26.02C124.386 25.32 124.616 24.75 125.076 24.31C125.556 23.85 126.126 23.62 126.786 23.62C127.466 23.62 128.036 23.85 128.496 24.31C128.956 24.75 129.186 25.32 129.186 26.02Z" fill="#821616"/>
<path d="M164.625 16.25C163.925 18.4833 163.217 20.55 162.5 22.45C161.783 24.35 161.067 26.2 160.35 28H157.925C157.042 25.45 156.258 22.7583 155.575 19.925C154.908 17.0917 154.283 14.0083 153.7 10.675H156.25C156.483 11.975 156.725 13.275 156.975 14.575C157.225 15.875 157.483 17.1417 157.75 18.375C158.017 19.5917 158.283 20.7583 158.55 21.875C158.817 22.9917 159.092 24.025 159.375 24.975C160.042 23.225 160.75 21.3083 161.5 19.225C162.25 17.125 162.95 14.9583 163.6 12.725H165.7C166.35 14.9583 167.058 17.125 167.825 19.225C168.592 21.3083 169.308 23.225 169.975 24.975C170.242 24.0417 170.508 23.0167 170.775 21.9C171.042 20.7833 171.3 19.6167 171.55 18.4C171.817 17.1667 172.075 15.9 172.325 14.6C172.575 13.2833 172.817 11.975 173.05 10.675H175.525C174.925 14.0083 174.283 17.0917 173.6 19.925C172.933 22.7583 172.167 25.45 171.3 28H168.875C168.142 26.2 167.425 24.35 166.725 22.45C166.025 20.55 165.325 18.4833 164.625 16.25ZM178.218 28V9L180.543 8.6V15.25C180.976 15.0833 181.434 14.9583 181.918 14.875C182.418 14.775 182.909 14.725 183.393 14.725C184.426 14.725 185.284 14.875 185.968 15.175C186.651 15.4583 187.193 15.8667 187.593 16.4C188.009 16.9167 188.301 17.5417 188.468 18.275C188.634 19.0083 188.718 19.8167 188.718 20.7V28H186.393V21.2C186.393 20.4 186.334 19.7167 186.218 19.15C186.118 18.5833 185.943 18.125 185.693 17.775C185.443 17.425 185.109 17.175 184.693 17.025C184.276 16.8583 183.759 16.775 183.143 16.775C182.893 16.775 182.634 16.7917 182.368 16.825C182.101 16.8583 181.843 16.9 181.593 16.95C181.359 16.9833 181.143 17.025 180.943 17.075C180.759 17.125 180.626 17.1667 180.543 17.2V28H178.218ZM203.975 21.5C203.975 22.5333 203.825 23.4667 203.525 24.3C203.225 25.1333 202.8 25.85 202.25 26.45C201.717 27.05 201.075 27.5167 200.325 27.85C199.575 28.1667 198.758 28.325 197.875 28.325C196.992 28.325 196.175 28.1667 195.425 27.85C194.675 27.5167 194.025 27.05 193.475 26.45C192.942 25.85 192.525 25.1333 192.225 24.3C191.925 23.4667 191.775 22.5333 191.775 21.5C191.775 20.4833 191.925 19.5583 192.225 18.725C192.525 17.875 192.942 17.15 193.475 16.55C194.025 15.95 194.675 15.4917 195.425 15.175C196.175 14.8417 196.992 14.675 197.875 14.675C198.758 14.675 199.575 14.8417 200.325 15.175C201.075 15.4917 201.717 15.95 202.25 16.55C202.8 17.15 203.225 17.875 203.525 18.725C203.825 19.5583 203.975 20.4833 203.975 21.5ZM201.55 21.5C201.55 20.0333 201.217 18.875 200.55 18.025C199.9 17.1583 199.008 16.725 197.875 16.725C196.742 16.725 195.842 17.1583 195.175 18.025C194.525 18.875 194.2 20.0333 194.2 21.5C194.2 22.9667 194.525 24.1333 195.175 25C195.842 25.85 196.742 26.275 197.875 26.275C199.008 26.275 199.9 25.85 200.55 25C201.217 24.1333 201.55 22.9667 201.55 21.5ZM217.432 26.325C217.982 26.325 218.466 26.3167 218.882 26.3C219.316 26.2667 219.674 26.2167 219.957 26.15V22.275C219.791 22.1917 219.516 22.125 219.132 22.075C218.766 22.0083 218.316 21.975 217.782 21.975C217.432 21.975 217.057 22 216.657 22.05C216.274 22.1 215.916 22.2083 215.582 22.375C215.266 22.525 214.999 22.7417 214.782 23.025C214.566 23.2917 214.457 23.65 214.457 24.1C214.457 24.9333 214.724 25.5167 215.257 25.85C215.791 26.1667 216.516 26.325 217.432 26.325ZM217.232 14.675C218.166 14.675 218.949 14.8 219.582 15.05C220.232 15.2833 220.749 15.625 221.132 16.075C221.532 16.5083 221.816 17.0333 221.982 17.65C222.149 18.25 222.232 18.9167 222.232 19.65V27.775C222.032 27.8083 221.749 27.8583 221.382 27.925C221.032 27.975 220.632 28.025 220.182 28.075C219.732 28.125 219.241 28.1667 218.707 28.2C218.191 28.25 217.674 28.275 217.157 28.275C216.424 28.275 215.749 28.2 215.132 28.05C214.516 27.9 213.982 27.6667 213.532 27.35C213.082 27.0167 212.732 26.5833 212.482 26.05C212.232 25.5167 212.107 24.875 212.107 24.125C212.107 23.4083 212.249 22.7917 212.532 22.275C212.832 21.7583 213.232 21.3417 213.732 21.025C214.232 20.7083 214.816 20.475 215.482 20.325C216.149 20.175 216.849 20.1 217.582 20.1C217.816 20.1 218.057 20.1167 218.307 20.15C218.557 20.1667 218.791 20.2 219.007 20.25C219.241 20.2833 219.441 20.3167 219.607 20.35C219.774 20.3833 219.891 20.4083 219.957 20.425V19.775C219.957 19.3917 219.916 19.0167 219.832 18.65C219.749 18.2667 219.599 17.9333 219.382 17.65C219.166 17.35 218.866 17.1167 218.482 16.95C218.116 16.7667 217.632 16.675 217.032 16.675C216.266 16.675 215.591 16.7333 215.007 16.85C214.441 16.95 214.016 17.0583 213.732 17.175L213.457 15.25C213.757 15.1167 214.257 14.9917 214.957 14.875C215.657 14.7417 216.416 14.675 217.232 14.675ZM230.894 14.725C231.094 14.725 231.319 14.7417 231.569 14.775C231.835 14.7917 232.094 14.825 232.344 14.875C232.594 14.9083 232.819 14.95 233.019 15C233.235 15.0333 233.394 15.0667 233.494 15.1L233.094 17.125C232.91 17.0583 232.602 16.9833 232.169 16.9C231.752 16.8 231.21 16.75 230.544 16.75C230.11 16.75 229.677 16.8 229.244 16.9C228.827 16.9833 228.552 17.0417 228.419 17.075V28H226.094V15.55C226.644 15.35 227.327 15.1667 228.144 15C228.96 14.8167 229.877 14.725 230.894 14.725ZM235.012 21.525C235.012 20.375 235.179 19.375 235.512 18.525C235.846 17.6583 236.287 16.9417 236.837 16.375C237.387 15.8083 238.021 15.3833 238.737 15.1C239.454 14.8167 240.187 14.675 240.937 14.675C242.687 14.675 244.029 15.225 244.962 16.325C245.896 17.4083 246.362 19.0667 246.362 21.3C246.362 21.4 246.362 21.5333 246.362 21.7C246.362 21.85 246.354 21.9917 246.337 22.125H237.437C237.537 23.475 237.929 24.5 238.612 25.2C239.296 25.9 240.362 26.25 241.812 26.25C242.629 26.25 243.312 26.1833 243.862 26.05C244.429 25.9 244.854 25.7583 245.137 25.625L245.462 27.575C245.179 27.725 244.679 27.8833 243.962 28.05C243.262 28.2167 242.462 28.3 241.562 28.3C240.429 28.3 239.446 28.1333 238.612 27.8C237.796 27.45 237.121 26.975 236.587 26.375C236.054 25.775 235.654 25.0667 235.387 24.25C235.137 23.4167 235.012 22.5083 235.012 21.525ZM243.937 20.25C243.954 19.2 243.687 18.3417 243.137 17.675C242.604 16.9917 241.862 16.65 240.912 16.65C240.379 16.65 239.904 16.7583 239.487 16.975C239.087 17.175 238.746 17.4417 238.462 17.775C238.179 18.1083 237.954 18.4917 237.787 18.925C237.637 19.3583 237.537 19.8 237.487 20.25H243.937ZM253.963 30.425C254.147 30.5083 254.38 30.5833 254.663 30.65C254.963 30.7333 255.255 30.775 255.538 30.775C256.455 30.775 257.172 30.5667 257.688 30.15C258.205 29.75 258.672 29.0917 259.088 28.175C258.038 26.175 257.055 24.0583 256.138 21.825C255.238 19.575 254.488 17.3 253.888 15H256.388C256.572 15.75 256.788 16.5583 257.038 17.425C257.305 18.2917 257.597 19.1833 257.913 20.1C258.23 21.0167 258.572 21.9333 258.938 22.85C259.305 23.7667 259.688 24.65 260.088 25.5C260.722 23.75 261.272 22.0167 261.738 20.3C262.205 18.5833 262.647 16.8167 263.063 15H265.463C264.863 17.45 264.197 19.8083 263.463 22.075C262.73 24.325 261.938 26.4333 261.088 28.4C260.755 29.15 260.405 29.7917 260.038 30.325C259.688 30.875 259.297 31.325 258.863 31.675C258.43 32.025 257.938 32.2833 257.388 32.45C256.855 32.6167 256.247 32.7 255.563 32.7C255.38 32.7 255.188 32.6833 254.988 32.65C254.788 32.6333 254.588 32.6 254.388 32.55C254.205 32.5167 254.03 32.475 253.863 32.425C253.713 32.375 253.605 32.3333 253.538 32.3L253.963 30.425ZM279.39 21.5C279.39 22.5333 279.24 23.4667 278.94 24.3C278.64 25.1333 278.215 25.85 277.665 26.45C277.132 27.05 276.49 27.5167 275.74 27.85C274.99 28.1667 274.173 28.325 273.29 28.325C272.407 28.325 271.59 28.1667 270.84 27.85C270.09 27.5167 269.44 27.05 268.89 26.45C268.357 25.85 267.94 25.1333 267.64 24.3C267.34 23.4667 267.19 22.5333 267.19 21.5C267.19 20.4833 267.34 19.5583 267.64 18.725C267.94 17.875 268.357 17.15 268.89 16.55C269.44 15.95 270.09 15.4917 270.84 15.175C271.59 14.8417 272.407 14.675 273.29 14.675C274.173 14.675 274.99 14.8417 275.74 15.175C276.49 15.4917 277.132 15.95 277.665 16.55C278.215 17.15 278.64 17.875 278.94 18.725C279.24 19.5583 279.39 20.4833 279.39 21.5ZM276.965 21.5C276.965 20.0333 276.632 18.875 275.965 18.025C275.315 17.1583 274.423 16.725 273.29 16.725C272.157 16.725 271.257 17.1583 270.59 18.025C269.94 18.875 269.615 20.0333 269.615 21.5C269.615 22.9667 269.94 24.1333 270.59 25C271.257 25.85 272.157 26.275 273.29 26.275C274.423 26.275 275.315 25.85 275.965 25C276.632 24.1333 276.965 22.9667 276.965 21.5ZM293.011 27.625C292.478 27.7583 291.769 27.9 290.886 28.05C290.019 28.2 289.011 28.275 287.861 28.275C286.861 28.275 286.019 28.1333 285.336 27.85C284.653 27.55 284.103 27.1333 283.686 26.6C283.269 26.0667 282.969 25.4417 282.786 24.725C282.603 23.9917 282.511 23.1833 282.511 22.3V15H284.836V21.8C284.836 23.3833 285.086 24.5167 285.586 25.2C286.086 25.8833 286.928 26.225 288.111 26.225C288.361 26.225 288.619 26.2167 288.886 26.2C289.153 26.1833 289.403 26.1667 289.636 26.15C289.869 26.1167 290.078 26.0917 290.261 26.075C290.461 26.0417 290.603 26.0083 290.686 25.975V15H293.011V27.625ZM299.367 12.225C298.267 12.225 297.192 12.5083 296.142 13.075L295.492 11.275C296.058 10.975 296.692 10.7333 297.392 10.55C298.108 10.3667 298.867 10.275 299.667 10.275C300.617 10.275 301.392 10.4083 301.992 10.675C302.608 10.925 303.1 11.25 303.467 11.65C303.833 12.05 304.083 12.5 304.217 13C304.367 13.4833 304.442 13.95 304.442 14.4C304.442 14.9667 304.333 15.475 304.117 15.925C303.9 16.3583 303.633 16.7667 303.317 17.15C303 17.5333 302.65 17.9 302.267 18.25C301.883 18.6 301.533 18.9667 301.217 19.35C300.9 19.7167 300.633 20.125 300.417 20.575C300.2 21.0083 300.092 21.5 300.092 22.05C300.092 22.1333 300.092 22.225 300.092 22.325C300.092 22.425 300.1 22.5167 300.117 22.6H298.167C298.1 22.2667 298.067 21.9167 298.067 21.55C298.067 21.0167 298.158 20.5333 298.342 20.1C298.542 19.6667 298.792 19.2667 299.092 18.9C299.392 18.5167 299.708 18.1667 300.042 17.85C300.375 17.5167 300.692 17.1833 300.992 16.85C301.292 16.5167 301.533 16.1667 301.717 15.8C301.917 15.4333 302.017 15.0333 302.017 14.6C302.017 13.9 301.792 13.3333 301.342 12.9C300.892 12.45 300.233 12.225 299.367 12.225ZM300.942 26.65C300.942 27.1 300.792 27.4917 300.492 27.825C300.192 28.1583 299.783 28.325 299.267 28.325C298.75 28.325 298.342 28.1583 298.042 27.825C297.742 27.4917 297.592 27.1 297.592 26.65C297.592 26.2 297.742 25.8083 298.042 25.475C298.342 25.1417 298.75 24.975 299.267 24.975C299.783 24.975 300.192 25.1417 300.492 25.475C300.792 25.8083 300.942 26.2 300.942 26.65Z" fill="#821616"/>
<path d="M512.15 46V28.675H522.725V30.75H514.575V35.9H521.825V37.925H514.575V43.925H523.35V46H512.15ZM531.082 32.725C531.282 32.725 531.507 32.7417 531.757 32.775C532.024 32.7917 532.282 32.825 532.532 32.875C532.782 32.9083 533.007 32.95 533.207 33C533.424 33.0333 533.582 33.0667 533.682 33.1L533.282 35.125C533.099 35.0583 532.791 34.9833 532.357 34.9C531.941 34.8 531.399 34.75 530.732 34.75C530.299 34.75 529.866 34.8 529.432 34.9C529.016 34.9833 528.741 35.0417 528.607 35.075V46H526.282V33.55C526.832 33.35 527.516 33.1667 528.332 33C529.149 32.8167 530.066 32.725 531.082 32.725ZM540.726 32.725C540.926 32.725 541.151 32.7417 541.401 32.775C541.667 32.7917 541.926 32.825 542.176 32.875C542.426 32.9083 542.651 32.95 542.851 33C543.067 33.0333 543.226 33.0667 543.326 33.1L542.926 35.125C542.742 35.0583 542.434 34.9833 542.001 34.9C541.584 34.8 541.042 34.75 540.376 34.75C539.942 34.75 539.509 34.8 539.076 34.9C538.659 34.9833 538.384 35.0417 538.251 35.075V46H535.926V33.55C536.476 33.35 537.159 33.1667 537.976 33C538.792 32.8167 539.709 32.725 540.726 32.725ZM546.952 44.65C546.952 45.1 546.802 45.4917 546.502 45.825C546.202 46.1583 545.794 46.325 545.277 46.325C544.76 46.325 544.352 46.1583 544.052 45.825C543.752 45.4917 543.602 45.1 543.602 44.65C543.602 44.2 543.752 43.8083 544.052 43.475C544.352 43.1417 544.76 42.975 545.277 42.975C545.794 42.975 546.202 43.1417 546.502 43.475C546.802 43.8083 546.952 44.2 546.952 44.65ZM553.104 44.65C553.104 45.1 552.954 45.4917 552.654 45.825C552.354 46.1583 551.946 46.325 551.429 46.325C550.913 46.325 550.504 46.1583 550.204 45.825C549.904 45.4917 549.754 45.1 549.754 44.65C549.754 44.2 549.904 43.8083 550.204 43.475C550.504 43.1417 550.913 42.975 551.429 42.975C551.946 42.975 552.354 43.1417 552.654 43.475C552.954 43.8083 553.104 44.2 553.104 44.65ZM559.257 44.65C559.257 45.1 559.107 45.4917 558.807 45.825C558.507 46.1583 558.099 46.325 557.582 46.325C557.065 46.325 556.657 46.1583 556.357 45.825C556.057 45.4917 555.907 45.1 555.907 44.65C555.907 44.2 556.057 43.8083 556.357 43.475C556.657 43.1417 557.065 42.975 557.582 42.975C558.099 42.975 558.507 43.1417 558.807 43.475C559.107 43.8083 559.257 44.2 559.257 44.65Z" fill="#387800"/>
<defs>
<clipPath id="clip0">
<rect width="215.686" height="163.399" fill="white" transform="translate(52.2876 198.529)"/>
</clipPath>
<clipPath id="clip1">
<rect width="111.111" height="84.9673" fill="white" transform="matrix(-1 0 0 1 547.386 73.5294)"/>
</clipPath>
</defs>
</svg>
