<svg width="719" height="494" fill="none" xmlns="http://www.w3.org/2000/svg"><path d="M359.5 0l311.336 123.5v247L359.5 494 48.164 370.5v-247L359.5 0z" fill="#C49800" fill-opacity=".08"/><g clip-path="url(#clip0)"><path fill-rule="evenodd" clip-rule="evenodd" d="M119 303.981h115c8.837 0 16 7.164 16 16v92c0 8.837-7.163 16-16 16H119c-8.837 0-16-7.163-16-16v-92c0-8.836 7.163-16 16-16zm16 28a4 4 0 00-4 4v60a4 4 0 004 4h83a4 4 0 004-4v-60a4 4 0 00-4-4h-83z" fill="#91989D"/></g><g clip-path="url(#clip1)" fill-rule="evenodd" clip-rule="evenodd"><path d="M115.623 179.981h77.254l10.123 124H88l27.623-124z" fill="#5B5D5E"/><path d="M115.623 179.981h23.76l14.221 124H88l27.623-124z" fill="#000" fill-opacity=".1"/></g><g clip-path="url(#clip2)"><path fill-rule="evenodd" clip-rule="evenodd" d="M217.326 182.564l108.909-36.932c8.368-2.838 17.453 1.646 20.291 10.014l29.545 87.127c2.837 8.369-1.646 17.453-10.015 20.291l-108.908 36.931c-8.369 2.838-17.453-1.645-20.291-10.014l-29.545-87.127c-2.838-8.368 1.646-17.453 10.014-20.29zm24.145 21.378a4.001 4.001 0 00-2.504 5.073l19.269 56.822a3.998 3.998 0 005.072 2.503l78.604-26.655a3.998 3.998 0 002.503-5.072l-19.268-56.822a4.001 4.001 0 00-5.073-2.504l-78.603 26.655z" fill="#C5CFD6"/><path d="M223.67 195.011c.127.423.293.789.495 1.099.211.308.449.557.715.748.272.181.569.295.891.342.322.048.666.016 1.031-.094.357-.108.656-.271.898-.489.25-.221.434-.48.552-.778.124-.309.184-.649.181-1.019a3.945 3.945 0 00-.184-1.194 3.95 3.95 0 00-.508-1.096 2.517 2.517 0 00-.715-.748 1.968 1.968 0 00-.895-.354 2.326 2.326 0 00-1.018.091 2.224 2.224 0 00-1.456 1.295 2.817 2.817 0 00-.181 1.019c.004.37.068.763.194 1.178zm6.582-1.991c.223.739.308 1.424.255 2.056a4.198 4.198 0 01-.471 1.677c-.269.488-.64.908-1.113 1.26-.465.348-1 .614-1.606.798a5.059 5.059 0 01-1.754.218 4.046 4.046 0 01-1.624-.433 4.235 4.235 0 01-1.346-1.127c-.395-.497-.704-1.114-.927-1.852-.223-.739-.303-1.421-.238-2.047a4.355 4.355 0 01.504-1.701 4.106 4.106 0 011.109-1.272c.465-.349.984-.61 1.556-.783a5.038 5.038 0 011.754-.218 3.96 3.96 0 011.628.445 4.19 4.19 0 011.35 1.14c.392.488.7 1.101.923 1.839zm6.349 2.983c-.606.184-1.153.259-1.643.226a3.237 3.237 0 01-1.31-.379 3.142 3.142 0 01-.962-.89 4.868 4.868 0 01-.62-1.334l-1.622-5.363 1.941-.587 1.573 5.202c.105.348.233.635.383.862.156.215.324.382.504.499.186.107.385.164.596.173.219.006.445-.026.677-.096.473-.143.81-.404 1.013-.782.211-.38.211-.919 0-1.616l-1.573-5.201 1.941-.587 1.622 5.363c.153.506.223.992.21 1.458a3.031 3.031 0 01-.316 1.29c-.2.387-.499.731-.897 1.032-.397.301-.903.545-1.517.73zm9.161-12.372l.501 1.655-2.601.787 2.107 6.968-1.941.587-2.107-6.968-2.601.786-.5-1.655 7.142-2.16zm7.169 2.532c.128.423.293.789.496 1.099.211.308.449.557.715.748.272.181.569.295.891.342.322.047.666.016 1.031-.094.357-.108.656-.271.898-.489.25-.221.434-.48.552-.778.124-.31.184-.649.181-1.019a3.945 3.945 0 00-.184-1.194 3.978 3.978 0 00-.508-1.096 2.518 2.518 0 00-.715-.748 1.973 1.973 0 00-.895-.354 2.33 2.33 0 00-1.019.09 2.244 2.244 0 00-.906.505 2.104 2.104 0 00-.549.791 2.813 2.813 0 00-.181 1.019c.004.37.068.763.193 1.178zm6.583-1.991c.223.738.308 1.423.255 2.055a4.198 4.198 0 01-.471 1.677c-.269.489-.64.909-1.113 1.26-.465.349-1 .615-1.606.798a5.035 5.035 0 01-1.754.218 4.04 4.04 0 01-1.624-.432 4.241 4.241 0 01-1.346-1.128c-.395-.496-.704-1.113-.927-1.852-.223-.738-.303-1.42-.239-2.046.062-.635.23-1.201.505-1.701a4.093 4.093 0 011.109-1.272c.465-.349.983-.61 1.556-.783a5.038 5.038 0 011.754-.218c.58.032 1.123.181 1.628.444.506.264.955.644 1.35 1.14.392.489.7 1.102.923 1.84zm2.924 3.829l-2.608-8.624 5.774-1.746.493 1.631-3.833 1.158.546 1.805 3.409-1.031.493 1.63-3.409 1.031 1.076 3.559-1.941.587zm10.459-7.876c.128.423.293.79.495 1.1.211.308.449.557.716.748.271.18.568.294.891.342a2.35 2.35 0 001.03-.095 2.31 2.31 0 00.898-.488 2.01 2.01 0 00.553-.779 2.65 2.65 0 00.181-1.019 3.946 3.946 0 00-.185-1.193 3.936 3.936 0 00-.508-1.096 2.494 2.494 0 00-.715-.748 1.964 1.964 0 00-.895-.354 2.311 2.311 0 00-1.018.09 2.254 2.254 0 00-.907.505 2.102 2.102 0 00-.548.791 2.792 2.792 0 00-.181 1.019c.003.37.068.763.193 1.177zm6.583-1.99c.223.738.308 1.423.254 2.055a4.181 4.181 0 01-.47 1.677c-.269.489-.64.909-1.113 1.26a5.119 5.119 0 01-1.606.798 5.038 5.038 0 01-1.754.218 4.065 4.065 0 01-1.625-.432 4.252 4.252 0 01-1.346-1.128c-.394-.496-.703-1.114-.926-1.852-.224-.738-.303-1.42-.239-2.046.062-.635.23-1.202.504-1.701a4.134 4.134 0 011.109-1.273 4.986 4.986 0 011.556-.783 5.061 5.061 0 011.754-.218 3.96 3.96 0 011.629.445c.505.264.955.644 1.35 1.14.392.488.699 1.102.923 1.84zm2.812-5.658c1.294-.392 2.355-.459 3.184-.203.827.248 1.387.858 1.68 1.828.184.606.192 1.142.025 1.609-.161.456-.47.871-.927 1.245.239.163.497.356.773.581.274.216.548.45.823.702.281.24.559.501.834.78.272.271.53.541.775.811l-2.178.659a88.817 88.817 0 00-.745-.712 14.427 14.427 0 00-.753-.696 16.315 16.315 0 00-.731-.621 8.15 8.15 0 00-.701-.521l-.958.289.952 3.149-1.942.587-2.57-8.499c.398-.211.816-.401 1.254-.57.447-.171.848-.31 1.205-.418zm.612 1.621a6.26 6.26 0 00-.382.129l-.303.119.707 2.339.548-.165c.73-.221 1.225-.47 1.485-.748s.323-.637.19-1.076c-.128-.423-.38-.673-.756-.75-.37-.087-.867-.036-1.489.152zm9.262 3.189l.319-.07.436-.131c.97-.294 1.614-.756 1.93-1.385.325-.633.357-1.38.096-2.243-.273-.904-.704-1.521-1.292-1.85-.589-.329-1.368-.347-2.339-.054-.133.04-.268.086-.407.137a3.291 3.291 0 00-.391.145l1.648 5.451zm4.785-4.435c.225.747.306 1.433.242 2.059a3.744 3.744 0 01-.578 1.682c-.312.493-.748.924-1.307 1.292-.559.368-1.22.667-1.983.898-.348.106-.76.212-1.234.319a9.687 9.687 0 01-1.422.24l-2.54-8.4c.423-.218.872-.412 1.345-.583.48-.181.894-.324 1.242-.43a7.793 7.793 0 012.079-.356 4.283 4.283 0 011.792.313 3.642 3.642 0 011.41 1.068c.4.485.718 1.118.954 1.898zm2.927 3.828l-2.608-8.624 5.824-1.761.493 1.63-3.883 1.174.512 1.693 3.447-1.043.482 1.593-3.447 1.042.628 2.078 4.169-1.26.493 1.63-6.11 1.848zm7.435-11.769c1.294-.391 2.355-.459 3.184-.202.827.248 1.387.857 1.68 1.828.183.605.192 1.141.025 1.608-.161.456-.47.871-.927 1.245.239.163.497.357.773.581.273.216.548.45.823.702.281.241.559.501.834.78.272.271.53.541.775.811l-2.178.659a88.817 88.817 0 00-.745-.712 14.427 14.427 0 00-.753-.696c-.249-.223-.493-.43-.732-.621a8.358 8.358 0 00-.7-.521l-.959.29.952 3.148-1.941.587-2.57-8.499c.398-.211.816-.401 1.254-.57.446-.171.848-.31 1.205-.418zm.612 1.621a6.26 6.26 0 00-.382.129l-.304.119.708 2.34.547-.166c.73-.221 1.225-.47 1.485-.748.261-.278.324-.636.191-1.076-.128-.423-.38-.673-.756-.749-.371-.088-.867-.037-1.489.151z" fill="#730000"/></g><g clip-path="url(#clip3)" fill-rule="evenodd" clip-rule="evenodd"><path d="M386.556 390.419l-67.78 37.068-68.379-103.937 100.897-55.179 35.262 122.048z" fill="#5B5D5E"/><path d="M386.556 390.419l-20.846 11.4-71.974-101.97 57.558-31.478 35.262 122.048z" fill="#000" fill-opacity=".1"/></g><g clip-path="url(#clip4)" fill-rule="evenodd" clip-rule="evenodd"><path d="M229.683 104.157l-6.761 76.958-124.41-.767 10.064-114.559 121.107 38.368z" fill="#C5CFD6"/><path d="M229.683 104.157l-2.079 23.669-124.769 3.315 5.741-65.352 121.107 38.368z" fill="#000" fill-opacity=".1"/></g><path fill-rule="evenodd" clip-rule="evenodd" d="M490.826 252.97l-20.748 21.927c-6.175 2.932-11.204 6.097-15.086 9.496-.859 1.124-1.758 3.249 2.45 2.146 4.208-1.103 8.684-2.075 9.538-.726.853 1.349-1.414 3.559.133 5.307 1.032 1.165 4.185-2.799 9.459-11.893l21.922-14.136-7.668-12.121z" fill="#B28B67"/><path fill-rule="evenodd" clip-rule="evenodd" d="M528.107 175.821l-6.692.065c-20.302 25.174-22.935 66.932-48.605 93.461l8.703 7.516c50.052-15.639 53.891-66.687 46.594-101.042z" fill="#FF4133"/><path fill-rule="evenodd" clip-rule="evenodd" d="M528.107 175.821l-6.692.065c-20.302 25.174-22.935 66.932-48.605 93.461l8.703 7.516c50.052-15.639 53.891-66.687 46.594-101.042z" fill="#000" fill-opacity=".12"/><g clip-path="url(#clip5)" fill-rule="evenodd" clip-rule="evenodd"><path d="M544.201 249.691l-28.704 93.842-13.906 79.808h-10.902l14.693-173.65h38.819z" fill="#997659"/><path d="M554.469 249.691c-1.949 51.524.345 78.102.782 82.783.436 4.681 6.411 35.035 20.557 92.438l-11.618-3.99c-22.356-52.647-29.974-80.009-32.538-86.922-2.564-6.914-9.374-35.017-20.43-84.309h43.247z" fill="#B28B67"/><path d="M575.722 420.865c.853 2.278 1.28 3.982 1.28 5.113 0 1.376-.23 3.383-.688 6.022h-43.023c-1.118-3.696-.473-5.692 1.936-5.986 2.409-.295 4.41-.561 6.003-.799l19.997-8.914a.762.762 0 011.016.406l1.285 3.118c2.23 1.04 4.042 1.56 5.436 1.56 1.133 0 2.697-.457 4.693-1.372a1.526 1.526 0 012.065.852zM504.019 420.865c.853 2.278 1.28 3.982 1.28 5.113 0 1.376-.23 3.383-.688 6.022h-43.023c-1.118-3.696-.473-5.692 1.936-5.986 2.409-.295 4.41-.561 6.003-.799l19.997-8.914a.762.762 0 011.007.386l.009.02 1.285 3.118c2.23 1.04 4.042 1.56 5.436 1.56 1.133 0 2.697-.457 4.693-1.372a1.526 1.526 0 012.065.852z" fill="#404040"/><path d="M548.015 249.691l-20.977 71.321-30.512-1.907 7.565-69.414h43.924z" fill="#B6A795"/><path d="M548.015 249.691l-20.977 71.321-30.512-1.907 7.565-69.414h43.924z" fill="#060606" fill-opacity=".12"/><path d="M554.88 249.691c4.016 12.037 4.779 51.103 2.289 70.94l-31.656 2.67-16.846-73.61h46.213z" fill="#B6A795"/></g><g clip-path="url(#clip6)" fill-rule="evenodd" clip-rule="evenodd"><path d="M533.321 153.956c3.515-4.126 5.894-9.182 5.497-14.848-1.146-16.324-23.869-12.733-28.29-4.494-4.42 8.239-3.895 29.138 1.818 30.611 2.278.587 7.132-.851 12.071-3.829l-3.1 21.935h18.307l-6.303-29.375z" fill="#B28B67"/><path d="M518.602 135.809c2.484 1.39 4.252 3.994 6.381 7.409a4.577 4.577 0 014.871 7.536 69.52 69.52 0 003.606 4.667c5.075-3.045 8.85-11.919 4.004-20.486-4.169-17.161-27.794-6.509-32.339-9.404-.994 6.228 2.211 11.249 13.477 10.278z" fill="#191847"/></g><g clip-path="url(#clip7)" fill-rule="evenodd" clip-rule="evenodd"><path d="M586.386 230.711l-15.082 2.992c15.167 28.266 23.301 43.246 24.402 44.942 2.476 3.816.165 10.81-.688 14.492 5.354 1.247 3.243-6.812 10.018-5.129 6.185 1.535 11.428 5.477 17.195.161.709-.653 1.228-2.696-1.189-3.744-6.023-2.61-14.92-7.497-16.363-9.395-1.967-2.588-8.065-17.361-18.293-44.319z" fill="#B28B67"/><path d="M558.056 254.262h-56.311c-2.573 0-2.088-3.715-1.716-5.59 4.293-21.638 21.051-44.963 21.051-75.764l16.243-2.547c13.434 21.607 18.08 48.21 20.733 83.901z" fill="#DDE3E9"/><path d="M563.673 232.354c11.479 20.707 21.128 35.615 28.947 44.723l11.803-2.311c-7.603-47.153-29.621-81.955-66.053-104.405h-6.431c-14.582 49.705-18.601 82.824-12.06 99.357h50.689c-.802-12.097-3.373-24.89-6.895-37.364z" fill="#FF4133"/></g><defs><clipPath id="clip0"><path fill="#fff" transform="translate(60 303.981)" d="M0 0h232v124H0z"/></clipPath><clipPath id="clip1"><path fill="#fff" transform="translate(33 179.981)" d="M0 0h232v124H0z"/></clipPath><clipPath id="clip2"><path fill="#fff" transform="rotate(-18.732 691.59 -388.67)" d="M0 0h232v124H0z"/></clipPath><clipPath id="clip3"><path fill="#fff" transform="rotate(151.327 184.699 234.048)" d="M0 0h232v124H0z"/></clipPath><clipPath id="clip4"><path fill="#fff" transform="rotate(95.02 108.449 119.433)" d="M0 0h232v124H0z"/></clipPath><clipPath id="clip5"><path fill="#fff" transform="matrix(-1 0 0 1 641.839 249.691)" d="M0 0h228.839v182.309H0z"/></clipPath><clipPath id="clip6"><path fill="#fff" transform="matrix(-1 0 0 1 580.815 104)" d="M0 0h103.741v79.331H0z"/></clipPath><clipPath id="clip7"><path fill="#fff" transform="matrix(-1 0 0 1 624.295 170.361)" d="M0 0h188.411v137.628H0z"/></clipPath></defs></svg>