<svg width="719" height="494" viewBox="0 0 719 494" fill="none" xmlns="http://www.w3.org/2000/svg">
<path d="M359.5 0L670.836 123.5V370.5L359.5 494L48.1639 370.5V123.5L359.5 0Z" fill="#C49800" fill-opacity="0.08"/>
<g clip-path="url(#clip0)">
<path fill-rule="evenodd" clip-rule="evenodd" d="M119 303.981H234C242.837 303.981 250 311.145 250 319.981V411.981C250 420.818 242.837 427.981 234 427.981H119C110.163 427.981 103 420.818 103 411.981V319.981C103 311.145 110.163 303.981 119 303.981ZM135 331.981C132.791 331.981 131 333.772 131 335.981V395.981C131 398.191 132.791 399.981 135 399.981H218C220.209 399.981 222 398.191 222 395.981V335.981C222 333.772 220.209 331.981 218 331.981H135Z" fill="#91989D"/>
</g>
<g clip-path="url(#clip1)">
<path fill-rule="evenodd" clip-rule="evenodd" d="M115.623 179.981H192.877L203 303.981H88L115.623 179.981Z" fill="#5B5D5E"/>
<path fill-rule="evenodd" clip-rule="evenodd" d="M115.623 179.981H139.383L153.604 303.981H88L115.623 179.981Z" fill="black" fill-opacity="0.1"/>
</g>
<g clip-path="url(#clip2)">
<path fill-rule="evenodd" clip-rule="evenodd" d="M217.326 182.564L326.235 145.632C334.603 142.794 343.688 147.278 346.526 155.646L376.071 242.773C378.908 251.142 374.425 260.226 366.056 263.064L257.148 299.995C248.779 302.833 239.695 298.35 236.857 289.981L207.312 202.854C204.474 194.486 208.958 185.401 217.326 182.564ZM241.471 203.942C239.379 204.652 238.258 206.923 238.967 209.015L258.236 265.837C258.945 267.929 261.216 269.05 263.308 268.34L341.912 241.685C344.004 240.976 345.125 238.705 344.415 236.613L325.147 179.791C324.437 177.699 322.166 176.578 320.074 177.287L241.471 203.942Z" fill="#C5CFD6"/>
<path d="M223.67 195.011C223.797 195.434 223.963 195.8 224.165 196.11C224.376 196.418 224.614 196.667 224.88 196.858C225.152 197.039 225.449 197.153 225.771 197.2C226.093 197.248 226.437 197.216 226.802 197.106C227.159 196.998 227.458 196.835 227.7 196.617C227.95 196.396 228.134 196.137 228.252 195.839C228.376 195.53 228.436 195.19 228.433 194.82C228.438 194.447 228.377 194.049 228.249 193.626C228.121 193.203 227.952 192.838 227.741 192.53C227.536 192.212 227.298 191.963 227.026 191.782C226.76 191.591 226.461 191.473 226.131 191.428C225.809 191.381 225.469 191.411 225.113 191.519C224.748 191.629 224.445 191.797 224.206 192.024C223.964 192.242 223.781 192.505 223.657 192.814C223.539 193.113 223.479 193.452 223.476 193.833C223.48 194.203 223.544 194.596 223.67 195.011ZM230.252 193.02C230.475 193.759 230.56 194.444 230.507 195.076C230.459 195.697 230.302 196.256 230.036 196.753C229.767 197.241 229.396 197.661 228.923 198.013C228.458 198.361 227.923 198.627 227.317 198.811C226.728 198.989 226.144 199.061 225.563 199.029C224.983 198.996 224.442 198.852 223.939 198.596C223.434 198.333 222.985 197.957 222.593 197.469C222.198 196.972 221.889 196.355 221.666 195.617C221.443 194.878 221.363 194.196 221.428 193.57C221.489 192.936 221.657 192.369 221.932 191.869C222.215 191.367 222.584 190.943 223.041 190.597C223.506 190.248 224.025 189.987 224.597 189.814C225.186 189.636 225.771 189.563 226.351 189.596C226.931 189.629 227.474 189.777 227.979 190.041C228.485 190.304 228.935 190.684 229.329 191.181C229.721 191.669 230.029 192.282 230.252 193.02ZM236.601 196.003C235.995 196.187 235.448 196.262 234.958 196.229C234.465 196.187 234.029 196.061 233.648 195.85C233.273 195.629 232.953 195.332 232.686 194.96C232.426 194.577 232.219 194.132 232.066 193.626L230.444 188.263L232.385 187.676L233.958 192.878C234.063 193.226 234.191 193.513 234.341 193.74C234.497 193.955 234.665 194.122 234.845 194.239C235.031 194.346 235.23 194.403 235.441 194.412C235.66 194.418 235.886 194.386 236.118 194.316C236.591 194.173 236.928 193.912 237.131 193.534C237.342 193.154 237.342 192.615 237.131 191.918L235.558 186.717L237.499 186.13L239.121 191.493C239.274 191.999 239.344 192.485 239.331 192.951C239.318 193.416 239.213 193.846 239.015 194.241C238.815 194.628 238.516 194.972 238.118 195.273C237.721 195.574 237.215 195.818 236.601 196.003ZM245.762 183.631L246.263 185.286L243.662 186.073L245.769 193.041L243.828 193.628L241.721 186.66L239.12 187.446L238.62 185.791L245.762 183.631ZM252.931 186.163C253.059 186.586 253.224 186.952 253.427 187.262C253.638 187.57 253.876 187.819 254.142 188.01C254.414 188.191 254.711 188.305 255.033 188.352C255.355 188.399 255.699 188.368 256.064 188.258C256.421 188.15 256.72 187.987 256.962 187.769C257.212 187.548 257.396 187.289 257.514 186.991C257.638 186.681 257.698 186.342 257.695 185.972C257.7 185.599 257.639 185.201 257.511 184.778C257.383 184.355 257.213 183.99 257.003 183.682C256.798 183.364 256.559 183.114 256.288 182.934C256.021 182.743 255.723 182.625 255.393 182.58C255.071 182.532 254.731 182.563 254.374 182.67C254.009 182.781 253.707 182.949 253.468 183.175C253.226 183.393 253.043 183.657 252.919 183.966C252.801 184.264 252.741 184.604 252.738 184.985C252.742 185.355 252.806 185.748 252.931 186.163ZM259.514 184.172C259.737 184.91 259.822 185.595 259.769 186.227C259.721 186.848 259.564 187.407 259.298 187.904C259.029 188.393 258.658 188.813 258.185 189.164C257.72 189.513 257.185 189.779 256.579 189.962C255.99 190.14 255.406 190.213 254.825 190.18C254.245 190.148 253.703 190.003 253.201 189.748C252.695 189.484 252.247 189.108 251.855 188.62C251.46 188.124 251.151 187.507 250.928 186.768C250.705 186.03 250.625 185.348 250.689 184.722C250.751 184.087 250.919 183.521 251.194 183.021C251.476 182.519 251.846 182.095 252.303 181.749C252.768 181.4 253.286 181.139 253.859 180.966C254.448 180.788 255.033 180.715 255.613 180.748C256.193 180.78 256.736 180.929 257.241 181.192C257.747 181.456 258.196 181.836 258.591 182.332C258.983 182.821 259.291 183.434 259.514 184.172ZM262.438 188.001L259.83 179.377L265.604 177.631L266.097 179.262L262.264 180.42L262.81 182.225L266.219 181.194L266.712 182.824L263.303 183.855L264.379 187.414L262.438 188.001ZM272.897 180.125C273.025 180.548 273.19 180.915 273.392 181.225C273.603 181.533 273.841 181.782 274.108 181.973C274.379 182.153 274.676 182.267 274.999 182.315C275.321 182.362 275.664 182.331 276.029 182.22C276.386 182.113 276.685 181.95 276.927 181.732C277.178 181.511 277.362 181.252 277.48 180.953C277.604 180.644 277.664 180.305 277.661 179.934C277.666 179.562 277.604 179.164 277.476 178.741C277.348 178.318 277.179 177.952 276.968 177.645C276.763 177.326 276.525 177.077 276.253 176.897C275.987 176.706 275.689 176.588 275.358 176.543C275.036 176.495 274.697 176.525 274.34 176.633C273.975 176.744 273.673 176.912 273.433 177.138C273.191 177.356 273.009 177.62 272.885 177.929C272.767 178.227 272.706 178.567 272.704 178.948C272.707 179.318 272.772 179.711 272.897 180.125ZM279.48 178.135C279.703 178.873 279.788 179.558 279.734 180.19C279.687 180.811 279.53 181.37 279.264 181.867C278.995 182.356 278.624 182.776 278.151 183.127C277.686 183.476 277.15 183.742 276.545 183.925C275.956 184.103 275.371 184.176 274.791 184.143C274.211 184.11 273.669 183.966 273.166 183.711C272.661 183.447 272.212 183.071 271.82 182.583C271.426 182.087 271.117 181.469 270.894 180.731C270.67 179.993 270.591 179.311 270.655 178.685C270.717 178.05 270.885 177.483 271.159 176.984C271.442 176.482 271.812 176.058 272.268 175.711C272.733 175.362 273.252 175.102 273.824 174.928C274.413 174.75 274.998 174.678 275.578 174.71C276.159 174.743 276.702 174.891 277.207 175.155C277.712 175.419 278.162 175.799 278.557 176.295C278.949 176.783 279.256 177.397 279.48 178.135ZM282.292 172.477C283.586 172.085 284.647 172.018 285.476 172.274C286.303 172.522 286.863 173.132 287.156 174.102C287.34 174.708 287.348 175.244 287.181 175.711C287.02 176.167 286.711 176.582 286.254 176.956C286.493 177.119 286.751 177.312 287.027 177.537C287.301 177.753 287.575 177.987 287.85 178.239C288.131 178.479 288.409 178.74 288.684 179.019C288.956 179.29 289.214 179.56 289.459 179.83L287.281 180.489C287.038 180.254 286.79 180.017 286.536 179.777C286.291 179.534 286.04 179.302 285.783 179.081C285.534 178.857 285.29 178.65 285.052 178.46C284.811 178.261 284.577 178.088 284.351 177.939L283.393 178.228L284.345 181.377L282.403 181.964L279.833 173.465C280.231 173.254 280.649 173.064 281.087 172.895C281.534 172.724 281.935 172.585 282.292 172.477ZM282.904 174.098C282.763 174.141 282.636 174.184 282.522 174.227C282.417 174.268 282.316 174.308 282.219 174.346L282.926 176.685L283.474 176.52C284.204 176.299 284.699 176.05 284.959 175.772C285.219 175.494 285.282 175.135 285.149 174.696C285.021 174.273 284.769 174.023 284.393 173.946C284.023 173.859 283.526 173.91 282.904 174.098ZM292.166 177.287C292.26 177.267 292.366 177.244 292.485 177.217C292.61 177.18 292.755 177.136 292.921 177.086C293.891 176.792 294.535 176.33 294.851 175.701C295.176 175.068 295.208 174.321 294.947 173.458C294.674 172.554 294.243 171.937 293.655 171.608C293.066 171.279 292.287 171.261 291.316 171.554C291.183 171.594 291.048 171.64 290.909 171.691C290.768 171.734 290.638 171.782 290.518 171.836L292.166 177.287ZM296.951 172.852C297.176 173.599 297.257 174.285 297.193 174.911C297.129 175.537 296.936 176.098 296.615 176.593C296.303 177.086 295.867 177.517 295.308 177.885C294.749 178.253 294.088 178.552 293.325 178.783C292.977 178.889 292.565 178.995 292.091 179.102C291.619 179.218 291.145 179.298 290.669 179.342L288.129 170.942C288.552 170.724 289.001 170.53 289.474 170.359C289.954 170.178 290.368 170.035 290.716 169.929C291.454 169.706 292.147 169.587 292.795 169.573C293.45 169.555 294.048 169.66 294.587 169.886C295.126 170.112 295.596 170.468 295.997 170.954C296.397 171.439 296.715 172.072 296.951 172.852ZM299.878 176.68L297.27 168.056L303.094 166.295L303.587 167.925L299.704 169.099L300.216 170.792L303.663 169.749L304.145 171.342L300.698 172.384L301.326 174.462L305.495 173.202L305.988 174.832L299.878 176.68ZM307.313 164.911C308.607 164.52 309.668 164.452 310.497 164.709C311.324 164.957 311.884 165.566 312.177 166.537C312.36 167.142 312.369 167.678 312.202 168.145C312.041 168.601 311.732 169.016 311.275 169.39C311.514 169.553 311.772 169.747 312.048 169.971C312.321 170.187 312.596 170.421 312.871 170.673C313.152 170.914 313.43 171.174 313.705 171.453C313.977 171.724 314.235 171.994 314.48 172.264L312.302 172.923C312.059 172.688 311.811 172.451 311.557 172.211C311.312 171.968 311.061 171.736 310.804 171.515C310.555 171.292 310.311 171.085 310.072 170.894C309.831 170.696 309.598 170.522 309.372 170.373L308.413 170.663L309.365 173.811L307.424 174.398L304.854 165.899C305.252 165.688 305.67 165.498 306.108 165.329C306.554 165.158 306.956 165.019 307.313 164.911ZM307.925 166.532C307.784 166.575 307.657 166.618 307.543 166.661C307.438 166.702 307.336 166.742 307.239 166.78L307.947 169.12L308.494 168.954C309.224 168.733 309.719 168.484 309.979 168.206C310.24 167.928 310.303 167.57 310.17 167.13C310.042 166.707 309.79 166.457 309.414 166.381C309.043 166.293 308.547 166.344 307.925 166.532Z" fill="#730000"/>
</g>
<g clip-path="url(#clip3)">
<path fill-rule="evenodd" clip-rule="evenodd" d="M386.556 390.419L318.776 427.487L250.397 323.55L351.294 268.371L386.556 390.419Z" fill="#5B5D5E"/>
<path fill-rule="evenodd" clip-rule="evenodd" d="M386.556 390.419L365.71 401.819L293.736 299.849L351.294 268.371L386.556 390.419Z" fill="black" fill-opacity="0.1"/>
</g>
<g clip-path="url(#clip4)">
<path fill-rule="evenodd" clip-rule="evenodd" d="M229.683 104.157L222.922 181.115L98.5123 180.348L108.576 65.7891L229.683 104.157Z" fill="#C5CFD6"/>
<path fill-rule="evenodd" clip-rule="evenodd" d="M229.683 104.157L227.604 127.826L102.835 131.141L108.576 65.7891L229.683 104.157Z" fill="black" fill-opacity="0.1"/>
</g>
<path fill-rule="evenodd" clip-rule="evenodd" d="M490.826 252.97L470.078 274.897C463.903 277.829 458.874 280.994 454.992 284.393C454.133 285.517 453.234 287.642 457.442 286.539C461.65 285.436 466.126 284.464 466.98 285.813C467.833 287.162 465.566 289.372 467.113 291.12C468.145 292.285 471.298 288.321 476.572 279.227L498.494 265.091L490.826 252.97Z" fill="#B28B67"/>
<path fill-rule="evenodd" clip-rule="evenodd" d="M528.107 175.821L521.415 175.886C501.113 201.06 498.48 242.818 472.81 269.347L481.513 276.863C531.565 261.224 535.404 210.176 528.107 175.821Z" fill="#FF4133"/>
<path fill-rule="evenodd" clip-rule="evenodd" d="M528.107 175.821L521.415 175.886C501.113 201.06 498.48 242.818 472.81 269.347L481.513 276.863C531.565 261.224 535.404 210.176 528.107 175.821Z" fill="black" fill-opacity="0.12"/>
<g clip-path="url(#clip5)">
<path fill-rule="evenodd" clip-rule="evenodd" d="M544.201 249.691L515.497 343.533L501.591 423.341H490.689L505.382 249.691H544.201Z" fill="#997659"/>
<path fill-rule="evenodd" clip-rule="evenodd" d="M554.469 249.691C552.52 301.215 554.814 327.793 555.251 332.474C555.687 337.155 561.662 367.509 575.808 424.912L564.19 420.922C541.834 368.275 534.216 340.913 531.652 334C529.088 327.086 522.278 298.983 511.222 249.691H554.469Z" fill="#B28B67"/>
<path fill-rule="evenodd" clip-rule="evenodd" d="M575.722 420.865C576.575 423.143 577.002 424.847 577.002 425.978C577.002 427.354 576.772 429.361 576.314 432C574.718 432 560.377 432 533.291 432C532.173 428.304 532.818 426.308 535.227 426.014C537.636 425.719 539.637 425.453 541.23 425.215L561.227 416.301C561.612 416.129 562.063 416.302 562.234 416.687C562.237 416.693 562.24 416.7 562.243 416.707L563.528 419.825C565.758 420.865 567.57 421.385 568.964 421.385C570.097 421.385 571.661 420.928 573.657 420.013L573.657 420.013C574.423 419.662 575.329 419.998 575.68 420.764C575.695 420.797 575.709 420.831 575.722 420.865Z" fill="#404040"/>
<path fill-rule="evenodd" clip-rule="evenodd" d="M504.019 420.865C504.872 423.143 505.299 424.847 505.299 425.978C505.299 427.354 505.069 429.361 504.611 432C503.015 432 488.674 432 461.588 432C460.47 428.304 461.115 426.308 463.524 426.014C465.933 425.719 467.934 425.453 469.527 425.215L489.524 416.301C489.909 416.129 490.36 416.302 490.531 416.687C490.534 416.693 490.537 416.7 490.54 416.707L491.825 419.825C494.055 420.865 495.867 421.385 497.261 421.385C498.394 421.385 499.958 420.928 501.954 420.013L501.954 420.013C502.72 419.662 503.626 419.998 503.977 420.764C503.992 420.797 504.006 420.831 504.019 420.865Z" fill="#404040"/>
<path fill-rule="evenodd" clip-rule="evenodd" d="M548.015 249.691L527.038 321.012L496.526 319.105L504.091 249.691H548.015Z" fill="#B6A795"/>
<path fill-rule="evenodd" clip-rule="evenodd" d="M548.015 249.691L527.038 321.012L496.526 319.105L504.091 249.691H548.015Z" fill="#060606" fill-opacity="0.12"/>
<path fill-rule="evenodd" clip-rule="evenodd" d="M554.88 249.691C558.896 261.728 559.659 300.794 557.169 320.631L525.513 323.301L508.667 249.691H554.88Z" fill="#B6A795"/>
</g>
<g clip-path="url(#clip6)">
<path fill-rule="evenodd" clip-rule="evenodd" d="M533.321 153.956C536.836 149.83 539.215 144.774 538.818 139.108C537.672 122.784 514.949 126.375 510.528 134.614C506.108 142.853 506.633 163.752 512.346 165.225C514.624 165.812 519.478 164.374 524.417 161.396L521.317 183.331H539.624L533.321 153.956Z" fill="#B28B67"/>
<path fill-rule="evenodd" clip-rule="evenodd" d="M518.602 135.809C521.086 137.199 522.854 139.803 524.983 143.218C525.501 143.015 526.066 142.903 526.656 142.903C529.184 142.903 531.233 144.952 531.233 147.48C531.233 148.763 530.705 149.923 529.854 150.754C530.913 152.248 532.1 153.81 533.46 155.421C538.535 152.376 542.31 143.502 537.464 134.935C533.295 117.774 509.67 128.426 505.125 125.531C504.131 131.759 507.336 136.78 518.602 135.809Z" fill="#191847"/>
</g>
<g clip-path="url(#clip7)">
<path fill-rule="evenodd" clip-rule="evenodd" d="M586.386 230.711L571.304 233.703C586.471 261.969 594.605 276.949 595.706 278.645C598.182 282.461 595.871 289.455 595.018 293.137C600.372 294.384 598.261 286.325 605.036 288.008C611.221 289.543 616.464 293.485 622.231 288.169C622.94 287.516 623.459 285.473 621.042 284.425C615.019 281.815 606.122 276.928 604.679 275.03C602.712 272.442 596.614 257.669 586.386 230.711Z" fill="#B28B67"/>
<path fill-rule="evenodd" clip-rule="evenodd" d="M558.056 254.262C532.539 254.262 513.768 254.262 501.745 254.262C499.172 254.262 499.657 250.547 500.029 248.672C504.322 227.034 521.08 203.709 521.08 172.908L537.323 170.361C550.757 191.968 555.403 218.571 558.056 254.262Z" fill="#DDE3E9"/>
<path fill-rule="evenodd" clip-rule="evenodd" d="M563.673 232.354C575.152 253.061 584.801 267.969 592.62 277.077L604.423 274.766C596.82 227.613 574.802 192.811 538.37 170.361H538.185L531.939 170.361C517.357 220.066 513.338 253.185 519.879 269.718H570.568C569.766 257.621 567.195 244.828 563.673 232.354Z" fill="#FF4133"/>
</g>
<defs>
<clipPath id="clip0">
<rect width="232" height="124" fill="white" transform="translate(60 303.981)"/>
</clipPath>
<clipPath id="clip1">
<rect width="232" height="124" fill="white" transform="translate(33 179.981)"/>
</clipPath>
<clipPath id="clip2">
<rect width="232" height="124" fill="white" transform="translate(161.451 201.511) rotate(-18.732)"/>
</clipPath>
<clipPath id="clip3">
<rect width="232" height="124" fill="white" transform="translate(459.047 350.775) rotate(151.327)"/>
</clipPath>
<clipPath id="clip4">
<rect width="232" height="124" fill="white" transform="translate(236.914 21.8516) rotate(95.0205)"/>
</clipPath>
<clipPath id="clip5">
<rect width="228.839" height="182.309" fill="white" transform="matrix(-1 0 0 1 641.839 249.691)"/>
</clipPath>
<clipPath id="clip6">
<rect width="103.741" height="79.3312" fill="white" transform="matrix(-1 0 0 1 580.815 104)"/>
</clipPath>
<clipPath id="clip7">
<rect width="188.411" height="137.628" fill="white" transform="matrix(-1 0 0 1 624.295 170.361)"/>
</clipPath>
</defs>
</svg>
