<svg width="500" height="328" fill="none" xmlns="http://www.w3.org/2000/svg"><path d="M121.363 51.523a10.001 10.001 0 019.042-5.729h353.811c7.337 0 12.176 7.638 9.042 14.272L378.637 302.683a10.002 10.002 0 01-9.042 5.728H15.785c-7.338 0-12.177-7.638-9.043-14.271L121.363 51.523z" fill="#619848" fill-opacity=".1"/><path d="M107.477 37.383l14.486 19.627M107.477 37.383l21.495 8.879M107.477 46.73c1.902-1.706 3.038-2.158 5.14-2.337.758-1.808 1.304-2.695 2.804-3.739-.152-1.988.111-2.763.934-4.205M107.477 52.337c3.104-2.493 4.932-3.332 8.411-3.739 1.121-2.661 1.951-3.972 4.206-5.607-.159-2.744-.043-4.225 1.401-6.542" stroke="#E3E3E3" stroke-linecap="round" stroke-linejoin="round"/><path d="M107.477 57.944c3.917-3.044 6.275-4.152 10.747-5.14 1.667-3.71 2.824-5.657 6.075-8.411-.159-3.34-.001-5.131 1.402-7.944" stroke="#E3E3E3" stroke-linecap="round" stroke-linejoin="round"/><circle cx="110.748" cy="43.458" r=".467" fill="#4D4D4D"/><circle cx="121.028" cy="42.523" r=".467" fill="#2B2B2B"/><path fill-rule="evenodd" clip-rule="evenodd" d="M105.607 19.626h107.477c8.259 0 14.953 6.695 14.953 14.953v272.897c0 8.259-6.694 14.954-14.953 14.954H105.607c-8.258 0-14.953-6.695-14.953-14.954V34.579c0-8.258 6.695-14.953 14.953-14.953zm5.608 16.822a3.738 3.738 0 00-3.738 3.739v261.682a3.737 3.737 0 003.738 3.738h96.262a3.738 3.738 0 003.738-3.738V40.187a3.738 3.738 0 00-3.738-3.739h-96.262z" fill="#C5CFD6"/><path fill-rule="evenodd" clip-rule="evenodd" d="M105.607 120.561h107.477c8.258 0 14.953 2.252 14.953 5.03v91.808c0 2.778-6.695 5.031-14.953 5.031H105.607c-8.258 0-14.953-2.253-14.953-5.031v-91.808c0-2.778 6.695-5.03 14.953-5.03zm5.608 5.659c-2.065 0-3.739.563-3.739 1.258v88.035c0 .694 1.674 1.257 3.739 1.257h96.261c2.065 0 3.739-.563 3.739-1.257v-88.035c0-.695-1.674-1.258-3.739-1.258h-96.261z" fill="#C5CFD6"/><path fill="#C4C4C4" d="M197.332 90.016l13.295 4.446-8.595 25.704-13.295-4.446z"/><rect x="196.149" y="90.606" width="15.888" height="25.234" rx="1" transform="rotate(18.489 196.149 90.606)" fill="#F88"/><path d="M191.704 103.901l18.624-5.598-2.371 7.091-18.624 5.597 2.371-7.09z" fill="#EBEBEB"/><path fill-rule="evenodd" clip-rule="evenodd" d="M378.068 114.019l-32.824 107.31-15.901 91.261h-12.467l16.802-198.571h44.39z" fill="#997659"/><path fill-rule="evenodd" clip-rule="evenodd" d="M378.068 114.019l-32.824 107.31-12.098 79.792-15.701-1.308 16.233-185.794h44.39z" fill="#4D564F"/><path fill-rule="evenodd" clip-rule="evenodd" d="M378.068 114.019l-32.824 107.31-12.098 79.792-15.701-1.308 16.233-185.794h44.39z" fill="#000" fill-opacity=".12"/><path fill-rule="evenodd" clip-rule="evenodd" d="M389.811 114.019c-2.229 58.919.395 89.311.894 94.664.499 5.353 7.332 40.062 23.507 105.704l-13.285-4.562c-25.564-60.204-34.276-91.492-37.208-99.398-2.932-7.905-10.719-40.041-23.362-96.408h49.454z" fill="#B28B67"/><path fill-rule="evenodd" clip-rule="evenodd" d="M389.844 114.019c-2.229 58.919.374 89.288.873 94.641.498 5.353 3.886 19.405 20.062 85.047l-15.701 3.925c-25.565-60.203-28.807-79.299-31.739-87.205-2.932-7.905-10.72-40.041-23.362-96.408h49.867z" fill="#4D564F"/><path fill-rule="evenodd" clip-rule="evenodd" d="M414.113 309.759c.975 2.605 1.463 4.554 1.463 5.847 0 1.573-.262 3.868-.786 6.886h-49.198c-1.278-4.227-.54-6.508 2.214-6.845 2.755-.337 5.043-.642 6.865-.913l22.867-10.194a.873.873 0 011.152.441l.009.023 1.47 3.565c2.55 1.19 4.622 1.785 6.216 1.785 1.296 0 3.085-.523 5.367-1.569a1.744 1.744 0 012.361.974zM332.119 309.759c.976 2.605 1.464 4.554 1.464 5.847 0 1.573-.263 3.868-.787 6.886h-49.197c-1.279-4.227-.541-6.508 2.214-6.845 2.754-.337 5.042-.642 6.864-.913l22.867-10.194a.872.872 0 011.152.441l.009.023 1.47 3.565c2.55 1.19 4.622 1.785 6.217 1.785 1.295 0 3.084-.523 5.366-1.569a1.744 1.744 0 012.361.974z" fill="#E4E4E4"/><g clip-path="url(#clip0)" fill-rule="evenodd" clip-rule="evenodd"><path d="M361.887 45.005c3.166-3.717 5.309-8.272 4.951-13.376-1.031-14.707-21.503-11.472-25.485-4.049-3.982 7.422-3.509 26.25 1.637 27.577 2.053.529 6.425-.767 10.875-3.45l-2.793 19.761h16.493l-5.678-26.464z" fill="#B28B67"/><path d="M374.029 26.733c.532-.528.823-1.281 1.074-1.997.261-.743.515-1.494.688-2.267.347-1.546.35-3.324-.753-4.524-.884-.962-2.211-1.394-3.436-1.488a6.308 6.308 0 00-2.435.31c-.776.254-1.445.762-2.197 1.078-.029-1.666-.315-3.408-1.16-4.83-.813-1.37-2.109-2.137-3.586-2.34-1.515-.209-3.011.146-4.368.88-.34.183-.676.376-.998.594-.27.182-.55.402-.867.476-.352.083-.527-.12-.756-.378a5.783 5.783 0 00-.892-.803c-1.417-1.042-3.276-1.47-4.917-.846-.757.288-1.492.776-2.005 1.45-.458.6-.784 1.551-1.415 1.97-.268.177-.457-.058-.701-.232-.366-.261-.716-.55-1.087-.803a4.966 4.966 0 00-1.688-.764c-.884-.204-2.106-.156-2.358 1.002-.095.434-.023.9.008 1.338.042.601.086 1.203.138 1.804.04.456.09.896.176 1.344.046.24.19.684.087.923-.128.3-.718.13-.97.14-.499.02-.999.108-1.46.32-.357.166-.733.409-.883.818-.093.251-.069.51-.025.768.053.31-.007.475-.046.789-.67-.33-2.989-1.062-3.281.137-.097.4.124.85.293 1.188.296.59.684 1.13 1.081 1.646.828 1.074 1.816 2 2.879 2.793-1.246.554-1.571 2.187-.492 3.16.476.43 1.116.526 1.717.498.22-.01.537-.094.71-.056.093.02.193.1.322.108.847.058 1.804-.146 2.633-.334a8.678 8.678 0 004.016-2.1c.293-.274.535-.43.929-.427.346.004.684.098 1.03.107.913.023 1.736-.423 2.584-.72.052 1.145.378 2.407.846 3.437.383.84 1.18.963 1.965 1.036 2.507.236 5.023-.027 7.533-.023-2.43.549-4.941.775-7.35 1.422-1.088.292-.257 1.026.209 1.534.766.838 1.336 1.876 1.731 2.97 1.189-1.55 3.29-2.572 5.152-2.096 2.057.526 3.505 3.308 2.19 5.308-.764 1.16-2.143 1.609-3.29 2.108.895.93 1.112 2.305 1.65 3.462.266.572.639 1.217 1.233 1.416.22.074.478.08.651.26.215.221.266.47.541.66 1.095.761 2.805.702 3.775-.29.878-.9.65-2.32-.083-3.232 1.166-.486 3.292-1.111 2.828-2.93 2.528-.167 8.667-4.267 5.273-7.263 1.863-1.053 3.573-3.625 2.377-5.892-.921-1.746-3.063-2.526-4.82-2.619z" fill="#581101"/></g><g clip-path="url(#clip1)" fill-rule="evenodd" clip-rule="evenodd"><path d="M302.658 122.151l-29.102-12.78c-5.098-5.08-10.021-8.941-14.769-11.584-1.419-.452-3.845-.588-1.257 3.192 2.588 3.779 5.14 7.871 4.106 9.196-1.034 1.324-4.03-.138-5.213 2.017-.789 1.436 4.26 3.153 15.147 5.153l21.795 16.711 9.293-11.905zm117.655 3.52l-16.458 3.266c16.551 30.845 25.428 47.193 26.629 49.044 2.702 4.164.181 11.796-.751 15.815 5.843 1.36 3.539-7.434 10.933-5.598 6.749 1.676 12.471 5.977 18.764.176.774-.713 1.34-2.942-1.298-4.085-6.572-2.849-16.281-8.182-17.856-10.253-2.147-2.824-8.801-18.945-19.963-48.365z" fill="#B28B67"/><path d="M359.123 64.095l-6.945-1.191c-15.126 14.674-21.299 49.927-31.38 54.593-9.531 4.412-23.042.143-39.102-5.622l-4.919 10.989c14.592 15.787 45.679 29.124 58.28 21.51 20.146-12.173 24.797-55.653 24.066-80.279z" fill="#8AA0A1"/><path d="M359.123 64.095l-6.945-1.191c-15.126 14.674-21.299 49.927-31.38 54.593-9.531 4.412-23.042.143-39.102-5.622l-4.919 10.989c14.592 15.787 45.679 29.124 58.28 21.51 20.146-12.173 24.797-55.653 24.066-80.279z" fill="#000" fill-opacity=".12"/><path d="M389.398 151.373h-61.45c-2.808 0-2.279-4.055-1.873-6.101 4.685-23.613 22.972-49.067 22.972-82.68l17.725-2.779c14.661 23.58 19.731 52.61 22.626 91.56z" fill="#DDE3E9"/><path d="M395.527 127.465c12.528 22.597 23.057 38.865 31.59 48.805l12.88-2.523c-8.297-51.456-32.324-89.434-72.081-113.934h-7.019c-15.912 54.243-20.299 90.385-13.16 108.426h55.315c-.875-13.201-3.681-27.162-7.525-40.774z" fill="#8AA0A1"/></g><path d="M114.324 17.008h-2.363L111.383 20h-1.819l.578-2.992h-1.36v-1.615h1.666l.493-2.567h-2.159v-1.598h2.465l.578-3.009h1.819l-.578 3.009h2.363l.578-3.009h1.819l-.578 3.009h1.377v1.598h-1.683l-.493 2.567h2.176v1.615h-2.482L115.565 20h-1.819l.578-2.992zm-2.057-1.615h2.363l.493-2.567h-2.363l-.493 2.567zm11.405 3.009c.771 0 1.332-.13 1.683-.391.352-.26.527-.629.527-1.105 0-.283-.062-.527-.187-.731a1.642 1.642 0 00-.51-.544 3.506 3.506 0 00-.799-.459c-.317-.147-.68-.289-1.088-.425a18.726 18.726 0 01-1.19-.476 4.408 4.408 0 01-1.003-.663 3.22 3.22 0 01-.697-.935c-.17-.363-.255-.799-.255-1.309 0-1.065.369-1.898 1.105-2.499.737-.612 1.74-.918 3.009-.918.737 0 1.389.085 1.955.255.578.159 1.032.334 1.36.527l-.663 1.734a5.045 5.045 0 00-1.275-.493 5.79 5.79 0 00-1.411-.17c-.578 0-1.031.119-1.36.357-.317.238-.476.572-.476 1.003 0 .26.051.487.153.68.114.181.267.346.459.493.204.147.437.283.697.408.272.125.567.244.884.357.556.204 1.049.414 1.479.629.442.204.811.453 1.105.748.306.283.539.623.697 1.02.159.385.238.856.238 1.411 0 1.065-.379 1.893-1.139 2.482-.748.578-1.847.867-3.298.867-.487 0-.935-.034-1.343-.102a8.116 8.116 0 01-1.071-.221 9.29 9.29 0 01-.799-.272 6.109 6.109 0 01-.544-.272l.629-1.751c.306.17.72.34 1.241.51.522.17 1.151.255 1.887.255zm14.536-10.183v1.853h-3.621V20h-2.159v-9.928h-3.621V8.219h9.401zm2.97 5.882c0 .646.079 1.235.238 1.768.158.521.385.969.68 1.343.306.363.674.646 1.105.85.43.204.918.306 1.462.306.532 0 1.014-.102 1.445-.306.43-.204.793-.487 1.088-.85.306-.374.538-.822.697-1.343a6.201 6.201 0 00.238-1.768c0-.646-.08-1.23-.238-1.751-.159-.533-.391-.98-.697-1.343a3.013 3.013 0 00-1.088-.867 3.337 3.337 0 00-1.445-.306c-.544 0-1.032.102-1.462.306a3.157 3.157 0 00-1.105.867 4.032 4.032 0 00-.68 1.343 5.992 5.992 0 00-.238 1.751zm9.197 0c0 1.009-.153 1.898-.459 2.669-.295.77-.703 1.417-1.224 1.938-.51.51-1.111.895-1.802 1.156a6.214 6.214 0 01-2.21.391c-.782 0-1.525-.13-2.227-.391a5.182 5.182 0 01-1.819-1.156c-.51-.521-.918-1.167-1.224-1.938-.306-.77-.459-1.66-.459-2.669 0-1.009.153-1.893.459-2.652.306-.77.719-1.417 1.241-1.938a5.232 5.232 0 011.836-1.173 6.161 6.161 0 012.193-.391c.77 0 1.501.13 2.193.391.691.26 1.292.652 1.802 1.173.521.521.935 1.167 1.241 1.938.306.76.459 1.643.459 2.652zm7.585 6.154c-.884 0-1.677-.136-2.38-.408a4.764 4.764 0 01-1.785-1.19c-.487-.533-.861-1.179-1.122-1.938-.26-.76-.391-1.632-.391-2.618s.148-1.859.442-2.618c.306-.76.72-1.4 1.241-1.921a5.14 5.14 0 011.836-1.207 6.212 6.212 0 012.261-.408c.488 0 .93.04 1.326.119a8.33 8.33 0 011.037.238c.295.09.539.187.731.289.193.102.329.176.408.221l-.629 1.751c-.272-.17-.663-.329-1.173-.476a5.351 5.351 0 00-1.632-.238c-.51 0-.986.09-1.428.272-.442.17-.827.43-1.156.782-.317.351-.566.793-.748 1.326-.181.533-.272 1.15-.272 1.853 0 .623.068 1.196.204 1.717.148.521.369.975.663 1.36.295.374.669.669 1.122.884.454.204.998.306 1.632.306.76 0 1.377-.074 1.853-.221a7.856 7.856 0 001.105-.442l.578 1.751c-.136.09-.323.181-.561.272-.226.09-.498.181-.816.272-.317.08-.674.142-1.071.187a9.009 9.009 0 01-1.275.085zM170.603 20c-.294-.453-.634-.93-1.02-1.428-.385-.499-.793-.98-1.224-1.445a20.384 20.384 0 00-1.309-1.326c-.453-.42-.901-.782-1.343-1.088V20h-2.142V8.219h2.142v4.862c.374-.374.765-.77 1.173-1.19a118.835 118.835 0 002.363-2.567l.986-1.105h2.567c-.374.43-.77.878-1.19 1.343-.419.465-.85.935-1.292 1.411-.442.465-.889.93-1.343 1.394-.442.465-.878.907-1.309 1.326.476.363.958.788 1.445 1.275.499.476.986.992 1.462 1.547.476.544.93 1.116 1.36 1.717.442.59.845 1.179 1.207 1.768h-2.533zm10.802-8.721c0 .408-.085.81-.255 1.207-.17.385-.391.765-.663 1.139a9.64 9.64 0 01-.901 1.071c-.34.34-.68.674-1.02 1.003a18.12 18.12 0 00-1.258 1.326c-.204.238-.38.47-.527.697-.148.215-.227.397-.238.544h5.236V20h-7.497a2.52 2.52 0 01-.017-.323v-.306c0-.544.085-1.043.255-1.496.181-.465.413-.895.697-1.292.283-.397.6-.77.952-1.122.351-.351.702-.697 1.054-1.037.272-.26.532-.516.782-.765.249-.25.464-.493.646-.731a3.87 3.87 0 00.459-.748c.113-.26.17-.527.17-.799 0-.59-.17-1.009-.51-1.258-.34-.25-.754-.374-1.241-.374-.318 0-.612.045-.884.136-.272.09-.516.198-.731.323a4.155 4.155 0 00-.544.391 4.105 4.105 0 00-.357.306l-1.02-1.445a5.571 5.571 0 011.666-1.088 5.105 5.105 0 012.074-.425c1.258 0 2.181.3 2.771.901.6.59.901 1.4.901 2.431zm10.41 2.822c0 1.983-.363 3.508-1.088 4.573-.726 1.054-1.729 1.581-3.009 1.581-1.281 0-2.284-.527-3.009-1.581-.726-1.065-1.088-2.59-1.088-4.573 0-.986.09-1.859.272-2.618.192-.77.464-1.417.816-1.938a3.772 3.772 0 011.292-1.19 3.59 3.59 0 011.717-.408c1.28 0 2.283.533 3.009 1.598.725 1.054 1.088 2.573 1.088 4.556zm-2.125 0c0-.612-.034-1.184-.102-1.717a5.465 5.465 0 00-.34-1.377c-.148-.397-.346-.708-.595-.935-.25-.227-.561-.34-.935-.34a1.4 1.4 0 00-.952.34c-.25.227-.454.538-.612.935a5.973 5.973 0 00-.323 1.377 16.182 16.182 0 00-.085 1.717c0 .612.028 1.184.085 1.717.068.533.175.997.323 1.394.158.385.362.691.612.918.26.227.578.34.952.34s.685-.113.935-.34c.249-.227.447-.533.595-.918.158-.397.272-.861.34-1.394.068-.533.102-1.105.102-1.717zm4.392-3.434c.657-.26 1.314-.595 1.972-1.003a8.158 8.158 0 001.768-1.445h1.445V20h-2.057v-9.027c-.306.238-.692.47-1.156.697-.465.227-.913.414-1.343.561l-.629-1.564zm12.926 3.604c-.329 0-.646.028-.952.085a3.582 3.582 0 00-.833.255c-.011.09-.023.193-.034.306v.306c0 .453.028.884.085 1.292.068.397.176.748.323 1.054.159.295.368.533.629.714.272.17.606.255 1.003.255.329 0 .606-.068.833-.204.238-.136.431-.312.578-.527.147-.215.255-.448.323-.697.068-.26.102-.51.102-.748 0-.68-.164-1.196-.493-1.547-.329-.363-.85-.544-1.564-.544zm.255-1.632c.703 0 1.298.102 1.785.306.499.193.901.459 1.207.799.306.34.527.737.663 1.19.147.442.221.907.221 1.394 0 .442-.079.895-.238 1.36a3.64 3.64 0 01-.714 1.275c-.317.374-.72.686-1.207.935-.487.238-1.065.357-1.734.357-1.349 0-2.38-.442-3.094-1.326-.703-.895-1.054-2.125-1.054-3.689 0-1.133.164-2.136.493-3.009.34-.884.816-1.626 1.428-2.227a6.084 6.084 0 012.244-1.36c.884-.317 1.876-.482 2.975-.493l.119 1.7a8.194 8.194 0 00-1.717.204 4.67 4.67 0 00-1.428.544c-.419.25-.782.572-1.088.969-.295.397-.521.884-.68 1.462a4.226 4.226 0 011.819-.391z" fill="#2E1F6B"/><defs><clipPath id="clip0"><path fill="#fff" transform="matrix(-1 0 0 1 404.673 0)" d="M0 0h93.458v71.468H0z"/></clipPath><clipPath id="clip1"><path fill="#fff" transform="matrix(-1 0 0 1 461.682 59.813)" d="M0 0h205.607v150.19H0z"/></clipPath></defs></svg>