<svg width="500" height="500" viewBox="0 0 500 500" fill="none" xmlns="http://www.w3.org/2000/svg">
<circle cx="250" cy="250" r="250" fill="#127800" fill-opacity="0.15"/>
<path fill-rule="evenodd" clip-rule="evenodd" d="M346.738 89.4901C351.346 84.0814 354.464 77.4529 353.943 70.0255C352.442 48.625 322.651 53.3328 316.857 64.1339C311.062 74.9351 311.75 102.333 319.24 104.263C322.226 105.033 328.589 103.147 335.065 99.2443L331 128H355L346.738 89.4901Z" fill="#B28B67"/>
<path fill-rule="evenodd" clip-rule="evenodd" d="M306.224 49.1604C306.721 47.4135 308.058 45.9178 309.86 45.474C310.296 45.3664 310.748 45.3229 311.197 45.341C311.358 45.3475 311.404 45.394 311.479 45.2812C311.535 45.1976 311.536 44.9934 311.559 44.8951C311.631 44.5896 311.72 44.2879 311.831 43.994C312.208 42.9917 312.841 42.1046 313.605 41.3573C315.033 39.9593 316.963 38.9944 318.968 38.8199C320.066 38.7244 321.155 38.9027 322.193 39.2597C322.73 39.4445 323.251 39.6746 323.758 39.929C323.911 40.0056 324.406 40.3806 324.559 40.3563C324.729 40.3295 325.069 39.9088 325.207 39.8032C326.908 38.4979 329.009 37.9847 331.128 38.0003C333.52 38.018 335.823 38.1375 337.818 39.5957C338.241 39.9044 338.643 40.2425 339.026 40.5983C339.228 40.7857 339.423 40.9801 339.609 41.1825C339.722 41.3047 339.831 41.4296 339.936 41.5579C340.115 41.7756 340.086 41.8471 340.337 41.6952C341.297 41.1119 342.409 40.8391 343.53 40.9768C344.195 41.0586 344.843 41.2584 345.458 41.5213C345.667 41.6109 346.151 41.9679 346.374 41.9714C346.596 41.9748 347.073 41.6438 347.301 41.5597C348.533 41.1052 349.86 40.9932 351.154 41.2032C352.489 41.4199 353.8 41.9525 354.931 42.6885C355.475 43.0425 355.95 43.4348 356.331 43.9612C356.496 44.1885 356.644 44.4289 356.831 44.6396C356.94 44.763 357.156 44.8897 357.215 45.0458C357.18 44.9523 358.675 44.376 358.816 44.3391C359.568 44.1428 360.333 44.1826 361.069 44.4248C362.453 44.8803 363.643 45.9016 364.621 46.9487C365.123 47.4866 365.563 48.0811 365.936 48.7145C366.115 49.0179 366.279 49.33 366.428 49.6487C366.501 49.8031 366.549 49.9962 366.644 50.1353C366.768 50.3146 366.85 50.318 367.073 50.3961C368.206 50.7929 369.238 51.4645 370.025 52.3721C370.82 53.2902 371.336 54.4209 371.552 55.6116C371.565 55.6817 371.573 55.9724 371.614 56.0103C371.67 56.0626 371.898 56.0395 371.984 56.0496C372.282 56.0846 372.579 56.1367 372.871 56.2059C373.41 56.3335 373.934 56.5211 374.43 56.7666C376.364 57.7235 377.747 59.5175 378.424 61.5361C379.135 63.6546 379.122 66.0816 378.273 68.1605C378.136 68.4963 377.973 68.8222 377.781 69.1305C377.664 69.3198 377.626 69.3203 377.702 69.5189C377.787 69.7398 377.943 69.9545 378.044 70.1703C378.374 70.8748 378.604 71.6219 378.75 72.3851C378.989 73.6368 379.108 74.9523 378.872 76.2136C378.762 76.7993 378.572 77.3718 378.281 77.8934C378.132 78.1594 377.958 78.4116 377.762 78.645C377.661 78.7661 377.553 78.8818 377.439 78.9927C377.375 79.056 377.29 79.1114 377.235 79.1822C377.101 79.3546 377.073 79.2128 377.142 79.4661C377.239 79.8201 377.458 80.1694 377.592 80.5139C377.731 80.8689 377.856 81.2288 377.97 81.5923C378.202 82.3282 378.398 83.0774 378.521 83.8395C378.756 85.3028 378.715 86.8619 378.023 88.2048C377.727 88.7793 377.302 89.2832 376.787 89.6752C376.535 89.8669 376.262 90.0322 375.976 90.168C375.829 90.2378 375.641 90.2678 375.574 90.4101C375.501 90.5631 375.609 90.867 375.633 91.038C375.846 92.5263 375.953 94.0889 375.51 95.5473C375.103 96.8907 374.206 98.0767 373.041 98.8619C370.781 100.385 367.735 100.299 365.361 99.0798C364.742 98.7619 364.163 98.3672 363.647 97.9017C362.331 99.6722 359.625 99.6162 357.703 99.1117C355.308 98.4832 353.386 96.818 352.279 94.63C350.765 96.473 347.588 95.875 346.538 93.8757C346.281 93.3864 346.129 92.8471 346.054 92.3014C346.014 92.0144 346.039 91.7249 346.01 91.4402C345.972 91.0774 345.73 90.7249 345.59 90.374C345.319 89.691 345.151 88.9855 345.143 88.2488C345.14 87.8641 345.188 87.4893 345.225 87.1077C345.258 86.7642 345.163 86.4442 345.108 86.1052C345.723 86.2064 346.471 86.0407 347.05 85.8626C347.617 85.6879 348.149 85.2276 348.55 84.8072C349.481 83.8311 350.049 82.5515 350.438 81.2779C351.292 78.4826 350.942 75.129 348.13 73.5949C346.82 72.8802 342.897 72.8826 341.337 73.2358C339.696 73.6071 337.837 77.2264 337.745 77.5666C337.689 77.7771 337.717 78.0377 337.524 78.178C337.099 78.4864 336.398 77.9511 336.084 77.6869C335.543 77.231 335.157 76.6243 334.823 76.0094C334.095 74.6696 333.508 73.2329 333.093 71.7663C332.773 70.6356 332.569 69.4695 332.151 68.3676C331.735 67.2712 331.08 66.2912 330.06 65.67C328.952 64.9943 327.681 64.6385 326.464 64.2138C325.257 63.793 324.071 63.2787 323.136 62.3857C322.93 62.1894 322.731 61.9807 322.565 61.7495C322.435 61.567 322.305 61.2177 322.106 61.102C321.797 60.9219 321.345 61.3901 321.077 61.56C319.757 62.3987 318.655 63.5683 317.767 64.846C316.883 66.1167 316.158 67.3395 315.569 68.7584C315.132 69.8108 314.859 71.1586 314.091 72.0211C313.748 72.4062 311.197 72.6392 310.371 72.303C309.545 71.9667 308.619 71.0937 308.342 70.5466C308.058 69.9866 307.99 69.3715 308.111 68.7584C308.183 68.3978 308.328 68.0609 308.408 67.7066C308.475 67.4091 308.536 67.1278 308.681 66.8552C308.955 66.3386 309.424 65.9673 309.99 65.8121C309.401 65.2694 308.914 64.6203 308.576 63.8946C308.226 63.1407 307.928 62.2238 307.844 61.3964C307.776 60.7243 307.881 60.028 308.249 59.4504C308.635 58.8445 309.319 58.4492 309.911 58.0713C309.007 57.3642 308.233 56.5044 307.598 55.5524C306.361 53.7011 305.596 51.3675 306.224 49.1604Z" fill="#332826"/>
<path fill-rule="evenodd" clip-rule="evenodd" d="M422 253H307C298.163 253 291 260.163 291 269V361C291 369.837 298.163 377 307 377H422C430.837 377 438 369.837 438 361V269C438 260.163 430.837 253 422 253ZM406 281C408.209 281 410 282.791 410 285V345C410 347.209 408.209 349 406 349H323C320.791 349 319 347.209 319 345V285C319 282.791 320.791 281 323 281H406Z" fill="#3C3C3C"/>
<path fill-rule="evenodd" clip-rule="evenodd" d="M219.491 373.66C232.303 345.302 241.57 320.608 245.289 307.58C251.657 285.273 256.502 265.643 257.727 258.313C260.647 240.832 235.265 239.814 231.91 248.502C226.832 261.651 217.967 304.853 207.315 370.107L219.491 373.66ZM368.112 284.664C356.356 280.017 315.188 265.475 295.333 261.361C289.627 260.179 284.097 259.081 278.898 258.088C263.444 255.138 255.437 283.017 270.321 285.16C307.388 290.494 359.937 296.003 364.434 296.622C370.737 297.488 375.5 287.584 368.112 284.664Z" fill="#B28B67"/>
<path fill-rule="evenodd" clip-rule="evenodd" d="M269.413 250.416L333 218.047V211H325.438C263.92 226.676 232.485 236.722 231.131 241.138C231.117 241.185 231.103 241.233 231.091 241.281C231.06 241.321 231.03 241.362 231 241.403C218.808 258.17 211.507 340.027 209.111 346.156L232.472 349.641C241.409 316.503 270 293.418 269.241 253.729C269.446 252.565 269.497 251.461 269.413 250.416Z" fill="#9194D9"/>
<path fill-rule="evenodd" clip-rule="evenodd" d="M364.092 281.694C367.267 281.997 369.521 282.474 370.853 283.124C372.474 283.915 374.707 285.338 377.554 287.395C376.636 289.275 368.395 306.173 352.829 338.088C347.831 337.282 345.851 335.374 346.888 332.367C347.925 329.359 348.761 326.849 349.397 324.835L350.385 296.15C350.404 295.598 350.867 295.166 351.419 295.185C351.428 295.185 351.438 295.185 351.447 295.186L355.86 295.463C358.367 293.434 360.021 291.598 360.823 289.955C361.474 288.62 361.833 286.514 361.902 283.637L361.902 283.637C361.929 282.532 362.846 281.659 363.95 281.685C363.997 281.686 364.045 281.689 364.092 281.694Z" fill="#FBFAFA"/>
<path fill-rule="evenodd" clip-rule="evenodd" d="M327.717 269.64C333.535 268.476 338.893 267.436 343.477 266.632C373.091 261.438 381.726 245.586 376.62 211L322.058 211C313.145 213.56 266.826 232.985 242.793 243.316C226.887 250.154 231.901 274.804 240.909 281.219C240.958 281.613 241.12 281.88 241.409 282C289.863 302.083 328.195 291.545 341 294.912L346.923 276.228L327.717 269.64Z" fill="#A8AAE1"/>
<path fill-rule="evenodd" clip-rule="evenodd" d="M225.322 368.402C226.441 371.388 227 373.623 227 375.106C227 376.909 226.7 379.54 226.099 383C224.007 383 205.206 383 169.697 383C168.231 378.155 169.077 375.539 172.235 375.152C175.393 374.766 178.016 374.417 180.105 374.106L206.32 362.419C206.824 362.194 207.416 362.421 207.641 362.925C207.644 362.934 207.648 362.942 207.652 362.951L209.337 367.039C212.26 368.403 214.636 369.085 216.463 369.085C217.948 369.085 219.999 368.485 222.616 367.286L222.616 367.285C223.62 366.825 224.807 367.266 225.267 368.27C225.287 368.313 225.305 368.357 225.322 368.402Z" fill="#FBFAFA"/>
<path fill-rule="evenodd" clip-rule="evenodd" d="M274.956 195.123L246.628 222.758C238.385 226.273 231.632 230.156 226.367 234.404C225.183 235.832 223.895 238.568 229.465 237.344C235.035 236.12 240.949 235.082 241.996 236.894C243.043 238.705 239.958 241.481 241.893 243.852C243.183 245.432 247.521 240.405 254.907 228.77L284.364 211.403L274.956 195.123ZM400.692 199.02L379.795 199.102C392.698 240.756 399.664 262.857 400.692 265.406C403.006 271.14 398.109 279.874 396.015 284.567C402.835 287.619 402.109 276.317 410.712 280.32C418.565 283.973 424.538 290.593 433.611 284.994C434.726 284.306 435.949 281.715 432.995 279.69C425.638 274.645 415.035 265.815 413.602 262.908C411.648 258.945 407.345 237.649 400.692 199.02Z" fill="#B28B67"/>
<path fill-rule="evenodd" clip-rule="evenodd" d="M341.305 111.332L332.658 109.849C317.77 147.039 291.778 180.831 254.682 211.225L282.714 245.281C319.806 202.005 342.67 157.355 341.305 111.332Z" fill="#191847"/>
<path fill-rule="evenodd" clip-rule="evenodd" d="M379 220H302C319.839 176.625 328.759 139.779 328.759 109.461L351.986 106C370.24 135.358 375.395 171.505 379 220Z" fill="#DDE3E9"/>
<path fill-rule="evenodd" clip-rule="evenodd" d="M352.478 106.016C352.475 106.011 352.471 106.005 352.468 106L350.952 106C349.138 106.062 346.375 106.175 342.662 106.338L337.05 122.377C336.456 141.932 332.989 181.342 326.649 240.606H377.124C376.992 244.699 376.773 248.83 376.469 253H414C408.386 189.664 387.885 140.664 352.496 106L352.478 106.016V106.016Z" fill="#2F3676"/>
<path fill-rule="evenodd" clip-rule="evenodd" d="M373.79 188.233C372.353 213.748 368.757 231.337 363 241H377.111C377.729 222.643 376.622 205.054 373.79 188.233V188.233Z" fill="black" fill-opacity="0.1"/>
<path fill-rule="evenodd" clip-rule="evenodd" d="M365.889 210L341 198.429V210H365.889Z" fill="white" fill-opacity="0.2"/>
</svg>
