<?xml version="1.0" encoding="UTF-8" standalone="no"?>
<svg
   xmlns:dc="http://purl.org/dc/elements/1.1/"
   xmlns:cc="http://creativecommons.org/ns#"
   xmlns:rdf="http://www.w3.org/1999/02/22-rdf-syntax-ns#"
   xmlns:svg="http://www.w3.org/2000/svg"
   xmlns="http://www.w3.org/2000/svg"
   xmlns:sodipodi="http://sodipodi.sourceforge.net/DTD/sodipodi-0.dtd"
   xmlns:inkscape="http://www.inkscape.org/namespaces/inkscape"
   width="41.357979"
   height="41.357983"
   viewBox="0 0 41.357979 41.357982"
   version="1.1"
   id="svg16"
   sodipodi:docname="innou-icon-green.svg"
   style="fill:none"
   inkscape:version="0.92.4 5da689c313, 2019-01-14">
  <metadata
     id="metadata22">
    <rdf:RDF>
      <cc:Work
         rdf:about="">
        <dc:format>image/svg+xml</dc:format>
        <dc:type
           rdf:resource="http://purl.org/dc/dcmitype/StillImage" />
        <dc:title></dc:title>
      </cc:Work>
    </rdf:RDF>
  </metadata>
  <defs
     id="defs20" />
  <sodipodi:namedview
     pagecolor="#ffffff"
     bordercolor="#666666"
     borderopacity="1"
     objecttolerance="10"
     gridtolerance="10"
     guidetolerance="10"
     inkscape:pageopacity="0"
     inkscape:pageshadow="2"
     inkscape:window-width="764"
     inkscape:window-height="480"
     id="namedview18"
     showgrid="false"
     fit-margin-top="9.05967"
     fit-margin-left="0"
     fit-margin-right="0"
     fit-margin-bottom="9.05967"
     inkscape:zoom="3.9333333"
     inkscape:cx="63.528769"
     inkscape:cy="20.931071"
     inkscape:window-x="0"
     inkscape:window-y="28"
     inkscape:window-maximized="0"
     inkscape:current-layer="svg16" />
  <path
     d="m 17.646848,18.499111 c -0.5622,0 -1.0179,0.4557 -1.0179,1.0178 v 8.3314 c 0,0.5621 0.4557,1.0179 1.0179,1.0179 0.5621,0 1.0179,-0.4558 1.0179,-1.0179 v -8.3314 c 0,-0.5621 -0.4558,-1.0178 -1.0179,-1.0178 z"
     id="path2"
     inkscape:connector-curvature="0"
     style="fill:#387800" />
  <path
     d="m 7.1624483,19.778511 c -0.5622,0 -1.0179,0.4557 -1.0179,1.0179 v 6.8436 c 0,0.5621 0.4557,1.0179 1.0179,1.0179 0.5622,0 1.0179,-0.4558 1.0179,-1.0179 v -6.8436 c 0,-0.5622 -0.4557,-1.0179 -1.0179,-1.0179 z"
     id="path4"
     inkscape:connector-curvature="0"
     style="fill:#387800" />
  <path
     d="m 12.404648,21.623311 c -0.5623,0 -1.0179,0.4558 -1.0179,1.0179 v 4.1756 c 0,0.5622 0.4556,1.0179 1.0179,1.0179 0.5622,0 1.0179,-0.4557 1.0179,-1.0179 v -4.1756 c 0,-0.5621 -0.4557,-1.0179 -1.0179,-1.0179 z"
     id="path6"
     inkscape:connector-curvature="0"
     style="fill:#387800" />
  <path
     d="m 22.922148,19.094811 c -0.5622,0 -1.0178,0.4557 -1.0178,1.0178 v 5.3314 c 0,0.5622 0.4556,1.0179 1.0178,1.0179 0.5621,0 1.0178,-0.4557 1.0178,-1.0179 v -5.3314 c 0,-0.5621 -0.4557,-1.0178 -1.0178,-1.0178 z"
     id="path8"
     inkscape:connector-curvature="0"
     style="fill:#387800" />
  <path
     d="m 33.473948,15.576411 c -0.5622,0 -1.0179,0.4558 -1.0179,1.0179 v 3.647 c 0,0.5622 0.4557,1.0179 1.0179,1.0179 0.562,0 1.0178,-0.4557 1.0178,-1.0179 v -3.647 c 0,-0.5621 -0.4558,-1.0179 -1.0178,-1.0179 z"
     id="path10"
     inkscape:connector-curvature="0"
     style="fill:#387800" />
  <path
     d="m 38.839748,19.332411 -6.0409,5.3495 c -0.0075,0.0067 -0.0138,0.0139 -0.0211,0.0207 -0.0129,0.0121 -0.0256,0.0244 -0.0379,0.0372 -0.0118,0.0122 -0.023,0.0247 -0.034,0.0374 -0.0104,0.012 -0.0206,0.0241 -0.0305,0.0366 -0.0112,0.0141 -0.0218,0.0284 -0.0322,0.043 -0.0086,0.0122 -0.017,0.0246 -0.0251,0.0372 -0.0098,0.0152 -0.0191,0.0304 -0.028,0.0461 -0.0075,0.0133 -0.0149,0.0268 -0.0219,0.0406 -0.0079,0.0152 -0.0153,0.0306 -0.0223,0.0461 -0.0067,0.015 -0.013,0.0301 -0.0191,0.0455 -0.0057,0.015 -0.0113,0.03 -0.0165,0.0453 -0.0055,0.0163 -0.0107,0.0328 -0.0153,0.0494 -0.0042,0.0152 -0.0082,0.0303 -0.0118,0.0457 -0.0039,0.0167 -0.0073,0.0335 -0.0104,0.0505 -0.003,0.0164 -0.0053,0.0328 -0.0075,0.0492 -0.0021,0.016 -0.004,0.032 -0.0052,0.0483 -0.0016,0.0184 -0.0024,0.0368 -0.0028,0.0552 -4e-4,0.0095 -0.0014,0.0187 -0.0014,0.0282 v 4.4245 c 0,0.2176 -0.1765,0.394 -0.394,0.394 H 3.7041483 c -0.1549,0 -0.2804,-0.1255 -0.2804,-0.2804 v -0.8975 c 0,-0.0056 -7e-4,-0.011 -9e-4,-0.0167 -3e-4,-0.0197 -0.0016,-0.0393 -0.0029,-0.059 -0.0011,-0.0142 -0.0019,-0.0283 -0.0036,-0.0423 -0.0022,-0.0187 -0.0053,-0.0373 -0.0086,-0.0559 -0.0024,-0.0147 -0.0047,-0.0295 -0.008,-0.0441 -0.0037,-0.0169 -0.0084,-0.0338 -0.0131,-0.0507 -0.0041,-0.0156 -0.0084,-0.0312 -0.0133,-0.0466 -0.0049,-0.0152 -0.0109,-0.0302 -0.0166,-0.0453 -0.0062,-0.0164 -0.0124,-0.0328 -0.0194,-0.0488 -0.0061,-0.0136 -0.0127,-0.0269 -0.0194,-0.0404 -0.0084,-0.0168 -0.0168,-0.0337 -0.0261,-0.0501 -0.0069,-0.0123 -0.0146,-0.0243 -0.0221,-0.0364 -0.0103,-0.0167 -0.0209,-0.0332 -0.0322,-0.0493 -0.0033,-0.0046 -0.0059,-0.0095 -0.0091,-0.0141 l -0.982,-1.3466 c -0.1095,-0.1501 -0.1578,-0.3361 -0.1353,-0.5205 l 1.0278,-8.4146 c 0.023,-0.1888 0.1898,-0.3265 0.3797,-0.3132 l 8.9214997,0.6223 c 0.0038,4e-4 0.0075,6e-4 0.0114,9e-4 l 0.002,10e-5 c 0.0046,4e-4 0.0091,3e-4 0.0136,5e-4 0.019,0.001 0.0379,0.0023 0.0571,0.0023 0.0305,0 0.061,-0.0019 0.0917,-0.0046 0.0096,-9e-4 0.019,-0.0023 0.0285,-0.0034 0.0191,-0.0023 0.0383,-0.005 0.0575,-0.0084 0.0133,-0.0023 0.0263,-0.005 0.0393,-0.0079 0.0151,-0.0032 0.03,-0.007 0.0449,-0.0109 0.0144,-0.0039 0.029,-0.0078 0.0433,-0.0123 0.0041,-0.0013 0.0082,-0.0022 0.0123,-0.0035 l 21.5363,-7.0654 c 0.1659,-0.0545 0.3471,0.0162 0.4324,0.1685 l 4.103,7.329 c 0.0807,0.1444 0.0501,0.3255 -0.0737,0.4351 z m 2.5156,-0.036 c -0.0013,-0.0195 -0.0023,-0.039 -0.0048,-0.0584 -0.0017,-0.0141 -0.0044,-0.0281 -0.0067,-0.0421 -0.0031,-0.0181 -0.0057,-0.0361 -0.0098,-0.0541 -0.0037,-0.0168 -0.0087,-0.0335 -0.0133,-0.0502 -0.0041,-0.0147 -0.0078,-0.0295 -0.0125,-0.0442 -0.0067,-0.0208 -0.015,-0.0413 -0.0232,-0.0617 -0.0042,-0.0104 -0.0077,-0.0208 -0.0122,-0.031 -0.0103,-0.0237 -0.0223,-0.0468 -0.0346,-0.0698 -0.0032,-0.0063 -0.0059,-0.0128 -0.0094,-0.0192 l -0.0037,-0.0066 c -0.0011,-0.0019 -0.0023,-0.0039 -0.0033,-0.0058 l -5.1912,-9.2727999 c -3e-4,-7e-4 -8e-4,-0.0013 -0.0013,-0.0019 -0.0155,-0.0278 -0.0326,-0.0546 -0.0504,-0.0804 -0.0014,-0.0022 -0.0027,-0.0044 -0.0042,-0.0065 -0.0172,-0.0246 -0.0359,-0.0481 -0.0552,-0.071 -0.0027,-0.0031 -0.005,-0.0066 -0.0077,-0.0097 -0.0147,-0.0169 -0.0304,-0.0325 -0.0461,-0.0483 -0.008,-0.0082 -0.0156,-0.017 -0.024,-0.0249 -0.0011,-0.0011 -0.0024,-0.002 -0.0034,-0.003 -0.1126,-0.1054 -0.2463,-0.1816 -0.3898,-0.2269 -0.0098,-0.0031 -0.0193,-0.0068 -0.029,-0.0097 -0.012,-0.0033 -0.0241,-0.0054 -0.036,-0.0084 -0.062,-0.0151 -0.1253,-0.0245 -0.1895,-0.0278 -0.0222,-0.0012 -0.0443,-0.0026 -0.0665,-0.0023 -0.004,10e-5 -0.008,7e-4 -0.0121,7e-4 -0.0294,8e-4 -0.0591,0.0024 -0.0886,0.0059 -0.0014,10e-5 -0.0028,5e-4 -0.0042,6e-4 -0.0323,0.0038 -0.0643,0.0091 -0.0963,0.0161 -0.0029,6e-4 -0.0057,0.0016 -0.0085,0.0022 -0.0301,0.0069 -0.0601,0.0148 -0.0898,0.0245 -0.001,3e-4 -0.0019,5e-4 -0.0028,8e-4 l -22.2871,7.3116999 c -0.0936,0.0307 -0.1922,0.043 -0.2905,0.0361 l -9.8899997,-0.69 c -0.0081,-5e-4 -0.0159,-10e-5 -0.0238,-4e-4 -0.0197,-10e-4 -0.0391,-0.0013 -0.0583,-0.0011 -0.0142,10e-5 -0.028,5e-4 -0.0418,0.0013 -0.0211,0.001 -0.0419,0.0028 -0.0626,0.0051 -0.0124,0.0014 -0.0248,0.003 -0.0371,0.0049 -0.0212,0.0031 -0.0421,0.007 -0.0631,0.0116 -0.0115,0.0025 -0.0232,0.0051 -0.0347,0.0081 -0.0207,0.0053 -0.0411,0.0111 -0.0614,0.0177 -0.0112,0.0037 -0.0223,0.0074 -0.0335,0.0114 -0.0197,0.0072 -0.0393,0.015 -0.0584,0.0233 -0.011,0.0047 -0.0219,0.0096 -0.0328,0.0148 -0.0186,0.0089 -0.0369,0.0183 -0.0549,0.0284 -0.0107,0.0058 -0.0213,0.0118 -0.0317,0.0181 -0.0174,0.0104 -0.0344,0.0215 -0.0511,0.033 -0.0103,0.007 -0.0204,0.0141 -0.0303,0.0214 -0.0162,0.0119 -0.0317,0.0244 -0.0471,0.0372 -0.0098,0.0081 -0.0194,0.0163 -0.0289,0.0248 -0.0145,0.0132 -0.0286,0.0268 -0.0425,0.0408 -0.0093,0.0093 -0.0183,0.0187 -0.0273,0.0284 -0.0129,0.0141 -0.0253,0.0286 -0.0374,0.0435 -0.0088,0.0106 -0.0174,0.0215 -0.0256,0.0325 -0.0112,0.0147 -0.0217,0.0299 -0.0321,0.0453 -0.0083,0.0122 -0.0162,0.0245 -0.0238,0.037 -0.0092,0.0152 -0.0178,0.0305 -0.0264,0.0462 -0.0074,0.0139 -0.0145,0.0278 -0.0214,0.0421 -0.0073,0.0153 -0.0143,0.0307 -0.0208,0.0464 -0.0065,0.0155 -0.0127,0.0312 -0.0184,0.0471 -0.0055,0.0152 -0.0106,0.0306 -0.0154,0.0463 -0.0053,0.0169 -0.0101,0.0341 -0.0145,0.0514 -0.0038,0.0156 -0.0074,0.0313 -0.0105,0.0472 -0.0036,0.0177 -0.0067,0.0357 -0.0093,0.0538 -0.0013,0.0082 -0.0033,0.0161 -0.0044,0.0244 l -1.26972004,10.3964 c -0.00116,0.0096 -0.00117,0.0192 -0.00211,0.0289 -0.00167,0.0184 -0.00317,0.0368 -0.003890001,0.0554 -6.10000001e-4,0.0158 -6.70000001e-4,0.0315 -6.10000001e-4,0.0472 1.70000001e-4,0.0174 5.60000001e-4,0.0346 0.0015600007,0.052 9.4e-4,0.0165 0.00244,0.0328 0.00416,0.0491 0.00172,0.0165 0.00395,0.0329 0.00645,0.0494 0.00255,0.0164 0.00561,0.0327 0.00894,0.0489 0.00345,0.0162 0.00717,0.0323 0.01133,0.0485 0.00417,0.0159 0.00867,0.0317 0.01356,0.0473 0.005,0.016 0.01033,0.0318 0.01617,0.0477 0.00572,0.0154 0.01177,0.0306 0.01827,0.0457 0.00639,0.0153 0.01317,0.0304 0.02045,0.0454 0.00744,0.0155 0.01544,0.0306 0.02367,0.0456 0.00761,0.014 0.01544,0.0278 0.02383,0.0415 0.0095,0.0156 0.01966,0.0308 0.03005,0.0459 0.0055,0.0081 0.01023,0.0166 0.01606,0.0246 l 1.05853004,1.4516 c 0.0876,0.1203 0.1349,0.2653 0.1349,0.414 v 1.635 c 0,0.5622 0.4557,1.0179 1.0178,1.0179 H 33.473748 c 0.562,0 1.0178,-0.4557 1.0178,-1.0179 v -5.1606 c 0,-0.1383 0.0592,-0.27 0.1628,-0.3617 l 6.3509,-5.624 c 0.0013,-0.0012 0.0025,-0.0023 0.0039,-0.0035 l 0.0062,-0.0056 c 0.0061,-0.0053 0.0112,-0.0112 0.0172,-0.0166 0.0184,-0.0172 0.0367,-0.0344 0.0536,-0.0527 0.008,-0.0086 0.0151,-0.0176 0.0227,-0.0264 0.0141,-0.0164 0.0284,-0.0326 0.0414,-0.0497 0.0095,-0.0123 0.0179,-0.0253 0.0268,-0.038 0.0096,-0.0141 0.0196,-0.028 0.0286,-0.0426 0.0099,-0.0157 0.0184,-0.0318 0.0272,-0.0479 0.0067,-0.0125 0.014,-0.0248 0.0202,-0.0375 0.0087,-0.0175 0.0161,-0.0354 0.0237,-0.0533 0.0051,-0.0122 0.0106,-0.0242 0.0154,-0.0367 0.0067,-0.0177 0.0122,-0.0358 0.018,-0.0539 0.0042,-0.0133 0.0087,-0.0265 0.0124,-0.04 0.0045,-0.0168 0.0081,-0.0338 0.0117,-0.0508 0.0034,-0.0153 0.0069,-0.0306 0.0096,-0.0461 0.0025,-0.0152 0.0042,-0.0305 0.006,-0.0457 0.0022,-0.0176 0.0045,-0.0351 0.0058,-0.0528 9e-4,-0.0136 0.0011,-0.0274 0.0014,-0.0411 6e-4,-0.0191 0.0012,-0.0383 8e-4,-0.0575 -3e-4,-0.0131 -0.0016,-0.0262 -0.0025,-0.0393"
     id="path12"
     inkscape:connector-curvature="0"
     style="fill:#387800" />
  <path
     d="m 28.197648,15.576511 c -0.5622,0 -1.018,0.4557 -1.018,1.0178 v 10.5179 c 0,0.5621 0.4558,1.0179 1.018,1.0179 0.5622,0 1.0179,-0.4558 1.0179,-1.0179 v -10.5179 c 0,-0.5621 -0.4557,-1.0178 -1.0179,-1.0178 z"
     id="path14"
     inkscape:connector-curvature="0"
     style="fill:#387800" />
</svg>
