<svg width="26" height="22" viewBox="0 0 26 22" fill="none" xmlns="http://www.w3.org/2000/svg">
<path d="M11.1476 2.18164L1.97175 17.5C1.78257 17.8276 1.68246 18.1991 1.6814 18.5774C1.68035 18.9557 1.77837 19.3277 1.96571 19.6564C2.15306 19.9851 2.4232 20.259 2.74927 20.4508C3.07533 20.6427 3.44595 20.7458 3.82425 20.75H22.1759C22.5542 20.7458 22.9248 20.6427 23.2509 20.4508C23.577 20.259 23.8471 19.9851 24.0345 19.6564C24.2218 19.3277 24.3198 18.9557 24.3188 18.5774C24.3177 18.1991 24.2176 17.8276 24.0284 17.5L14.8526 2.18164C14.6595 1.86326 14.3875 1.60002 14.063 1.41734C13.7386 1.23465 13.3725 1.13867 13.0001 1.13867C12.6277 1.13867 12.2616 1.23465 11.9371 1.41734C11.6126 1.60002 11.3407 1.86326 11.1476 2.18164V2.18164Z" stroke="#387800" stroke-width="2" stroke-linecap="round" stroke-linejoin="round"/>
<path d="M13 7.75V12.0833" stroke="#387800" stroke-width="2" stroke-linecap="round" stroke-linejoin="round"/>
<path d="M13.5413 15.8747C13.5413 16.2736 13.3985 16.4163 12.9997 16.4163C12.6008 16.4163 12.458 16.2736 12.458 15.8747C12.458 15.4758 12.6008 15.333 12.9997 15.333C13.3985 15.333 13.5413 15.4758 13.5413 15.8747Z" fill="#C4C4C4" stroke="#387800"/>
</svg>
