<svg width="27" height="27" viewBox="0 0 27 27" fill="none" xmlns="http://www.w3.org/2000/svg">
<path d="M20.25 9C20.25 7.20979 19.5388 5.4929 18.273 4.22703C17.0071 2.96116 15.2902 2.25 13.5 2.25C11.7098 2.25 9.9929 2.96116 8.72703 4.22703C7.46116 5.4929 6.75 7.20979 6.75 9C6.75 16.875 3.375 19.125 3.375 19.125H23.625C23.625 19.125 20.25 16.875 20.25 9Z" stroke="#387800" stroke-width="2" stroke-linecap="round" stroke-linejoin="round"/>
<path d="M15.4462 23.625C15.2484 23.966 14.9645 24.249 14.623 24.4457C14.2814 24.6425 13.8941 24.746 13.5 24.746C13.1058 24.746 12.7185 24.6425 12.377 24.4457C12.0354 24.249 11.7515 23.966 11.5537 23.625" stroke="#387800" stroke-width="2" stroke-linecap="round" stroke-linejoin="round"/>
</svg>
