<svg width="362" height="275" viewBox="0 0 362 275" fill="none" xmlns="http://www.w3.org/2000/svg">
<rect x="0.5" y="0.5" width="361" height="274" rx="4.5" stroke="#BFBFBF"/>
<path d="M25 131.5C25 128.739 27.2386 126.5 30 126.5H50C52.7614 126.5 55 128.739 55 131.5V274.083H25V131.5Z" fill="#ED8989"/>
<path d="M72 212.167C72 209.406 74.2386 207.167 77 207.167H97C99.7614 207.167 102 209.406 102 212.167V274.084H72V212.167Z" fill="#EDCC89"/>
<path d="M72 175.5C72 172.739 74.2386 170.5 77 170.5H97C99.7614 170.5 102 172.739 102 175.5V274.083H72V175.5Z" fill="#EDCC89" fill-opacity="0.65"/>
<path d="M119 105.833C119 103.072 121.239 100.833 124 100.833H144C146.761 100.833 149 103.072 149 105.833V274.083H119V105.833Z" fill="#EDE989"/>
<path d="M166 259.833C166 257.072 168.239 254.833 171 254.833H191C193.761 254.833 196 257.072 196 259.833V274.083H166V259.833Z" fill="#AFED89"/>
<path d="M213 120.5C213 117.739 215.239 115.5 218 115.5H238C240.761 115.5 243 117.739 243 120.5V274.083H213V120.5Z" fill="#89EDE6"/>
<path d="M213 49C213 46.2386 215.239 44 218 44H238C240.761 44 243 46.2386 243 49V274.083H213V49Z" fill="#89EDE6" fill-opacity="0.65"/>
<path d="M260 175.5C260 172.739 262.239 170.5 265 170.5H285C287.761 170.5 290 172.739 290 175.5V274.083H260V175.5Z" fill="#8998ED"/>
<path d="M307 104C307 101.239 309.239 99 312 99H332C334.761 99 337 101.239 337 104V274.083H307V104Z" fill="#BD89ED"/>
</svg>
