<svg width="266" height="274" viewBox="0 0 266 274" fill="none" xmlns="http://www.w3.org/2000/svg">
<rect x="265.5" y="0.5" width="273" height="265" rx="4.5" transform="rotate(90 265.5 0.5)" stroke="#BFBFBF"/>
<path d="M138.641 8C141.402 8 143.641 10.2386 143.641 13V33C143.641 35.7614 141.402 38 138.641 38L0.887283 38V8L138.641 8Z" fill="#ED8989"/>
<path d="M60.6113 46C63.3727 46 65.6113 48.2386 65.6113 51V71C65.6113 73.7614 63.3728 76 60.6113 76L0.884659 76V46L60.6113 46Z" fill="#EDCC89"/>
<path d="M96.0801 46C98.8415 46 101.08 48.2386 101.08 51V71C101.08 73.7614 98.8415 76 96.0801 76L0.886742 76V46L96.0801 46Z" fill="#EDCC89" fill-opacity="0.65"/>
<path d="M163.467 84C166.228 84 168.467 86.2386 168.467 89V109C168.467 111.761 166.228 114 163.467 114L0.886795 114V84L163.467 84Z" fill="#EDE989"/>
<path d="M14.5078 122C17.2692 122 19.5078 124.239 19.5078 127L19.5078 147C19.5078 149.761 17.2692 152 14.5078 152H0.887812L0.887812 122H14.5078Z" fill="#AFED89"/>
<path d="M149.281 160C152.043 160 154.281 162.239 154.281 165V185C154.281 187.761 152.043 190 149.281 190L0.887924 190V160L149.281 160Z" fill="#89EDE6"/>
<path d="M218.439 160C221.201 160 223.439 162.239 223.439 165V185C223.439 187.761 221.201 190 218.439 190L0.886124 190V160L218.439 160Z" fill="#89EDE6" fill-opacity="0.65"/>
<path d="M96.0801 198C98.8415 198 101.08 200.239 101.08 203V223C101.08 225.761 98.8415 228 96.0801 228L0.886742 228V198L96.0801 198Z" fill="#8998ED"/>
<path d="M165.24 236C168.002 236 170.24 238.239 170.24 241V261C170.24 263.761 168.002 266 165.24 266L0.886902 266V236L165.24 236Z" fill="#BD89ED"/>
</svg>
