<svg width="37" height="37" viewBox="0 0 37 37" fill="none" xmlns="http://www.w3.org/2000/svg">
<path d="M35.375 17.5626C35.3815 20.0373 34.8033 22.4786 33.6875 24.6876C32.3646 27.3346 30.3308 29.561 27.814 31.1175C25.2972 32.6739 22.3967 33.4989 19.4375 33.5001C16.9627 33.5065 14.5215 32.9283 12.3125 31.8126L1.625 35.3751L5.1875 24.6876C4.07175 22.4786 3.49355 20.0373 3.5 17.5626C3.50115 14.6033 4.32615 11.7029 5.8826 9.18608C7.43905 6.66927 9.66548 4.63549 12.3125 3.31255C14.5215 2.1968 16.9627 1.6186 19.4375 1.62505H20.375C24.2832 1.84066 27.9745 3.49023 30.7421 6.25791C33.5098 9.0256 35.1594 12.7169 35.375 16.6251V17.5626Z" stroke="#387800" stroke-width="3" stroke-linecap="round" stroke-linejoin="round"/>
</svg>
