<svg width="28" height="34" viewBox="0 0 28 34" fill="none" xmlns="http://www.w3.org/2000/svg">
<path d="M17 2H5C4.20435 2 3.44129 2.31607 2.87868 2.87868C2.31607 3.44129 2 4.20435 2 5V29C2 29.7956 2.31607 30.5587 2.87868 31.1213C3.44129 31.6839 4.20435 32 5 32H23C23.7956 32 24.5587 31.6839 25.1213 31.1213C25.6839 30.5587 26 29.7956 26 29V11L17 2Z" stroke="#F2994A" stroke-width="2.5" stroke-linecap="round" stroke-linejoin="round"/>
<path d="M17 2V11H26" stroke="#F2994A" stroke-width="2.5" stroke-linecap="round" stroke-linejoin="round"/>
<path d="M20 18.5H8" stroke="#F2994A" stroke-width="2.5" stroke-linecap="round" stroke-linejoin="round"/>
<path d="M20 24.5H8" stroke="#F2994A" stroke-width="2.5" stroke-linecap="round" stroke-linejoin="round"/>
<path d="M11 12.5H9.5H8" stroke="#F2994A" stroke-width="2.5" stroke-linecap="round" stroke-linejoin="round"/>
</svg>
