<svg width="43" height="38" viewBox="0 0 43 38" fill="none" xmlns="http://www.w3.org/2000/svg">
<path d="M38.0755 4.64376C37.1178 3.68564 35.9807 2.92559 34.7293 2.40704C33.4778 1.88848 32.1364 1.62158 30.7817 1.62158C29.4271 1.62158 28.0857 1.88848 26.8342 2.40704C25.5827 2.92559 24.4456 3.68564 23.488 4.64376L21.5005 6.63125L19.513 4.64376C17.5785 2.70933 14.9549 1.62258 12.2192 1.62258C9.48353 1.62258 6.85989 2.70933 4.92547 4.64376C2.99104 6.57818 1.9043 9.20182 1.9043 11.9375C1.9043 14.6732 2.99104 17.2968 4.92547 19.2313L6.91297 21.2188L21.5005 35.8063L36.088 21.2188L38.0755 19.2313C39.0336 18.2736 39.7936 17.1365 40.3122 15.885C40.8307 14.6336 41.0976 13.2922 41.0976 11.9375C41.0976 10.5828 40.8307 9.24145 40.3122 7.98996C39.7936 6.73848 39.0336 5.60142 38.0755 4.64376V4.64376Z" stroke="#387800" stroke-width="3" stroke-linecap="round" stroke-linejoin="round"/>
</svg>
