<svg width="45" height="45" viewBox="0 0 45 45" fill="none" xmlns="http://www.w3.org/2000/svg">
<path d="M31.875 39.375V35.625C31.875 33.6359 31.0848 31.7282 29.6783 30.3217C28.2718 28.9152 26.3641 28.125 24.375 28.125H9.375C7.38588 28.125 5.47822 28.9152 4.0717 30.3217C2.66518 31.7282 1.875 33.6359 1.875 35.625V39.375" stroke="#387800" stroke-width="3" stroke-linecap="round" stroke-linejoin="round"/>
<path d="M16.875 20.625C21.0171 20.625 24.375 17.2671 24.375 13.125C24.375 8.98286 21.0171 5.625 16.875 5.625C12.7329 5.625 9.375 8.98286 9.375 13.125C9.375 17.2671 12.7329 20.625 16.875 20.625Z" stroke="#387800" stroke-width="3" stroke-linecap="round" stroke-linejoin="round"/>
<path d="M43.125 39.3749V35.6249C43.1238 33.9631 42.5707 32.3488 41.5526 31.0355C40.5345 29.7221 39.109 28.7841 37.5 28.3687" stroke="#387800" stroke-width="3" stroke-linecap="round" stroke-linejoin="round"/>
<path d="M30 5.86865C31.6133 6.28172 33.0432 7.21997 34.0643 8.53548C35.0855 9.851 35.6397 11.469 35.6397 13.1343C35.6397 14.7996 35.0855 16.4176 34.0643 17.7331C33.0432 19.0486 31.6133 19.9868 30 20.3999" stroke="#387800" stroke-width="3" stroke-linecap="round" stroke-linejoin="round"/>
</svg>
