<svg width="212" height="137" fill="none" xmlns="http://www.w3.org/2000/svg"><rect width="212" height="137" rx="15" fill="#fff"/><path d="M105.36 59.76c-.933 0-1.827.12-2.68.36-.853.213-1.747.573-2.68 1.08l-1.36-3.72c.987-.56 2.107-1 3.36-1.32a14.93 14.93 0 013.92-.52c1.6 0 2.92.227 3.96.68 1.04.427 1.867.973 2.48 1.64.613.667 1.04 1.4 1.28 2.2.24.8.36 1.573.36 2.32 0 .907-.173 1.72-.52 2.44a8.62 8.62 0 01-1.24 2c-.507.613-1.053 1.2-1.64 1.76a19.45 19.45 0 00-1.64 1.68 9.232 9.232 0 00-1.28 1.8c-.32.64-.48 1.36-.48 2.16v.48c0 .16.013.32.04.48h-4.16a8.138 8.138 0 01-.12-.84c-.027-.32-.04-.613-.04-.88 0-.88.147-1.667.44-2.36a8.617 8.617 0 011.12-1.92c.453-.587.933-1.133 1.44-1.64a26.175 26.175 0 001.48-1.52 8.47 8.47 0 001.12-1.56c.293-.533.44-1.12.44-1.76 0-.88-.307-1.6-.92-2.16-.587-.587-1.48-.88-2.68-.88zm3.12 21.6c0 .933-.307 1.693-.92 2.28-.613.587-1.373.88-2.28.88a3.26 3.26 0 01-2.28-.88c-.613-.587-.92-1.347-.92-2.28 0-.933.307-1.693.92-2.28.64-.613 1.4-.92 2.28-.92.907 0 1.667.307 2.28.92.613.587.92 1.347.92 2.28z" fill="#127800" fill-opacity=".3"/></svg>