<svg width="240" height="387" fill="none" xmlns="http://www.w3.org/2000/svg"><g clip-path="url(#clip0)" stroke="#DAEBF1" stroke-width="2" stroke-linecap="round" stroke-linejoin="round"><path d="M195.502 57.063l-1.439 5.1M195.284 49.71l1.306 3.493 2.938-2.295-1.306-3.492-2.938 2.295zM193.515 55.98l5.836 1.646c4.883 1.377 6.651-4.892 1.768-6.27l-1.292-.364"/></g><g clip-path="url(#clip1)" stroke="#DAEBF1" stroke-width="2" stroke-linecap="round" stroke-linejoin="round"><path d="M125.447 85.423l1.853 4.963M120.927 79.62l3.117 2.046 1.014-3.588-3.117-2.045-1.014 3.587zM123.205 85.723l5.68-2.12c4.753-1.775 2.475-7.877-2.278-6.103l-1.257.47"/></g><g clip-path="url(#clip2)" stroke="#DAEBF1" stroke-linecap="round" stroke-linejoin="round"><path d="M155.136 79.862l1.044 2.48M152.719 77.013l1.627.972.442-1.843-1.627-.971-.442 1.842zM154.003 80.062l2.844-1.197c2.38-1.002 1.096-4.05-1.284-3.05l-.629.266"/></g><g clip-path="url(#clip3)" stroke="#DAEBF1" stroke-width="1.5" stroke-linecap="round" stroke-linejoin="round"><path d="M85.502 71.32l-3.292 2.275M88.994 67.048l-1 2.548 2.737-.035 1-2.548-2.737.035zM84.946 69.846l2.389 3.456c1.998 2.891 6.046.093 4.047-2.798l-.528-.765"/></g><g clip-path="url(#clip4)" stroke="#DAEBF1" stroke-width="2" stroke-linecap="round" stroke-linejoin="round"><path d="M133.901 37.824l.673 4.682M131.019 31.908l2.372 2.371 1.607-2.943-2.371-2.37-1.608 2.942zM131.847 37.665l5.471-.786c4.578-.659 3.75-6.415-.828-5.757l-1.211.174"/></g><g clip-path="url(#clip5)" stroke="#DAEBF1" stroke-linecap="round" stroke-linejoin="round"><path d="M110.42 57.18l.492 3.423M108.351 52.849l1.696 1.739 1.137-2.146-1.696-1.74-1.137 2.147zM108.956 57.058l3.895-.56c3.259-.468 2.654-4.677-.605-4.209l-.862.124"/></g><g clip-path="url(#clip6)" stroke="#DAEBF1" stroke-width="1.5" stroke-linecap="round" stroke-linejoin="round"><path d="M160.922 51.29l1.916 2.88M157.193 48.27l2.278.841.104-2.427-2.279-.84-.103 2.426zM159.548 51.81l3.276-2.18c2.742-1.824.386-5.364-2.356-3.54l-.725.482"/></g><g clip-path="url(#clip7)" stroke="#DAEBF1" stroke-width="3" stroke-linecap="round" stroke-linejoin="round"><path d="M76.203 46.028l7.261-.6M66.827 49.754l3.878-3.27-4.363-2.589-3.878 3.27 4.363 2.589zM75.755 49.016l-.666-8.056c-.557-6.74-9.485-6.003-8.928.738l.147 1.783"/></g><g clip-path="url(#clip8)" stroke="#DAEBF1" stroke-width="2" stroke-linecap="round" stroke-linejoin="round"><path d="M45.734 65.002l2.469 3.445M40.926 61.54l2.938.854.137-3.057-2.938-.854-.137 3.057zM43.962 65.776l4.227-3.03c3.538-2.534.503-6.77-3.035-4.235l-.936.67"/></g><ellipse cx="120" cy="54.297" rx="120" ry="54.297" fill="#017AA0" fill-opacity=".05"/><ellipse cx="121.825" cy="59.772" rx="100.837" ry="40.608" fill="#017AA0" fill-opacity=".1"/><ellipse cx="134.601" cy="333.536" rx="100.837" ry="40.608" fill="#E69700" fill-opacity=".1"/><ellipse cx="121.825" cy="346.312" rx="100.837" ry="40.608" fill="#E69700" fill-opacity=".1"/><path d="M58.878 346.696c.245-.053.5-.117.766-.192.274-.081.542-.171.804-.27.263-.108.515-.221.756-.341.25-.126.478-.264.683-.414l1.229.22-1.465 8.186-1.76-.315 1.055-5.894a5.795 5.795 0 01-.87.295c-.314.074-.617.134-.91.179l-.288-1.454zm11.77 4.557c-.247 1.378-.7 2.39-1.36 3.036-.651.639-1.437.876-2.358.711-.922-.165-1.58-.66-1.977-1.487-.388-.833-.458-1.939-.211-3.317.122-.685.298-1.28.526-1.783.236-.503.516-.912.841-1.227a2.695 2.695 0 011.081-.66 2.637 2.637 0 011.268-.066c.921.165 1.575.664 1.963 1.497.396.827.472 1.925.227 3.296zm-1.796-.322c.073-.409.12-.783.14-1.121.021-.345.01-.648-.033-.908a1.37 1.37 0 00-.253-.63.811.811 0 00-.519-.3.813.813 0 00-.591.101 1.556 1.556 0 00-.456.504c-.13.229-.245.509-.345.84a9.647 9.647 0 00-.258 1.1c-.073.41-.12.787-.142 1.133-.02.345-.01.648.033.908.05.261.135.471.253.63a.811.811 0 00.52.3c.22.04.417.006.59-.101.174-.107.326-.275.456-.504.13-.228.245-.508.345-.84.1-.332.187-.702.26-1.112zm8.51 1.523c-.247 1.378-.7 2.39-1.36 3.036-.651.639-1.437.876-2.359.712-.921-.165-1.58-.661-1.977-1.488-.387-.833-.457-1.939-.21-3.317.122-.685.297-1.279.526-1.783.236-.502.516-.911.84-1.227a2.696 2.696 0 011.082-.66 2.637 2.637 0 011.267-.066c.922.165 1.576.664 1.963 1.497.397.827.473 1.926.227 3.296zm-1.796-.321c.073-.41.12-.783.14-1.121.02-.346.01-.649-.033-.908a1.372 1.372 0 00-.253-.631.82.82 0 00-.52-.3.818.818 0 00-.59.102 1.541 1.541 0 00-.456.503 4.09 4.09 0 00-.346.841c-.098.323-.184.69-.257 1.099-.074.41-.12.787-.142 1.133-.021.346-.01.648.033.908.05.261.135.471.252.63a.817.817 0 00.52.301c.22.039.417.005.59-.102.174-.107.326-.275.457-.503.13-.229.245-.509.345-.841.1-.331.187-.702.26-1.111zm3.453-1.833c.245-.053.5-.117.766-.192.274-.081.542-.171.804-.27.263-.108.515-.221.756-.341a4.89 4.89 0 00.683-.414l1.229.22-1.465 8.186-1.76-.315 1.055-5.894a5.908 5.908 0 01-.87.295 11.78 11.78 0 01-.91.179l-.288-1.454zm11.77 4.557c-.247 1.378-.7 2.39-1.36 3.035-.651.64-1.437.877-2.358.712-.922-.165-1.58-.66-1.977-1.487-.388-.833-.458-1.939-.211-3.317.122-.685.298-1.28.526-1.783.236-.503.516-.912.841-1.227a2.697 2.697 0 011.081-.66 2.638 2.638 0 011.268-.066c.921.165 1.575.664 1.963 1.497.396.827.472 1.925.227 3.296zm-1.796-.322c.074-.409.12-.783.14-1.121.021-.345.01-.648-.033-.908a1.372 1.372 0 00-.253-.63.811.811 0 00-.519-.3.813.813 0 00-.59.101 1.556 1.556 0 00-.457.504c-.13.229-.245.509-.345.84a9.67 9.67 0 00-.258 1.1 9.92 9.92 0 00-.142 1.133c-.02.345-.01.648.033.908.05.261.135.471.253.63a.811.811 0 00.52.3c.22.04.417.006.59-.101.174-.107.326-.275.456-.504.13-.228.245-.509.346-.84.1-.332.186-.702.26-1.112zm3.453-1.832c.246-.054.5-.118.766-.192.275-.081.543-.171.804-.271.263-.107.515-.221.756-.34.25-.126.478-.264.684-.414l1.228.22-1.465 8.186-1.76-.315 1.055-5.895a5.794 5.794 0 01-.87.296c-.313.074-.617.133-.91.178l-.288-1.453zM54.648 328.581a8.223 8.223 0 00.816-.917c.125-.173.24-.345.346-.516.11-.18.2-.358.27-.535l.87-.347 2.314 5.792-1.245.497-1.666-4.17a4.397 4.397 0 01-.437.533c-.17.171-.34.329-.508.474l-.76-.811zm9.299-1.767c.39.975.502 1.799.338 2.471-.16.666-.566 1.128-1.218 1.389-.652.26-1.268.206-1.849-.163-.577-.377-1.06-1.053-1.45-2.028a5.645 5.645 0 01-.372-1.343 3.119 3.119 0 01.049-1.115c.081-.33.224-.613.426-.849.203-.236.463-.418.781-.545.652-.26 1.266-.202 1.843.175.58.369 1.065 1.038 1.452 2.008zm-1.27.507a7.192 7.192 0 00-.356-.769 3.073 3.073 0 00-.38-.565 1.034 1.034 0 00-.412-.301.615.615 0 00-.45.015.61.61 0 00-.336.299 1.162 1.162 0 00-.09.502c.008.197.046.421.114.671.065.246.156.513.272.803.115.289.235.549.359.777.123.228.25.417.38.565.136.146.273.246.412.301a.615.615 0 00.45-.015.61.61 0 00.335-.299c.068-.137.098-.304.09-.501a3.064 3.064 0 00-.113-.672 7.444 7.444 0 00-.275-.811zm1.47-2.536a8.147 8.147 0 00.816-.917c.126-.173.241-.345.347-.516.11-.18.2-.358.27-.535l.87-.347 2.314 5.791-1.245.498-1.666-4.17a4.476 4.476 0 01-.437.533c-.17.171-.34.329-.508.474l-.76-.811zm4.751-1.898a8.223 8.223 0 00.816-.917c.125-.173.24-.345.346-.516.11-.18.2-.358.27-.535l.87-.347 2.314 5.791-1.245.498-1.666-4.171a4.32 4.32 0 01-.437.533c-.17.172-.34.33-.508.475l-.76-.811zM121.753 358.483c.177-.111.359-.233.546-.366.193-.141.377-.288.554-.439a9.93 9.93 0 00.497-.48c.161-.17.301-.342.419-.518l1.026-.174 1.159 6.833-1.469.249-.835-4.92a4.812 4.812 0 01-.598.477 10.08 10.08 0 01-.663.397l-.636-1.059zm5.603-.951c.177-.111.36-.233.547-.366.192-.141.377-.288.554-.439.176-.159.341-.319.497-.48.16-.17.3-.342.419-.518l1.025-.174 1.16 6.832-1.469.25-.835-4.92a4.9 4.9 0 01-.599.477 9.583 9.583 0 01-.663.397l-.636-1.059zm10.515.254c.195 1.151.125 2.072-.211 2.764-.33.685-.879 1.093-1.648 1.224-.769.13-1.426-.073-1.97-.609-.539-.545-.906-1.392-1.101-2.542a6.292 6.292 0 01-.09-1.547c.044-.46.148-.86.314-1.199.165-.339.386-.613.661-.822.276-.21.601-.346.976-.409.769-.131 1.423.076 1.961.62.544.537.913 1.377 1.108 2.52zm-1.499.255a7.967 7.967 0 00-.207-.919 3.37 3.37 0 00-.281-.703 1.148 1.148 0 00-.376-.423.684.684 0 00-.492-.089.683.683 0 00-.435.247 1.29 1.29 0 00-.215.523 3.398 3.398 0 00-.034.757c.014.281.05.593.108.935.058.341.127.651.208.928.081.277.175.511.281.703.114.19.239.331.377.423a.68.68 0 00.491.089.683.683 0 00.435-.247c.106-.133.178-.307.216-.523.037-.216.049-.468.034-.756a8.212 8.212 0 00-.11-.945zm2.191-2.411a8.635 8.635 0 001.101-.806c.176-.158.341-.318.497-.479.16-.17.3-.342.419-.518l1.025-.174 1.16 6.832-1.469.25-.835-4.92a4.9 4.9 0 01-.599.477 9.996 9.996 0 01-.663.397l-.636-1.059zM176.882 355.798c.113-.177.225-.365.337-.565.114-.21.218-.421.313-.634.091-.219.173-.434.244-.647.072-.221.125-.437.157-.647l.852-.596 3.972 5.679-1.221.854-2.86-4.089a4.72 4.72 0 01-.337.687 9.939 9.939 0 01-.429.642l-1.028-.684zm9.612-4.27c.668.956.999 1.818.992 2.588-.005.76-.327 1.364-.966 1.811-.639.447-1.32.545-2.041.293-.72-.262-1.414-.87-2.083-1.826a6.32 6.32 0 01-.743-1.36 3.469 3.469 0 01-.23-1.218c.005-.377.087-.72.246-1.027.16-.306.395-.569.707-.787.639-.447 1.318-.539 2.038-.278.722.252 1.415.853 2.08 1.804zm-1.246.871a8.132 8.132 0 00-.58-.742 3.376 3.376 0 00-.555-.514 1.14 1.14 0 00-.521-.222.677.677 0 00-.482.13.682.682 0 00-.288.409c-.034.162-.024.35.029.565.058.212.156.444.293.698.133.249.299.515.498.799.199.284.394.534.585.75.192.216.377.387.556.515.184.123.357.197.521.221a.68.68 0 00.482-.13.68.68 0 00.288-.409 1.142 1.142 0 00-.029-.565 3.45 3.45 0 00-.293-.698 8.213 8.213 0 00-.504-.807zm.949-3.117c.112-.176.225-.364.337-.565.113-.209.218-.421.313-.634.091-.218.172-.434.243-.646.073-.222.126-.437.158-.647l.852-.596 3.972 5.679-1.221.854-2.86-4.089c-.087.223-.2.453-.337.687a9.939 9.939 0 01-.429.642l-1.028-.685zm9.611-4.27c.669.956 1 1.819.993 2.589-.005.76-.327 1.364-.966 1.811-.64.447-1.32.544-2.041.292-.72-.261-1.414-.87-2.083-1.826a6.29 6.29 0 01-.743-1.359 3.446 3.446 0 01-.23-1.218c.004-.378.087-.72.246-1.027.16-.307.395-.569.707-.787.639-.447 1.318-.54 2.038-.278.721.252 1.414.853 2.079 1.803zm-1.245.872a7.996 7.996 0 00-.58-.742 3.469 3.469 0 00-.555-.515 1.141 1.141 0 00-.521-.221.681.681 0 00-.483.13.674.674 0 00-.287.409c-.034.161-.024.35.029.565.058.211.156.444.293.698.133.249.299.515.498.799.198.284.394.534.585.75.192.216.377.387.555.514.184.124.358.198.521.222.169.02.33-.023.483-.13a.68.68 0 00.288-.409 1.143 1.143 0 00-.03-.565 3.37 3.37 0 00-.293-.698 8.386 8.386 0 00-.503-.807zM116.279 336.558c.167.016.342.028.526.035.19.004.379.002.565-.008.189-.014.372-.035.549-.062.185-.028.357-.069.519-.123l.734.39-2.6 4.897-1.053-.559 1.873-3.526a3.859 3.859 0 01-.612.01 7.847 7.847 0 01-.614-.072l.113-.982zm4.016 2.133a7.094 7.094 0 001.091.027c.189-.015.372-.035.549-.062a3.3 3.3 0 00.518-.123l.735.39-2.6 4.896-1.053-.559 1.873-3.525a3.992 3.992 0 01-.613.01 7.809 7.809 0 01-.613-.073l.113-.981zM123.738 320.279c-.19 1.151-.555 2-1.098 2.546-.535.54-1.187.747-1.956.621-.77-.127-1.325-.532-1.665-1.216-.333-.69-.405-1.61-.215-2.762a6.313 6.313 0 01.417-1.492c.191-.421.42-.765.687-1.032.266-.267.564-.454.893-.563.328-.108.68-.131 1.055-.069.77.126 1.321.534 1.653 1.224.341.684.417 1.599.229 2.743zm-1.5-.246c.056-.342.09-.654.103-.936.013-.288.001-.54-.038-.756a1.145 1.145 0 00-.218-.522.676.676 0 00-.437-.244.676.676 0 00-.491.091 1.3 1.3 0 00-.374.425 3.441 3.441 0 00-.278.704 8.052 8.052 0 00-.201.92 7.97 7.97 0 00-.105.945c-.014.289-.001.541.038.757.045.217.118.391.218.522a.68.68 0 00.436.244c.184.03.348 0 .491-.092.144-.091.268-.233.374-.425.106-.192.199-.426.278-.704.08-.277.147-.587.204-.929zm7.108 1.168c-.189 1.151-.555 2-1.097 2.546-.535.54-1.187.747-1.957.621-.77-.127-1.325-.532-1.665-1.217-.332-.689-.404-1.61-.215-2.761a6.25 6.25 0 01.418-1.492c.19-.421.419-.765.686-1.032.267-.267.565-.455.893-.563.329-.108.68-.131 1.055-.07.77.127 1.321.535 1.654 1.225.34.684.416 1.598.228 2.743zm-1.5-.247c.056-.342.091-.654.103-.935a3.366 3.366 0 00-.038-.756 1.143 1.143 0 00-.218-.523.685.685 0 00-.436-.244.685.685 0 00-.492.092 1.287 1.287 0 00-.373.425 3.385 3.385 0 00-.278.704 7.788 7.788 0 00-.202.92 8.411 8.411 0 00-.105.945c-.013.288-.001.54.038.756.046.217.118.391.218.523a.68.68 0 00.437.243c.184.031.348 0 .491-.091.143-.091.268-.233.374-.425.106-.192.198-.427.278-.704.079-.278.147-.588.203-.93zm7.108 1.168c-.189 1.152-.555 2-1.097 2.546-.535.541-1.187.748-1.957.621-.769-.126-1.324-.532-1.665-1.216-.332-.69-.404-1.61-.215-2.761.094-.573.234-1.07.418-1.492.191-.422.42-.766.686-1.033.267-.267.565-.454.893-.562a2.181 2.181 0 011.056-.07c.769.126 1.321.534 1.653 1.224.34.684.416 1.599.228 2.743zm-1.5-.246a7.73 7.73 0 00.103-.936c.014-.288.001-.54-.037-.756a1.135 1.135 0 00-.219-.522.674.674 0 00-.436-.244.68.68 0 00-.491.091 1.288 1.288 0 00-.374.425 3.373 3.373 0 00-.278.705 8.24 8.24 0 00-.202.919 8.16 8.16 0 00-.104.946c-.014.288-.001.54.037.756.046.217.119.391.219.522a.674.674 0 00.436.244.68.68 0 00.491-.091c.144-.092.268-.233.374-.425.106-.192.199-.427.278-.705.079-.277.147-.587.203-.929zm2.856-1.568c.204-.047.416-.104.636-.169.228-.071.45-.149.667-.235.218-.092.426-.19.625-.292.207-.108.396-.226.565-.353l1.026.168-1.123 6.839-1.471-.242.81-4.924c-.219.099-.46.185-.722.256-.26.066-.512.119-.755.16l-.258-1.208zM178.544 324.878c-.212 1.147-.595 1.988-1.148 2.523-.545.53-1.202.724-1.969.582-.767-.142-1.313-.558-1.64-1.249-.319-.696-.372-1.618-.16-2.765.105-.57.254-1.065.447-1.484a3.47 3.47 0 01.707-1.018c.272-.262.573-.443.904-.545a2.2 2.2 0 011.056-.049c.767.142 1.31.561 1.629 1.257.327.691.385 1.607.174 2.748zm-1.495-.277c.063-.34.104-.652.122-.933.019-.288.011-.54-.023-.757a1.143 1.143 0 00-.208-.526.679.679 0 00-.431-.253.675.675 0 00-.493.082c-.139.09-.266.229-.383.417-.109.19-.206.423-.291.699a7.91 7.91 0 00-.22.915 8.231 8.231 0 00-.124.943c-.019.288-.012.541.023.757.041.218.11.394.208.527a.679.679 0 00.431.252.68.68 0 00.493-.081c.145-.089.273-.228.382-.418.11-.19.207-.423.292-.698a8.26 8.26 0 00.222-.926zm2.886-1.51c.205-.044.418-.096.639-.157.229-.066.453-.14.672-.221.219-.088.43-.182.631-.28a4.1 4.1 0 00.572-.342l1.022.189-1.259 6.815-1.465-.271.907-4.907a4.902 4.902 0 01-.726.242c-.262.06-.515.108-.759.144l-.234-1.212zm5.589 1.033c.205-.044.418-.096.639-.157.229-.066.453-.14.672-.221.219-.088.43-.182.631-.28a4.1 4.1 0 00.572-.342l1.022.189-1.259 6.815-1.465-.271.907-4.907a4.902 4.902 0 01-.726.242c-.262.06-.515.108-.759.144l-.234-1.212zm9.786 3.853c-.212 1.147-.594 1.988-1.147 2.523-.546.53-1.202.724-1.969.582-.767-.142-1.314-.558-1.64-1.249-.319-.696-.372-1.618-.16-2.765.105-.57.254-1.065.447-1.484a3.47 3.47 0 01.707-1.018c.272-.262.573-.443.904-.545a2.2 2.2 0 011.056-.049c.767.142 1.31.561 1.629 1.257.326.691.384 1.607.173 2.748zm-1.494-.277c.063-.34.103-.652.121-.933.02-.288.012-.54-.022-.757a1.143 1.143 0 00-.208-.526.679.679 0 00-.431-.253.675.675 0 00-.493.082 1.293 1.293 0 00-.383.417c-.109.19-.207.423-.292.699a8.122 8.122 0 00-.22.915 8.215 8.215 0 00-.123.943c-.019.288-.012.541.023.757.041.218.11.393.208.527a.679.679 0 00.431.252.68.68 0 00.493-.081 1.15 1.15 0 00.382-.418c.11-.19.207-.423.292-.698a8.26 8.26 0 00.222-.926zm2.886-1.51c.205-.044.418-.096.639-.157.229-.066.453-.14.672-.221.219-.088.43-.182.631-.28a4.1 4.1 0 00.572-.342l1.022.189-1.259 6.815-1.465-.271.906-4.907c-.22.095-.462.175-.726.242-.262.06-.515.108-.758.144l-.234-1.212z" fill="#E59700" fill-opacity=".3"/><path stroke="#BC07E9" stroke-opacity=".1" stroke-linecap="round" stroke-linejoin="round" d="M193.96 140.12v150.483M115.481 123.694v103.943"/><path stroke="#BC07E9" stroke-opacity=".15" stroke-linecap="round" stroke-linejoin="round" d="M103.618 169.321v103.943"/><path stroke="#BC07E9" stroke-opacity=".1" stroke-width="2" stroke-linecap="round" stroke-linejoin="round" d="M81.304 187.16v102.943M174.384 114.156v149.483"/><path stroke="#BC07E9" stroke-opacity=".1" stroke-linecap="round" stroke-linejoin="round" d="M147.42 113.656v150.483M53.428 118.219v150.483"/><path stroke="#BC07E9" stroke-opacity=".06" stroke-width="2" stroke-linecap="round" stroke-linejoin="round" d="M61.228 107.768v77.392"/><g filter="url(#filter0_d)" fill-rule="evenodd" clip-rule="evenodd"><path d="M145.927 105.904l5.431-21.835c-.611-5.068-.627-9.505-.047-13.311.359-.99 1.322-2.404 2.293.695.97 3.098 2.128 6.313 3.299 6.316 1.171.003 1.65-2.309 3.341-2.026 1.127.188-.09 3.757-3.651 10.708l-.142 19.478-10.524-.025z" fill="#B28B67"/><path d="M114.154 157.702l-2.59-4.255c7.618-22.844 32.456-41.119 38.803-67.896l8.078 2.51c9.985 37.854-20.136 60.587-44.291 69.641z" fill="#D7D9DC"/><path d="M114.154 157.702l-2.59-4.255c7.618-22.844 32.456-41.119 38.803-67.896l8.078 2.51c9.985 37.854-20.136 60.587-44.291 69.641z" fill="#000" fill-opacity=".1"/><path d="M109.311 177.034l20.836 74.881 9.801 56.222h9.837l-9.82-131.103h-30.654z" fill="#997659"/><path d="M99.947 177.034c1.454 38.901.88 60.118.555 63.652-.325 3.534-2.173 27.204-14.76 68.637h10.23c16.671-39.747 22.491-63.418 24.403-68.637 1.912-5.219 7.559-26.437 15.803-63.652H99.947z" fill="#B28B67"/><path d="M108.864 177.034c5.42 25.767 14.794 66.897 28.122 123.391h14.387c1.063-57.985-3.458-96.15-11.286-123.391h-31.223z" fill="#6E9786"/><path d="M108.864 177.034c5.42 25.767 14.794 66.897 28.122 123.391h14.387c1.063-57.985-3.458-96.15-11.286-123.391h-31.223z" fill="#000" fill-opacity=".1"/><path d="M99.874 177.034c1.424 38.901-2.266 77.225-13.697 123.997h15.351c16.701-39.155 28.672-77.29 36.853-123.997H99.874z" fill="#6E9786"/><path d="M80.011 309.565l6.106-7.289c2.055 2.778 5.616 4.925 10.683 6.442 1.944 6.359 5.747 12.536 11.408 18.531.432.458.402 1.198-.068 1.654-.03.03-.062.057-.095.084l-2.337 1.841-16.326-12.102-9.524-7.059.153-2.102z" fill="#F5F3F6"/><path d="M80.011 309.565l.638 1.185 12.31 9.339 12.735 9.338 1.274.425-1.26.976-16.326-12.102-9.524-7.059.153-2.102z" fill="url(#paint0_linear)"/><path d="M133.252 309.651l4.818-8.197c2.485 2.4 6.352 3.93 11.601 4.589 2.968 5.951 7.738 11.415 14.312 16.393.501.379.593 1.115.206 1.642a1.277 1.277 0 01-.081.098l-2 2.202-18.101-9.239-10.559-5.39-.196-2.098z" fill="#F5F3F6"/><path d="M133.282 309.411l.811 1.097 13.699 7.251 14.126 7.171 1.34.193-1.126 1.245-18.129-9.325-10.574-5.44-.147-2.192z" fill="url(#paint1_linear)"/><g clip-path="url(#clip9)"><path d="M123.553 112.153c-3.374-1.902-6.215-4.708-7.344-8.606-3.252-11.232 12.876-14.42 17.87-9.982 4.994 4.438 9.789 18.587 6.319 20.981-1.384.955-4.993 1.186-9.04.405l-.451 17.232-12.015-.449 4.661-19.581z" fill="#B28B67"/><path d="M136.149 95.621c-.385-.671-.974-1.358-1.463-1.948-.63-.76-1.387-1.376-2.175-1.929a19.336 19.336 0 00-4.778-2.453c-3.048-1.052-6.44-1.06-9.245.377a9.039 9.039 0 00-3.527 3.21c-.795 1.257-1.4 2.9-2.8 3.516-1.523.67-3.458-.18-5.021-.572-1.762-.44-3.519-.588-5.266-.254-2.928.559-5.18 2.444-6.25 5.408-1.14 3.154-1.314 7.229 1.188 9.935.465.503.967.887 1.576 1.134.558.227 1.346.397 1.738.942.418.58.185 1.611.191 2.271.007.945.084 1.912.504 2.788.691 1.438 2.151 2.518 3.5 3.134 1.373.628 2.822.745 4.242.522.949-.148 1.887-.383 2.761-.778.434-.197.782-.465 1.178-.722.385-.25.661-.225 1.102-.126 2.049.463 3.981.224 5.834-.638 1.565-.726 3.281-1.8 4.191-3.389 1.011-1.765.361-3.447-.647-5.13.43.047 1.48-.212.613-.71-.344-.198-.837-.148-1.205-.204-.428-.064-.883-.183-1.277-.4-1.59-.876-1.422-3.908-.175-4.855 1.853-1.408 3.404 1.374 5.175 1.59 1.018.125 1.694-.805 2.111-1.653.559-1.137.746-2.44.846-3.733.082-1.064.13-2.131.222-3.194.043-.497.29-1.946-.23-2.298 1.385-.848 3.279-.838 4.866-.496.656.142 1.199.364 1.701.855.108.105.379.435.551.39.32-.085.066-.421-.031-.59z" fill="url(#paint2_linear)"/></g><path d="M92.069 175.391l11.695.047c-7.221 23.783-11.12 36.401-11.695 37.856-1.295 3.275 1.445 8.261 2.617 10.941-3.817 1.742-3.41-4.711-8.225-2.425-4.395 2.085-7.738 5.865-12.815 2.669-.624-.393-1.309-1.873.344-3.029 4.118-2.881 10.052-7.922 10.854-9.581 1.093-2.263 3.501-14.422 7.225-36.478z" fill="#B28B67"/><path d="M104.209 187.37h37.665c1.956 0 2.872-2.931 2.589-4.386-3.264-16.786-12.137-34.832-12.137-58.727l-12.351-1.976c-10.216 16.763-13.749 37.4-15.766 65.089z" fill="#004F45"/><path d="M104.553 138.758c-1.794-.526-3.215-1.753-4.262-3.681-4.514-8.31-2.884-12.886 1.941-14.39 4.824-1.504 9.126 1.594 16.813 1.594.418 0 .801.027 1.149.081l3.866.225c11.094 38.357 14.153 63.948 9.179 76.773H99.537c-1.997 4.75-3.908 8.747-5.733 11.99h-9.183c-.864-28.509 5.78-52.707 19.932-72.592z" fill="#D7D9DC"/><path d="M106.875 179.661c1.06 9.047 2.783 15.614 5.169 19.699H99.537c2.329-5.541 4.775-12.107 7.338-19.699z" fill="#000" fill-opacity=".1"/></g><defs><clipPath id="clip0"><path fill="#fff" transform="rotate(15.752 -67.203 729.182)" d="M0 0h11.863v17.338H0z"/></clipPath><clipPath id="clip1"><path fill="#fff" transform="rotate(-20.471 270.43 -290.377)" d="M0 0h11.863v17.338H0z"/></clipPath><clipPath id="clip2"><path fill="#fff" transform="rotate(-22.827 262.349 -337.5)" d="M0 0h6.038v8.805H0z"/></clipPath><clipPath id="clip3"><path fill="#fff" transform="rotate(55.348 -16.233 119.231)" d="M0 0h8.219v13.098H0z"/></clipPath><clipPath id="clip4"><path fill="#fff" transform="rotate(-8.181 264.257 -892.12)" d="M0 0h10.814v15.481H0z"/></clipPath><clipPath id="clip5"><path fill="#fff" transform="rotate(-8.181 405.863 -725.418)" d="M0 0h7.699v11.32H0z"/></clipPath><clipPath id="clip6"><path fill="#fff" transform="rotate(-33.642 154.458 -233.511)" d="M0 0h7.699v11.32H0z"/></clipPath><clipPath id="clip7"><path fill="#fff" transform="rotate(-94.726 54.45 -2.564)" d="M0 0h15.815v23.846H0z"/></clipPath><clipPath id="clip8"><path fill="#fff" transform="rotate(-35.624 111.705 -30.039)" d="M0 0h10.176v13.872H0z"/></clipPath><clipPath id="clip9"><path fill="#fff" transform="rotate(-20.161 293.784 -178.126)" d="M0 0h74.13v56.688H0z"/></clipPath><linearGradient id="paint0_linear" x1="94.437" y1="318.746" x2="92.654" y2="321.152" gradientUnits="userSpaceOnUse"><stop stop-color="#BC95D0" stop-opacity="0"/><stop offset="1" stop-color="#BC95D0"/></linearGradient><linearGradient id="paint1_linear" x1="149.085" y1="316.095" x2="147.637" y2="318.912" gradientUnits="userSpaceOnUse"><stop stop-color="#BC95D0" stop-opacity="0"/><stop offset="1" stop-color="#BC95D0"/></linearGradient><linearGradient id="paint2_linear" x1="124.106" y1="89.43" x2="106.312" y2="119.087" gradientUnits="userSpaceOnUse"><stop stop-color="#805623"/><stop offset="1" stop-color="#802366"/></linearGradient><filter id="filter0_d" x="26.502" y="54.791" width="190.646" height="286.037" filterUnits="userSpaceOnUse" color-interpolation-filters="sRGB"><feFlood flood-opacity="0" result="BackgroundImageFix"/><feColorMatrix in="SourceAlpha" values="0 0 0 0 0 0 0 0 0 0 0 0 0 0 0 0 0 0 127 0"/><feOffset/><feGaussianBlur stdDeviation="5"/><feColorMatrix values="0 0 0 0 0.736854 0 0 0 0 0.0274653 0 0 0 0 0.914201 0 0 0 0.25 0"/><feBlend in2="BackgroundImageFix" result="effect1_dropShadow"/><feBlend in="SourceGraphic" in2="effect1_dropShadow" result="shape"/></filter></defs></svg>