<svg width="240" height="387" viewBox="0 0 240 387" fill="none" xmlns="http://www.w3.org/2000/svg">
<g clip-path="url(#clip0)">
<path d="M195.502 57.0632L194.063 62.1621" stroke="#DAEBF1" stroke-width="2" stroke-linecap="round" stroke-linejoin="round"/>
<path d="M195.284 49.7107L196.59 53.2026L199.528 50.9078L198.222 47.4159L195.284 49.7107Z" stroke="#DAEBF1" stroke-width="2" stroke-linecap="round" stroke-linejoin="round"/>
<path d="M193.515 55.9798L199.351 57.6258C204.234 59.0031 206.002 52.7342 201.119 51.3568L199.827 50.9925" stroke="#DAEBF1" stroke-width="2" stroke-linecap="round" stroke-linejoin="round"/>
</g>
<g clip-path="url(#clip1)">
<path d="M125.447 85.423L127.3 90.3863" stroke="#DAEBF1" stroke-width="2" stroke-linecap="round" stroke-linejoin="round"/>
<path d="M120.927 79.6203L124.044 81.6656L125.058 78.0781L121.941 76.0328L120.927 79.6203Z" stroke="#DAEBF1" stroke-width="2" stroke-linecap="round" stroke-linejoin="round"/>
<path d="M123.205 85.7226L128.885 83.6022C133.638 81.8278 131.36 75.7255 126.607 77.4999L125.35 77.9693" stroke="#DAEBF1" stroke-width="2" stroke-linecap="round" stroke-linejoin="round"/>
</g>
<g clip-path="url(#clip2)">
<path d="M155.136 79.8621L156.18 82.3418" stroke="#DAEBF1" stroke-linecap="round" stroke-linejoin="round"/>
<path d="M152.719 77.013L154.346 77.9848L154.788 76.1423L153.161 75.1705L152.719 77.013Z" stroke="#DAEBF1" stroke-linecap="round" stroke-linejoin="round"/>
<path d="M154.003 80.0619L156.847 78.8647C159.227 77.8629 157.943 74.8141 155.563 75.8159L154.934 76.0809" stroke="#DAEBF1" stroke-linecap="round" stroke-linejoin="round"/>
</g>
<g clip-path="url(#clip3)">
<path d="M85.5018 71.3192L82.2095 73.5949" stroke="#DAEBF1" stroke-width="1.5" stroke-linecap="round" stroke-linejoin="round"/>
<path d="M88.9938 67.0479L87.9942 69.5959L90.731 69.5612L91.7307 67.0133L88.9938 67.0479Z" stroke="#DAEBF1" stroke-width="1.5" stroke-linecap="round" stroke-linejoin="round"/>
<path d="M84.9459 69.8458L87.3345 73.3015C89.3332 76.1933 93.3811 73.3955 91.3823 70.5037L90.8536 69.7387" stroke="#DAEBF1" stroke-width="1.5" stroke-linecap="round" stroke-linejoin="round"/>
</g>
<g clip-path="url(#clip4)">
<path d="M133.901 37.8241L134.574 42.5063" stroke="#DAEBF1" stroke-width="2" stroke-linecap="round" stroke-linejoin="round"/>
<path d="M131.019 31.9083L133.391 34.2792L134.998 31.3363L132.627 28.9653L131.019 31.9083Z" stroke="#DAEBF1" stroke-width="2" stroke-linecap="round" stroke-linejoin="round"/>
<path d="M131.847 37.6651L137.318 36.8786C141.896 36.2204 141.068 30.4637 136.49 31.1219L135.279 31.296" stroke="#DAEBF1" stroke-width="2" stroke-linecap="round" stroke-linejoin="round"/>
</g>
<g clip-path="url(#clip5)">
<path d="M110.42 57.1799L110.912 60.6034" stroke="#DAEBF1" stroke-linecap="round" stroke-linejoin="round"/>
<path d="M108.351 52.8489L110.047 54.588L111.184 52.4416L109.488 50.7026L108.351 52.8489Z" stroke="#DAEBF1" stroke-linecap="round" stroke-linejoin="round"/>
<path d="M108.956 57.0581L112.851 56.4982C116.11 56.0296 115.505 51.8205 112.246 52.289L111.384 52.413" stroke="#DAEBF1" stroke-linecap="round" stroke-linejoin="round"/>
</g>
<g clip-path="url(#clip6)">
<path d="M160.922 51.2908L162.838 54.1703" stroke="#DAEBF1" stroke-width="1.5" stroke-linecap="round" stroke-linejoin="round"/>
<path d="M157.193 48.2698L159.471 49.111L159.575 46.6843L157.296 45.8431L157.193 48.2698Z" stroke="#DAEBF1" stroke-width="1.5" stroke-linecap="round" stroke-linejoin="round"/>
<path d="M159.548 51.8101L162.824 49.6302C165.566 47.806 163.21 44.2657 160.468 46.0899L159.743 46.5725" stroke="#DAEBF1" stroke-width="1.5" stroke-linecap="round" stroke-linejoin="round"/>
</g>
<g clip-path="url(#clip7)">
<path d="M76.2027 46.0282L83.4643 45.428" stroke="#DAEBF1" stroke-width="3" stroke-linecap="round" stroke-linejoin="round"/>
<path d="M66.8267 49.7537L70.7051 46.4837L66.3424 43.895L62.464 47.165L66.8267 49.7537Z" stroke="#DAEBF1" stroke-width="3" stroke-linecap="round" stroke-linejoin="round"/>
<path d="M75.7548 49.0156L75.0889 40.9602C74.5316 34.2193 65.6038 34.9573 66.161 41.6982L66.3084 43.4813" stroke="#DAEBF1" stroke-width="3" stroke-linecap="round" stroke-linejoin="round"/>
</g>
<g clip-path="url(#clip8)">
<path d="M45.7342 65.0016L48.203 68.447" stroke="#DAEBF1" stroke-width="2" stroke-linecap="round" stroke-linejoin="round"/>
<path d="M40.9261 61.54L43.8645 62.3935L44.001 59.3367L41.0626 58.4833L40.9261 61.54Z" stroke="#DAEBF1" stroke-width="2" stroke-linecap="round" stroke-linejoin="round"/>
<path d="M43.9616 65.7761L48.1893 62.7467C51.7271 60.2117 48.6917 55.9757 45.154 58.5107L44.2181 59.1813" stroke="#DAEBF1" stroke-width="2" stroke-linecap="round" stroke-linejoin="round"/>
</g>
<ellipse cx="120" cy="54.2966" rx="120" ry="54.2966" fill="#017AA0" fill-opacity="0.05"/>
<ellipse cx="121.825" cy="59.7719" rx="100.837" ry="40.6084" fill="#017AA0" fill-opacity="0.1"/>
<ellipse cx="134.601" cy="333.536" rx="100.837" ry="40.6084" fill="#E69700" fill-opacity="0.1"/>
<ellipse cx="121.825" cy="346.312" rx="100.837" ry="40.6084" fill="#E69700" fill-opacity="0.1"/>
<path d="M58.878 346.696C59.1233 346.643 59.3785 346.579 59.6438 346.504C59.9183 346.423 60.1864 346.333 60.448 346.234C60.711 346.126 60.9629 346.013 61.2038 345.893C61.4538 345.767 61.6817 345.629 61.8874 345.479L63.1159 345.699L61.6511 353.885L59.8911 353.57L60.9458 347.676C60.6813 347.791 60.3915 347.89 60.0761 347.971C59.7622 348.045 59.459 348.105 59.1665 348.15L58.878 346.696ZM70.6478 351.253C70.4012 352.631 69.9478 353.643 69.2878 354.289C68.637 354.928 67.8509 355.165 66.9295 355C66.0082 354.835 65.3492 354.34 64.9526 353.513C64.5653 352.68 64.495 351.574 64.7416 350.196C64.8642 349.511 65.0396 348.916 65.2679 348.413C65.504 347.91 65.7845 347.501 66.1092 347.186C66.4338 346.87 66.7942 346.65 67.1903 346.526C67.5863 346.402 68.0088 346.38 68.4577 346.46C69.3791 346.625 70.0334 347.124 70.4207 347.957C70.8172 348.784 70.8929 349.882 70.6478 351.253ZM68.8523 350.931C68.9255 350.522 68.9721 350.148 68.9919 349.81C69.0131 349.465 69.0022 349.162 68.9593 348.902C68.9164 348.643 68.8321 348.433 68.7064 348.272C68.5807 348.111 68.4076 348.011 68.1871 347.972C67.9666 347.932 67.7696 347.966 67.596 348.073C67.4303 348.182 67.2784 348.35 67.1402 348.577C67.0099 348.806 66.8948 349.086 66.7948 349.417C66.6962 349.741 66.6103 350.108 66.537 350.517C66.4638 350.927 66.4165 351.304 66.3953 351.65C66.3741 351.995 66.385 352.298 66.4279 352.558C66.4787 352.819 66.563 353.029 66.6808 353.188C66.8065 353.349 66.9796 353.449 67.2001 353.488C67.4206 353.528 67.6176 353.494 67.7912 353.387C67.9648 353.28 68.1167 353.112 68.247 352.883C68.3773 352.655 68.4924 352.375 68.5924 352.043C68.6924 351.711 68.779 351.341 68.8523 350.931ZM77.3614 352.454C77.1148 353.832 76.6615 354.844 76.0014 355.49C75.3506 356.129 74.5646 356.366 73.6432 356.202C72.7218 356.037 72.0629 355.541 71.6663 354.714C71.279 353.881 71.2087 352.775 71.4552 351.397C71.5778 350.712 71.7533 350.118 71.9816 349.614C72.2177 349.112 72.4981 348.703 72.8228 348.387C73.1475 348.071 73.5079 347.851 73.904 347.727C74.3 347.603 74.7225 347.581 75.1714 347.661C76.0927 347.826 76.7471 348.325 77.1344 349.158C77.5309 349.985 77.6066 351.084 77.3614 352.454ZM75.566 352.133C75.6392 351.723 75.6858 351.35 75.7056 351.012C75.7268 350.666 75.7159 350.363 75.673 350.104C75.63 349.844 75.5457 349.634 75.4201 349.473C75.2944 349.313 75.1213 349.213 74.9008 349.173C74.6803 349.134 74.4833 349.168 74.3097 349.275C74.144 349.383 73.9921 349.551 73.8539 349.778C73.7236 350.007 73.6084 350.287 73.5085 350.619C73.4099 350.942 73.324 351.309 73.2507 351.718C73.1775 352.128 73.1302 352.505 73.109 352.851C73.0878 353.197 73.0986 353.499 73.1416 353.759C73.1924 354.02 73.2767 354.23 73.3945 354.389C73.5202 354.55 73.6932 354.65 73.9137 354.69C74.1342 354.729 74.3313 354.695 74.5049 354.588C74.6784 354.481 74.8304 354.313 74.9607 354.085C75.091 353.856 75.2061 353.576 75.3061 353.244C75.4061 352.913 75.4927 352.542 75.566 352.133ZM79.019 350.3C79.2643 350.247 79.5196 350.183 79.7848 350.108C80.0594 350.027 80.3274 349.937 80.5891 349.838C80.8521 349.73 81.104 349.617 81.3448 349.497C81.5949 349.371 81.8228 349.233 82.0284 349.083L83.2569 349.303L81.7921 357.489L80.0321 357.174L81.0868 351.28C80.8224 351.395 80.5325 351.493 80.2172 351.575C79.9033 351.649 79.6 351.709 79.3075 351.754L79.019 350.3ZM90.7888 354.857C90.5422 356.235 90.0889 357.247 89.4288 357.892C88.778 358.532 87.9919 358.769 87.0706 358.604C86.1492 358.439 85.4902 357.944 85.0937 357.117C84.7064 356.284 84.636 355.178 84.8826 353.8C85.0052 353.115 85.1806 352.52 85.4089 352.017C85.6451 351.514 85.9255 351.105 86.2502 350.79C86.5749 350.474 86.9353 350.254 87.3313 350.13C87.7274 350.006 88.1499 349.984 88.5987 350.064C89.5201 350.229 90.1744 350.728 90.5617 351.561C90.9583 352.388 91.034 353.486 90.7888 354.857ZM88.9933 354.535C89.0666 354.126 89.1131 353.752 89.1329 353.414C89.1542 353.069 89.1433 352.766 89.1004 352.506C89.0574 352.247 88.9731 352.037 88.8474 351.876C88.7218 351.715 88.5487 351.615 88.3282 351.576C88.1077 351.536 87.9106 351.57 87.7371 351.677C87.5714 351.786 87.4194 351.954 87.2812 352.181C87.1509 352.41 87.0358 352.69 86.9358 353.021C86.8373 353.345 86.7514 353.712 86.6781 354.121C86.6048 354.531 86.5576 354.908 86.5364 355.254C86.5151 355.599 86.526 355.902 86.5689 356.162C86.6198 356.423 86.7041 356.633 86.8219 356.792C86.9475 356.953 87.1206 357.053 87.3411 357.092C87.5616 357.132 87.7586 357.098 87.9322 356.991C88.1058 356.884 88.2577 356.716 88.3881 356.487C88.5184 356.259 88.6335 355.978 88.7335 355.647C88.8334 355.315 88.92 354.945 88.9933 354.535ZM92.4464 352.703C92.6917 352.649 92.9469 352.585 93.2122 352.511C93.4867 352.43 93.7548 352.34 94.0164 352.24C94.2794 352.133 94.5314 352.019 94.7722 351.9C95.0222 351.774 95.2501 351.636 95.4558 351.486L96.6843 351.706L95.2195 359.892L93.4595 359.577L94.5142 353.682C94.2497 353.798 93.9599 353.896 93.6445 353.978C93.3306 354.052 93.0274 354.111 92.7349 354.156L92.4464 352.703Z" fill="#E59700" fill-opacity="0.3"/>
<path d="M54.6479 328.581C54.7827 328.45 54.9198 328.308 55.0592 328.155C55.2018 327.995 55.3367 327.831 55.4638 327.664C55.5886 327.491 55.704 327.319 55.8099 327.148C55.9191 326.968 56.0095 326.79 56.0808 326.613L56.95 326.266L59.2643 332.058L58.0191 332.555L56.3526 328.385C56.23 328.563 56.0845 328.741 55.9162 328.918C55.7457 329.089 55.5763 329.247 55.408 329.392L54.6479 328.581ZM63.947 326.814C64.3367 327.789 64.4495 328.613 64.2854 329.285C64.1248 329.951 63.7185 330.413 63.0666 330.674C62.4147 330.934 61.7986 330.88 61.2182 330.511C60.6412 330.134 60.1579 329.458 59.7683 328.483C59.5746 327.999 59.4505 327.551 59.3961 327.14C59.3472 326.726 59.3635 326.355 59.4449 326.025C59.5264 325.695 59.6685 325.412 59.8714 325.176C60.0743 324.94 60.3345 324.758 60.6521 324.631C61.304 324.371 61.9184 324.429 62.4954 324.806C63.0758 325.175 63.5596 325.844 63.947 326.814ZM62.6767 327.321C62.5609 327.031 62.4424 326.775 62.321 326.552C62.1974 326.324 62.0704 326.135 61.9401 325.987C61.8098 325.839 61.6728 325.739 61.5291 325.686C61.3854 325.634 61.2355 325.639 61.0795 325.701C60.9235 325.763 60.8115 325.863 60.7435 326C60.6811 326.135 60.6509 326.302 60.6531 326.502C60.6608 326.699 60.6986 326.923 60.7665 327.173C60.8322 327.419 60.9229 327.686 61.0386 327.976C61.1544 328.265 61.2741 328.525 61.3977 328.753C61.5213 328.981 61.6482 329.17 61.7785 329.318C61.9144 329.464 62.0514 329.564 62.1896 329.619C62.3333 329.671 62.4831 329.666 62.6391 329.604C62.7951 329.542 62.9071 329.442 62.9752 329.305C63.0432 329.168 63.0733 329.001 63.0656 328.804C63.0579 328.606 63.02 328.383 62.9522 328.132C62.8843 327.881 62.7925 327.611 62.6767 327.321ZM64.1479 324.785C64.2828 324.654 64.4199 324.512 64.5592 324.359C64.7019 324.199 64.8368 324.035 64.9638 323.868C65.0887 323.695 65.2041 323.523 65.31 323.352C65.4192 323.172 65.5095 322.994 65.5809 322.817L66.4501 322.47L68.7644 328.261L67.5192 328.759L65.8527 324.589C65.7301 324.767 65.5846 324.944 65.4163 325.122C65.2458 325.293 65.0764 325.451 64.9081 325.596L64.1479 324.785ZM68.898 322.887C69.0328 322.756 69.1699 322.614 69.3093 322.461C69.4519 322.301 69.5868 322.137 69.7139 321.97C69.8387 321.797 69.9541 321.625 70.06 321.454C70.1693 321.274 70.2596 321.096 70.3309 320.919L71.2001 320.572L73.5145 326.363L72.2692 326.861L70.6027 322.69C70.4801 322.869 70.3347 323.046 70.1664 323.223C69.9958 323.395 69.8264 323.553 69.6581 323.698L68.898 322.887Z" fill="#E59700" fill-opacity="0.3"/>
<path d="M121.753 358.483C121.93 358.372 122.112 358.25 122.299 358.117C122.492 357.976 122.676 357.829 122.853 357.678C123.029 357.519 123.195 357.359 123.35 357.198C123.511 357.028 123.651 356.856 123.769 356.68L124.795 356.506L125.954 363.339L124.485 363.588L123.65 358.668C123.476 358.833 123.276 358.992 123.052 359.145C122.826 359.292 122.605 359.424 122.389 359.542L121.753 358.483ZM127.356 357.532C127.533 357.421 127.716 357.299 127.903 357.166C128.095 357.025 128.28 356.878 128.457 356.727C128.633 356.568 128.798 356.408 128.954 356.247C129.114 356.077 129.254 355.905 129.373 355.729L130.398 355.555L131.558 362.387L130.089 362.637L129.254 357.717C129.079 357.882 128.879 358.041 128.655 358.194C128.43 358.341 128.209 358.473 127.992 358.591L127.356 357.532ZM137.871 357.786C138.066 358.937 137.996 359.858 137.66 360.55C137.33 361.235 136.781 361.643 136.012 361.774C135.243 361.904 134.586 361.701 134.042 361.165C133.503 360.62 133.136 359.773 132.941 358.623C132.844 358.051 132.814 357.536 132.851 357.076C132.895 356.616 132.999 356.216 133.165 355.877C133.33 355.538 133.551 355.264 133.826 355.055C134.102 354.845 134.427 354.709 134.802 354.646C135.571 354.515 136.225 354.722 136.763 355.266C137.307 355.803 137.676 356.643 137.871 357.786ZM136.372 358.041C136.314 357.699 136.245 357.393 136.165 357.122C136.085 356.845 135.991 356.611 135.884 356.419C135.777 356.228 135.652 356.087 135.508 355.996C135.364 355.906 135.2 355.876 135.016 355.907C134.832 355.939 134.687 356.021 134.581 356.154C134.482 356.286 134.41 356.46 134.366 356.677C134.328 356.893 134.317 357.145 134.332 357.434C134.346 357.715 134.382 358.027 134.44 358.369C134.498 358.71 134.567 359.02 134.648 359.297C134.729 359.574 134.823 359.808 134.929 360C135.043 360.19 135.168 360.331 135.306 360.423C135.449 360.513 135.613 360.543 135.797 360.512C135.981 360.48 136.126 360.398 136.232 360.265C136.338 360.132 136.41 359.958 136.448 359.742C136.485 359.526 136.497 359.274 136.482 358.986C136.467 358.697 136.43 358.382 136.372 358.041ZM138.563 355.63C138.74 355.519 138.922 355.397 139.109 355.263C139.302 355.123 139.487 354.976 139.664 354.824C139.84 354.666 140.005 354.506 140.161 354.345C140.321 354.175 140.461 354.003 140.58 353.827L141.605 353.653L142.765 360.485L141.296 360.735L140.461 355.815C140.286 355.98 140.086 356.139 139.862 356.292C139.637 356.438 139.416 356.571 139.199 356.689L138.563 355.63Z" fill="#E59700" fill-opacity="0.3"/>
<path d="M176.882 355.798C176.995 355.621 177.107 355.433 177.219 355.233C177.333 355.023 177.437 354.812 177.532 354.599C177.623 354.38 177.705 354.165 177.776 353.952C177.848 353.731 177.901 353.515 177.933 353.305L178.785 352.709L182.757 358.388L181.536 359.242L178.676 355.153C178.589 355.377 178.477 355.606 178.339 355.84C178.198 356.069 178.055 356.283 177.91 356.482L176.882 355.798ZM186.494 351.528C187.162 352.484 187.493 353.346 187.486 354.116C187.481 354.876 187.159 355.48 186.52 355.927C185.881 356.374 185.2 356.472 184.479 356.22C183.759 355.958 183.065 355.35 182.396 354.394C182.064 353.918 181.816 353.465 181.653 353.034C181.495 352.599 181.419 352.193 181.423 351.816C181.428 351.439 181.51 351.096 181.669 350.789C181.829 350.483 182.064 350.22 182.376 350.002C183.015 349.555 183.694 349.463 184.414 349.724C185.136 349.976 185.829 350.577 186.494 351.528ZM185.248 352.399C185.049 352.115 184.856 351.868 184.668 351.657C184.477 351.442 184.292 351.27 184.113 351.143C183.935 351.015 183.761 350.942 183.592 350.921C183.423 350.901 183.262 350.944 183.11 351.051C182.957 351.158 182.861 351.295 182.822 351.46C182.788 351.622 182.798 351.81 182.851 352.025C182.909 352.237 183.007 352.469 183.144 352.723C183.277 352.972 183.443 353.238 183.642 353.522C183.841 353.806 184.036 354.056 184.227 354.272C184.419 354.488 184.604 354.659 184.783 354.787C184.967 354.91 185.14 354.984 185.304 355.008C185.472 355.028 185.633 354.985 185.786 354.878C185.939 354.771 186.035 354.635 186.074 354.469C186.113 354.304 186.103 354.116 186.045 353.904C185.986 353.693 185.889 353.46 185.752 353.206C185.615 352.952 185.447 352.683 185.248 352.399ZM186.197 349.282C186.309 349.106 186.422 348.918 186.534 348.717C186.647 348.508 186.752 348.296 186.847 348.083C186.938 347.865 187.019 347.649 187.09 347.437C187.163 347.215 187.216 347 187.248 346.79L188.1 346.194L192.072 351.873L190.851 352.727L187.991 348.638C187.904 348.861 187.791 349.091 187.654 349.325C187.513 349.554 187.37 349.768 187.225 349.967L186.197 349.282ZM195.808 345.012C196.477 345.968 196.808 346.831 196.801 347.601C196.796 348.361 196.474 348.965 195.835 349.412C195.195 349.859 194.515 349.956 193.794 349.704C193.074 349.443 192.38 348.834 191.711 347.878C191.379 347.403 191.131 346.95 190.968 346.519C190.81 346.084 190.733 345.678 190.738 345.301C190.742 344.923 190.825 344.581 190.984 344.274C191.144 343.967 191.379 343.705 191.691 343.487C192.33 343.04 193.009 342.947 193.729 343.209C194.45 343.461 195.143 344.062 195.808 345.012ZM194.563 345.884C194.364 345.6 194.171 345.352 193.983 345.142C193.791 344.926 193.606 344.755 193.428 344.627C193.249 344.5 193.076 344.426 192.907 344.406C192.738 344.386 192.577 344.429 192.424 344.536C192.271 344.643 192.175 344.779 192.137 344.945C192.103 345.106 192.113 345.295 192.166 345.51C192.224 345.721 192.322 345.954 192.459 346.208C192.592 346.457 192.758 346.723 192.957 347.007C193.155 347.291 193.351 347.541 193.542 347.757C193.734 347.973 193.919 348.144 194.097 348.271C194.281 348.395 194.455 348.469 194.618 348.493C194.787 348.513 194.948 348.47 195.101 348.363C195.254 348.256 195.35 348.12 195.389 347.954C195.427 347.789 195.418 347.6 195.359 347.389C195.301 347.177 195.203 346.945 195.066 346.691C194.929 346.437 194.761 346.168 194.563 345.884Z" fill="#E59700" fill-opacity="0.3"/>
<path d="M116.279 336.558C116.446 336.574 116.621 336.586 116.805 336.593C116.995 336.597 117.184 336.595 117.37 336.585C117.559 336.571 117.742 336.55 117.919 336.523C118.104 336.495 118.276 336.454 118.438 336.4L119.172 336.79L116.572 341.687L115.519 341.128L117.392 337.602C117.2 337.621 116.996 337.625 116.78 337.612C116.565 337.595 116.361 337.571 116.166 337.54L116.279 336.558ZM120.295 338.691C120.462 338.707 120.637 338.718 120.82 338.725C121.011 338.73 121.2 338.728 121.386 338.718C121.575 338.703 121.758 338.683 121.935 338.656C122.119 338.627 122.292 338.586 122.453 338.533L123.188 338.923L120.588 343.819L119.535 343.26L121.408 339.735C121.216 339.754 121.012 339.757 120.795 339.745C120.581 339.728 120.376 339.703 120.182 339.672L120.295 338.691Z" fill="#E59700" fill-opacity="0.3"/>
<path d="M123.738 320.279C123.548 321.43 123.183 322.279 122.64 322.825C122.105 323.365 121.453 323.572 120.684 323.446C119.914 323.319 119.359 322.914 119.019 322.23C118.686 321.54 118.614 320.62 118.804 319.468C118.898 318.896 119.037 318.399 119.221 317.976C119.412 317.555 119.641 317.211 119.908 316.944C120.174 316.677 120.472 316.49 120.801 316.381C121.129 316.273 121.481 316.25 121.856 316.312C122.626 316.438 123.177 316.846 123.509 317.536C123.85 318.22 123.926 319.135 123.738 320.279ZM122.238 320.033C122.294 319.691 122.328 319.379 122.341 319.097C122.354 318.809 122.342 318.557 122.303 318.341C122.264 318.125 122.191 317.951 122.085 317.819C121.978 317.686 121.833 317.605 121.648 317.575C121.464 317.544 121.3 317.575 121.157 317.666C121.02 317.759 120.896 317.9 120.783 318.091C120.677 318.283 120.585 318.518 120.505 318.795C120.427 319.066 120.36 319.373 120.304 319.715C120.247 320.057 120.212 320.372 120.199 320.66C120.185 320.949 120.198 321.201 120.237 321.417C120.282 321.634 120.355 321.808 120.455 321.939C120.562 322.071 120.707 322.153 120.891 322.183C121.075 322.213 121.239 322.183 121.382 322.091C121.526 322 121.65 321.858 121.756 321.666C121.862 321.474 121.955 321.24 122.034 320.962C122.114 320.685 122.181 320.375 122.238 320.033ZM129.346 321.201C129.157 322.352 128.791 323.201 128.249 323.747C127.714 324.287 127.062 324.494 126.292 324.368C125.522 324.241 124.967 323.836 124.627 323.151C124.295 322.462 124.223 321.541 124.412 320.39C124.506 319.818 124.645 319.32 124.83 318.898C125.02 318.477 125.249 318.133 125.516 317.866C125.783 317.599 126.081 317.411 126.409 317.303C126.738 317.195 127.089 317.172 127.464 317.233C128.234 317.36 128.785 317.768 129.118 318.458C129.458 319.142 129.534 320.056 129.346 321.201ZM127.846 320.954C127.902 320.612 127.937 320.3 127.949 320.019C127.963 319.73 127.95 319.478 127.911 319.263C127.872 319.047 127.8 318.873 127.693 318.74C127.586 318.608 127.441 318.527 127.257 318.496C127.073 318.466 126.909 318.497 126.765 318.588C126.629 318.68 126.504 318.822 126.392 319.013C126.286 319.205 126.193 319.44 126.114 319.717C126.035 319.988 125.968 320.294 125.912 320.637C125.856 320.979 125.821 321.294 125.807 321.582C125.794 321.87 125.806 322.122 125.845 322.338C125.891 322.555 125.963 322.729 126.063 322.861C126.17 322.993 126.315 323.074 126.5 323.104C126.684 323.135 126.848 323.104 126.991 323.013C127.134 322.922 127.259 322.78 127.365 322.588C127.471 322.396 127.563 322.161 127.643 321.884C127.722 321.606 127.79 321.296 127.846 320.954ZM134.954 322.122C134.765 323.274 134.399 324.122 133.857 324.668C133.322 325.209 132.67 325.416 131.9 325.289C131.131 325.163 130.576 324.757 130.235 324.073C129.903 323.383 129.831 322.463 130.02 321.312C130.114 320.739 130.254 320.242 130.438 319.82C130.629 319.398 130.858 319.054 131.124 318.787C131.391 318.52 131.689 318.333 132.017 318.225C132.346 318.116 132.698 318.093 133.073 318.155C133.842 318.281 134.394 318.689 134.726 319.379C135.066 320.063 135.142 320.978 134.954 322.122ZM133.454 321.876C133.511 321.534 133.545 321.222 133.557 320.94C133.571 320.652 133.558 320.4 133.52 320.184C133.481 319.968 133.408 319.794 133.301 319.662C133.195 319.529 133.049 319.448 132.865 319.418C132.681 319.388 132.517 319.418 132.374 319.509C132.237 319.602 132.112 319.743 132 319.934C131.894 320.126 131.801 320.361 131.722 320.639C131.644 320.91 131.577 321.216 131.52 321.558C131.464 321.9 131.429 322.215 131.416 322.504C131.402 322.792 131.415 323.044 131.453 323.26C131.499 323.477 131.572 323.651 131.672 323.782C131.778 323.915 131.924 323.996 132.108 324.026C132.292 324.056 132.456 324.026 132.599 323.935C132.743 323.843 132.867 323.702 132.973 323.51C133.079 323.318 133.172 323.083 133.251 322.805C133.33 322.528 133.398 322.218 133.454 321.876ZM136.31 320.308C136.514 320.261 136.726 320.204 136.946 320.139C137.174 320.068 137.396 319.99 137.613 319.904C137.831 319.812 138.039 319.714 138.238 319.612C138.445 319.504 138.634 319.386 138.803 319.259L139.829 319.427L138.706 326.266L137.235 326.024L138.045 321.1C137.826 321.199 137.585 321.285 137.323 321.356C137.063 321.422 136.811 321.475 136.568 321.516L136.31 320.308Z" fill="#E59700" fill-opacity="0.3"/>
<path d="M178.544 324.878C178.332 326.025 177.949 326.866 177.396 327.401C176.851 327.931 176.194 328.125 175.427 327.983C174.66 327.841 174.114 327.425 173.787 326.734C173.468 326.038 173.415 325.116 173.627 323.969C173.732 323.399 173.881 322.904 174.074 322.485C174.273 322.068 174.509 321.729 174.781 321.467C175.053 321.205 175.354 321.024 175.685 320.922C176.016 320.821 176.368 320.804 176.741 320.873C177.508 321.015 178.051 321.434 178.37 322.13C178.697 322.821 178.755 323.737 178.544 324.878ZM177.049 324.601C177.112 324.261 177.153 323.949 177.171 323.668C177.19 323.38 177.182 323.128 177.148 322.911C177.113 322.695 177.044 322.519 176.94 322.385C176.836 322.25 176.692 322.166 176.509 322.132C176.325 322.098 176.161 322.125 176.016 322.214C175.877 322.304 175.75 322.443 175.633 322.631C175.524 322.821 175.427 323.054 175.342 323.33C175.258 323.599 175.185 323.904 175.122 324.245C175.059 324.586 175.017 324.901 174.998 325.188C174.979 325.476 174.986 325.729 175.021 325.945C175.062 326.163 175.131 326.339 175.229 326.472C175.333 326.606 175.476 326.69 175.66 326.724C175.844 326.758 176.008 326.731 176.153 326.643C176.298 326.554 176.426 326.415 176.535 326.225C176.645 326.035 176.742 325.802 176.827 325.527C176.912 325.251 176.986 324.942 177.049 324.601ZM179.935 323.091C180.14 323.047 180.353 322.995 180.574 322.934C180.803 322.868 181.027 322.794 181.246 322.713C181.465 322.625 181.676 322.531 181.877 322.433C182.086 322.329 182.277 322.215 182.449 322.091L183.471 322.28L182.212 329.095L180.747 328.824L181.654 323.917C181.433 324.012 181.191 324.092 180.928 324.159C180.666 324.219 180.413 324.267 180.169 324.303L179.935 323.091ZM185.524 324.124C185.729 324.08 185.942 324.028 186.163 323.967C186.392 323.901 186.616 323.827 186.835 323.746C187.054 323.658 187.265 323.564 187.466 323.466C187.675 323.362 187.866 323.248 188.038 323.124L189.06 323.313L187.801 330.128L186.336 329.857L187.243 324.95C187.022 325.045 186.78 325.125 186.517 325.192C186.255 325.252 186.002 325.3 185.758 325.336L185.524 324.124ZM195.31 327.977C195.098 329.124 194.716 329.965 194.163 330.5C193.617 331.03 192.961 331.224 192.194 331.082C191.427 330.94 190.88 330.524 190.554 329.833C190.235 329.137 190.182 328.215 190.394 327.068C190.499 326.498 190.648 326.003 190.841 325.584C191.04 325.167 191.276 324.828 191.548 324.566C191.82 324.304 192.121 324.123 192.452 324.021C192.782 323.92 193.135 323.903 193.508 323.972C194.275 324.114 194.818 324.533 195.137 325.229C195.463 325.92 195.521 326.836 195.31 327.977ZM193.816 327.7C193.879 327.36 193.919 327.048 193.937 326.767C193.957 326.479 193.949 326.227 193.915 326.01C193.88 325.794 193.811 325.618 193.707 325.484C193.603 325.349 193.459 325.265 193.276 325.231C193.092 325.197 192.928 325.224 192.783 325.313C192.644 325.402 192.517 325.542 192.4 325.73C192.291 325.92 192.193 326.153 192.108 326.429C192.025 326.698 191.951 327.003 191.888 327.344C191.825 327.685 191.784 328 191.765 328.287C191.746 328.575 191.753 328.828 191.788 329.044C191.829 329.262 191.898 329.437 191.996 329.571C192.1 329.705 192.243 329.789 192.427 329.823C192.61 329.857 192.775 329.83 192.92 329.742C193.065 329.653 193.192 329.514 193.302 329.324C193.412 329.134 193.509 328.901 193.594 328.626C193.679 328.35 193.753 328.041 193.816 327.7ZM196.702 326.19C196.907 326.146 197.12 326.094 197.341 326.033C197.57 325.967 197.794 325.893 198.013 325.812C198.232 325.724 198.443 325.63 198.644 325.532C198.853 325.428 199.044 325.314 199.216 325.19L200.238 325.379L198.979 332.194L197.514 331.923L198.42 327.016C198.2 327.111 197.958 327.191 197.694 327.258C197.432 327.318 197.179 327.366 196.936 327.402L196.702 326.19Z" fill="#E59700" fill-opacity="0.3"/>
<line x1="193.96" y1="140.12" x2="193.96" y2="290.603" stroke="#BC07E9" stroke-opacity="0.1" stroke-linecap="round" stroke-linejoin="round"/>
<line x1="115.481" y1="123.694" x2="115.481" y2="227.637" stroke="#BC07E9" stroke-opacity="0.1" stroke-linecap="round" stroke-linejoin="round"/>
<line x1="103.618" y1="169.321" x2="103.618" y2="273.264" stroke="#BC07E9" stroke-opacity="0.15" stroke-linecap="round" stroke-linejoin="round"/>
<line x1="81.3042" y1="187.16" x2="81.3042" y2="290.103" stroke="#BC07E9" stroke-opacity="0.1" stroke-width="2" stroke-linecap="round" stroke-linejoin="round"/>
<line x1="174.384" y1="114.156" x2="174.384" y2="263.639" stroke="#BC07E9" stroke-opacity="0.1" stroke-width="2" stroke-linecap="round" stroke-linejoin="round"/>
<line x1="147.42" y1="113.656" x2="147.42" y2="264.139" stroke="#BC07E9" stroke-opacity="0.1" stroke-linecap="round" stroke-linejoin="round"/>
<line x1="53.4278" y1="118.219" x2="53.4278" y2="268.702" stroke="#BC07E9" stroke-opacity="0.1" stroke-linecap="round" stroke-linejoin="round"/>
<line x1="61.2281" y1="107.768" x2="61.2281" y2="185.16" stroke="#BC07E9" stroke-opacity="0.06" stroke-width="2" stroke-linecap="round" stroke-linejoin="round"/>
<g filter="url(#filter0_d)">
<path fill-rule="evenodd" clip-rule="evenodd" d="M145.927 105.904L151.358 84.0694C150.747 79.0009 150.731 74.5636 151.311 70.7576C151.67 69.7675 152.633 68.3542 153.604 71.4526C154.574 74.551 155.732 77.7661 156.903 77.7689C158.074 77.7716 158.553 75.4601 160.244 75.7425C161.371 75.9308 160.154 79.5003 156.593 86.4511L156.451 105.929L145.927 105.904Z" fill="#B28B67"/>
<path fill-rule="evenodd" clip-rule="evenodd" d="M114.154 157.702L111.564 153.447C119.182 130.603 144.02 112.328 150.367 85.5509L158.445 88.0616C168.43 125.915 138.309 148.648 114.154 157.702Z" fill="#D7D9DC"/>
<path fill-rule="evenodd" clip-rule="evenodd" d="M114.154 157.702L111.564 153.447C119.182 130.603 144.02 112.328 150.367 85.5509L158.445 88.0616C168.43 125.915 138.309 148.648 114.154 157.702Z" fill="black" fill-opacity="0.1"/>
<path fill-rule="evenodd" clip-rule="evenodd" d="M109.311 177.034L130.147 251.915L139.948 308.137H149.785L139.965 177.034H109.311Z" fill="#997659"/>
<path fill-rule="evenodd" clip-rule="evenodd" d="M99.9469 177.034C101.401 215.935 100.827 237.152 100.502 240.686C100.177 244.22 98.3293 267.89 85.7412 309.323H95.9722C112.643 269.576 118.463 245.905 120.375 240.686C122.287 235.467 127.934 214.249 136.178 177.034H99.9469Z" fill="#B28B67"/>
<path fill-rule="evenodd" clip-rule="evenodd" d="M108.864 177.034C114.284 202.801 123.658 243.931 136.986 300.425H151.373C152.436 242.44 147.915 204.275 140.087 177.034H108.864Z" fill="#6E9786"/>
<path fill-rule="evenodd" clip-rule="evenodd" d="M108.864 177.034C114.284 202.801 123.658 243.931 136.986 300.425H151.373C152.436 242.44 147.915 204.275 140.087 177.034H108.864Z" fill="black" fill-opacity="0.1"/>
<path fill-rule="evenodd" clip-rule="evenodd" d="M99.8742 177.034C101.298 215.935 97.608 254.259 86.1774 301.031H101.528C118.229 261.876 130.2 223.741 138.381 177.034H99.8742Z" fill="#6E9786"/>
<path fill-rule="evenodd" clip-rule="evenodd" d="M80.011 309.565L86.1167 302.276C88.1716 305.054 91.7328 307.201 96.8004 308.718C98.7443 315.077 102.547 321.254 108.208 327.249L108.208 327.249C108.64 327.707 108.61 328.447 108.14 328.903C108.11 328.933 108.078 328.96 108.045 328.987L105.708 330.828L89.3819 318.726L79.8583 311.667L80.011 309.565Z" fill="#F5F3F6"/>
<path fill-rule="evenodd" clip-rule="evenodd" d="M80.011 309.565L80.6492 310.75L92.9595 320.089L105.694 329.427L106.968 329.852L105.708 330.828L89.3819 318.726L79.8583 311.667L80.011 309.565Z" fill="url(#paint0_linear)"/>
<path fill-rule="evenodd" clip-rule="evenodd" d="M133.252 309.651L138.07 301.454C140.555 303.854 144.422 305.384 149.671 306.043C152.639 311.994 157.409 317.458 163.983 322.436L163.983 322.436C164.484 322.815 164.576 323.551 164.189 324.078C164.163 324.112 164.137 324.145 164.108 324.176L162.108 326.378L144.007 317.139L133.448 311.749L133.252 309.651Z" fill="#F5F3F6"/>
<path fill-rule="evenodd" clip-rule="evenodd" d="M133.282 309.411L134.093 310.508L147.792 317.759L161.918 324.93L163.258 325.123L162.132 326.368L144.003 317.043L133.429 311.603L133.282 309.411Z" fill="url(#paint1_linear)"/>
<g clip-path="url(#clip9)">
<path fill-rule="evenodd" clip-rule="evenodd" d="M123.553 112.153C120.179 110.251 117.338 107.445 116.209 103.547C112.957 92.3148 129.085 89.1273 134.079 93.5653C139.073 98.0034 143.868 112.152 140.398 114.546C139.014 115.501 135.405 115.732 131.358 114.951L130.907 132.183L118.892 131.734L123.553 112.153Z" fill="#B28B67"/>
<path fill-rule="evenodd" clip-rule="evenodd" d="M136.149 95.6212C135.764 94.9495 135.175 94.2631 134.686 93.6734C134.056 92.9132 133.299 92.2973 132.511 91.744C131.029 90.7022 129.402 89.867 127.733 89.2909C124.685 88.2386 121.293 88.2313 118.488 89.6679C117.072 90.3932 115.84 91.4872 114.961 92.8784C114.166 94.1353 113.561 95.7782 112.161 96.3944C110.638 97.0647 108.703 96.2131 107.14 95.8222C105.378 95.3816 103.621 95.234 101.874 95.5677C98.9457 96.1268 96.6945 98.0118 95.6234 100.976C94.4835 104.13 94.3095 108.205 96.8119 110.911C97.2771 111.414 97.7788 111.798 98.3875 112.045C98.9457 112.272 99.7335 112.442 100.126 112.987C100.544 113.567 100.311 114.598 100.317 115.258C100.324 116.203 100.401 117.17 100.821 118.046C101.512 119.484 102.972 120.564 104.321 121.18C105.694 121.808 107.143 121.925 108.563 121.702C109.512 121.554 110.45 121.319 111.324 120.924C111.758 120.727 112.106 120.459 112.502 120.202C112.887 119.952 113.163 119.977 113.604 120.076C115.653 120.539 117.585 120.3 119.438 119.438C121.003 118.712 122.719 117.638 123.629 116.049C124.64 114.284 123.99 112.602 122.982 110.919C123.412 110.966 124.462 110.707 123.595 110.209C123.251 110.011 122.758 110.061 122.39 110.005C121.962 109.941 121.507 109.822 121.113 109.605C119.523 108.729 119.691 105.697 120.938 104.75C122.791 103.342 124.342 106.124 126.113 106.34C127.131 106.465 127.807 105.535 128.224 104.687C128.783 103.55 128.97 102.247 129.07 100.954C129.152 99.8896 129.2 98.8228 129.292 97.7598C129.335 97.2634 129.582 95.8139 129.062 95.4616C130.447 94.6143 132.341 94.6242 133.928 94.9663C134.584 95.1078 135.127 95.3302 135.629 95.8207C135.737 95.9259 136.008 96.2561 136.18 96.2106C136.5 96.1258 136.246 95.79 136.149 95.6212Z" fill="url(#paint2_linear)"/>
</g>
<path fill-rule="evenodd" clip-rule="evenodd" d="M92.0687 175.391L103.764 175.438C96.5427 199.221 92.6443 211.839 92.0687 213.294C90.7737 216.569 93.5141 221.555 94.686 224.235C90.8692 225.977 91.2759 219.524 86.461 221.81C82.0663 223.895 78.7232 227.675 73.6457 224.479C73.0215 224.086 72.3374 222.606 73.9902 221.45C78.108 218.569 84.0419 213.528 84.8437 211.869C85.937 209.606 88.3454 197.447 92.0687 175.391Z" fill="#B28B67"/>
<path fill-rule="evenodd" clip-rule="evenodd" d="M104.209 187.37C123.613 187.37 132.731 187.37 141.874 187.37C143.83 187.37 144.746 184.439 144.463 182.984C141.199 166.198 132.326 148.152 132.326 124.257L119.975 122.281C109.759 139.044 106.226 159.681 104.209 187.37Z" fill="#004F45"/>
<path fill-rule="evenodd" clip-rule="evenodd" d="M104.553 138.758C102.759 138.232 101.338 137.005 100.291 135.077C95.7767 126.767 97.4071 122.191 102.232 120.687C107.056 119.183 111.358 122.281 119.045 122.281C119.463 122.281 119.846 122.308 120.194 122.362L124.06 122.587C135.154 160.944 138.213 186.535 133.239 199.36H99.5366C97.5398 204.11 95.629 208.107 93.8042 211.35H84.621C83.7567 182.841 90.4006 158.643 104.553 138.758Z" fill="#D7D9DC"/>
<path fill-rule="evenodd" clip-rule="evenodd" d="M106.875 179.661C107.935 188.708 109.658 195.275 112.044 199.36H99.5366C101.866 193.819 104.312 187.253 106.875 179.661Z" fill="black" fill-opacity="0.1"/>
</g>
<defs>
<filter id="filter0_d" x="26.5019" y="54.7909" width="190.646" height="286.037" filterUnits="userSpaceOnUse" color-interpolation-filters="sRGB">
<feFlood flood-opacity="0" result="BackgroundImageFix"/>
<feColorMatrix in="SourceAlpha" type="matrix" values="0 0 0 0 0 0 0 0 0 0 0 0 0 0 0 0 0 0 127 0"/>
<feOffset/>
<feGaussianBlur stdDeviation="5"/>
<feColorMatrix type="matrix" values="0 0 0 0 0.736854 0 0 0 0 0.0274653 0 0 0 0 0.914201 0 0 0 0.25 0"/>
<feBlend mode="normal" in2="BackgroundImageFix" result="effect1_dropShadow"/>
<feBlend mode="normal" in="SourceGraphic" in2="effect1_dropShadow" result="shape"/>
</filter>
<linearGradient id="paint0_linear" x1="94.4373" y1="318.746" x2="92.654" y2="321.152" gradientUnits="userSpaceOnUse">
<stop stop-color="#BC95D0" stop-opacity="0"/>
<stop offset="1" stop-color="#BC95D0"/>
</linearGradient>
<linearGradient id="paint1_linear" x1="149.085" y1="316.095" x2="147.637" y2="318.912" gradientUnits="userSpaceOnUse">
<stop stop-color="#BC95D0" stop-opacity="0"/>
<stop offset="1" stop-color="#BC95D0"/>
</linearGradient>
<linearGradient id="paint2_linear" x1="124.106" y1="89.4297" x2="106.312" y2="119.087" gradientUnits="userSpaceOnUse">
<stop stop-color="#805623"/>
<stop offset="1" stop-color="#802366"/>
</linearGradient>
<clipPath id="clip0">
<rect width="11.8631" height="17.3384" fill="white" transform="translate(195.429 45.6274) rotate(15.7519)"/>
</clipPath>
<clipPath id="clip1">
<rect width="11.8631" height="17.3384" fill="white" transform="translate(118.631 76.2401) rotate(-20.4708)"/>
</clipPath>
<clipPath id="clip2">
<rect width="6.0378" height="8.80521" fill="white" transform="translate(151.483 75.3462) rotate(-22.8274)"/>
</clipPath>
<clipPath id="clip3">
<rect width="8.21943" height="13.0984" fill="white" transform="translate(91.0792 64.7909) rotate(55.3481)"/>
</clipPath>
<clipPath id="clip4">
<rect width="10.8142" height="15.4814" fill="white" transform="translate(129.641 28.5256) rotate(-8.18116)"/>
</clipPath>
<clipPath id="clip5">
<rect width="7.69904" height="11.3196" fill="white" transform="translate(107.36 50.3732) rotate(-8.18116)"/>
</clipPath>
<clipPath id="clip6">
<rect width="7.69904" height="11.3196" fill="white" transform="translate(155.234 46.4605) rotate(-33.6418)"/>
</clipPath>
<clipPath id="clip7">
<rect width="15.8151" height="23.8461" fill="white" transform="translate(61.4922 51.4901) rotate(-94.7256)"/>
</clipPath>
<clipPath id="clip8">
<rect width="10.1764" height="13.8718" fill="white" transform="translate(38.4011 59.4424) rotate(-35.6238)"/>
</clipPath>
<clipPath id="clip9">
<rect width="74.1298" height="56.6875" fill="white" transform="translate(79.3916 90.3399) rotate(-20.1606)"/>
</clipPath>
</defs>
</svg>
