<svg width="20" height="20" viewBox="0 0 20 20" fill="none" xmlns="http://www.w3.org/2000/svg">
<path d="M18.4158 1.17019C18.7128 1.17019 18.9108 1.38295 18.9108 1.7021V18.2979C18.9108 18.617 18.7128 18.8298 18.4158 18.8298H1.58413C1.2871 18.8298 1.08908 18.617 1.08908 18.2979V1.7021C1.08908 1.38295 1.2871 1.17019 1.58413 1.17019H18.4158ZM18.4158 0H1.58413C0.693043 0 0 0.744655 0 1.7021V18.2979C0 19.2553 0.693043 20 1.58413 20H18.4158C19.3068 20 20 19.2553 20 18.2979V1.7021C19.901 0.851038 19.2078 0 18.4158 0Z" fill="#BEBEBE"/>
</svg>
