<svg width="28" height="28" viewBox="0 0 28 28" fill="none" xmlns="http://www.w3.org/2000/svg">
<g clip-path="url(#clip0)">
<path d="M9.33331 7H24.5" stroke="#387800" stroke-width="2" stroke-linecap="round" stroke-linejoin="round"/>
<path d="M9.33331 14H24.5" stroke="#387800" stroke-width="2" stroke-linecap="round" stroke-linejoin="round"/>
<path d="M9.33331 21H24.5" stroke="#387800" stroke-width="2" stroke-linecap="round" stroke-linejoin="round"/>
<path d="M4.16665 6.99998C4.16665 7.36817 3.86817 7.66665 3.49998 7.66665C3.13179 7.66665 2.83331 7.36817 2.83331 6.99998C2.83331 6.63179 3.13179 6.33331 3.49998 6.33331C3.86817 6.33331 4.16665 6.63179 4.16665 6.99998Z" fill="#C4C4C4" stroke="#387800"/>
<path d="M4.16665 14C4.16665 14.3682 3.86817 14.6666 3.49998 14.6666C3.13179 14.6666 2.83331 14.3682 2.83331 14C2.83331 13.6318 3.13179 13.3333 3.49998 13.3333C3.86817 13.3333 4.16665 13.6318 4.16665 14Z" fill="#C4C4C4" stroke="#387800"/>
<path d="M4.16665 21C4.16665 21.3682 3.86817 21.6666 3.49998 21.6666C3.13179 21.6666 2.83331 21.3682 2.83331 21C2.83331 20.6318 3.13179 20.3333 3.49998 20.3333C3.86817 20.3333 4.16665 20.6318 4.16665 21Z" fill="#C4C4C4" stroke="#387800"/>
</g>
<defs>
<clipPath id="clip0">
<rect width="28" height="28" fill="white"/>
</clipPath>
</defs>
</svg>
