<svg width="126" height="280" fill="none" xmlns="http://www.w3.org/2000/svg"><path fill-rule="evenodd" clip-rule="evenodd" d="M28.456 121.37l24.884 81.653 12.054 69.44h9.451L62.108 121.37H28.456z" fill="#997659"/><path fill-rule="evenodd" clip-rule="evenodd" d="M19.51 121.37c1.69 44.832-.3 67.957-.678 72.03-.378 4.073-5.558 30.483-17.82 80.43l10.07-3.472c19.38-45.808 25.985-69.616 28.207-75.631 2.223-6.015 8.127-30.467 17.71-73.357H19.51z" fill="#B28B67"/><path fill-rule="evenodd" clip-rule="evenodd" d="M1.11 270.311C.37 272.293 0 273.776 0 274.76c0 1.197.199 2.944.596 5.24h37.296c.97-3.216.41-4.952-1.678-5.209a207.177 207.177 0 01-5.204-.694l-17.335-7.757a.66.66 0 00-.873.336l-.008.017-1.114 2.713c-1.933.905-3.504 1.358-4.713 1.358-.982 0-2.338-.398-4.068-1.194a1.32 1.32 0 00-1.79.741zM63.285 270.311c-.74 1.982-1.11 3.465-1.11 4.449 0 1.197.2 2.944.597 5.24h37.296c.969-3.216.409-4.952-1.679-5.209a207.224 207.224 0 01-5.204-.694L75.85 266.34a.66.66 0 00-.873.336l-.007.017-1.114 2.713c-1.933.905-3.504 1.358-4.713 1.358-.982 0-2.338-.398-4.068-1.194a1.32 1.32 0 00-1.79.741z" fill="#E4E4E4"/><path fill-rule="evenodd" clip-rule="evenodd" d="M25.148 121.37l10.58 41.601h32.316l-4.818-41.601H25.148z" fill="#2B5390"/><path fill-rule="evenodd" clip-rule="evenodd" d="M25.148 121.37l10.58 41.601h32.316l-4.818-41.601H25.148z" fill="#000" fill-opacity=".15"/><path fill-rule="evenodd" clip-rule="evenodd" d="M19.162 121.37c-3.482 10.474-4.143 24.341-1.984 41.601h32.977l9.068-41.601H19.162z" fill="#2B5390"/><path fill-rule="evenodd" clip-rule="evenodd" d="M35.734 32.247c-3.482-4.103-5.839-9.13-5.445-14.765C31.424 1.25 53.937 4.82 58.316 13.013c4.38 8.193 3.859 28.976-1.8 30.44-2.258.584-7.066-.847-11.96-3.807l3.072 21.812H29.49l6.244-29.211z" fill="#B28B67"/><path fill-rule="evenodd" clip-rule="evenodd" d="M59.992 16.675c-.18-1.062-.619-2.241-.973-3.246-.457-1.295-1.148-2.463-1.909-3.563a26.894 26.894 0 00-5.047-5.497C48.598 1.532 44.188-.104 39.851.428a12.511 12.511 0 00-6.125 2.502c-1.635 1.26-3.208 3.117-5.324 3.25-2.304.145-4.415-1.895-6.262-3.156-2.083-1.42-4.298-2.456-6.733-2.858C11.33-.508 7.5.875 4.688 4.233c-2.99 3.573-5.164 8.814-3.2 13.549.365.88.834 1.622 1.508 2.237.619.564 1.563 1.164 1.813 2.065.267.958-.529 2.194-.837 3.058-.442 1.238-.805 2.538-.676 3.884.212 2.21 1.596 4.32 3.057 5.773 1.487 1.478 3.318 2.326 5.273 2.717 1.305.26 2.639.404 3.965.306.659-.048 1.24-.232 1.878-.378.62-.142.967.024 1.494.365 2.445 1.587 5.075 2.201 7.899 1.965 2.383-.2 5.13-.779 7.074-2.418 2.16-1.82 2.116-4.33 1.608-7.012.538.268 2.028.433 1.138-.634-.353-.422-1.019-.595-1.471-.843-.527-.29-1.062-.664-1.47-1.136-1.652-1.907.016-5.787 2.092-6.426 3.083-.95 3.774 3.427 5.975 4.56 1.266.65 2.59-.24 3.538-1.148 1.27-1.217 2.136-2.83 2.883-4.47.616-1.352 1.19-2.722 1.817-4.067.293-.628 1.307-2.403.798-3.113 2.208-.442 4.668.48 6.57 1.688.787.5 1.386 1.05 1.806 1.931.09.19.285.751.53.774.458.043.287-.518.242-.785z" fill="url(#paint0_radial)"/><path fill-rule="evenodd" clip-rule="evenodd" d="M71.58 105.241l16.518 21.128c5.214 3.101 9.396 6.316 12.546 9.645.666 1.067 1.284 3.024-2.343 1.704s-7.502-2.545-8.368-1.419c-.865 1.126.955 3.27-.557 4.694-1.008.949-3.466-2.822-7.374-11.313L63.8 115.365l7.778-10.124zM84.284 47.002l25.845-7.062c4.88-3.614 9.464-6.23 13.749-7.848 1.24-.201 3.278-.013.651 2.826-2.627 2.84-5.263 5.944-4.566 7.181.697 1.237 3.376.388 4.094 2.337.479 1.3-3.943 2.108-13.265 2.423L90.547 58.12l-6.263-11.117z" fill="#B28B67"/><path fill-rule="evenodd" clip-rule="evenodd" d="M50.055 56.494c5.904 24.238 18.166 44.808 37.667 67.929l-11.669 7.903C51.96 115.53 39.437 105.914 37.71 84.005c-.434-5.5 2.498-21.918 3.639-30.66l8.707 3.15z" fill="#060B8D"/><path fill-rule="evenodd" clip-rule="evenodd" d="M50.055 56.494c5.904 24.238 18.166 44.808 37.667 67.929l-11.669 7.903C51.96 115.53 39.437 105.914 37.71 84.005c-.434-5.5 2.498-21.918 3.639-30.66l8.707 3.15z" fill="#000" fill-opacity=".25"/><path fill-rule="evenodd" clip-rule="evenodd" d="M15.17 129h52.114C55.48 92.865 49.45 68.063 49.194 54.596c-.013-.686-1.277-1.896-1.836-1.738-4.087 1.159-8.46.726-13.12-1.3C21.883 71.503 17.61 96.058 15.17 129z" fill="#F2F2F2"/><path fill-rule="evenodd" clip-rule="evenodd" d="M38.686 51.64c14.938.123 38.363-2.133 66.314-11.14l4 13.402C87.875 67.539 66.5 80.5 47.31 82.035c8.14 35.043 7.765 63.73-10.205 63.73H9.318c-4.413-29.769 7.186-71.044 17.939-91.863.41-.795 1.285-2.294 3.344-2.294h8.074l.01.032z" fill="#060B8D"/><defs><radialGradient id="paint0_radial" cx="0" cy="0" r="1" gradientUnits="userSpaceOnUse" gradientTransform="matrix(-44.50004 -24.99984 37.24247 -66.29208 47.5 31.5)"><stop stop-color="#930000"/><stop offset="1" stop-color="#C20"/></radialGradient></defs></svg>