<svg width="36" height="36" fill="none" xmlns="http://www.w3.org/2000/svg"><path d="M33.69 9c-1.155.525-2.4.87-3.69 1.035a6.448 6.448 0 002.82-3.57 12.961 12.961 0 01-4.08 1.575C27.555 6.75 25.89 6 24 6c-3.525 0-6.405 2.88-6.405 6.435 0 .51.06 1.005.165 1.47A18.291 18.291 0 014.5 7.185a6.366 6.366 0 00-.87 3.225c0 2.235 1.125 4.215 2.865 5.34-1.065 0-2.055-.3-2.925-.75v.045a6.44 6.44 0 005.16 6.315 6.331 6.331 0 01-2.895.105c.81 2.535 3.165 4.425 6 4.47-2.19 1.74-4.965 2.76-7.995 2.76-.51 0-1.02-.03-1.53-.09a18.217 18.217 0 009.87 2.895c11.82 0 18.315-9.81 18.315-18.315 0-.285 0-.555-.015-.84 1.26-.9 2.34-2.04 3.21-3.345z" fill="#fff"/></svg>