<svg width="36" height="36" fill="none" xmlns="http://www.w3.org/2000/svg"><path d="M31.2 11.61c.195-.63 0-1.11-.93-1.11h-3.03c-.78 0-1.125.405-1.32.855 0 0-1.545 3.765-3.735 6.225-.72.705-1.035.93-1.425.93-.195 0-.51-.225-.51-.87v-6.03c0-.765-.18-1.11-.825-1.11H14.64c-.48 0-.765.36-.765.705 0 .72 1.125.9 1.2 2.955v4.47c0 .99-.18 1.17-.555 1.17-1.02 0-3.54-3.795-5.025-8.115-.3-.84-.585-1.185-1.365-1.185H5.085c-.855 0-1.035.405-1.035.855 0 .81 1.035 4.8 4.8 10.08C11.355 25.05 14.895 27 18.12 27c1.935 0 2.175-.435 2.175-1.185v-2.73c0-.855.18-1.035.795-1.035.45 0 1.215.225 3.015 1.95 2.07 2.07 2.4 3 3.57 3h3.03c.87 0 1.305-.435 1.065-1.29-.27-.855-1.26-2.1-2.565-3.57-.705-.825-1.77-1.725-2.1-2.19-.45-.57-.315-.825 0-1.35 0 0 3.705-5.205 4.095-6.99z" fill="#fff"/></svg>