<svg width="500" height="328" viewBox="0 0 500 328" fill="none" xmlns="http://www.w3.org/2000/svg">
<path d="M121.363 51.5228C123.016 48.0253 126.537 45.7944 130.405 45.7944H484.216C491.553 45.7944 496.392 53.4324 493.258 60.0661L378.637 302.683C376.984 306.18 373.463 308.411 369.595 308.411H15.7842C8.44746 308.411 3.60845 300.773 6.74243 294.14L121.363 51.5228Z" fill="#619848" fill-opacity="0.1"/>
<path d="M107.477 37.3833L121.963 57.0095" stroke="#E3E3E3" stroke-linecap="round" stroke-linejoin="round"/>
<path d="M107.477 37.3833L128.972 46.2618" stroke="#E3E3E3" stroke-linecap="round" stroke-linejoin="round"/>
<path d="M107.477 46.7291C109.379 45.0238 110.515 44.5722 112.617 44.3927C113.375 42.5848 113.921 41.6977 115.421 40.6543C115.269 38.6662 115.532 37.8909 116.355 36.4487" stroke="#E3E3E3" stroke-linecap="round" stroke-linejoin="round"/>
<path d="M107.477 52.3366C110.581 49.8445 112.409 49.005 115.888 48.5983C117.009 45.9366 117.839 44.626 120.094 42.9908C119.935 40.2467 120.051 38.7656 121.495 36.4487" stroke="#E3E3E3" stroke-linecap="round" stroke-linejoin="round"/>
<path d="M107.477 57.9441C111.394 54.8997 113.752 53.7921 118.224 52.8039C119.891 49.094 121.048 47.1473 124.299 44.3927C124.14 41.0532 124.298 39.2619 125.701 36.4487" stroke="#E3E3E3" stroke-linecap="round" stroke-linejoin="round"/>
<circle cx="110.748" cy="43.458" r="0.46729" fill="#4D4D4D"/>
<circle cx="121.028" cy="42.5234" r="0.46729" fill="#2B2B2B"/>
<path fill-rule="evenodd" clip-rule="evenodd" d="M105.607 19.626H213.084C221.343 19.626 228.037 26.3208 228.037 34.5792V307.476C228.037 315.735 221.343 322.43 213.084 322.43H105.607C97.349 322.43 90.6542 315.735 90.6542 307.476V34.5792C90.6542 26.3208 97.349 19.626 105.607 19.626ZM111.215 36.4484C109.15 36.4484 107.477 38.1221 107.477 40.1867V301.869C107.477 303.934 109.15 305.607 111.215 305.607H207.477C209.541 305.607 211.215 303.934 211.215 301.869C211.215 301.869 211.215 42.2513 211.215 40.1867C211.215 38.1221 209.541 36.4484 207.477 36.4484H111.215Z" fill="#C5CFD6"/>
<path fill-rule="evenodd" clip-rule="evenodd" d="M105.607 120.561H213.084C221.342 120.561 228.037 122.813 228.037 125.591V217.399C228.037 220.177 221.342 222.43 213.084 222.43H105.607C97.3489 222.43 90.6541 220.177 90.6541 217.399V125.591C90.6541 122.813 97.3489 120.561 105.607 120.561ZM111.215 126.22C109.15 126.22 107.476 126.783 107.476 127.478V215.513C107.476 216.207 109.15 216.77 111.215 216.77H207.476C209.541 216.77 211.215 216.207 211.215 215.513C211.215 215.513 211.215 128.172 211.215 127.478C211.215 126.783 209.541 126.22 207.476 126.22H111.215Z" fill="#C5CFD6"/>
<rect x="197.332" y="90.0156" width="14.0187" height="27.1028" transform="rotate(18.4888 197.332 90.0156)" fill="#C4C4C4"/>
<rect x="196.149" y="90.6055" width="15.8879" height="25.2336" rx="1" transform="rotate(18.4888 196.149 90.6055)" fill="#FF8888"/>
<path d="M191.704 103.901L210.328 98.303L207.957 105.394L189.333 110.991L191.704 103.901Z" fill="#EBEBEB"/>
<path fill-rule="evenodd" clip-rule="evenodd" d="M378.068 114.019L345.244 221.329L329.343 312.59H316.876L333.678 114.019H378.068Z" fill="#997659"/>
<path fill-rule="evenodd" clip-rule="evenodd" d="M378.068 114.019L345.244 221.329L333.146 301.121L317.445 299.813L333.678 114.019H378.068Z" fill="#4D564F"/>
<path fill-rule="evenodd" clip-rule="evenodd" d="M378.068 114.019L345.244 221.329L333.146 301.121L317.445 299.813L333.678 114.019H378.068Z" fill="black" fill-opacity="0.12"/>
<path fill-rule="evenodd" clip-rule="evenodd" d="M389.811 114.019C387.582 172.938 390.206 203.33 390.705 208.683C391.204 214.036 398.037 248.745 414.212 314.387L400.927 309.825C375.363 249.621 366.651 218.333 363.719 210.427C360.787 202.522 353 170.386 340.357 114.019H389.811Z" fill="#B28B67"/>
<path fill-rule="evenodd" clip-rule="evenodd" d="M389.844 114.019C387.615 172.938 390.218 203.307 390.717 208.66C391.215 214.013 394.603 228.065 410.779 293.707L395.078 297.632C369.513 237.429 366.271 218.333 363.339 210.427C360.407 202.522 352.619 170.386 339.977 114.019H389.844Z" fill="#4D564F"/>
<path fill-rule="evenodd" clip-rule="evenodd" d="M414.113 309.759C415.088 312.364 415.576 314.313 415.576 315.606C415.576 317.179 415.314 319.474 414.79 322.492C412.965 322.492 396.566 322.492 365.592 322.492C364.314 318.265 365.052 315.984 367.806 315.647C370.561 315.31 372.849 315.005 374.671 314.734L397.538 304.54C397.978 304.344 398.493 304.541 398.69 304.981C398.693 304.989 398.696 304.996 398.699 305.004L400.169 308.569C402.719 309.759 404.791 310.354 406.385 310.354C407.681 310.354 409.47 309.831 411.752 308.785L411.752 308.785C412.628 308.383 413.663 308.768 414.065 309.644C414.082 309.681 414.098 309.72 414.113 309.759Z" fill="#E4E4E4"/>
<path fill-rule="evenodd" clip-rule="evenodd" d="M332.119 309.759C333.095 312.364 333.583 314.313 333.583 315.606C333.583 317.179 333.32 319.474 332.796 322.492C330.972 322.492 314.572 322.492 283.599 322.492C282.32 318.265 283.058 315.984 285.813 315.647C288.567 315.31 290.855 315.005 292.677 314.734L315.544 304.54C315.984 304.344 316.5 304.541 316.696 304.981C316.699 304.989 316.702 304.996 316.705 305.004L318.175 308.569C320.725 309.759 322.797 310.354 324.392 310.354C325.687 310.354 327.476 309.831 329.758 308.785L329.758 308.785C330.634 308.383 331.669 308.768 332.071 309.644C332.088 309.681 332.104 309.72 332.119 309.759Z" fill="#E4E4E4"/>
<g clip-path="url(#clip0)">
<path fill-rule="evenodd" clip-rule="evenodd" d="M361.887 45.0045C365.053 41.2877 367.196 36.7326 366.838 31.6286C365.807 16.9224 345.335 20.1575 341.353 27.58C337.371 35.0024 337.844 53.83 342.99 55.1566C345.043 55.6857 349.415 54.3897 353.865 51.7075L351.072 71.4681H367.565L361.887 45.0045Z" fill="#B28B67"/>
<path fill-rule="evenodd" clip-rule="evenodd" d="M374.029 26.7331C374.561 26.2052 374.852 25.4518 375.103 24.7363C375.364 23.9931 375.618 23.2422 375.791 22.4687C376.138 20.923 376.141 19.1455 375.038 17.9453C374.154 16.9829 372.827 16.5512 371.602 16.4574C370.787 16.3948 369.949 16.509 369.167 16.7662C368.391 17.0212 367.722 17.5295 366.97 17.845C366.941 16.1794 366.655 14.4365 365.81 13.0143C364.997 11.6459 363.701 10.878 362.224 10.6749C360.709 10.4664 359.213 10.821 357.856 11.5546C357.516 11.7384 357.18 11.9308 356.858 12.1487C356.588 12.3311 356.308 12.5508 355.991 12.625C355.639 12.7078 355.464 12.5041 355.235 12.2468C354.966 11.9451 354.663 11.6794 354.343 11.4438C352.926 10.4024 351.067 9.97424 349.426 10.5985C348.669 10.8861 347.934 11.3745 347.421 12.0476C346.963 12.6475 346.637 13.5992 346.006 14.0172C345.738 14.1947 345.549 13.9596 345.305 13.7858C344.939 13.5248 344.589 13.2367 344.218 12.9827C343.698 12.6259 343.134 12.359 342.53 12.2193C341.646 12.0148 340.424 12.0627 340.172 13.2205C340.077 13.6554 340.149 14.1206 340.18 14.5587C340.222 15.1604 340.266 15.7619 340.318 16.3626C340.358 16.8188 340.408 17.2594 340.494 17.7073C340.54 17.9461 340.684 18.3913 340.581 18.6304C340.453 18.9293 339.863 18.7593 339.611 18.7697C339.112 18.7903 338.612 18.8777 338.151 19.0906C337.794 19.2557 337.418 19.4985 337.268 19.9078C337.175 20.1592 337.199 20.4175 337.243 20.6762C337.296 20.9866 337.236 21.1513 337.197 21.4645C336.527 21.1349 334.208 20.4026 333.916 21.6022C333.819 22.0016 334.04 22.4529 334.209 22.7897C334.505 23.3805 334.893 23.9205 335.29 24.4355C336.118 25.5098 337.106 26.4364 338.169 27.2288C336.923 27.7826 336.598 29.4161 337.677 30.3894C338.153 30.8191 338.793 30.9147 339.394 30.8873C339.614 30.8772 339.931 30.7927 340.104 30.831C340.197 30.8516 340.297 30.9305 340.426 30.9393C341.273 30.9973 342.23 30.7931 343.059 30.605C344.536 30.2698 345.934 29.5702 347.075 28.5047C347.368 28.2314 347.61 28.0741 348.004 28.0781C348.35 28.0816 348.688 28.1763 349.034 28.185C349.947 28.2084 350.77 27.762 351.618 27.4649C351.67 28.6103 351.996 29.8718 352.464 30.9023C352.847 31.7426 353.644 31.8647 354.429 31.9384C356.936 32.1744 359.452 31.9111 361.962 31.9146C359.532 32.4639 357.021 32.6903 354.612 33.3367C353.524 33.6288 354.355 34.3626 354.821 34.8712C355.587 35.7089 356.157 36.7467 356.552 37.8401C357.741 36.2905 359.842 35.2695 361.704 35.7455C363.761 36.2714 365.209 39.053 363.894 41.0528C363.13 42.2137 361.751 42.6618 360.604 43.1606C361.499 44.0912 361.716 45.4657 362.254 46.6235C362.52 47.1945 362.893 47.8401 363.487 48.0391C363.707 48.1127 363.965 48.119 364.138 48.2982C364.353 48.5201 364.404 48.7682 364.679 48.9589C365.774 49.7201 367.484 49.6614 368.454 48.6681C369.332 47.7697 369.104 46.3481 368.371 45.4373C369.537 44.951 371.663 44.3255 371.199 42.5078C373.727 42.34 379.866 38.2398 376.472 35.2437C378.335 34.1913 380.045 31.6193 378.849 29.352C377.928 27.6061 375.786 26.8257 374.029 26.7331Z" fill="#581101"/>
</g>
<g clip-path="url(#clip1)">
<path fill-rule="evenodd" clip-rule="evenodd" d="M302.658 122.151L273.556 109.371C268.458 104.291 263.535 100.43 258.787 97.7875C257.368 97.3355 254.942 97.199 257.53 100.979C260.118 104.758 262.67 108.85 261.636 110.175C260.602 111.499 257.606 110.037 256.423 112.192C255.634 113.628 260.683 115.345 271.57 117.345L293.365 134.056L302.658 122.151ZM420.313 125.671L403.855 128.937C420.406 159.782 429.283 176.13 430.484 177.981C433.186 182.145 430.665 189.777 429.733 193.796C435.576 195.156 433.272 186.362 440.666 188.198C447.415 189.874 453.137 194.175 459.43 188.374C460.204 187.661 460.77 185.432 458.132 184.289C451.56 181.44 441.851 176.107 440.276 174.036C438.129 171.212 431.475 155.091 420.313 125.671Z" fill="#B28B67"/>
<path fill-rule="evenodd" clip-rule="evenodd" d="M359.123 64.0952L352.178 62.904C337.052 77.5777 330.879 112.831 320.798 117.497C311.267 121.909 297.756 117.64 281.696 111.875L276.777 122.864C291.369 138.651 322.456 151.988 335.057 144.374C355.203 132.201 359.854 88.7212 359.123 64.0952Z" fill="#8AA0A1"/>
<path fill-rule="evenodd" clip-rule="evenodd" d="M359.123 64.0952L352.178 62.904C337.052 77.5777 330.879 112.831 320.798 117.497C311.267 121.909 297.756 117.64 281.696 111.875L276.777 122.864C291.369 138.651 322.456 151.988 335.057 144.374C355.203 132.201 359.854 88.7212 359.123 64.0952Z" fill="black" fill-opacity="0.12"/>
<path fill-rule="evenodd" clip-rule="evenodd" d="M389.398 151.373C361.552 151.373 341.068 151.373 327.948 151.373C325.14 151.373 325.669 147.318 326.075 145.272C330.76 121.659 349.047 96.2051 349.047 62.5925L366.772 59.813C381.433 83.3923 386.503 112.423 389.398 151.373Z" fill="#DDE3E9"/>
<path fill-rule="evenodd" clip-rule="evenodd" d="M395.527 127.465C408.055 150.062 418.584 166.33 427.117 176.27L439.997 173.747C431.7 122.291 407.673 84.3127 367.916 59.813L367.713 59.813L360.897 59.813C344.985 114.056 340.598 150.198 347.737 168.239H403.052C402.177 155.038 399.371 141.077 395.527 127.465H395.527Z" fill="#8AA0A1"/>
</g>
<path d="M114.324 17.008H111.961L111.383 20H109.564L110.142 17.008H108.782V15.393H110.448L110.941 12.826H108.782V11.228H111.247L111.825 8.219H113.644L113.066 11.228H115.429L116.007 8.219H117.826L117.248 11.228H118.625V12.826H116.942L116.449 15.393H118.625V17.008H116.143L115.565 20H113.746L114.324 17.008ZM112.267 15.393H114.63L115.123 12.826H112.76L112.267 15.393ZM123.672 18.402C124.443 18.402 125.004 18.2717 125.355 18.011C125.707 17.7503 125.882 17.382 125.882 16.906C125.882 16.6227 125.82 16.379 125.695 16.175C125.582 15.971 125.412 15.7897 125.185 15.631C124.97 15.461 124.704 15.308 124.386 15.172C124.069 15.0247 123.706 14.883 123.298 14.747C122.89 14.5997 122.494 14.441 122.108 14.271C121.734 14.0897 121.4 13.8687 121.105 13.608C120.822 13.3473 120.59 13.0357 120.408 12.673C120.238 12.3103 120.153 11.874 120.153 11.364C120.153 10.2987 120.522 9.46567 121.258 8.865C121.995 8.253 122.998 7.947 124.267 7.947C125.004 7.947 125.656 8.032 126.222 8.202C126.8 8.36067 127.254 8.53633 127.582 8.729L126.919 10.463C126.534 10.2477 126.109 10.0833 125.644 9.97C125.191 9.85667 124.721 9.8 124.233 9.8C123.655 9.8 123.202 9.919 122.873 10.157C122.556 10.395 122.397 10.7293 122.397 11.16C122.397 11.4207 122.448 11.6473 122.55 11.84C122.664 12.0213 122.817 12.1857 123.009 12.333C123.213 12.4803 123.446 12.6163 123.706 12.741C123.978 12.8657 124.273 12.9847 124.59 13.098C125.146 13.302 125.639 13.5117 126.069 13.727C126.511 13.931 126.88 14.1803 127.174 14.475C127.48 14.7583 127.713 15.0983 127.871 15.495C128.03 15.8803 128.109 16.3507 128.109 16.906C128.109 17.9713 127.73 18.7987 126.97 19.388C126.222 19.966 125.123 20.255 123.672 20.255C123.185 20.255 122.737 20.221 122.329 20.153C121.933 20.0963 121.576 20.0227 121.258 19.932C120.952 19.8413 120.686 19.7507 120.459 19.66C120.233 19.558 120.051 19.4673 119.915 19.388L120.544 17.637C120.85 17.807 121.264 17.977 121.785 18.147C122.307 18.317 122.936 18.402 123.672 18.402ZM138.208 8.219V10.072H134.587V20H132.428V10.072H128.807V8.219H138.208ZM141.178 14.101C141.178 14.747 141.257 15.3363 141.416 15.869C141.574 16.3903 141.801 16.838 142.096 17.212C142.402 17.5747 142.77 17.858 143.201 18.062C143.631 18.266 144.119 18.368 144.663 18.368C145.195 18.368 145.677 18.266 146.108 18.062C146.538 17.858 146.901 17.5747 147.196 17.212C147.502 16.838 147.734 16.3903 147.893 15.869C148.051 15.3363 148.131 14.747 148.131 14.101C148.131 13.455 148.051 12.8713 147.893 12.35C147.734 11.8173 147.502 11.3697 147.196 11.007C146.901 10.633 146.538 10.344 146.108 10.14C145.677 9.936 145.195 9.834 144.663 9.834C144.119 9.834 143.631 9.936 143.201 10.14C142.77 10.344 142.402 10.633 142.096 11.007C141.801 11.381 141.574 11.8287 141.416 12.35C141.257 12.8713 141.178 13.455 141.178 14.101ZM150.375 14.101C150.375 15.1097 150.222 15.9993 149.916 16.77C149.621 17.5407 149.213 18.1867 148.692 18.708C148.182 19.218 147.581 19.6033 146.89 19.864C146.198 20.1247 145.462 20.255 144.68 20.255C143.898 20.255 143.155 20.1247 142.453 19.864C141.761 19.6033 141.155 19.218 140.634 18.708C140.124 18.1867 139.716 17.5407 139.41 16.77C139.104 15.9993 138.951 15.1097 138.951 14.101C138.951 13.0923 139.104 12.2083 139.41 11.449C139.716 10.6783 140.129 10.0323 140.651 9.511C141.183 8.98967 141.795 8.59867 142.487 8.338C143.178 8.07733 143.909 7.947 144.68 7.947C145.45 7.947 146.181 8.07733 146.873 8.338C147.564 8.59867 148.165 8.98967 148.675 9.511C149.196 10.0323 149.61 10.6783 149.916 11.449C150.222 12.2083 150.375 13.0923 150.375 14.101ZM157.96 20.255C157.076 20.255 156.283 20.119 155.58 19.847C154.878 19.575 154.283 19.1783 153.795 18.657C153.308 18.1243 152.934 17.4783 152.673 16.719C152.413 15.9597 152.282 15.087 152.282 14.101C152.282 13.115 152.43 12.2423 152.724 11.483C153.03 10.7237 153.444 10.0833 153.965 9.562C154.487 9.02933 155.099 8.627 155.801 8.355C156.504 8.083 157.258 7.947 158.062 7.947C158.55 7.947 158.992 7.98667 159.388 8.066C159.785 8.134 160.131 8.21333 160.425 8.304C160.72 8.39467 160.964 8.491 161.156 8.593C161.349 8.695 161.485 8.76867 161.564 8.814L160.935 10.565C160.663 10.395 160.272 10.2363 159.762 10.089C159.264 9.93033 158.72 9.851 158.13 9.851C157.62 9.851 157.144 9.94167 156.702 10.123C156.26 10.293 155.875 10.5537 155.546 10.905C155.229 11.2563 154.98 11.6983 154.798 12.231C154.617 12.7637 154.526 13.3813 154.526 14.084C154.526 14.7073 154.594 15.2797 154.73 15.801C154.878 16.3223 155.099 16.7757 155.393 17.161C155.688 17.535 156.062 17.8297 156.515 18.045C156.969 18.249 157.513 18.351 158.147 18.351C158.907 18.351 159.524 18.2773 160 18.13C160.476 17.9713 160.845 17.824 161.105 17.688L161.683 19.439C161.547 19.5297 161.36 19.6203 161.122 19.711C160.896 19.8017 160.624 19.8923 160.306 19.983C159.989 20.0623 159.632 20.1247 159.235 20.17C158.839 20.2267 158.414 20.255 157.96 20.255ZM170.603 20C170.309 19.5467 169.969 19.0707 169.583 18.572C169.198 18.0733 168.79 17.5917 168.359 17.127C167.94 16.6623 167.504 16.2203 167.05 15.801C166.597 15.3817 166.149 15.019 165.707 14.713V20H163.565V8.219H165.707V13.081C166.081 12.707 166.472 12.3103 166.88 11.891C167.288 11.4603 167.691 11.0297 168.087 10.599C168.495 10.157 168.881 9.732 169.243 9.324C169.606 8.916 169.935 8.54767 170.229 8.219H172.796C172.422 8.64967 172.026 9.09733 171.606 9.562C171.187 10.0267 170.756 10.497 170.314 10.973C169.872 11.4377 169.425 11.9023 168.971 12.367C168.529 12.8317 168.093 13.2737 167.662 13.693C168.138 14.0557 168.62 14.4807 169.107 14.968C169.606 15.444 170.093 15.9597 170.569 16.515C171.045 17.059 171.499 17.6313 171.929 18.232C172.371 18.8213 172.774 19.4107 173.136 20H170.603ZM181.405 11.279C181.405 11.687 181.32 12.0893 181.15 12.486C180.98 12.8713 180.759 13.251 180.487 13.625C180.226 13.9877 179.926 14.3447 179.586 14.696C179.246 15.036 178.906 15.3703 178.566 15.699C178.384 15.869 178.18 16.073 177.954 16.311C177.727 16.549 177.512 16.787 177.308 17.025C177.104 17.263 176.928 17.4953 176.781 17.722C176.633 17.9373 176.554 18.1187 176.543 18.266H181.779V20H174.282C174.27 19.9093 174.265 19.8017 174.265 19.677C174.265 19.541 174.265 19.439 174.265 19.371C174.265 18.827 174.35 18.3283 174.52 17.875C174.701 17.4103 174.933 16.9797 175.217 16.583C175.5 16.1863 175.817 15.8123 176.169 15.461C176.52 15.1097 176.871 14.764 177.223 14.424C177.495 14.1633 177.755 13.9083 178.005 13.659C178.254 13.4097 178.469 13.166 178.651 12.928C178.843 12.6787 178.996 12.4293 179.11 12.18C179.223 11.9193 179.28 11.653 179.28 11.381C179.28 10.7917 179.11 10.3723 178.77 10.123C178.43 9.87367 178.016 9.749 177.529 9.749C177.211 9.749 176.917 9.79433 176.645 9.885C176.373 9.97567 176.129 10.0833 175.914 10.208C175.71 10.3327 175.528 10.463 175.37 10.599C175.211 10.7237 175.092 10.8257 175.013 10.905L173.993 9.46C174.469 9.00667 175.024 8.644 175.659 8.372C176.305 8.08867 176.996 7.947 177.733 7.947C178.991 7.947 179.914 8.24733 180.504 8.848C181.104 9.43733 181.405 10.2477 181.405 11.279ZM191.815 14.101C191.815 16.0843 191.452 17.6087 190.727 18.674C190.001 19.728 188.998 20.255 187.718 20.255C186.437 20.255 185.434 19.728 184.709 18.674C183.983 17.6087 183.621 16.0843 183.621 14.101C183.621 13.115 183.711 12.2423 183.893 11.483C184.085 10.7123 184.357 10.0663 184.709 9.545C185.071 9.02367 185.502 8.627 186.001 8.355C186.511 8.083 187.083 7.947 187.718 7.947C188.998 7.947 190.001 8.47967 190.727 9.545C191.452 10.599 191.815 12.1177 191.815 14.101ZM189.69 14.101C189.69 13.489 189.656 12.9167 189.588 12.384C189.52 11.8513 189.406 11.3923 189.248 11.007C189.1 10.6103 188.902 10.2987 188.653 10.072C188.403 9.84533 188.092 9.732 187.718 9.732C187.344 9.732 187.026 9.84533 186.766 10.072C186.516 10.2987 186.312 10.6103 186.154 11.007C186.006 11.3923 185.899 11.8513 185.831 12.384C185.774 12.9167 185.746 13.489 185.746 14.101C185.746 14.713 185.774 15.2853 185.831 15.818C185.899 16.3507 186.006 16.8153 186.154 17.212C186.312 17.5973 186.516 17.9033 186.766 18.13C187.026 18.3567 187.344 18.47 187.718 18.47C188.092 18.47 188.403 18.3567 188.653 18.13C188.902 17.9033 189.1 17.5973 189.248 17.212C189.406 16.8153 189.52 16.3507 189.588 15.818C189.656 15.2853 189.69 14.713 189.69 14.101ZM194.082 10.667C194.739 10.4063 195.396 10.072 196.054 9.664C196.722 9.256 197.312 8.77433 197.822 8.219H199.267V20H197.21V10.973C196.904 11.211 196.518 11.4433 196.054 11.67C195.589 11.8967 195.141 12.0837 194.711 12.231L194.082 10.667ZM207.008 14.271C206.679 14.271 206.362 14.2993 206.056 14.356C205.75 14.4127 205.472 14.4977 205.223 14.611C205.212 14.7017 205.2 14.8037 205.189 14.917C205.189 15.019 205.189 15.121 205.189 15.223C205.189 15.6763 205.217 16.107 205.274 16.515C205.342 16.9117 205.45 17.263 205.597 17.569C205.756 17.8637 205.965 18.1017 206.226 18.283C206.498 18.453 206.832 18.538 207.229 18.538C207.558 18.538 207.835 18.47 208.062 18.334C208.3 18.198 208.493 18.0223 208.64 17.807C208.787 17.5917 208.895 17.3593 208.963 17.11C209.031 16.8493 209.065 16.6 209.065 16.362C209.065 15.682 208.901 15.1663 208.572 14.815C208.243 14.4523 207.722 14.271 207.008 14.271ZM207.263 12.639C207.966 12.639 208.561 12.741 209.048 12.945C209.547 13.1377 209.949 13.404 210.255 13.744C210.561 14.084 210.782 14.4807 210.918 14.934C211.065 15.376 211.139 15.8407 211.139 16.328C211.139 16.77 211.06 17.2233 210.901 17.688C210.754 18.1527 210.516 18.5777 210.187 18.963C209.87 19.337 209.467 19.6487 208.98 19.898C208.493 20.136 207.915 20.255 207.246 20.255C205.897 20.255 204.866 19.813 204.152 18.929C203.449 18.0337 203.098 16.804 203.098 15.24C203.098 14.1067 203.262 13.1037 203.591 12.231C203.931 11.347 204.407 10.6047 205.019 10.004C205.642 9.40333 206.39 8.95 207.263 8.644C208.147 8.32667 209.139 8.16233 210.238 8.151L210.357 9.851C209.745 9.86233 209.173 9.93033 208.64 10.055C208.107 10.1683 207.631 10.3497 207.212 10.599C206.793 10.8483 206.43 11.1713 206.124 11.568C205.829 11.9647 205.603 12.452 205.444 13.03C205.999 12.7693 206.606 12.639 207.263 12.639Z" fill="#2E1F6B"/>
<defs>
<clipPath id="clip0">
<rect width="93.4579" height="71.4678" fill="white" transform="matrix(-1 0 0 1 404.673 0)"/>
</clipPath>
<clipPath id="clip1">
<rect width="205.607" height="150.19" fill="white" transform="matrix(-1 0 0 1 461.682 59.813)"/>
</clipPath>
</defs>
</svg>
